<?xml version="1.0" encoding="UTF-8"?><svg id="Layer_2" xmlns="http://www.w3.org/2000/svg" viewBox="0 0 228.06 61.15"><g id="Layer_1-2"><g><path d="M208.54,10.08c.06-.06,.05-.12-.02-.14-.08-.02-.15,.02-.17,.09-.02,.08-.01,.13,.02,.14,.03,0,.1-.03,.17-.09Z" style="fill:#65a8df;"/><path d="M209.17,59.42c-.15,.07-.86,.29-1.57,.48-.71,.19-1.3,.39-1.32,.45q-.04,.15,.33,.04c2.3-.7,2.77-.86,2.8-.98,.02-.07-.08-.07-.24,0Z" style="fill:#1c43df;"/><g><path d="M20.71,53.67c-6.69,0-11.82-1.65-15.37-4.94-3.56-3.3-5.34-8.15-5.34-14.58v-14.54C0,13.12,1.79,8.23,5.38,4.94,8.96,1.65,14.09,0,20.79,0c4.48,0,8.35,.74,11.62,2.22,3.27,1.48,5.69,3.57,7.27,6.28,1.58,2.72,2.11,5.97,1.58,9.76-.05,.26-.15,.51-.28,.75-.13,.24-.36,.36-.67,.36h-7.67c-.63,0-.92-.34-.87-1.03,.11-3.16-.75-5.64-2.57-7.43-1.82-1.79-4.6-2.69-8.34-2.69s-6.44,.96-8.42,2.89c-1.98,1.92-2.96,4.81-2.96,8.66v14.15c0,3.85,.99,6.73,2.96,8.65s4.78,2.89,8.42,2.89,6.63-.93,8.5-2.81c1.87-1.87,2.67-4.31,2.41-7.31-.05-.69,.24-1.03,.87-1.03h7.59c.58,0,.92,.37,1.03,1.1,.37,3.69-.25,6.9-1.86,9.64s-4,4.86-7.19,6.36c-3.19,1.5-7.02,2.25-11.5,2.25Z" style="fill:#fff;"/><path d="M62.89,52.72c-.58,0-.87-.32-.87-.95V9.33h-13.67c-.63,0-.95-.32-.95-.95V1.9c0-.64,.32-.95,.95-.95h36.75c.63,0,.95,.32,.95,.95v6.48c0,.63-.32,.95-.95,.95h-13.67V51.77c0,.63-.29,.95-.87,.95h-7.67Z" style="fill:#fff;"/><path d="M98.14,52.72c-.58,0-.87-.32-.87-.95V1.9c0-.64,.29-.95,.87-.95h7.67c.63,0,.95,.32,.95,.95V51.77c0,.63-.32,.95-.95,.95h-7.67Z" style="fill:#fff;"/></g><g><path d="M223.11,8.79c-.07-.03,.13-.18,.45-.34,.32-.16,.62-.39,.66-.51s.35-.35,.66-.51c.32-.16,.49-.32,.39-.36-.11-.04-.3-.16-.43-.28-.28-.24-1.47,.19-1.41,.52,.02,.11-.15,.26-.36,.34-.45,.15-.69,.65-.38,.77,.14,.05,.09,.17-.17,.4-.42,.37-.17,.55,.35,.25,.19-.11,.3-.23,.23-.26Zm1.08-1.49c.27-.12,.29-.09,.08,.16-.15,.17-.3,.24-.35,.16-.04-.09,.07-.23,.27-.31Z" style="fill:#65a8df;"/><path d="M226.94,6.19c-.15,.03-.26,.08-.28,.14-.02,.05,.05,.12,.17,.17,.12,.04,.24-.02,.28-.14,.05-.12-.03-.19-.17-.17Z" style="fill:#65a8df;"/><path d="M223.63,9.12c1-.73,1.86-1.5,1.71-1.55-.16-.05-1.74,1.08-2.15,1.55-.38,.43-.14,.43,.44,0Z" style="fill:#65a8df;"/><path d="M226.22,6.7c-.3,.1-.31,.03-.09-.34,.18-.3,.46-.45,.79-.41,.66,.07,1.38-.31,1.06-.57-.11-.09-.17-.29-.11-.44,.1-.26-.85-.93-1.45-1.02-.97-.16-2.25-.13-2.32,.06-.05,.13-.13,.09-.21-.1-.14-.3-3.55-1.5-4.24-1.49-.19,0-.72-.11-1.17-.26-.88-.28-2.06-.32-2.16-.06-.13,.34,.49,1.15,.88,1.15,.34,0,.35,.04,.06,.21-.29,.17-.33,.33-.21,.83,.08,.33,.19,.69,.23,.77,0,0,.17,.52,.38,1.27-.17-.1-.21-.07-.24,.27-.02,.25-.08,.4-.16,.38-.08-.02-.09-.07-.03-.13,.05-.05,.04-.18-.03-.28-.11-.15-.14-.12-.16,.15-.02,.2-.09,.32-.18,.29-.08-.02-.09-.09-.03-.15,.06-.06,0-.14-.14-.18-.14-.04-.32,.03-.4,.15-.09,.14-.26,.19-.45,.13-.16-.05-.42-.02-.56,.06-.15,.08-.33,.13-.41,.11-.08-.02-.05,.05,.07,.15,.19,.16,.19,.18,0,.13-.14-.03-.21,.02-.2,.16,.01,.15-.07,.19-.32,.13q-.54-.13-1.27,.13c-.46,.16-.69,.32-.71,.48-.01,.13-.03,.16-.03,.07,0-.1-.03-.18-.07-.19-.15-.04-2.32,1.04-2.42,1.21-.09,.17-.07,.18,.14,.08,.14-.06,.23-.05,.21,.02-.05,.18-.41,.18-.51,0-.05-.09-.27-.04-.56,.13-.27,.16-.43,.29-.38,.3,.05,.02,0,.12-.13,.25-.14,.14-.28,.18-.39,.1-.21-.16-1.92,.72-1.89,.98,0,.1-.05,.12-.14,.05-.15-.11-.27,.01-.31,.3,0,.06-.09,.08-.19,.06-.1-.03-.41,.11-.72,.31-.29,.2-.89,.59-1.31,.87-.83,.54-1.15,.85-.67,.66,.28-.11,.28-.11,.06,.05-.13,.1-.27,.13-.32,.08-.1-.11-.52,.18-.61,.43-.2,.57-.24,.64-.34,.53-.08-.09-.06-.17,.09-.26,.12-.08,.18-.17,.16-.22-.07-.13-.78,.46-.85,.7-.03,.11-.13,.18-.22,.16-.22-.06-.63,.34-.57,.55,.03,.09,0,.11-.07,.04-.2-.22-3.32,2.62-5.46,4.96-1.28,1.4-2.71,3.14-2.77,3.37-.02,.08-.28,.43-.56,.77-.29,.34-.5,.69-.47,.78,.03,.09-.01,.19-.09,.21-.08,.03-.25,.19-.4,.37-.21,.25-.25,.36-.16,.56,.09,.21,.08,.23-.08,.11-.15-.11-.24-.05-.42,.3-.13,.24-.27,.52-.3,.62-.04,.1-.18,.32-.31,.49-.13,.17-.23,.4-.22,.52,0,.11-.04,.19-.1,.18-.07-.02-.15,.03-.18,.12-.04,.09-.14,.32-.23,.54-.09,.22-.22,.44-.28,.5-.07,.06-.06,.13,.02,.15,.09,.02,.04,.12-.14,.26-.15,.12-.32,.39-.38,.61-.06,.22-.18,.45-.28,.54-.11,.09-.13,.2-.05,.28,.09,.1,.07,.17-.1,.29-.12,.09-.23,.3-.25,.49-.02,.19-.09,.35-.16,.37-.07,.02-.19,.27-.27,.53-.12,.44-.1,.51,.2,.64l.33,.15-.34-.08c-.22-.05-.39,0-.47,.16-.07,.13-.07,.25,.01,.28,.1,.03,.09,.06-.05,.1-.24,.07-.8,2.12-1.19,3.99h1.37s0-.04,0-.05c-.03-.06-.04-.17-.02-.24,.03-.1,.06-.09,.09,.03,.03,.09,.21-.34,.4-.97,.52-1.7,1.06-3.25,1.19-3.45,.07-.09,.24-.48,.39-.85,.27-.68,.37-.88,1.25-2.51,.26-.49,.53-1,.59-1.13,.06-.13,.59-.94,1.18-1.79,.58-.85,1.11-1.63,1.17-1.74,.06-.11,.19-.29,.3-.39,.11-.11,.59-.7,1.08-1.31,2.41-3.06,5.66-6.25,8.82-8.63,.53-.4,1.04-.8,1.14-.89,.1-.09,.3-.23,.45-.3,.15-.08,.58-.35,.97-.62,1.58-1.07,5.46-3.22,6.78-3.75,.38-.15,.73-.3,.78-.33,.2-.13,2.91-1.09,3.86-1.36,.4-.12,.79-.24,1.03-.33,.18,.84,.32,1.72,.32,2.4,0,.71,.26,1.38,.45,1.51,.18,.12,.3,.33,.26,.45-.09,.25,1.04-.37,1.14-.63,.04-.09,.56-.54,1.2-1.01,.63-.48,1.1-.91,1.07-.99-.03-.08-.44,.14-.91,.48-1.16,.85-1.22,.74-.11-.18,.71-.58,.82-.74,.51-.73-.44,0-.38-.52,.07-.61,.32-.07,.45-.4,.19-.5-.1-.04-.44,.18-.76,.5-.86,.83-1.36,.97-1.52,.42-.07-.23-.21-.47-.31-.5-.1-.04-.12-.27-.04-.54,.09-.31,.42-.55,.93-.69,.92-.25,.63-.46-.38-.28-.45,.08-.35,0,.32-.24,.93-.34,1.5-.82,.84-.71-.16,.03-.04-.08,.26-.25,.63-.34,.74-.33,.43,.02-.32,.37,.07,.46,.66,.15,.28-.15,.72-.26,.97-.25,.36,.02,.41-.04,.24-.26-.29-.38-.03-.43,.39-.07,.28,.24,.06,.36-1.44,.81-.98,.29-1.64,.57-1.48,.63,.16,.06,.77-.06,1.35-.27,1.24-.44,1.84-.41,2.6,.16,.41,.31,.64,.37,.82,.24,.41-.31,.44-.56,.05-.43Zm-38.26,27.83c-.03,.13-.08,.2-.11,.15-.03-.05,0-.16,.05-.24,.07-.09,.09-.06,.05,.1Zm.21-1.74c-.05-.09-.05-.24,0-.32,.05-.08,.1,0,.1,.17,0,.23-.03,.27-.1,.15Zm.18-1.29c-.08-.15-.1-.28-.03-.32,.06-.03,.12,.02,.12,.12,0,.1,.09,.2,.19,.22,.1,.03,.16,.1,.14,.18-.05,.19-.26,.09-.42-.2Zm1.88-1.93c-.16,.09-.32,.02-.28-.12,.02-.06,.13-.12,.24-.13,.21-.02,.23,.14,.04,.25Zm24.97-21.85s.07,.08,.1,.16c.02,.08-.02,.13-.09,.11s-.12-.09-.1-.16c.02-.08,.06-.12,.09-.11Zm-3.88,.96c.08,.02,.11,.09,.09,.16-.02,.08-.09,.11-.16,.09-.08-.02-.11-.09-.09-.16,.02-.08,.09-.11,.16-.09Zm-1.97,.94c.19-.09,.21-.07,.09,.09-.12,.16-.38,.21-.34,.07,0-.03,.12-.1,.25-.16Zm-2.31,1.32c.24-.12,.47-.19,.49-.15,.05,.08-.72,.44-.86,.4-.04-.01,.13-.13,.37-.25Zm-3.58,2.9c.12-.04,.23-.03,.25,.02,.03,.05-.04,.11-.16,.15-.12,.04-.23,.03-.25-.02-.03-.05,.04-.11,.16-.15Zm-3.05,2.52c.16-.09,.17-.07,.06,.09-.08,.11-.17,.16-.2,.11-.03-.05,.03-.14,.15-.2Zm14.74-7.77c-5.49,1.78-12.6,6.37-17.5,11.29-.63,.63-1.17,1.15-1.2,1.14-.03,0,.23-.32,.57-.7,.74-.82,3.13-3.08,4.01-3.8,.35-.28,.8-.66,1-.82,.21-.17,.41-.32,.46-.35,.05-.02,.28-.21,.52-.4,.23-.19,.47-.38,.52-.4,.05-.02,.65-.43,1.34-.91,2.67-1.83,5.82-3.51,8.52-4.55,.63-.24,1.35-.55,1.6-.67,.25-.13,.54-.19,.65-.14,.13,.06-.03,.17-.48,.31Zm.79-1.07c-.1-.03-.19-.11-.21-.18-.02-.07,.07-.07,.2,0,.27,.16,.28,.25,.02,.18Zm1.26,.42c-.34,.13-.58,.11-.42-.04,.05-.05,.24-.09,.41-.08,.3,0,.3,.01,.01,.12Zm.39-.23c.02-.08,.24-.13,.39-.12,.02,.08,.04,.15,.06,.23-.14,.09-.48,.02-.45-.11Zm4.88-2.61c-.22,.17-.44,.23-.51,.14-.07-.09-.16-.06-.21,.06-.05,.12-.27,.22-.49,.22-.74,0-1.74,.37-1.72,.64-.02,0-.04,0-.06,.02-.07-.07-.22-.29-.41-.61-.28-.48-.46-1.04-.39-1.23,.06-.18,.04-.44-.04-.54-.27-.35,.14-.49,.66-.23,.27,.13,.51,.16,.55,.06,.04-.11,.15-.08,.25,.06,.27,.35,1.35,.63,1.82,.47,.32-.11,.35-.09,.15,.06-.17,.14-.09,.25,.27,.39,.46,.17,.48,.22,.13,.49Zm3.22,1.21c-.26,.2-.4,.2-.45,0-.04-.17,.06-.31,.23-.35,.52-.11,.62,.04,.21,.35Z" style="fill:#65a8df;"/><path d="M209.18,58.97c-.13-.09-.38-.09-.62,0-.23,.08-.49,.12-.6,.08-.11-.03-.22,0-.24,.07-.02,.07-.18,.12-.37,.11-.19,0-.35,.04-.37,.11-.02,.07-.1,.09-.18,.04-.08-.04-.37-.03-.63,.03-.38,.08-.46,.15-.39,.31,.07,.16,.04,.21-.13,.23-.13,.01-.17-.03-.11-.09,.07-.06,.09-.16,.07-.25-.06-.23-.63-.07-.61,.17,.01,.11-.04,.21-.11,.24-.07,.02-.14-.06-.15-.18-.02-.18-.06-.2-.25-.12-.12,.05-.22,.06-.21,0,.01-.05-.08-.04-.22,.02-.14,.06-.37,.09-.53,.08-.16-.02-.32,0-.37,.04-.06,.04-.15,.07-.23,.06-.07,0-.51,.02-.97,.05-.46,.03-1.32,.04-1.92,.02-.59-.02-1.18-.03-1.29-.02-.21,.02-.39,0-1.09-.15-.19-.04-.34-.01-.32,.06,.02,.07-.07,.07-.18,0-.13-.07-.35-.1-.51-.07-.2,.05-.31,.01-.39-.12-.07-.13-.16-.16-.28-.09-.1,.06-.25,.05-.35-.02-.11-.08-.16-.06-.13,.05,.02,.09-.01,.15-.08,.13-.08-.02-.14-.09-.17-.18-.05-.19-.65-.35-.7-.18-.02,.09-.1,.06-.24-.07-.3-.29-.76-.4-.7-.17,.03,.1-.04,.04-.16-.14-.17-.26-.26-.31-.55-.27-.21,.03-.37-.01-.43-.11-.05-.08-.25-.22-.44-.3-.2-.08-.48-.24-.64-.36-.16-.12-.32-.23-.38-.25-.75-.3-2.7-1.99-3.48-3.01-.1-.14-.18-.29-.28-.43h-1.19c.24,.37,.48,.73,.7,1,1.04,1.31,2.72,2.81,3.65,3.27,.17,.08,.47,.26,.67,.41s.46,.25,.58,.24c.11,0,.19,.04,.18,.1-.02,.07,.02,.13,.09,.16,.07,.02,.16-.06,.19-.18,.06-.2,.07-.2,.13,.02,.05,.18,.21,.27,.65,.35,.38,.07,.55,.16,.48,.22-.07,.06-.06,.12,0,.14,.07,.02,.17-.03,.23-.11,.08-.11,.1-.1,.07,.03-.03,.13,.03,.15,.3,.09,.18-.04,.37-.05,.42-.03,.05,.03,.11-.04,.15-.17,.05-.19,.07-.19,.13,0,.08,.25-.2,.39-.39,.2-.06-.06-.06-.01,0,.1,.13,.26,.83,.3,.78,.04-.02-.09,.02-.06,.08,.06,.14,.28,.64,.52,.7,.33,.02-.08-.02-.12-.09-.1-.07,.02-.14-.06-.16-.17-.02-.17,.02-.17,.19,0,.12,.11,.2,.27,.17,.35-.02,.08,.07,.06,.2-.04,.22-.18,.24-.17,.31,.09,.04,.15,.09,.22,.11,.15,.02-.07,.37-.04,.78,.07,.83,.22,3.62,.31,5.02,.17,2.28-.24,4.18-.65,3.66-.79-.08-.02-.16,.02-.18,.09-.02,.08-.08,.09-.14,.03-.06-.06-.15-.06-.21,0-.06,.06-.21,.08-.33,.05-.17-.05-.14-.09,.17-.22,.22-.09,.43-.15,.49-.14,.19,.05,2.44-.56,2.47-.67,.02-.06-.07-.11-.21-.11-.21,0-.21,0-.01-.07,.14-.05,.26-.02,.31,.07,.05,.09,.26,.08,.54-.02,.41-.15,.43-.18,.24-.32Zm-9.48,1.99c-.08-.02-.12-.06-.11-.09,0-.03,.08-.07,.16-.1,.08-.02,.13,.02,.11,.09s-.09,.12-.16,.1Zm3.79-.16s-.04-.07-.02-.14c.02-.07,.09-.11,.17-.09,.08,.02,.09,.08,.02,.14-.07,.06-.13,.1-.17,.09Zm.94-.15c-.08-.02-.11-.09-.09-.16s.09-.11,.16-.09,.11,.09,.09,.16-.09,.11-.16,.09Z" style="fill:#65a8df;"/></g><g><path d="M121.88,17.2c-1.4,0-2.45-.35-3.17-1.05-.72-.7-1.08-1.69-1.08-2.99v-3.59c0-1.29,.37-2.29,1.09-2.99,.73-.7,1.78-1.05,3.17-1.05,.88,0,1.66,.15,2.33,.46,.67,.3,1.17,.74,1.51,1.3s.45,1.25,.34,2.03c-.01,.06-.03,.11-.05,.16s-.07,.08-.14,.08h-1.11c-.13,0-.18-.06-.16-.17,.03-.82-.18-1.46-.64-1.91s-1.15-.67-2.05-.67-1.6,.24-2.09,.71-.73,1.14-.73,2.02v3.62c0,.88,.24,1.56,.73,2.03s1.18,.7,2.09,.7,1.6-.22,2.09-.68c.49-.45,.69-1.08,.6-1.9-.02-.11,.03-.17,.16-.17h1.1c.12,0,.18,.08,.21,.24,.07,.77-.07,1.43-.4,2s-.83,1.01-1.48,1.32c-.65,.32-1.42,.47-2.3,.47Z" style="fill:#fff;"/><path d="M131.68,17.2c-1.16,0-2.03-.28-2.64-.84-.6-.56-.9-1.41-.9-2.56v-1.99c0-1.14,.3-2,.89-2.56,.6-.56,1.48-.84,2.65-.84s2.03,.28,2.63,.84c.6,.56,.9,1.41,.9,2.56v1.99c0,1.14-.3,2-.89,2.56-.6,.56-1.48,.84-2.64,.84Zm0-1.29c.73,0,1.26-.18,1.59-.56,.33-.37,.49-.93,.49-1.69v-1.72c0-.75-.16-1.32-.49-1.69-.33-.37-.86-.56-1.59-.56s-1.26,.19-1.59,.56c-.33,.37-.49,.94-.49,1.69v1.72c0,.76,.16,1.32,.49,1.69,.33,.37,.86,.56,1.59,.56Z" style="fill:#fff;"/><path d="M137.74,17c-.11,0-.17-.06-.17-.17v-6.11c0-.31,0-.63-.02-.97-.02-.34-.05-.64-.09-.92-.02-.14,.04-.21,.19-.21h1.03c.1,0,.16,.04,.17,.12,.02,.17,.05,.36,.08,.55s.06,.39,.07,.6c.52-.52,1-.89,1.46-1.12s.95-.35,1.48-.35c.58,0,1.06,.14,1.42,.4s.62,.67,.76,1.19c.55-.56,1.06-.97,1.53-1.22,.47-.25,.98-.38,1.53-.38,.77,0,1.35,.24,1.74,.72s.59,1.19,.59,2.13v5.56c0,.12-.06,.17-.17,.17h-1.11c-.12,0-.17-.06-.17-.17v-5.48c0-.55-.1-.96-.3-1.24-.2-.27-.51-.41-.93-.41-.38,0-.76,.12-1.16,.35s-.86,.6-1.38,1.11v5.67c0,.12-.06,.17-.17,.17h-1.12c-.11,0-.17-.06-.17-.17v-5.48c0-.55-.1-.96-.3-1.24-.2-.27-.51-.41-.93-.41-.38,0-.76,.12-1.16,.35s-.86,.6-1.38,1.11v5.67c0,.12-.06,.17-.17,.17h-1.12Z" style="fill:#fff;"/><path d="M152.82,7.21c-.33,0-.57-.09-.72-.27-.15-.18-.22-.4-.22-.68v-.17c0-.27,.07-.5,.22-.68,.15-.18,.39-.27,.72-.27s.57,.09,.72,.27,.22,.4,.22,.68v.17c0,.27-.08,.5-.22,.68s-.39,.27-.72,.27Zm-.57,9.79c-.11,0-.17-.06-.17-.17V8.79c0-.11,.06-.17,.17-.17h1.12c.11,0,.17,.06,.17,.17v8.04c0,.12-.06,.17-.17,.17h-1.12Z" style="fill:#fff;"/><path d="M158.83,17.2c-1.03,0-1.8-.23-2.32-.68-.52-.45-.77-1.13-.77-2.03,0-.1,.06-.16,.17-.16h1.13c.1,0,.16,.04,.16,.14,0,.51,.13,.89,.39,1.11,.26,.23,.68,.34,1.26,.34s.99-.09,1.27-.28c.29-.19,.43-.46,.43-.81,0-.26-.08-.48-.24-.66s-.41-.34-.75-.49l-1.96-.81c-.63-.26-1.08-.56-1.34-.89s-.39-.76-.39-1.29c0-.75,.24-1.32,.72-1.71,.48-.38,1.2-.57,2.15-.57s1.73,.2,2.27,.61c.54,.41,.81,.98,.81,1.73,0,.1-.06,.15-.17,.15h-1.13c-.12,0-.17-.09-.17-.27,0-.3-.14-.53-.41-.7s-.65-.25-1.13-.25-.86,.08-1.1,.25c-.24,.17-.36,.42-.36,.76,0,.25,.06,.44,.2,.57,.13,.13,.4,.27,.8,.45l1.96,.82c.61,.25,1.05,.55,1.32,.89,.28,.34,.41,.78,.41,1.32,0,.79-.27,1.4-.82,1.82s-1.33,.64-2.35,.64Z" style="fill:#fff;"/><path d="M166.52,17.2c-1.03,0-1.8-.23-2.32-.68-.52-.45-.77-1.13-.77-2.03,0-.1,.06-.16,.17-.16h1.13c.1,0,.16,.04,.16,.14,0,.51,.13,.89,.39,1.11,.26,.23,.68,.34,1.26,.34s.99-.09,1.27-.28c.29-.19,.43-.46,.43-.81,0-.26-.08-.48-.24-.66s-.41-.34-.75-.49l-1.96-.81c-.63-.26-1.08-.56-1.34-.89s-.39-.76-.39-1.29c0-.75,.24-1.32,.72-1.71,.48-.38,1.2-.57,2.15-.57s1.73,.2,2.27,.61c.54,.41,.81,.98,.81,1.73,0,.1-.06,.15-.17,.15h-1.13c-.12,0-.17-.09-.17-.27,0-.3-.14-.53-.41-.7s-.65-.25-1.13-.25-.86,.08-1.1,.25c-.24,.17-.36,.42-.36,.76,0,.25,.06,.44,.2,.57,.13,.13,.4,.27,.8,.45l1.96,.82c.61,.25,1.05,.55,1.32,.89,.28,.34,.41,.78,.41,1.32,0,.79-.27,1.4-.82,1.82s-1.33,.64-2.35,.64Z" style="fill:#fff;"/><path d="M173.32,17.2c-.66,0-1.17-.2-1.52-.6-.35-.4-.52-.98-.52-1.75,0-.6,.12-1.08,.35-1.46,.23-.38,.61-.67,1.13-.88,.52-.21,1.22-.34,2.09-.41l1.61-.14v1.12l-1.65,.14c-.79,.07-1.33,.21-1.63,.43-.3,.22-.45,.58-.45,1.1,0,.39,.08,.68,.24,.88s.4,.29,.72,.29c.38,0,.77-.13,1.18-.38,.41-.26,.95-.73,1.63-1.44v1.29c-.4,.43-.77,.79-1.12,1.06-.35,.27-.69,.46-1.02,.58-.33,.12-.68,.18-1.05,.18Zm3.28-.21c-.07,0-.11-.02-.14-.07-.02-.04-.04-.1-.07-.17-.01-.09-.04-.29-.08-.59-.04-.3-.06-.57-.08-.81l-.05-.65v-3.42c0-.57-.11-.98-.34-1.22-.23-.24-.63-.36-1.2-.36-1.03,0-1.55,.36-1.55,1.07,0,.11-.05,.17-.16,.17h-1.13c-.12,0-.18-.11-.19-.33-.06-.65,.2-1.18,.76-1.59s1.34-.61,2.31-.61,1.74,.23,2.22,.7c.49,.47,.73,1.18,.73,2.13v3.67c0,.4,0,.76,.03,1.07,.02,.31,.05,.59,.09,.81,.02,.13-.03,.19-.17,.19h-1Zm-1.11-9.74c-.23,0-.44-.04-.62-.11s-.36-.15-.54-.21-.37-.1-.59-.1c-.19,0-.4,.04-.62,.12-.22,.08-.39,.15-.52,.21-.14,.06-.21,.02-.21-.1v-.81c0-.1,.03-.18,.1-.22,.1-.08,.27-.17,.49-.27,.22-.1,.48-.16,.78-.16s.53,.03,.71,.1c.19,.07,.36,.14,.52,.21,.16,.07,.33,.11,.53,.11s.4-.04,.62-.12c.22-.08,.39-.15,.52-.2,.14-.06,.21-.02,.21,.1v.81c0,.09-.03,.17-.1,.22-.1,.08-.27,.17-.49,.28-.22,.1-.48,.15-.78,.15Z" style="fill:#fff;"/><path d="M183.54,17.2c-1.16,0-2.03-.28-2.64-.84-.6-.56-.9-1.41-.9-2.56v-1.99c0-1.14,.3-2,.89-2.56,.6-.56,1.48-.84,2.65-.84s2.03,.28,2.63,.84c.6,.56,.9,1.41,.9,2.56v1.99c0,1.14-.3,2-.89,2.56-.6,.56-1.48,.84-2.64,.84Zm0-1.29c.73,0,1.26-.18,1.59-.56,.33-.37,.49-.93,.49-1.69v-1.72c0-.75-.16-1.32-.49-1.69-.33-.37-.86-.56-1.59-.56s-1.26,.19-1.59,.56c-.33,.37-.49,.94-.49,1.69v1.72c0,.76,.16,1.32,.49,1.69,.33,.37,.86,.56,1.59,.56Z" style="fill:#fff;"/><path d="M120.42,34.68c-.11,0-.17-.06-.17-.17v-9.75h-3.09c-.12,0-.17-.06-.17-.17v-.98c0-.11,.06-.17,.17-.17h7.64c.11,0,.17,.06,.17,.17v.98c0,.12-.06,.17-.17,.17h-3.09v9.75c0,.12-.06,.17-.17,.17h-1.12Z" style="fill:#fff;"/><path d="M128.68,34.88c-1.1,0-1.94-.26-2.53-.77s-.88-1.28-.88-2.28v-2.4c0-1.09,.29-1.92,.88-2.48,.58-.57,1.43-.85,2.54-.85s1.96,.28,2.53,.83c.58,.55,.87,1.36,.87,2.41v1.34c0,.11-.06,.17-.17,.17h-5.18v.55c0,.77,.16,1.33,.48,1.67,.32,.35,.84,.52,1.56,.52,.54,0,.95-.09,1.25-.27,.29-.18,.44-.44,.44-.78,0-.13,.06-.19,.19-.19h1.12c.09,0,.15,.05,.17,.16,.05,.73-.22,1.31-.81,1.73s-1.4,.64-2.44,.64Zm-1.96-5.29h3.9v-.1c0-.72-.16-1.25-.48-1.6s-.8-.52-1.44-.52-1.16,.18-1.48,.53-.49,.89-.49,1.6v.09Zm1.03-4.67c-.11,0-.14-.06-.08-.17l1.13-2.09c.05-.08,.11-.12,.21-.12h1.2c.06,0,.09,.02,.11,.06s0,.08-.02,.13l-1.43,2.1c-.05,.07-.11,.1-.19,.1h-.93Z" style="fill:#fff;"/><path d="M137.68,34.88c-1.14,0-2.02-.29-2.61-.86-.59-.57-.89-1.4-.89-2.47v-2.13c0-1.08,.3-1.9,.91-2.47s1.48-.86,2.63-.86c.68,0,1.25,.1,1.73,.31,.48,.21,.85,.49,1.12,.85s.39,.79,.39,1.28c0,.26-.06,.39-.17,.39h-1.13c-.1,0-.16-.09-.16-.28,0-.4-.16-.71-.48-.93-.32-.22-.75-.34-1.3-.34-.7,0-1.22,.18-1.56,.53-.35,.36-.52,.91-.52,1.65v1.85c0,.73,.17,1.28,.52,1.64,.34,.36,.86,.54,1.54,.54,.55,0,.98-.12,1.3-.36,.32-.24,.48-.54,.48-.89,0-.18,.05-.27,.16-.27h1.13c.12,0,.17,.05,.17,.15,0,.81-.28,1.46-.84,1.94-.56,.48-1.37,.72-2.42,.72Z" style="fill:#fff;"/><path d="M143.27,34.68c-.11,0-.17-.06-.17-.17v-6.11c0-.3-.01-.63-.04-1-.03-.37-.05-.66-.08-.87-.02-.15,.03-.22,.17-.22h1.05c.1,0,.17,.06,.19,.17,.02,.09,.04,.23,.07,.43,.02,.19,.05,.4,.07,.61,.02,.21,.03,.39,.03,.54v6.45c0,.12-.06,.17-.17,.17h-1.12Zm5.51,0c-.12,0-.17-.06-.17-.17v-5.48c0-.57-.12-.99-.35-1.25-.24-.26-.59-.39-1.06-.39-.45,0-.89,.13-1.32,.39-.43,.26-.98,.72-1.63,1.36l.02-1.32c.39-.41,.76-.74,1.11-1,.35-.25,.7-.43,1.05-.55,.35-.12,.72-.17,1.11-.17,.82,0,1.45,.24,1.89,.72,.44,.48,.65,1.2,.65,2.15v5.54c0,.12-.06,.17-.17,.17h-1.11Z" style="fill:#fff;"/><path d="M153.39,24.89c-.33,0-.57-.09-.72-.27-.15-.18-.22-.4-.22-.68v-.17c0-.27,.07-.5,.22-.68,.15-.18,.39-.27,.72-.27s.57,.09,.72,.27,.22,.4,.22,.68v.17c0,.27-.08,.5-.22,.68s-.39,.27-.72,.27Zm-.57,9.79c-.11,0-.17-.06-.17-.17v-8.04c0-.11,.06-.17,.17-.17h1.12c.11,0,.17,.06,.17,.17v8.04c0,.12-.06,.17-.17,.17h-1.12Z" style="fill:#fff;"/><path d="M159.96,34.88c-1.14,0-2.02-.29-2.61-.86-.59-.57-.89-1.4-.89-2.47v-2.13c0-1.08,.3-1.9,.91-2.47s1.48-.86,2.63-.86c.68,0,1.25,.1,1.73,.31,.48,.21,.85,.49,1.12,.85s.39,.79,.39,1.28c0,.26-.06,.39-.17,.39h-1.13c-.1,0-.16-.09-.16-.28,0-.4-.16-.71-.48-.93-.32-.22-.75-.34-1.3-.34-.7,0-1.22,.18-1.56,.53-.35,.36-.52,.91-.52,1.65v1.85c0,.73,.17,1.28,.52,1.64,.34,.36,.86,.54,1.54,.54,.55,0,.98-.12,1.3-.36,.32-.24,.48-.54,.48-.89,0-.18,.05-.27,.16-.27h1.13c.12,0,.17,.05,.17,.15,0,.81-.28,1.46-.84,1.94-.56,.48-1.37,.72-2.42,.72Z" style="fill:#fff;"/><path d="M166.85,34.88c-.66,0-1.17-.2-1.52-.6-.35-.4-.53-.98-.53-1.75,0-.6,.12-1.08,.35-1.46s.61-.67,1.13-.88c.52-.21,1.22-.34,2.09-.41l1.61-.14v1.12l-1.65,.14c-.79,.07-1.33,.21-1.63,.43-.3,.22-.45,.58-.45,1.1,0,.39,.08,.68,.24,.88s.4,.29,.72,.29c.38,0,.77-.13,1.18-.38,.41-.26,.96-.73,1.63-1.44v1.29c-.4,.43-.78,.79-1.12,1.06-.35,.27-.69,.46-1.02,.58-.33,.12-.68,.18-1.05,.18Zm3.28-.21c-.07,0-.12-.02-.14-.07-.02-.04-.05-.1-.07-.17-.01-.09-.04-.29-.08-.59s-.07-.57-.08-.81l-.05-.65v-3.42c0-.57-.12-.98-.35-1.22-.23-.24-.63-.36-1.2-.36-1.03,0-1.55,.36-1.55,1.07,0,.11-.05,.17-.15,.17h-1.13c-.11,0-.18-.11-.19-.33-.06-.65,.2-1.18,.76-1.59,.57-.41,1.34-.61,2.31-.61s1.74,.23,2.22,.7c.49,.47,.73,1.18,.73,2.13v3.67c0,.4,.01,.76,.03,1.07,.02,.31,.05,.59,.09,.81,.02,.13-.03,.19-.17,.19h-1Z" style="fill:#fff;"/><g><g><path d="M120.42,52.35c-.12,0-.17-.06-.17-.17v-10.9c0-.11,.06-.17,.17-.17h1.11c.12,0,.17,.06,.17,.17v10.9c0,.12-.06,.17-.17,.17h-1.11Z" style="fill:#fff;"/><path d="M124.63,52.35c-.12,0-.17-.06-.17-.17v-6.11c0-.3-.01-.63-.04-1-.03-.37-.06-.66-.08-.87-.02-.15,.03-.22,.17-.22h1.05c.1,0,.17,.06,.19,.17,.02,.09,.05,.23,.07,.43s.04,.4,.07,.61c.02,.21,.03,.39,.03,.54v6.45c0,.12-.06,.17-.17,.17h-1.11Zm5.51,0c-.11,0-.17-.06-.17-.17v-5.48c0-.57-.12-.99-.35-1.25-.23-.26-.59-.39-1.06-.39s-.89,.13-1.32,.39c-.44,.26-.98,.72-1.63,1.36l.02-1.32c.39-.41,.76-.74,1.11-1,.35-.25,.7-.43,1.05-.55,.35-.12,.72-.17,1.11-.17,.82,0,1.46,.24,1.89,.72s.65,1.2,.65,2.15v5.54c0,.12-.06,.17-.17,.17h-1.12Z" style="fill:#fff;"/><path d="M136.3,52.56c-.8,0-1.42-.27-1.84-.81-.43-.54-.64-1.33-.64-2.38v-2.15c0-1.09,.27-1.93,.82-2.54s1.31-.91,2.28-.91c.45,0,.92,.06,1.41,.18,.49,.12,.86,.27,1.11,.46l.09,1.25c-.37-.19-.77-.34-1.2-.45-.44-.1-.82-.16-1.15-.16-.64,0-1.12,.19-1.43,.58s-.47,.97-.47,1.75v2.06c0,.61,.12,1.06,.35,1.37s.59,.45,1.06,.45c.28,0,.56-.05,.84-.16,.27-.11,.58-.29,.91-.55,.33-.26,.72-.61,1.17-1.06l-.03,1.34c-.39,.39-.76,.71-1.11,.97-.35,.26-.7,.45-1.05,.56-.35,.12-.72,.18-1.11,.18Zm3.38-.21c-.13,0-.19-.06-.21-.19-.02-.17-.05-.39-.08-.65-.03-.26-.05-.48-.03-.65l-.09-.77v-9.29c0-.11,.06-.17,.17-.17h1.12c.11,0,.17,.06,.17,.17v9.62c0,.16,0,.35,.02,.58,0,.22,.02,.44,.04,.64,.02,.2,.04,.37,.06,.48,.03,.16-.02,.24-.17,.24h-1Z" style="fill:#fff;"/><path d="M146.52,52.56c-1.1,0-1.94-.26-2.53-.77s-.89-1.28-.89-2.28v-2.4c0-1.09,.29-1.92,.88-2.48,.58-.57,1.43-.85,2.54-.85s1.95,.28,2.53,.83c.58,.55,.87,1.36,.87,2.41v1.34c0,.11-.06,.17-.17,.17h-5.19v.55c0,.77,.16,1.33,.48,1.67,.32,.35,.84,.52,1.56,.52,.54,0,.95-.09,1.24-.27,.29-.18,.44-.44,.44-.78,0-.13,.06-.19,.19-.19h1.11c.09,0,.15,.05,.17,.16,.04,.73-.22,1.31-.81,1.73-.58,.42-1.4,.64-2.44,.64Zm-1.96-5.29h3.9v-.1c0-.72-.16-1.25-.48-1.6s-.8-.52-1.44-.52-1.16,.18-1.48,.53c-.33,.36-.49,.89-.49,1.6v.09Z" style="fill:#fff;"/><path d="M152.41,55.53c-.11,0-.17-.06-.17-.17v-9.44c0-.26,0-.55-.03-.88-.02-.32-.05-.61-.08-.86-.01-.14,.04-.21,.17-.21h1.05c.11,0,.18,.06,.19,.17,.02,.08,.04,.19,.07,.34,.02,.15,.04,.3,.05,.44,.01,.14,.01,.24,0,.3l.05,.86v9.27c0,.12-.06,.17-.17,.17h-1.12Zm3.59-2.97c-.43,0-.89-.06-1.36-.17s-.85-.27-1.13-.46l-.05-1.24c.33,.18,.7,.33,1.1,.43,.4,.1,.78,.15,1.13,.15,.66,0,1.15-.19,1.46-.58,.31-.39,.46-.97,.46-1.75v-1.89c0-.69-.12-1.19-.36-1.51-.24-.32-.59-.48-1.06-.48-.4,0-.8,.12-1.21,.35s-.94,.65-1.61,1.25v-1.37c.39-.36,.75-.64,1.09-.87,.34-.22,.67-.39,1-.49,.33-.1,.67-.16,1.04-.16,.85,0,1.49,.26,1.92,.79,.43,.53,.65,1.33,.65,2.4v2.15c0,1.11-.26,1.96-.79,2.56-.53,.59-1.29,.89-2.28,.89Z" style="fill:#fff;"/><path d="M164.65,52.56c-1.1,0-1.94-.26-2.53-.77s-.89-1.28-.89-2.28v-2.4c0-1.09,.29-1.92,.88-2.48,.58-.57,1.43-.85,2.54-.85s1.95,.28,2.53,.83c.58,.55,.87,1.36,.87,2.41v1.34c0,.11-.06,.17-.17,.17h-5.19v.55c0,.77,.16,1.33,.48,1.67,.32,.35,.84,.52,1.56,.52,.54,0,.95-.09,1.24-.27,.29-.18,.44-.44,.44-.78,0-.13,.06-.19,.19-.19h1.11c.09,0,.15,.05,.17,.16,.04,.73-.22,1.31-.81,1.73-.58,.42-1.4,.64-2.44,.64Zm-1.96-5.29h3.9v-.1c0-.72-.16-1.25-.48-1.6s-.8-.52-1.44-.52-1.16,.18-1.48,.53c-.33,.36-.49,.89-.49,1.6v.09Z" style="fill:#fff;"/><path d="M170.54,52.35c-.11,0-.17-.06-.17-.17v-6.11c0-.3-.01-.63-.04-1-.03-.37-.05-.66-.08-.87-.02-.15,.03-.22,.17-.22h1.05c.1,0,.17,.06,.19,.17,.02,.09,.04,.23,.07,.43,.02,.19,.05,.4,.07,.61,.02,.21,.03,.39,.03,.54v6.45c0,.12-.06,.17-.17,.17h-1.12Zm5.51,0c-.12,0-.17-.06-.17-.17v-5.48c0-.57-.12-.99-.35-1.25-.24-.26-.59-.39-1.06-.39-.45,0-.89,.13-1.32,.39-.43,.26-.98,.72-1.63,1.36l.02-1.32c.39-.41,.76-.74,1.11-1,.35-.25,.7-.43,1.05-.55,.35-.12,.72-.17,1.11-.17,.82,0,1.45,.24,1.89,.72,.44,.48,.65,1.2,.65,2.15v5.54c0,.12-.06,.17-.17,.17h-1.11Z" style="fill:#fff;"/><path d="M182.22,52.56c-.8,0-1.42-.27-1.84-.81-.43-.54-.64-1.33-.64-2.38v-2.15c0-1.09,.27-1.93,.82-2.54s1.31-.91,2.28-.91c.45,0,.92,.06,1.41,.18,.49,.12,.86,.27,1.11,.46l.09,1.25c-.37-.19-.77-.34-1.2-.45-.44-.1-.82-.16-1.15-.16-.64,0-1.12,.19-1.43,.58s-.47,.97-.47,1.75v2.06c0,.61,.12,1.06,.35,1.37s.59,.45,1.06,.45c.28,0,.56-.05,.84-.16,.27-.11,.58-.29,.91-.55,.33-.26,.72-.61,1.17-1.06l-.03,1.34c-.39,.39-.76,.71-1.11,.97-.35,.26-.7,.45-1.05,.56-.35,.12-.72,.18-1.11,.18Zm3.38-.21c-.13,0-.19-.06-.21-.19-.02-.17-.05-.39-.08-.65-.03-.26-.05-.48-.03-.65l-.09-.77v-9.29c0-.11,.06-.17,.17-.17h1.12c.11,0,.17,.06,.17,.17v9.62c0,.16,0,.35,.02,.58,0,.22,.02,.44,.04,.64,.02,.2,.04,.37,.06,.48,.03,.16-.02,.24-.17,.24h-1Z" style="fill:#fff;"/><path d="M192.43,52.56c-1.1,0-1.94-.26-2.53-.77s-.88-1.28-.88-2.28v-2.4c0-1.09,.29-1.92,.88-2.48,.58-.57,1.43-.85,2.54-.85s1.96,.28,2.53,.83c.58,.55,.87,1.36,.87,2.41v1.34c0,.11-.06,.17-.17,.17h-5.18v.55c0,.77,.16,1.33,.48,1.67,.32,.35,.84,.52,1.56,.52,.54,0,.95-.09,1.25-.27,.29-.18,.44-.44,.44-.78,0-.13,.06-.19,.19-.19h1.12c.09,0,.15,.05,.17,.16,.05,.73-.22,1.31-.81,1.73s-1.4,.64-2.44,.64Zm-1.96-5.29h3.9v-.1c0-.72-.16-1.25-.48-1.6s-.8-.52-1.44-.52-1.16,.18-1.48,.53-.49,.89-.49,1.6v.09Z" style="fill:#fff;"/></g><path d="M198.33,52.35c-.12,0-.17-.06-.17-.17v-6.11c0-.3-.01-.63-.04-1-.03-.37-.06-.66-.08-.87-.02-.15,.03-.22,.17-.22h1.05c.1,0,.17,.06,.19,.17,.02,.09,.05,.23,.07,.43s.04,.4,.07,.61c.02,.21,.03,.39,.03,.54v6.45c0,.12-.06,.17-.17,.17h-1.11Zm5.51,0c-.11,0-.17-.06-.17-.17v-5.48c0-.57-.12-.99-.35-1.25-.23-.26-.59-.39-1.06-.39s-.89,.13-1.32,.39c-.44,.26-.98,.72-1.63,1.36l.02-1.32c.39-.41,.76-.74,1.11-1,.35-.25,.7-.43,1.05-.55,.35-.12,.72-.17,1.11-.17,.82,0,1.46,.24,1.89,.72s.65,1.2,.65,2.15v5.54c0,.12-.06,.17-.17,.17h-1.12Z" style="fill:#fff;"/><path d="M210.81,52.56c-.58,0-1.05-.1-1.4-.3-.35-.2-.6-.5-.76-.9-.15-.4-.23-.9-.23-1.49v-4.63h-1.32c-.11,0-.17-.06-.17-.17v-.91c0-.11,.06-.17,.17-.17h1.36l.19-2.06c0-.11,.07-.17,.19-.17h.86c.12,0,.17,.06,.17,.17l.02,2.06h2.56c.12,0,.17,.06,.17,.17v.91c0,.12-.06,.17-.17,.17h-2.56v4.6c0,.54,.09,.92,.28,1.13,.19,.22,.51,.33,.97,.33,.23,0,.46-.02,.69-.08,.23-.05,.43-.12,.6-.2,.14-.06,.21-.02,.21,.12v.94c0,.09-.05,.15-.14,.19-.2,.08-.45,.15-.72,.21-.28,.06-.6,.09-.96,.09Z" style="fill:#fff;"/><path d="M217.45,52.56c-1.1,0-1.94-.26-2.53-.77s-.88-1.28-.88-2.28v-2.4c0-1.09,.29-1.92,.88-2.48,.58-.57,1.43-.85,2.54-.85s1.96,.28,2.53,.83,.87,1.36,.87,2.41v1.34c0,.11-.06,.17-.17,.17h-5.18v.55c0,.77,.16,1.33,.48,1.67,.32,.35,.84,.52,1.56,.52,.54,0,.95-.09,1.25-.27,.29-.18,.44-.44,.44-.78,0-.13,.06-.19,.19-.19h1.11c.09,0,.15,.05,.17,.16,.04,.73-.22,1.31-.81,1.73-.58,.42-1.4,.64-2.44,.64Zm-1.96-5.29h3.9v-.1c0-.72-.16-1.25-.48-1.6s-.8-.52-1.44-.52-1.16,.18-1.48,.53-.49,.89-.49,1.6v.09Z" style="fill:#fff;"/></g></g></g></g></svg>