<?xml version="1.0" encoding="UTF-8"?><svg id="Layer_2" xmlns="http://www.w3.org/2000/svg" viewBox="0 0 116.07 334.89"><g id="Layer_1-2"><g><g><line x1="1.5" y1="106.24" x2="1.5" y2="62.23" style="fill:none; stroke:#efedea; stroke-miterlimit:10; stroke-width:3px;"/><g><line x1="10.05" y1="103.42" x2="48.42" y2="65.05" style="fill:none; stroke:#efedea; stroke-miterlimit:10; stroke-width:3px;"/><line x1="10.05" y1="65.05" x2="48.42" y2="103.42" style="fill:none; stroke:#efedea; stroke-miterlimit:10; stroke-width:3px;"/><g><line x1="51.24" y1="56.5" x2="7.23" y2="56.5" style="fill:none; stroke:#efedea; stroke-miterlimit:10; stroke-width:3px;"/><line x1="56.97" y1="106.24" x2="56.97" y2="62.23" style="fill:none; stroke:#efedea; stroke-miterlimit:10; stroke-width:3px;"/><line x1="7.23" y1="111.97" x2="51.24" y2="111.97" style="fill:none; stroke:#efedea; stroke-miterlimit:10; stroke-width:3px;"/><line x1="1.5" y1="62.23" x2="1.5" y2="106.24" style="fill:none; stroke:#efedea; stroke-miterlimit:10; stroke-width:3px;"/></g></g><g><line x1="65.52" y1="103.42" x2="103.89" y2="65.05" style="fill:none; stroke:#efedea; stroke-miterlimit:10; stroke-width:3px;"/><line x1="65.52" y1="65.05" x2="103.89" y2="103.42" style="fill:none; stroke:#efedea; stroke-miterlimit:10; stroke-width:3px;"/><g><line x1="106.72" y1="56.5" x2="62.7" y2="56.5" style="fill:none; stroke:#efedea; stroke-miterlimit:10; stroke-width:3px;"/><line x1="112.44" y1="106.24" x2="112.44" y2="62.23" style="fill:none; stroke:#efedea; stroke-miterlimit:10; stroke-width:3px;"/><line x1="62.7" y1="111.97" x2="106.72" y2="111.97" style="fill:none; stroke:#efedea; stroke-miterlimit:10; stroke-width:3px;"/><line x1="56.97" y1="62.23" x2="56.97" y2="106.24" style="fill:none; stroke:#efedea; stroke-miterlimit:10; stroke-width:3px;"/></g></g><line x1="1.5" y1="51.24" x2="1.5" y2="7.23" style="fill:none; stroke:#efedea; stroke-miterlimit:10; stroke-width:3px;"/><g><line x1="10.05" y1="48.42" x2="48.42" y2="10.05" style="fill:none; stroke:#efedea; stroke-miterlimit:10; stroke-width:3px;"/><line x1="10.05" y1="10.05" x2="48.42" y2="48.42" style="fill:none; stroke:#efedea; stroke-miterlimit:10; stroke-width:3px;"/><g><line x1="51.24" y1="1.5" x2="7.23" y2="1.5" style="fill:none; stroke:#efedea; stroke-miterlimit:10; stroke-width:3px;"/><line x1="56.97" y1="51.24" x2="56.97" y2="7.23" style="fill:none; stroke:#efedea; stroke-miterlimit:10; stroke-width:3px;"/><line x1="7.23" y1="56.97" x2="51.24" y2="56.97" style="fill:none; stroke:#efedea; stroke-miterlimit:10; stroke-width:3px;"/><line x1="1.5" y1="7.23" x2="1.5" y2="51.24" style="fill:none; stroke:#efedea; stroke-miterlimit:10; stroke-width:3px;"/></g></g><g><line x1="65.52" y1="48.42" x2="103.89" y2="10.05" style="fill:none; stroke:#efedea; stroke-miterlimit:10; stroke-width:3px;"/><line x1="65.52" y1="10.05" x2="103.89" y2="48.42" style="fill:none; stroke:#efedea; stroke-miterlimit:10; stroke-width:3px;"/><g><line x1="106.72" y1="1.5" x2="62.7" y2="1.5" style="fill:none; stroke:#efedea; stroke-miterlimit:10; stroke-width:3px;"/><line x1="112.44" y1="51.24" x2="112.44" y2="7.23" style="fill:none; stroke:#efedea; stroke-miterlimit:10; stroke-width:3px;"/><line x1="62.7" y1="56.97" x2="106.72" y2="56.97" style="fill:none; stroke:#efedea; stroke-miterlimit:10; stroke-width:3px;"/><line x1="56.97" y1="7.23" x2="56.97" y2="51.24" style="fill:none; stroke:#efedea; stroke-miterlimit:10; stroke-width:3px;"/></g></g><line x1="1.5" y1="161.72" x2="1.5" y2="117.7" style="fill:none; stroke:#efedea; stroke-miterlimit:10; stroke-width:3px;"/><g><line x1="10.05" y1="158.89" x2="48.42" y2="120.52" style="fill:none; stroke:#efedea; stroke-miterlimit:10; stroke-width:3px;"/><line x1="10.05" y1="120.52" x2="48.42" y2="158.89" style="fill:none; stroke:#efedea; stroke-miterlimit:10; stroke-width:3px;"/><g><line x1="51.24" y1="111.97" x2="7.23" y2="111.97" style="fill:none; stroke:#efedea; stroke-miterlimit:10; stroke-width:3px;"/><line x1="56.97" y1="161.72" x2="56.97" y2="117.7" style="fill:none; stroke:#efedea; stroke-miterlimit:10; stroke-width:3px;"/><line x1="7.23" y1="167.44" x2="51.24" y2="167.44" style="fill:none; stroke:#efedea; stroke-miterlimit:10; stroke-width:3px;"/><line x1="1.5" y1="117.7" x2="1.5" y2="161.72" style="fill:none; stroke:#efedea; stroke-miterlimit:10; stroke-width:3px;"/></g></g><g><line x1="65.52" y1="158.89" x2="103.89" y2="120.52" style="fill:none; stroke:#efedea; stroke-miterlimit:10; stroke-width:3px;"/><line x1="65.52" y1="120.52" x2="103.89" y2="158.89" style="fill:none; stroke:#efedea; stroke-miterlimit:10; stroke-width:3px;"/><g><line x1="106.72" y1="111.97" x2="62.7" y2="111.97" style="fill:none; stroke:#efedea; stroke-miterlimit:10; stroke-width:3px;"/><line x1="112.44" y1="161.72" x2="112.44" y2="117.7" style="fill:none; stroke:#efedea; stroke-miterlimit:10; stroke-width:3px;"/><line x1="62.7" y1="167.44" x2="106.72" y2="167.44" style="fill:none; stroke:#efedea; stroke-miterlimit:10; stroke-width:3px;"/><line x1="56.97" y1="117.7" x2="56.97" y2="161.72" style="fill:none; stroke:#efedea; stroke-miterlimit:10; stroke-width:3px;"/></g></g><line x1="1.5" y1="217.19" x2="1.5" y2="173.17" style="fill:none; stroke:#efedea; stroke-miterlimit:10; stroke-width:3px;"/><g><line x1="10.05" y1="214.36" x2="48.42" y2="176" style="fill:none; stroke:#efedea; stroke-miterlimit:10; stroke-width:3px;"/><line x1="10.05" y1="176" x2="48.42" y2="214.36" style="fill:none; stroke:#efedea; stroke-miterlimit:10; stroke-width:3px;"/><g><line x1="51.24" y1="167.44" x2="7.23" y2="167.44" style="fill:none; stroke:#efedea; stroke-miterlimit:10; stroke-width:3px;"/><line x1="56.97" y1="217.19" x2="56.97" y2="173.17" style="fill:none; stroke:#efedea; stroke-miterlimit:10; stroke-width:3px;"/><line x1="7.23" y1="222.92" x2="51.24" y2="222.92" style="fill:none; stroke:#efedea; stroke-miterlimit:10; stroke-width:3px;"/><line x1="1.5" y1="173.17" x2="1.5" y2="217.19" style="fill:none; stroke:#efedea; stroke-miterlimit:10; stroke-width:3px;"/></g></g><g><line x1="65.52" y1="214.36" x2="103.89" y2="176" style="fill:none; stroke:#efedea; stroke-miterlimit:10; stroke-width:3px;"/><line x1="65.52" y1="176" x2="103.89" y2="214.36" style="fill:none; stroke:#efedea; stroke-miterlimit:10; stroke-width:3px;"/><g><line x1="106.72" y1="167.44" x2="62.7" y2="167.44" style="fill:none; stroke:#efedea; stroke-miterlimit:10; stroke-width:3px;"/><line x1="112.44" y1="217.19" x2="112.44" y2="173.17" style="fill:none; stroke:#efedea; stroke-miterlimit:10; stroke-width:3px;"/><line x1="62.7" y1="222.92" x2="106.72" y2="222.92" style="fill:none; stroke:#efedea; stroke-miterlimit:10; stroke-width:3px;"/><line x1="56.97" y1="173.17" x2="56.97" y2="217.19" style="fill:none; stroke:#efedea; stroke-miterlimit:10; stroke-width:3px;"/></g></g><line x1="1.5" y1="272.66" x2="1.5" y2="228.64" style="fill:none; stroke:#efedea; stroke-miterlimit:10; stroke-width:3px;"/><g><line x1="10.05" y1="269.84" x2="48.42" y2="231.47" style="fill:none; stroke:#efedea; stroke-miterlimit:10; stroke-width:3px;"/><line x1="10.05" y1="231.47" x2="48.42" y2="269.84" style="fill:none; stroke:#efedea; stroke-miterlimit:10; stroke-width:3px;"/><g><line x1="51.24" y1="222.92" x2="7.23" y2="222.92" style="fill:none; stroke:#efedea; stroke-miterlimit:10; stroke-width:3px;"/><line x1="56.97" y1="272.66" x2="56.97" y2="228.64" style="fill:none; stroke:#efedea; stroke-miterlimit:10; stroke-width:3px;"/><line x1="1.5" y1="228.64" x2="1.5" y2="272.66" style="fill:none; stroke:#efedea; stroke-miterlimit:10; stroke-width:3px;"/></g></g><line x1="65.52" y1="269.84" x2="103.89" y2="231.47" style="fill:none; stroke:#efedea; stroke-miterlimit:10; stroke-width:3px;"/><line x1="65.52" y1="231.47" x2="103.89" y2="269.84" style="fill:none; stroke:#efedea; stroke-miterlimit:10; stroke-width:3px;"/><line x1="106.72" y1="222.92" x2="62.7" y2="222.92" style="fill:none; stroke:#efedea; stroke-miterlimit:10; stroke-width:3px;"/><line x1="112.44" y1="272.66" x2="112.44" y2="228.64" style="fill:none; stroke:#efedea; stroke-miterlimit:10; stroke-width:3px;"/><line x1="62.7" y1="278.39" x2="106.72" y2="278.39" style="fill:none; stroke:#efedea; stroke-miterlimit:10; stroke-width:3px;"/><line x1="56.97" y1="228.64" x2="56.97" y2="272.66" style="fill:none; stroke:#efedea; stroke-miterlimit:10; stroke-width:3px;"/><line x1="1.5" y1="328.66" x2="1.5" y2="284.64" style="fill:none; stroke:#efedea; stroke-miterlimit:10; stroke-width:3px;"/><line x1="10.05" y1="324.84" x2="48.42" y2="286.47" style="fill:none; stroke:#efedea; stroke-miterlimit:10; stroke-width:3px;"/><line x1="10.05" y1="286.47" x2="48.42" y2="324.84" style="fill:none; stroke:#efedea; stroke-miterlimit:10; stroke-width:3px;"/><line x1="50.24" y1="278.39" x2="6.23" y2="278.39" style="fill:none; stroke:#efedea; stroke-miterlimit:10; stroke-width:3px;"/><line x1="56.97" y1="327.66" x2="56.97" y2="283.64" style="fill:none; stroke:#efedea; stroke-miterlimit:10; stroke-width:3px;"/><line x1="7.23" y1="333.39" x2="51.24" y2="333.39" style="fill:none; stroke:#efedea; stroke-miterlimit:10; stroke-width:3px;"/><line x1="1.5" y1="283.64" x2="1.5" y2="327.66" style="fill:none; stroke:#efedea; stroke-miterlimit:10; stroke-width:3px;"/><g><line x1="65.52" y1="324.84" x2="103.89" y2="286.47" style="fill:none; stroke:#efedea; stroke-miterlimit:10; stroke-width:3px;"/><line x1="65.52" y1="286.47" x2="103.89" y2="324.84" style="fill:none; stroke:#efedea; stroke-miterlimit:10; stroke-width:3px;"/><g><line x1="112.44" y1="327.66" x2="112.44" y2="283.64" style="fill:none; stroke:#efedea; stroke-miterlimit:10; stroke-width:3px;"/><line x1="62.7" y1="333.39" x2="106.72" y2="333.39" style="fill:none; stroke:#efedea; stroke-miterlimit:10; stroke-width:3px;"/><line x1="56.97" y1="283.64" x2="56.97" y2="327.66" style="fill:none; stroke:#efedea; stroke-miterlimit:10; stroke-width:3px;"/></g></g></g><g><g><path d="M67.1,270.26l.11-.12s-.06,.03-.11,.12Z" style="fill:#1c43df;"/><path d="M66.78,270.15s0,0-.01,0c.01,0,.01,0,.01,0Z" style="fill:#1c43df;"/><path d="M100.2,230.03c.03-.06,.04-.12,.03-.17-.05,.07-.05,.13-.03,.17Z" style="fill:#1c43df;"/><path d="M97.71,241.09s-.04-.05-.06-.07c0,.03,.02,.05,.06,.07Z" style="fill:#1c43df;"/><path d="M68.34,268.82s-.04,.03-.07,.04c.04,.06,.09,0,.07-.04Z" style="fill:#1c43df;"/><path d="M102.19,228.52s-.02-.05-.04-.07c.01,.03,.03,.05,.04,.07Z" style="fill:#1c43df;"/><path d="M73.5,265.67s.02-.05,.03-.07c-.02,.02-.03,.04-.03,.07Z" style="fill:#1c43df;"/><path d="M91.93,238.05s.01,.08,.03,.12c.01-.04,.01-.08-.03-.12Z" style="fill:#1c43df;"/><path d="M92.5,238.67c.17-.52-.42-.27-.55-.5-.04,.14-.27,.3-.04,.35-.55-.19-.34,.75-.83,.65,.03,.05,.26,.05,.22,.28-.17,.24-.32,.05-.48,.06,.04,.17-.19,.55-.21,.47-.04,.22,.5,.22,.47,.56,.12,.37-.26,.34-.35,.56-.35,0,.06-.3,.05-.46l-.4,.62c-.28,.02-.17-.31,0-.43-.36,.05-.48,.45-.34,.71-.17,.08-.19,.2-.4,.23,0-.23-.35-.58-.22-.82,.33-.29,.16,.38,.47,.17l-.19-.23c.23,0,.16-.24,.27-.38,.12-.01,.06,.09,.05,.17,.2-.23,.49-.29,.41-.7-.49,.1-.67,.8-1.04,.69l-.29,.88c.1,.1,.46,.05,.43,.36-.31-.18-.6-.12-.87,.06,.35,.19-.12,.6,.21,.7-.03-.24,.25-.07,.28-.06-.2,.23,.22,.28,.11,.41-.46,.34-.16-.19-.64,.11-.04-.2-.1-.68,0-1.01-.13-.1-.2,.23-.43,.19,.27,.01,.16,.34,.33,.3-.2,.43-.29,1.07-.62,1.52-.34-.46,.34-.95-.25-1.3-.13,.25,.07,.44-.11,.56-.37-.11-.47,.41-.72,.68h.23c0,.2-.25,.31-.39,.4l-.02-.08-.04,.19s-.04,0-.06-.02c0,.25-.43,.44-.59,.75,.19,.19,.24-.22,.37-.32,.08,.01,.37-.12,.4,.12-.29,.29-.26,.73-.6,1.05l.16-.05c.03,.24-.18,.32-.33,.48-.42,.15-.06-.48-.35-.42-.06-.28,.33-.29,.11-.56l-.45-.09c.01,.32-.4,.23-.47,.38h.23c.19,.24-.07,.19-.16,.21l.38,.23c.22-.11,.06-.49,.36-.44-.19,.39,.12,.57-.22,.93-.14-.1,.02-.11-.03-.24-.2,.04-.08,.41-.37,.51,.04-.19,.1-.49-.21-.51l.13,.34c-.13,.05-.18-.07-.22-.04-.17,.08,.27,.21,0,.35-.08-.02-.19,0-.22-.08-.24,.22-.04,.19-.14,.52,.19-.19,.55,.15,.39,.39-.32,.25-.32,.64-.81,.54l.02,.28c-.14-.3-.26,.11-.38,.16-.27-.21,.43-.42,.05-.81-.22,.15-.26-.05-.31-.22-.17,.24,.2,.35,.27,.6-.1-.1-.38,.32-.47-.01-.19,.16,.03,.43-.14,.52-.08-.11-.18-.26-.31-.37,.07,.1-.2,.16-.24,.18,.08,.02,.14,.26,.23,.05,.15,.22-.35,.36-.18,.51-.23-.2-.37,.28-.61,.35,.52,.49,.1-.49,.57-.12-.04,.38-.69,.72-.8,1.28-.39,.2-.19-.19-.44-.32,.19-.35,.4-.27,.55-.59-.34,.17-.71,.64-.74,.98-.26,.3-.82-.2-1.03,.27,.21,.12,.24,.16,.41,.12-.03,.15-.2,.2-.29,.29,.04,.16,.28-.02,.23,.2-.08,.02-.22,.11-.31-.02v-.04c-.17,.47-.62-.16-.59,.43,.1,.06,.06-.1,.18-.12,.18,.07,.19,.43,.11,.61-.09-.14-.13,.09-.26,.14-.25-.13,.17-.28,.09-.45l-.28,.22,.08-.02-.09,.45c.13-.25,.32,.14,.26,.25-.22,.15-.45,.3-.64,.07,.19,.23-.05,.46-.17,.67,.26-.11,.2,.16,.22,.28l-.48,.06c.22-.35-.25-.13-.32-.34-.14-.3,.15-.36,.33-.48-.68-.09-.2,.62-.64,.69-.1-.1-.19-.23-.05-.32-.11-.02-.04,.42-.33,.48,.11,.02,.4,.12,.31,.37h-.46c-.32,.2,.16,.33,.06,.66l.31,.02c.19,.23-.29,.29-.07,.53,.14-.13,.04-.38,.25-.46,.28,.17-.06,.3-.02,.5-.39,.2-.34,.13-.74,.17-.36-.34-.07-.79-.58-1.2-.22,.35-.52,.87-.85,.92-.15,.36,.15,.61,.39,.78-.07,.14-.15,.16-.27,.18v-.23c-.2,.43-.26,.73-.59,1.05-.13,.25,.16,.38,.37,.5l-.16,.24h.08c.18,.28-.08,.39-.22,.52-.1-.1-.04-.2-.11-.25-.2,.04-.36,.24-.36,.44-.1-.1-.23-.4-.02-.47,.04,0,.07,.05,.1,.06l.11-.37c-.16,.4-.57,.32-.79,.08-.16,.4,.47,.01,.22,.43-.89-.02-.7,.95-1.59,.54-.07,.34-.08,.8-.38,1.13,.19,.19-.14,.29,.14,.5,.55-.05,.19-.94,.79-.82,.04-.22-.17-.34-.21-.51,.1-.14,.24-.23,.37-.12-.16,.4,.4,.55,.05,.91,.21,.12,.44-.23,.61-.31,.05,.13,.2,.19,.35,.19,.07,.25,0,.58,.03,.82-.05-.13-.17-.11-.2-.19l-.09,.65c-.23,0-.41-.12-.45-.28-.26,.14-.34,.75-.64,.46-.22,.31,.26,.09,.36,.15v.04s.25-.3,.25-.3c.37,.31-.4,.23-.12,.6,.57,.66-.59,.2-.68,.49l-.22-.67-.1,.29c-.06-.28-.35-.58-.36-.93-.28,.26-.8,.51-.89,.76-.22-.08-.39-.2-.51-.37,0,.55-.56,.28-.8,.5-.08,.41,.47-.02,.51,.37-.19-.04-.23,.19-.26,.3,0-.16,.41-.27,.66-.38-.14,.13,.09,.33,.14,.46l.27-.18c.25,.28-.26,.3-.22,.54-.17-.31-.22-.28-.39-.58-.1,.29-.39,.59-.7,.6-.2,0-.04-.2-.05-.32-.21-.12-.1,.29-.34,.13-.12-.18,.11-.13,.13-.25l-.65,.5c-.1-.1,.01-.27,.14-.32-.29,.06-.36,.24-.23,.77-.29,.1-.66,.18-.73-.03-.03,.15,.12,.18,.22,.28-.32,.21,0,.58-.15,.75l.3,.06c-.44,.07,.24,.36-.13,.44-.15-.22-.38-.43-.62-.59,.15,.22-.16,.2-.26,.3,.25,.13-.04,.38,.31,.41-.07,.38-.43,.23-.36,.63,.16-.05,0,.39,.22,.43-.2,.23-.58,.16-.72-.1,.09-.06,.29-.1,.13-.25l-.36,.43c-.2,0-.37,.08-.6-.12,.12,.37-.55,.2-.35,.59-.05-.32,.31-.17,.39-.2l-.02,.1s.02-.02,.04-.02l.2,.55c.31-.02-.22-.28,.02-.5,.55,.15,.07,.99,.5,1,.28-.06-.08-.37-.07-.64l-.04,.03,.17-.47c.13,.1,.14,.3,.14,.3,.39-.39,.64-.26,1.1-.64-.08-.01-.52-.3-.4-.55,.05-.22,.28-.02,.41-.11-.02,.11,.12,.37-.11,.33l.26,.25c0,.62,.4,.7,.07,1.22,.17,.21-.05,.61-.33,.79l.28,.06c.08,.56-.31-.22-.34,.36-.46-.21-1.09-.37-1.2-.82-.3,.14-.19,.39-.39,.59-.4-.16-.24-.36-.54-.61-.11,.17-.17,.47,.09,.52l-.38,.16c-.07-.05,.03-.15,.08-.18-.17,.05-.23,.38-.19,.55,0-.04,.03-.15,.11-.13-.04,.19-.1,.52-.05,.61,.02-.31,.35,0,.34-.36,.06,.09,.18,.27,.05,.32,.31,.02,.42-.15,.67-.02-.26-.02-.13,.26-.13,.32,.16-.05,.33-.32,.32-.47,.33,.3,.37-.47,.55,0-.09-.13,.06-.3,.22-.31,.13,.14,0,.43,.06,.67-.27,.57-.22-.24-.42-.24l-.3,.34c.08,.01,.09,.35,.28,.12,.1,.29,.03,.63-.28,.65,.05,.13,.16,0,.2-.04,.05,.13,.18,.66,.49,.45-.09,.06-.02-.28-.26-.25,.07-.14,.49-.29,.55,0,.08-.18,.19-.55,.25-.69,.17,.11-.03,.15-.02,.27l.29-.45-.26-.05c.38-.16,.18-.7,.28-1.04,.22,.28,.06,.48,.04,.75,.44,.16-.07-.25,.2-.43,.08,.01,.14,.07,.2,.16l-.04-.4c.08-.02,.11,.06,.1,.1,.04-.58-.36-.34-.06-.87-.37,.12-.04,.38-.27,.57-.3-.06-.08-.56-.13-.73,.26-.14,.66,.21,.71-.25-.06,.3,.22,.24-.02,.5-.02,.27,.19,.04,.36,.15,.02-.11-.31-.22-.08-.37l.03,.04,.04-.58c.42-.15,.34-.95,.83-.85l-.31-.22c.16-.2,.4-.47,.48-.65,.12,.18,.01,.31-.06,.49,.37-.28,.5-.72,.5-1.15-.35-.03-.35,0-.63,.03-.16-.58,.47-.02,.56-.47,.26,.25,.13,.3,.45,.48-.06-.29,.16-.44,.14-.71,.31,.18,.41,.51,.15,.81-.43,0-.28,.61-.66,.57l.26,.05c-.14,.29-.31,.37-.37,.67l-.03-.04,.16,.34,.1-.1c.08,.21,.11,.64,.05,.71,.26-.34-.12-.76-.2-1.13,.29-.26,.84,.09,.8-.31,.14,.11,.41,.08,.4,.31-.08,.22-.34,.17-.19,.35,.15-.17,.19,0,.4-.27-.18-.27-.22-.67-.22-1.02,.06-.3,.3-.53,.51-.6-.16,.2-.12,.6,.09,.72-.13-.34,.54-.17,.16-.43,.23-.19,.58-.55,.88-.3-.1,.3-.46,.33-.57,.55,.05-.04,.17-.02,.21,.08l-.28,.22c.32-.05,.37,.07,.58-.2-.04,0-.11-.02-.1-.06,.05-.07,.14-.13,.19-.2l.26,.25c.06-.3,.73-.32,.87-.84l.02,.08c.32-.21-.16-.73,.06-1.08,.04,.2,.18,.27,.31,.37,.01-.27,.3-.14,.51-.21-.31,.02-.16-.38-.36-.34-.26-.25,.03-.54,.21-.66,.42,.24-.29,.65,.28,.76,.18-.12,.03-.34-.13-.3,.23-.15,.55-.4,.89-.33-.02-.47,.2-.43,.02-.89-.11,.13,.12,.37-.16,.4l-.07-.4c.2-.23,.58-.2,.76-.32l-.05,.26-.03-.05c.05,.17-.22,.31-.02,.46-.08-.37,.25-.26,.28-.61l.03,.05c.14-.52,.94-.21,.68-.88-.05,.07-.35,0-.4-.12,.19,.04,.35-.2,.48-.06l-.02,.11c.22-.15,.36-.24,.38-.35-.11-.22-.29-.29-.25-.52,.43-.23,.25,.52,.62,.43l.14-.48,.22,.08c.61-.31,.46-1.16,.95-1.64,.26,.25,.01,.7-.09,.84,.37,.07,.28-.45,.64-.5,.22-.15,.14-.52-.03-.63,.14-.32,.31-.02,.39,0-.2-.35,.19-.55,.32-.79l.16,.15,.1-.49c-.09,.06-.16-.15-.26-.25l.09-.06c-.71-.14-.35,.94-1.12,.75,.03-.15-.17-.11-.14-.26,.09-.06,.13-.05,.2,0-.08-.17-.08-.41-.22-.24-.32-.34,.07-.57,.18-.9,.38,.04,.14,.5,.2,.74,.06-.11-.02-.32,.19-.35l.22,.28c.17-.43-.13-.3-.31-.61-.23-.4,.28-.26,.34-.36l-.03,.15c.34-.13,.13-.44,.36-.63l.29,.1c-.51,.02,.02,.67-.26,.69,.61-.15,.43,.59,.52,.92,.12-.21,.3-.33,.52-.29-.08-.56,.62-.38,.47-1,.17-.08,.06,.28,.2,.16,.28-.22,.49-.53,.61-.93,.14-.13,.23,0,.37,.07,.8-.5,.47-1.35,1.32-1.92l.03,.24c.18-.12,.35-.2,.25-.46,.62,.24,.38-.9,1.07-.68,.4-.23,.05-.62,.23-.93,.1,.1,.2,.35,.38,.27,.66-.96,1.36-1.72,2.17-2.69,.03,.04,.02,.12,0,.16,.61-.54,.77-1.52,1.39-1.87,.03-.15,.22-.5-.04-.59-.14,.09-.37-.11-.49-.25,.24-.62,.52,.1,.75-.24,.42,.24,.04,.4,.33,.69l.2-.62c.34-.13,.38-.55,.74-.59-.13,.05,.22,.28-.06,.3,0-.04-.03-.04-.02-.08-.37,.32-.03,.35-.26,.73,.19-.35,.47-.8,.78-.98-.28-.17,.1-.29,.02-.5h.04c-.1-.09-.02-.31,0-.38l.34,.22c.07-.14-.17-.11-.1-.25,.08-.22,.58-.78,.92-.52,.16-.2,.05-.42,.27-.57,.06,.09,.04,.16,.08,.21,.46-.34,.85-.92,1.39-1.13,.23-.38,.45-.69,.45-1.08-.06,.1-.37,.28-.38-.04-.04-.2,.14-.28,.21-.46,.12,.18,.46-.18,.31,.18,.39,.26,.49-.61,.81-.29-.04-.16,.38-.46,.34-.77,.17,.11-.1,.29,0,.39l.12-.21,.1,.1c.4-.23,.06-.69,.19-.94l.03,.04,.08-.18,.11,.41c.16-.24,.04-.58,.21-.86l.11,.06,.05-.23s.02,.08,.06,.09c-.12-.37,.27-.57,.18-.9,.13-.05,.51,.18,.42-.15l.28,.33c-.26,.34-.33-.1-.53,.32,.63,.16,1.24-.54,1.64-1,.15-.56,1.06-.81,.75-1.41l.15,.22,.75-.44c.43-.58,1.09-.96,1.22-1.59l.26,.05c-.13-.92,1.13-1.57,.77-2.46,.37-.08,.17,.31,.26,.44,.22-.11,.08-.8,.52-.68,.1,.1-.14,.32,.02,.28,.3,.06,0-.35,.33-.29-.25-.13-.19-.62-.02-.86t-.08,.02c-.17-.11,0-.23,.07-.34,0,0,.03,.04,.02,.08,.8-1.28,1.88-2.59,3.16-3.51l-.07,.34c.05-.26,.41-.47,.53-.52v.04c.58,0,.04-.61,.6-.5v.07c.33-.36,.85-.26,1.03-.77,.38-.16,.5,.02,.82-.03,.15-.16,.04-.42,.02-.46l-.09,.06c-.25-.09,.02-.31,.06-.49-.35-.19-.73-.65-1.32-.61-.14,.32-.66-.21-.88,.1,.21,.51-.64,.11-.56,.67-.12-.37-.42,.15-.48-.33-.29-.1-.3,.72-.72,.68-.02-.08-.09-.14-.07-.21-.12,.41-.35,0-.55,.2l.26,.25c0,.16-.19,0-.22,.11,.08-.02,.32-.02,.36,.15-.03,.15-.02,.31-.12,.41-.1-.1-.07-.21-.06-.28,0,0-.23,.19-.37,.08,0-.16,.09-.25,.01-.46-.35,.2-.1-.06-.44-.13,.34,.26-.11,.37-.2,.58-.14-.1,.07-.14,.01-.27-.81-.24-.34,.52-.82,.77-.03-.04-.02-.12,0-.16-.09,.26-.49,.1-.43,.38-.22,.11-.37-.31-.62-.04,.38,.23-.36,.24-.04,.58h-.39c0,.35,.6,.51,.29,.88-.43,.19-.51-.57-.86-.56l.1,.25-.28,.02v-.04c-.02,.15-.24,.26-.34,.17-.06-.09,.04-.19-.02-.28,.02,.31-1.04,.15-.7,.8-.18,0-.36,.19-.49,0,.14,.3-.47,.33-.45,.59-.06-.09-.29-.1-.32,.05,.2-.04,.21,.12,.25,.32-.26-.05-.43,.38-.74,.17-.02,.31,.22,.43,.38,.66-.26-.05-.57,.32-.81-.04,.13-.05,.39-.2,.15-.36-.28,.06,0,.16-.1,.33-.04-.07-.28-.09-.34-.2-.05,.12-.17,.23-.34,.3,.32-.05,.09,.33,.32,.34l-.04-.4c.2-.23,.21,.12,.37,.11-.32,.44,.06,.67-.16,1.18-.12,.02-.32,.05-.37,.08,.11-.14-.2-.39-.32-.37,.03,.43-.51,.21-.73,.32,.21-.08,.31,.18,.33,.3-.18,.51-.24,.03-.52,.05-.5,.56-1.2,.54-1.44,1.16l.46,.05-.17-.31c.34,.03,.51,.57,.58,.81-.11-.06-.32,.25-.35,0l-.15,.36c.14,.07,.26-.14,.26,.09-.16,0-.47,.22-.45-.09-.14,.13-.23,.38-.06,.49-.2,.23-.28-.33-.28-.52-.19,.16-.37-.07-.39-.19l-.21,.27c-.01-.12-.11-.22-.13-.34-.25,.07-.09,.45-.43,.38l.14,.26c-.6,.27-.58,.2-1.01,.58l.22,.08c-.04,.58-.46-.01-.77,.51-.14,.32-.22,.54,.05,.75-.05,.22-.22,.11-.37,.08,.03,.24,.05,.71-.26,.73,.04-.19,.07-.34,.13-.48-.27-.21-.41,.31-.7,.37,0,.23-.11,.92-.11,1.34,.29,.1,.54,.42,.54,.81-.12-.18-.41,.11-.65,.14-.07-.21-.65-.05-.43-.39,.16,0,.4,.16,.44-.03-.22-.08-.57-.07-.89-.02-.06-.09-.06-.28,.04-.38,.01,.12,.09,.13,.16,.19Z" style="fill:#1c43df;"/><path d="M68.34,268.82s.03-.01,.04-.02l-.09-.02s.05,.02,.05,.04Z" style="fill:#1c43df;"/><path d="M86.56,244.43s0,.09,.03,.12c0-.04,0-.08-.03-.12Z" style="fill:#1c43df;"/><path d="M82.63,248.69s.05,.04,.07,.06c-.01-.02-.03-.04-.07-.06Z" style="fill:#1c43df;"/><path d="M66.38,267.39l.02-.12s-.01,.06-.02,.12Z" style="fill:#1c43df;"/></g><g><path d="M71.47,224.25h.2s-.07-.03-.2,0Z" style="fill:#1c43df;"/><path d="M71.29,223.94h-.02s0,0,.02,0Z" style="fill:#1c43df;"/><path d="M115.89,244.83c.02,.07,.05,.14,.1,.17-.02-.11-.06-.15-.1-.17Z" style="fill:#1c43df;"/><path d="M109.83,233.15s.06,0,.09,0c-.02-.02-.05-.02-.09,0Z" style="fill:#1c43df;"/><path d="M73.78,224.11l-.09-.02c-.02,.08,.07,.07,.09,.02Z" style="fill:#1c43df;"/><path d="M115.55,247.85s.05,.02,.08,.02c-.03-.01-.06-.02-.08-.02Z" style="fill:#1c43df;"/><path d="M80.94,225.54s.06-.02,.08-.03c-.03,0-.06,0-.08,.03Z" style="fill:#1c43df;"/><path d="M116.07,230.8s-.07-.06-.1-.08c.02,.05,.05,.08,.1,.08Z" style="fill:#1c43df;"/><path d="M115.22,230.77c.24,.59,.49-.13,.75-.04-.07-.16-.02-.5-.22-.34,.52-.31-.29-.94,.13-1.28-.05-.01-.22,.18-.35-.05-.05-.35,.19-.32,.3-.47-.15-.1-.25-.63-.18-.58-.13-.23-.51,.25-.73-.08-.35-.22-.05-.52-.15-.78,.24-.31,.17,.31,.29,.44l-.16-.88c.18-.26,.34,.12,.3,.38,.11-.18,.12-.38,.06-.55-.06-.16-.18-.31-.32-.42,.06-.38,0-.56,.12-.93,.16,.33,.66,.24,.74,.86-.03,.78-.38-.17-.46,.37l.3,.04c-.17,.19,.05,.35,.07,.56-.07,.12-.11-.03-.15-.1,.02,.38-.14,.67,.2,.96,.27-.51-.1-1.27,.24-1.49-.03-.05-.07-.23-.1-.4l-.1-.48-.21-.91c-.14,.05-.36,.7-.56,.25,.35-.28,.51-.87,.57-1.63-.38,.42-.34-.95-.65-.42,.19,.2-.13,.53-.16,.58-.02-.6-.35,.1-.37-.22,.08-1.12,.24-.09,.38-1.28,.17,.1,.55,.47,.71,1.09,.17-.14-.02-.67,.17-1.09-.2,.53-.36-.05-.44,.33-.12-.64-.36-1.21-.52-1.82-.33,.06-.64,.1-.94,.12,.3-.26,.8-.37,1.29-.48,.13,.32,.25,.65,.61,.13-.06-.36-.2-.35-.28-.46-.12,.04-.25,.06-.39,.04-.09-.34-1.37-.04-2.15-.03l.24,.17c-.38,.14-.85,.03-1.19,0l.13-.07-.39,.11s-.05-.03-.04-.05c-.44,.17-1.33,0-2.06,.11-.03,.27,.69,.01,1.02,.04,.08,.06,.67,.18,.3,.37-.41,0-.78,.08-1.14,.16-.18,.04-.36,.08-.55,.11-.19,.03-.41,.05-.52,.05,.07,.03,.11,.06,.19,.08-.21,.19-.43,.1-.71,.11-.49-.19,.36-.38,.06-.54,.19-.24,.53,.03,.58-.32l-.31-.38c-.26,.23-.54-.12-.73-.06l.19,.17c-.04,.3-.22,.07-.31,.03l.13,.43c.28,.07,.48-.31,.68-.05-.5,.14-.39,.49-.99,.5-.03-.17,.12-.06,.18-.19-.21-.12-.43,.23-.76,.1,.19-.11,.5-.28,.26-.51l-.18,.33c-.16-.05-.09-.18-.16-.19-.22-.06,.05,.34-.3,.25-.05-.06-.17-.14-.12-.21-.4-.01-.19,.11-.57,.26,.34,0,.35,.5,0,.55-.49-.05-.83,.22-1.16-.19l-.22,.21c.14-.31-.31-.11-.47-.16-.05-.34,.74,0,.74-.54-.32-.05-.18-.22-.08-.37-.35,.05-.13,.39-.28,.61,0-.14-.6-.04-.39-.34-.3-.02-.35,.33-.57,.27,.03-.14,.07-.31,.05-.48-.03,.11-.31-.03-.36-.04,.05,.06-.1,.29,.16,.19-.06,.26-.61,.01-.59,.23-.03-.31-.56-.06-.83-.19,.03,.72,.5-.28,.59,.32-.36,.24-1.22,.02-1.8,.34-.5-.14,0-.28-.1-.54,.46-.12,.58,.09,.98-.03-.44-.13-1.16-.05-1.49,.17-.48,.03-.53-.72-1.11-.54,.08,.23,.06,.29,.25,.37-.16,.08-.34,0-.5,0-.1,.15,.26,.18,.03,.31-.09-.04-.28-.07-.25-.23l.04-.02c-.56,.21-.4-.56-.88-.12,.04,.12,.14-.03,.26,.04,.09,.18-.21,.43-.43,.51,.04-.16-.19-.03-.35-.08-.1-.26,.39-.08,.47-.25l-.43-.04,.09,.04-.46,.25c.32-.08,.16,.33,.01,.36-.32-.05-.65-.11-.61-.4-.04,.3-.44,.29-.72,.35,.31,.11,.04,.25-.05,.35l-.47-.3c.49-.09-.1-.26,.01-.47,.14-.31,.44-.15,.7-.11-.51-.55-.71,.3-1.15,.03,0-.14,.04-.3,.23-.27-.08-.09-.4,.27-.7,.11,.08,.1,.25,.37-.05,.49l-.39-.34c-.45-.07-.15,.36-.53,.52l.25,.23c-.04,.3-.5,0-.52,.33,.23,.01,.36-.24,.61-.15,.09,.32-.31,.17-.45,.34-.51-.14-.4-.15-.78-.4-.01-.5,.62-.61,.54-1.26-.49,.09-1.2,.24-1.52,.06-.44,.15-.4,.54-.33,.83-.18,.05-.27,0-.39-.06l.21-.16c-.54,.16-.85,.33-1.42,.32-.32,.09-.19,.38-.11,.61l-.35,.05,.05,.06c-.08,.32-.39,.21-.62,.2,0-.14,.14-.17,.13-.25-.21-.12-.52-.08-.68,.05,0-.14,.14-.44,.39-.35,.03,.03,.01,.08,.04,.12l.41-.18c-.48,.17-.76-.18-.75-.51-.48,.17,.39,.34-.18,.47-.75-.64-1.42,.18-1.84-.74-.35,.19-.76,.51-1.3,.53,0,.28-.36,.11-.31,.45,.52,.36,.97-.53,1.38-.02,.23-.13,.15-.36,.26-.51,.21-.02,.4,0,.43,.18-.48,.17-.13,.67-.74,.68,.08,.23,.57,.15,.79,.21-.06,.13,0,.27,.14,.38-.16,.22-.5,.41-.68,.6,.06-.13-.05-.2,0-.28l-.63,.39c-.19-.17-.25-.37-.14-.52-.35-.08-.94,.29-.94-.13-.45,.06,.14,.24,.18,.36l-.04,.02,.48-.03c.05,.48-.54-.12-.62,.34-.08,.87-.67-.27-1.01-.14l.39-.62-.34,.14c.19-.24,.19-.66,.49-.91-.46-.02-1.13-.21-1.42-.09-.12-.21-.17-.41-.12-.62-.47,.39-.72-.2-1.13-.21-.43,.23,.43,.32,.12,.62-.13-.16-.36-.03-.48,.03,.13-.12,.58,.09,.89,.2-.23-.01-.21,.3-.27,.42l.39,.06c-.03,.38-.48,.03-.66,.22,.11-.34,.05-.35,.17-.69-.34,.14-.84,.14-1.13-.07-.17-.14,.14-.17,.23-.27-.08-.23-.34,.14-.4-.15,.05-.21,.21-.02,.32-.08l-.98-.11c0-.14,.24-.18,.4-.13-.3-.16-.52-.08-.87,.38-.34-.14-.72-.34-.61-.54-.15,.08-.05,.21-.05,.35-.45-.07-.5,.41-.77,.42l.21,.25c-.44-.26-.1,.42-.49,.22,.06-.26,.04-.57-.03-.86-.06,.26-.31,.03-.48,.03,.1,.26-.36,.24-.09,.51-.39,.21-.57-.15-.85,.19,.18,.08-.34,.28-.18,.47-.38,.02-.63-.3-.53-.58,.13,.02,.34,.14,.32-.08l-.68,.05c-.17-.14-.39-.2-.42-.51-.22,.35-.65-.24-.81,.17,.23-.27,.41,.09,.5,.14l-.11,.06s.03,0,.06,.02l-.3,.53c.28,.21,.05-.35,.45-.34,.35,.5-.79,.75-.43,1.06,.3,.16,.24-.32,.49-.5h-.06s.56-.22,.56-.22c.03,.17-.14,.31-.14,.31,.67,0,.78,.26,1.5,.33-.05-.06-.19-.58,.13-.67,.23-.13,.26,.18,.45,.21-.12,.06-.22,.35-.37,.16v.36c-.53,.43-.25,.78-.98,.91-.03,.26-.57,.4-.97,.32l.19,.24c-.41,.45-.08-.37-.61,.01-.22-.48-.62-1.04-.33-1.43-.38-.11-.5,.14-.84,.14-.21-.39,.1-.42,.06-.81-.25,.04-.56,.21-.37,.43l-.47-.16c-.01-.08,.15-.08,.22-.07-.18-.08-.53,.11-.63,.25,.04-.02,.16-.09,.21-.02-.19,.11-.54,.3-.57,.4,.28-.2,.31,.24,.61-.01-.03,.11-.08,.32-.23,.26,.25,.23,.49,.19,.59,.45-.21-.2-.34,.09-.38,.13,.19,.08,.56,0,.68-.11,.03,.44,.72-.08,.48,.38,.04-.16,.31-.17,.45-.06-.01,.19-.37,.3-.53,.52-.72,.21,.01-.33-.16-.47l-.55,.03c.06,.06-.22,.31,.14,.29-.17,.28-.52,.47-.8,.26-.07,.13,.14,.11,.21,.12-.06,.13-.41,.59,.04,.67-.13-.02,.22-.21-.01-.36,.18-.05,.67,.14,.48,.38,.22-.07,.63-.26,.81-.31,.05,.2-.15,.09-.25,.18l.63-.12-.18-.22c.46,.16,.76-.37,1.14-.53-.05,.35-.36,.38-.61,.56,.23,.42,.15-.22,.54-.16,.05,.06,.07,.15,.04,.25l.31-.31c.09,.04,.04,.12,0,.14,.53-.38-.01-.5,.7-.66-.43-.18-.36,.24-.72,.21-.21-.25,.41-.45,.52-.6,.35,.08,.39,.61,.83,.33-.31,.17-.01,.33-.45,.34-.25,.18,.13,.16,.18,.36,.12-.06-.08-.37,.25-.32v.05s.52-.38,.52-.38c.49,.19,1.11-.42,1.45-.01l-.08-.37c.31-.03,.75-.04,.97-.12-.05,.21-.26,.23-.48,.31,.56,.06,1.05-.16,1.42-.46-.27-.26-.31-.24-.57-.42,.36-.52,.43,.32,.89,.06,.01,.36-.14,.31-.03,.66,.19-.24,.52-.19,.74-.4,.12,.35-.09,.65-.57,.68-.36-.31-.76,.23-1.06-.06l.18,.22c-.36,.11-.58,.04-.89,.21v-.05s-.14,.36-.14,.36h.17c-.12,.2-.46,.53-.57,.54,.52-.05,.56-.63,.8-.94,.47,.02,.65,.66,.96,.35,.03,.17,.29,.35,.08,.51-.26,.1-.44-.13-.46,.12,.27-.01,.17,.14,.58,.09,.08-.32,.39-.63,.68-.88,.31-.17,.71-.16,.96-.06-.31,.03-.62,.34-.54,.57,.18-.33,.61,.26,.52-.19,.36,.03,.97,.02,1.01,.41-.34,.15-.67-.09-.96,0,.08,0,.16,.11,.11,.2l-.43-.04c.32,.19,.26,.32,.67,.27-.03-.03-.08-.09-.04-.11,.1-.01,.23,0,.34,0v.36c.32-.17,.92,.29,1.49,.02l-.05,.07c.45,.07,.49-.64,.98-.72-.14,.17-.08,.32-.05,.49,.25-.18,.38,.12,.62,.21-.29-.21,.19-.38-.01-.5-.01-.36,.49-.36,.75-.32,.15,.47-.8,.26-.41,.73,.26,.04,.32-.22,.14-.31,.32,.05,.81,.1,1.05,.39,.39-.35,.54-.16,.79-.61-.21,.02-.22,.35-.48,.17l.28-.34c.37-.02,.67,.27,.93,.32l-.27,.15v-.05c-.09,.15-.44,.06-.4,.32,.24-.32,.44,0,.76-.23v.05c.56-.27,.97,.52,1.33-.14-.1,.01-.31-.24-.25-.37,.13,.16,.48,.1,.47,.3l-.12,.06c.32,.05,.52,.08,.63,.02,.09-.23,0-.41,.23-.54,.57,.15-.23,.54,.16,.74l.53-.24,.12,.21c.79,.21,1.4-.49,2.24-.49,.01,.36-.59,.51-.8,.53,.26,.32,.63-.12,.98,.11,.32,.05,.57-.27,.52-.47,.4-.13,.28,.21,.34,.27,.13-.39,.63-.25,.96-.34v.22s.52-.27,.52-.27c-.13-.02-.01-.22-.01-.36l.13,.02c-.49-.6-1.11,.42-1.62-.26,.15-.08-.05-.2,.1-.29,.13,.02,.15,.05,.17,.14,.08-.18,.28-.34,.01-.33,.01-.47,.56-.35,.93-.51,.3,.3-.31,.45-.46,.67,.14-.03,.26-.23,.47-.12l-.05,.35c.52-.19,.14-.31,.26-.64,.14-.45,.47,.02,.61-.01l-.15,.08c.4,.15,.49-.22,.85-.19l.17,.28c-.45-.35-.55,.49-.81,.31,.66,.33-.14,.72-.35,1.02,.29-.06,.54-.02,.7,.17,.41-.46,.87,.17,1.27-.37,.22,.06-.19,.24,.04,.25,.43,.04,.88-.02,1.33-.22,.23,.01,.19,.17,.26,.32,1.13,.21,1.56-.63,2.79-.43l-.18,.19c.26,.04,.48,.11,.61-.15,.32,.6,1.1-.37,1.51,.27,.54,.12,.57-.4,1-.5,0,.14-.13,.39,.09,.46,.7-.11,1.36-.17,2.04-.22,.34-.02,.68-.05,1.04-.07l.27-.02c.08,0,.21-.01,.2-.02l.14-.04c-.01,.05-.04,.1-.05,.12,.1,.03,.24-.11,.43-.22,.19-.12,.43-.21,.48-.12,.05-.03,.14-.08,.23-.14,.07-.03,.17-.07,.31-.23,.02-.06,.1-.16,.2-.28,.09-.1,.21-.23,.31-.33,.01,0,.02,0,.03-.01,.23,.2-.45,.61-.37,.76-.47,.42-.31,.11-.72,.47,.1-.02,.2-.02,.3,0-.15,.22,.12,.24-.1,.45,.05-.07-.35,.11-.17-.03,.02,0,.05-.02,.07-.02,.04-.2-.22,0-.33-.05,.12,.02,.23,.16,.14,.29,.32-.1,.14,.06,.34,.08h-.03c.14,0,.23,.09,.28,.12-.13,0-.27,.05-.4,.08,.05,.18,.2-.05,.25,.13,.1,.26,.14,1.18-.28,1.24,.03,.31,.27,.4,.21,.72-.11-.03-.15-.1-.2-.11-.08,.68,.05,1.52-.19,2.17,.11,.53,.17,.98,.45,1.32-.03-.14,.06-.56,.3-.3,.17,.14,.11,.36,.18,.58-.21-.05-.2,.56-.35,.12-.46,.11,.09,.95-.37,.94,.14,.1,.06,.73,.31,.96-.2,.05-.14-.34-.28-.34l.06,.28h-.14c-.12,.54,.44,.65,.53,.97h-.05s.07,.21,.07,.21l-.37-.26c.05,.35,.38,.53,.46,.92l-.12,.04,.13,.23s-.07-.05-.11-.03c.35,.22,.21,.72,.51,.93-.05,.15-.49,.29-.19,.49l-.43-.04c-.05-.52,.31-.19,.15-.74-.56,.4-.5,1.53-.45,2.28,.29,.61-.18,1.6,.47,1.86l-.26-.06-.22,1.02c.11,.87-.09,1.76,.27,2.42l-.22,.18c.74,.68,.31,2.33,1.2,2.78-.2,.39-.34-.12-.5-.16-.07,.29,.51,.76,.11,1.03-.14,0-.13-.4-.21-.22-.25,.21,.25,.3-.03,.53,.26-.1,.57,.37,.62,.72q.01-.06,.04-.09c.2-.05,.16,.21,.19,.35,0,0-.05-.01-.07-.05,.34,1.8,.5,3.85,.25,5.74l-.19-.35c.15,.27,.04,.75,0,.9l-.02-.04c-.41,.5,.4,.57-.07,.96l-.04-.08c.01,.61-.43,.97-.2,1.56-.16,.47-.37,.42-.56,.74,0,.27,.26,.4,.32,.41l.02-.13c.24-.14,.2,.28,.31,.48,.38-.14,.97-.07,1.36-.61-.13-.4,.61-.39,.55-.84-.51-.26,.38-.65-.08-1.06,.35,.22,.19-.49,.57-.13,.28-.17-.3-.88,.03-1.2,.08,.05,.16,.04,.2,.12-.2-.45,.24-.31,.24-.65h-.36c-.12-.12,.14-.16,.07-.27-.04,.09-.21,.28-.36,.18-.08-.16-.2-.28-.2-.45,.14,0,.2,.11,.24,.19,0,0,.03-.36,.2-.39,.12,.13,.12,.3,.32,.41,.11-.48,.12-.04,.4-.27-.42,.07-.18-.41-.28-.67,.17-.03,.05,.18,.18,.25,.74-.49-.13-.74,.03-1.37,.05,.01,.1,.09,.12,.13-.12-.3,.28-.51,.03-.7,.07-.29,.48-.05,.47-.49-.43,.13,.08-.52-.38-.53l.27-.34c-.25-.3-.78,.08-.83-.5,.17-.53,.76,.05,1-.26l-.25-.13,.18-.26,.02,.04c-.08-.16-.01-.44,.13-.44,.11,.03,.11,.19,.21,.22-.23-.26,.63-1.02-.07-1.29,.12-.15,.12-.47,.34-.43-.31-.14,.1-.69-.1-.89,.11,.03,.27-.17,.19-.32-.12,.21-.23,.08-.4-.06,.22-.18,.03-.7,.4-.78-.2-.28-.47-.18-.73-.24,.22-.18,.18-.76,.6-.66-.05,.16-.14,.51,.15,.44,.16-.3-.12-.13-.16-.37,.08,.02,.26-.17,.38-.12-.05-.14-.04-.35,.03-.55-.19,.32-.3-.21-.47-.01l.31,.31c.02,.38-.23,.08-.34,.22-.09-.66-.52-.53-.72-1.15,.07-.12,.19-.32,.2-.39,.02,.21,.41,.17,.49,.05-.33-.35,.21-.62,.28-.9-.09,.25-.35,.12-.44,.03-.23-.59,.15-.23,.33-.49-.04-.92,.46-1.5,.2-2.24l-.36,.35,.34,.12c-.26,.27-.76-.05-.98-.21,.12-.04,.05-.49,.24-.31l-.15-.44c-.15,.07-.08,.35-.24,.14,.11-.14,.18-.6,.38-.31,.01-.23-.11-.53-.31-.48-.02-.37,.43,.04,.57,.21,.02-.3,.32-.26,.41-.17l-.04-.41c.09,.09,.23,.09,.33,.18,.13-.27-.25-.47,.03-.7l-.29-.1c.23-.75,.27-.67,.31-1.37l-.21,.12c-.38-.53,.34-.39,.18-1.1-.13-.4-.22-.66-.56-.61-.13-.23,.07-.28,.2-.39-.19-.18-.54-.57-.33-.85,.11,.19,.19,.35,.24,.53,.34-.05,.07-.62,.23-.92-.16-.21-.57-.88-.87-1.25-.28,.17-.68,.1-.95-.23,.21,.05,.21-.45,.36-.69,.2,.11,.49-.52,.58-.03-.1,.14-.39,.21-.29,.4,.21-.12,.45-.43,.65-.75,.11,.02,.24,.19,.24,.36-.09-.09-.16-.04-.24-.03Z" style="fill:#1c43df;"/><path d="M73.78,224.11h.05s-.06-.06-.06-.06c.02,.03,.02,.05,.01,.06Z" style="fill:#1c43df;"/><path d="M111.79,219.75c-.05,.01-.16,.06-.18,.11,.07-.03,.13-.06,.18-.11Z" style="fill:#1c43df;"/><path d="M103.42,219.98s0,.06,.01,.09c0-.02,0-.05-.01-.09Z" style="fill:#1c43df;"/><path d="M73.33,221.72l.13-.07s-.07,.04-.13,.07Z" style="fill:#1c43df;"/></g></g><g><g><path d="M10.23,325.22c.21,.35,.11,.07,.16-.05l-.16,.05Z" style="fill:#1c43df;"/><path d="M10.39,325.18l.12-.03c-.07-.03-.1,0-.12,.03Z" style="fill:#1c43df;"/><path d="M11.29,324.67c.06,.38-.44,.27-.2,.71,.36,.04,.53-.3,.2-.71Z" style="fill:#1c43df;"/><polygon points="10.83 324.69 10.99 324.9 10.85 324.47 10.83 324.69" style="fill:#1c43df;"/><polygon points="10.56 324.62 10.65 324.67 10.68 324.26 10.56 324.62" style="fill:#1c43df;"/><path d="M11.97,324.26l-.11,.21c-.4-.1-.24-.44-.51-.51-.2,.2,.45,.59,.12,.76,.26,.22,.4-.41,.73,0,.33-.09-.21-.23-.23-.48Z" style="fill:#1c43df;"/><path d="M19.68,312.52s.04,0,.06,.01c-.05-.03-.09-.05-.06-.01Z" style="fill:#1c43df;"/><path d="M22.08,309.59c.07,0,.13-.01,.19-.03-.05-.03-.1-.05-.14-.06l-.04,.09Z" style="fill:#1c43df;"/><path d="M18.71,314.89c-.08,0-.14,0-.2,.01,.07,.03,.14,.04,.2-.01Z" style="fill:#1c43df;"/><path d="M37.02,299.26s.05,.07,.09,.12c0,0,0,0,.01,0l-.07-.13h-.04Z" style="fill:#1c43df;"/><path d="M24.49,306.03s.07-.1,.08-.16c-.08,.06-.09,.11-.08,.16Z" style="fill:#1c43df;"/><path d="M17.78,315.88s.03-.03,.04-.04c-.03,0-.06,0-.09,.01l.04,.03s0,0,0,0Z" style="fill:#1c43df;"/><path d="M20.71,309.96c.06,0,.11-.02,.14-.05-.06,0-.11,.02-.14,.05Z" style="fill:#1c43df;"/><path d="M14.85,322.2c.08-.01,.09-.07,.08-.15-.08-.03-.13,0-.08,.15Z" style="fill:#1c43df;"/><path d="M15.77,321.21s0,0,0,0c.05,.04,.04,.03,0,0Z" style="fill:#1c43df;"/><path d="M16.41,320.63s0,.01,0,.02c.04,.03,.05,.03,0-.02Z" style="fill:#1c43df;"/><path d="M14.94,322.05c.23,.07,.72,.52,.31-.1l-.09-.05c.18,.06,.07-.24,.12-.32-.06-.04-.11-.07-.15-.1-.04,.03-.1,.06-.21,.1-.19-.02,0,.28,.02,.48Z" style="fill:#1c43df;"/><path d="M19.77,312.63c-.1-.09-.12,.03,0,0h0Z" style="fill:#1c43df;"/><path d="M19.34,313.83s.07-.04,.1-.06c-.04,0-.09,.01-.1,.06Z" style="fill:#1c43df;"/><path d="M16.11,316.8s.02,0,.04,0c-.05-.06-.05-.04-.04,0Z" style="fill:#1c43df;"/><path d="M19.51,313.7s-.05,.05-.08,.07c.04,0,.08-.01,.08-.07Z" style="fill:#1c43df;"/><path d="M17.32,316.15s.02,0,.03,0c-.01,0-.02,0-.03,0Z" style="fill:#1c43df;"/><path d="M51.4,288.2c-.02,.11-.19,0-.29,.03,.21,.47,.28-.26,.39,.23,.06-.06,.06-.15,.05-.24l-.41-.24c.01,.24,.19,.03,.25,.23Z" style="fill:#1c43df;"/><path d="M38.47,299.16h-.06c.17,.13,.2,.19,.38,.17-.14-.31-.61-.51-.71-.91,0,.05-.06,.09-.13,.1,.26,.14,.41,.41,.52,.65Z" style="fill:#1c43df;"/><path d="M37.95,298.51s-.01,0-.02-.01c-.04-.02-.07-.04-.1-.06-.02,.02-.06,.03-.1,.02,.07,.04,.16,.06,.22,.05Z" style="fill:#1c43df;"/><path d="M49.2,290.12s-.07,.03-.1,.04c.1,.03,.12,0,.1-.04Z" style="fill:#1c43df;"/><path d="M28.41,310.34c0,.06,0,.13,.02,.18,.03-.06,.01-.12-.02-.18Z" style="fill:#1c43df;"/><path d="M36.68,300.31s-.09,0-.12,.02c-.01,.02-.02,.04-.03,.06l.16-.08Z" style="fill:#1c43df;"/><path d="M38.47,292.3c.31,.42,.01-.07,.33,.04l-.1-.29c-.15,.03-.17,.17-.23,.25Z" style="fill:#1c43df;"/><path d="M51.59,288.23s-.02-.02-.03-.03c0,0,0,0,0,.02l.03,.02Z" style="fill:#1c43df;"/><path d="M41.27,289.34s.07,0,.1,0c-.03-.01-.06-.02-.1,0Z" style="fill:#1c43df;"/><path d="M37.22,298.93l-.39,.35,.2-.02c-.13-.23,.36-.06,.19-.33Z" style="fill:#1c43df;"/><path d="M36.67,293.67l-.26-.19c.11,.84-1,.59-.62,1.55-1.23-.34,.41,1-.71,.71l.13,.1c-1.49,1.22-3.33,2.25-4.22,3.89l-.15-.16c-2.31,1.77-3.97,4.09-6.11,5.99-.04,.33,.42,.57,.43,.9-.08,.06-.23,.24-.42,.04,.03-.24-.22-.34-.25-.46-.21,.25-.72,.32-.69,.76l.42,.08c.03,.18-.17,.24-.25,.3-.1-.16-.47-.33-.47-.45,.19,1.05-.6,.07-.72,.67,.46,.6,.44,1.49,.52,2.16l-.29,.02c.21-.2-.39-.38-.11-.61-.37,.06-.34,.49-.63,.61,.17,.09,.34,.28,.31,.42-.2,.05-.47-.2-.64-.09l-.03-.31c-.29-.1-.11,.24-.17,.36-.25-.19-.5-.02-.71-.3,.11,.49-.13,.39-.14,.79,.45,.02,.24,.35,.44,.51l.15-.33c-.49,.19,.07-.15-.33-.5,.33,.01,.4,.84,.61,.51-.13,.51-.37,.41-.38,1.05,.13-.27,.21,.28,.43,.29-.24,.27-.19-.07-.51-.23-.13,.15-.39-.02-.24,.39-.34,.11-.25-.32-.52-.36-.18-.34,.94-.3,.05-1.07,.11-.12-.07-.58,.11-.73-.25,.04-.73-.03-.73,.34l.46,.48c-.13,.15,.16,.49,.02,.55-.08-.19-.37-.29-.45-.14,.1,.04,.13-.02,.2,.07-.17,.24,.12,.59-.03,.92,.32-.08,.5,.02,.89,.04,.28,.38-.08,.18-.15,.33-.03-.06-.01-.09-.11-.13l.04,.27c-.39,.11-.44-.51-.81-.46-.42-.13-.04,.35-.31,.3,.04,.02,.08,.05,.1,.06-.03,.02-.05,.03-.08,.03,0,0,.02,.01,.02,.02-.08,.18-.25,.3-.05,.58-.13-.1-.08,.15-.05,.27,.02,.17,.14,.64-.37,.35,0,0,0,0,0-.01-.21,.12-.46,.12-.56-.04l-.36,.17-.29-.35c-.16,.33,.05,.49,.22,.99-.36-.02-.51,.44-.51,.67-.03,0-.06,.03-.09,.1l.23,.02c-.2,.18-.01,.32-.14,.45,.06,0,.08,.02-.04,.04-.03,.02-.06,.03-.1,.05-.03-.04,0-.06,.05-.07l-.13-.08c-.49-.19-.04,.42-.32,.47,0-.03,0-.08,.03-.09-.18,0-.76-.32-.52,0-.06-.01-.03,.07,0,.17l-.11,.02s.08-.02,.11-.02c.05,.13,.12,.29,.05,.22l-.29,.18c-.09,0-.11,.1-.11,.19l-.17-.09c-.06,.1-.14,.03-.17-.02-.75-.16-.22,.69-.93,.61,.16,.28,.39,.25,.52,.36,.12,.22,.09,.55,.12,.76-.45-.16-1.15,0-1.52-.51-.3,.23,.35,.19,.37,.47h-.05c.14-.03,.36,.05,.58,.17,.26,.22,.1,.52-.04,.52l-.29-.39c-.12,.36,.43,.82,.62,1.31-.33,.06-.52-.36-.86-.62l-.12,.29-.25-.25c-.06,.2,.14,.47-.14,.55-.11-.37-.51,.04-.65-.47-.19,.02,.28,.54-.11,.25,.2,.34,.23,.04,.36,.08,.43,.35-.03,.41-.05,.63-.21-.19-.16-.32-.43-.31,.12,.18,.15,.39-.12,.29,.25,.25-.11,.21-.21,.28,.14-.04,.46,.01,.62,.29,.03,.17,.02,.28-.17,.41h.23c.23,.52-.5-.03-.57,.28-.07-.23-.02-.28-.14-.54,.03,.21,.04,.57,.02,.83l-.53-.21c.17,.21-.2,.17,.06,.42-.37,.03-.14-.47-.31-.67-.42,.08,.22,.62-.41,.48l-.16-.32c-.1,.06-.12,.36-.25,.25,.09,.09,.09,.01,.14-.04,.46,.56-.02,.73,.54,1.22l.15-.08c-.07,.27,.16,.75-.15,.7-.27-.07-.28-.43-.36-.62-.19,.13,.44,.71,.2,.85,.19-.02,.35,.19,.43,.38,.14-.08,.48-.21,.22-.39h-.09c-.13-.16-.12-.27-.15-.37,.15-.15,.31,.17,.44,.24,.34-.17-.5-.54-.26-.76l.13,.07c-.02-.25,.13-.44-.16-.79,.44,.24,.13-.4,.44-.31,.76,.72-.44,.34-.17,.88,.27,.03,.29,.42,.4,.64l.06-.7c.13,.07,.61,.33,.41-.01h-.05c.07-.22-.28-.49-.05-.52,.09,.05,.17,.21,.21,.27,.19-.05-.07-.27-.06-.42,.19-.05,.24,.37,.43,.35-.15-.43,.29-.15,.39-.29-.47-.37-.09-1.06-.73-1.17v-.58c.31,.13,.39,.79,.83,1.07l-.25,.22c.56,.49,.14-.83,.88-.4,.15-.1,.04-.14,.54-.12l-.51-.43c.23-.01,.52,.2,.62,.28,.04-.1,.12-.15,.2-.2,.05,.09,.09,.17,.07,.24,.35,.17,.28,.04,.17-.13-.07-.17,.02-.23,.1-.3l.11,.24c0-.09,.01-.19-.07-.28,.03-.03,.05-.07,.05-.13-.1-.06-.43-.28-.66-.3,.47-.1,.59-.42,1.22-.28,.13,.14,.19,.41,.24,.4,.19-.05,.08-.42-.13-.61,.01-.04,.03-.07,.05-.09,.14,.09,.29,.19,.37,.15,.06,.03,.11,.04,.17,.02-.33-.41,.09-.46-.03-.68-.09,.02-.16,.09-.21,.17-.15-.35-.35-.72-.07-.59,.06,.42,.58,.19,.41,.57,.66,.28-.24-.44,.13-.47l.32,.05c.25,.29-.08,.35,.06,.42l.06-.13c.11,.29-.36,.5-.27,1.02l.57-.27c.21-.86,1.25-1.15,1.11-2.2,0,0,0,.02-.01,.03-.02-.03-.07-.09-.16-.2l.09,.05-.11-.29c.36,.15,.6,.01,.96,.05q-.27-.07-.48-.26c-.25-.29-.35-.42-.1-.47,.19,.19,.1,.28,.36,.32-.15-.04-.24-.22-.19-.31,.21,.04,.38-.08,.57,.12,.01,.09-.09,.06-.14,.06,.01,.09,.33,.01,.37,.29l.1-.21c.25,.07,.19,.31,.33,.38,.13-.39-.19-.96-.09-1.32,.09,.11,.52,.55,.4,.42,.31-.05-.08-.85,.08-1.09,.1,.16-.03,.18-.03,.31,.78-.46,1.3-.96,2.29-1.13l-.29-.59,.45,.14c.89-.33,1.08-1.09,1.53-1.8,.15-.21,.42,.2,.63,.24,.45-.35,.05-.94,.33-1.42,.08,.19,.37,.66,.56,.51-.1-.16-.28-.38-.1-.4l.08,.19c.29,.1,.2-.17,.48-.29,.34-.35,.35-1,.15-1.77,.35-.26,.44,.51,.6,.54-.38,.05-.07,.23,.03,.43-.01-.24,.05-.45,.42-.2,.14-.18,.23-.24,.17-.6,.03,.19-.21,.08-.28-.13,.24-.02,.45-.47,.82-.06,.67-.83,1.6-1.59,2.38-2.41-.07-.34-.18,.02-.25-.19-.07-.46,.29-.02,.24-.39l.15,.28c.27-.2,.12-.85,.15-1.28,.21,.28,.39,.02,.35,.35,.07-.15,1.3,.81,1.16,.5l-1.15-.89c-.09-.11,.12-.2,.04-.25,.3,.1,.65,.22,.72,.15,.29,.23,.07,.34-.03,.43,.42,.44,.59-.04,.85,.49,.13-.27-.25-.19-.29-.47l.27-.08h-.28c.02-.28-.26-.66,.17-.61l-.22-.62c.36,.32,.21-.08,.39-.11l.15,.28c.13-.15,.24-.14,.45-.1,.22,.38-.2,.05,.05,.37l.25-.05c-.19-.19-.25-.44-.47-.45-.22-.5-.44-.87-.06-1.19,.49,.17,.12,.46,.51,.72,.5-.22-.41-1.3-.16-1.47,.4-.14,.09-.42,.34-.72,.14,.31,.43,.05,.7,.21l.12,.34c.01-.15,.18-.15,.32,.04-.32-.29,.07-.64,.12-.97l-.29-.23c.06-.23,.1-.6,.33-.69,.15-.32-.13-.49-.23-.95,.33,.13,.6,.42,.85,.74-.19-.07-.22,.11-.41,.14-.07,.52,.24,1.29-.17,1.46,.5,.75,.13-.27,.49-.19,.03,.04,.03,.06,.03,.08,.01-.01,.03-.02,.05-.02-.03,.18-.1,.45,.19,.8,.11-.24-.5-.75,0-.7-.01-.34,.61,.02,.75-.03-.13-.34-.62-.85-.26-1.02l.23,.47c.31-.29-.37-.66-.08-.92-.14,.06-.25-.44-.45-.26-.1-.28,.07-.52,.32-.57-.01-.09-.11-.13-.22-.25-.41-.08-.03,.5-.52,.29l.26,.49c-.29,.02-.61-.27-.67-.51-.03,.06-.01,.15-.11,.12-.6-.54,.39,.02-.04-.52l-.07,.15c-.42-.32-.07-.58,.1-.7,.33,.01,.54-.07,.82,.19l-.1,.33c.33,.1,.15-.4,.29-.52,.04,.03,.08,.04,.12,.05-.03-.02-.06-.04-.08-.06,.04-.01,.1,0,.18,.04,.12-.1,.12-.42,.31-.44l-.25-.23,.12,.15c-.11,.09-.39,.08-.5-.17,.06-.39,.57,.02,.83,.18,.31,.42-.23,.22-.22,.46,.43,.29,.27-.19,.74-.19,.3,.49-.28,.27,.04,.69,.26-.12,.02-.45,.32-.55,.16,.21-.02,.42,.23,.65h.24c-.29,.32,.55,.43,.4,.77,.28,.05-.16-.49,.25-.4-.22-.13-.67-.31-.66-.62l.29-.06c.27,.12,.24,.61,.52,.66l.05-.32c-.12-.11-.27-.08-.38-.3,.24,.02-.28-.63-.33-.94,.11-.09,.21-.15,.39-.04-.1-.61,.24-.91,.14-1.48,.08,.4,.41,.4,.69,.48-.13,.23,.24,.61,.49,.83,.07-.15-.24-.61-.42-.68,.34-.03-.13-.39,.29-.3,.24,.02,.31,.42,.49,.52,.22-.18-.4-.51-.09-.64,.04,.06,.03,.1,.12,.15,.2-.04,.15-.34,0-.55,.61,.36,.3-.41,.75,.09,.16-.41-.3-.22-.41-.44-.09-.33,.3-.37,.44-.36-.06,.08,0,.27-.14,.27l.39,.27c.59-.12-.52-.97,.11-1.03,0,.35,.19,.31,.33,.63-.03-.14,.33-.31-.08-.4,.16-.1,.31-.13,.45-.16-.01-.24,.02-.46-.12-.74,.21-.15,.58-.05,.81,0,.14-.62,.9-.56,1.05-1.22h-.05c.37-.24-.57-.29-.24-.6,.36,.44,.46,.08,.78,.19,.6-.19,.39-.98,1.03-1.07,.08,.09,.16,.21,.1,.29,.4-.15,.55-.46,.82-.69l.04,.06c.73-.08,.7-.83,1.02-1.35,.02,.08,.16,.24,.19,.32,.3-.12,.69-.4,.48-.91,.64,.15,.05-.29,.75-.22,.09,.05,.03,.1,.03,.13,.29-.03,.36-.18,.57-.29,.1-.61-.33-1.21,.23-1.47,.57,.52-.12,.39,.31,.83-.02-.18-.06-.36,.19-.34,.15,.28,.12,.15,.27,.39,.23,.06-.22-.92-.17-.86-.1-.11-.19-.14-.25-.04-.24-.43,.37-.43,.44-.76-.07,.06-.38,.15-.57-.18,.38-.15-.05-.76-.09-1.17,.49,0,.28,.64,.71,.98,.18,.1,.58,.31,.63,.56,.3-.14,.13-.62,.25-.9l.1,.11c.23-.32,.05-1.08,.5-1.1h-.25c-.02-.11,.15-.22,0-.51,.17,.19,.51,.17,.59,.39-.45-.7,.27-.97-.13-1.65,.22,.07,.39,.36,.5,.52-.22,.12-.4,.07-.26,.39,.14-.15,.39-.11,.5,.04-.21-.5-.01-.99-.3-1.42,.28,.07,.48,.07,.74,.41,.26-.63-1.14-.7-.64-1.2,.52,.06,.17,.61,.58,.4v.11c.98,.54-.4-.71-.12-.94,.45,.38,.12,.48,.6,.6,.13-.34-.39-1.06-.02-1.16l.14,.21c.12-.18,.49-.39,.61-.57,.09,.08,.06,.09,.05,.14,.44-.12-.1-.33,.42-.27l-.14-.27c-.26-.03-.68-.02-.59,.37-.09-.38-.76-.3-1.04-.73l.11,.17c-.99-.24-1.55,.17-2.26,.42,.13,.73-.68,.34-.71,.96,.44,.54,.04,.16-.14,.53,.09-.21-.35-.39-.51-.36,.07,.18,.05,.29,.03,.4-.22-.11-.97-.16-.76,.3-.33,.01-.12-.2-.18-.33-.32-.18,.06,.33-.17,.22,0,0-.05-.06-.06-.1-.24,.28-.52,.3-.85,.51,.46,.5-.08,.44-.03,.74-.12-.19-.33-.03-.5-.04l.21,.5c.16,.45-.41-.02-.43,.33l.13,.04c0,.28-.63,.34-1.02,.22-.3,2.18-2.45,1.4-3.51,2.96,.06,.23,.31,.18,.45,.46-.08,.19-.13,.2-.24,.33,.24,.02,.06-.12,.18,.03l.05-.32s.04,.06,.12,.11c.02-.11,0-.28,.1-.33,0,.24,.33,.63,.04,.65-.04-.06-.03-.1-.02-.17-.16,.1,0,.28-.19,.28-.2,.04-.06,.12-.23-.02l-.56,.18c.24,.61-.39,.43-.49,.45-.28-.36,.15-.34-.07-.75l-.37-.1,.25,.26-.26,.12-.04-.06c.08,.12,.15,.24,.02,.2-.04-.03-.13-.08-.12-.11v.28c-.18-.34-.19,.04-.48-.28-.59,.29-.15,.97-.96,.95,.21,.08,.36,.6,.18,.67-.14,0-.23-.06-.3-.22v.31c-.67-.28-.56,.22-1.01,.35l-.12-.15c.05,.26,.06,.51-.15,.62l-.24-.3c-.38,0,.41,.71,.02,.76,.29,.29,.57,.3,.87,.55-.34-.24-.62-.05-.36,.1-.1,.33-.16,.14-.24,.09l.05,.3c-.17,.14-.43-.33-.53-.55,.17,.45-.2,.39-.41,.5l-.06-.19-.26,.16c.09,.36-.09,.57-.39,.63l-.26-.5c-.32-.07,.07,.2,.1,.29-.01,.38-.31,.17-.63,.06,.08,.71-1.25,0-.95,.85Zm-20.31,23.23l.09,.03c0,.13,.02,.23-.09-.03Zm1.84-1.63c-.06,.36-.17,.11-.29,.02,.31-.1,.3-.34,.61-.4-.1-.05-.21-.14-.28-.2,.09-.05,.25-.04,.46,.12,.29,.47-.8,.32-.49,.44Zm-2.03,5.77s-.04-.07-.06-.11h0s.06,.11,.06,.11Zm.7-1.37c.1,.07,.17,.09,.23,.09-.12-.08-.22-.15-.23-.09Zm2.53-1.59c.21,.11,.27-.05,.31-.16-.05,.02-.17,.04-.31,.16Zm12.81-13.15c0,.12,.04,.4,.26,.41-.08-.19,.25-.05,.09-.3,.01,0,.02,0,.03,0-.19-.07-.35-.12-.38-.11Zm4.81-7.39c.14,.17,.27,.38,.42,.47,0,0-.02,0-.03,0,.07,.04,.13,.07,.15,.11,.08-.02,.17-.03,.16-.11-.49-.52-.47-.71-.69-.48Z" style="fill:#1c43df;"/><path d="M37.06,301.67s.04-.05,.04-.07c-.02,.02-.03,.04-.04,.07Z" style="fill:#1c43df;"/><path d="M37.7,298.03s-.14-.03-.27-.01c.08,.05,.16,.06,.27,.01Z" style="fill:#1c43df;"/><path d="M11.09,322.7v-.11s-.26-.03-.26-.03c-.03,.37,.18,.6,.38,.9-.06-.42,.17-.41,.34-.71l-.45-.05Z" style="fill:#1c43df;"/><path d="M12.88,324.28c.09,.05,.31,.17,.36,.15l-.12-.18-.23,.03Z" style="fill:#1c43df;"/><path d="M16.01,322.64l-.33,.06c.07,.2,.53,.21,.33-.06Z" style="fill:#1c43df;"/><path d="M12.49,320.81l.07,.27c.23,.04,.33-.09,.16-.3-.02,.22-.13-.07-.23,.03Z" style="fill:#1c43df;"/><path d="M16.56,322.15c-.25-.36,.33-.06,.08-.38,.03,.13-.37,.07-.08,.38Z" style="fill:#1c43df;"/><path d="M13.53,319.39c-.35-.23-.2,.13-.38,.18,.1-.1,.55,.06,.38-.18Z" style="fill:#1c43df;"/><path d="M16.72,320.26c.21,.23,.11,.29-.03,.33-.04-.1-.12-.22-.11-.29,.02,.32-.03,.3-.05,.52,.27,.03,.55-.05,.81,.24-.11-.29-.31-.71-.62-.8Z" style="fill:#1c43df;"/><path d="M13.79,319.07c-.19,.02-.45-.12-.55,.01,.17,.13,.43,.31,.54,.13l.2,.3c.32,.06-.39-.29-.19-.45Z" style="fill:#1c43df;"/><path d="M17.87,320.3l-.18-.06c.06,.34-.22,.42,.02,.83,.15-.19,.23-.54,.16-.77Z" style="fill:#1c43df;"/><path d="M14.76,319.04l-.34-.37c-.19,.09,.13,.11,.16,.24-.09-.01-.18,.02-.15,.11,.11-.21,.3,.28,.32,.02Z" style="fill:#1c43df;"/><path d="M14.83,318.19l.03-.33-.53-.25c-.08,.35,.21,.23,.5,.58Z" style="fill:#1c43df;"/><path d="M15.29,318.2l.09,.05-.25-.8c.06,.38,.01,.36,.17,.75Z" style="fill:#1c43df;"/><path d="M20.88,317.22c-.12-.18-.47-.21-.23-.11,.1,.16,.5,.14,.23,.11Z" style="fill:#1c43df;"/><path d="M17.39,315.03c.19,.04,.23-.43,.24-.65-.06,.21-.46,.46-.24,.65Z" style="fill:#1c43df;"/><path d="M17.63,314.29s0,.05,0,.09c0-.03,.01-.06,0-.09Z" style="fill:#1c43df;"/><path d="M21.51,308.85s0-.04,0-.07c0,.03,0,.05,0,.07Z" style="fill:#1c43df;"/><path d="M21.49,309.05c-.13,.02-.18,.27-.04,.46,.04-.2,.1-.35,.07-.66-.03,.07-.21,.02-.02,.2Z" style="fill:#1c43df;"/><path d="M22.63,308.06c.04,.15-.08,.18,.08,.31,.1,.03,.06-.24-.08-.31Z" style="fill:#1c43df;"/><path d="M34.28,305.29c.18-.02,.18-.14-.07-.34-.11,.12,.08,.19,.07,.34Z" style="fill:#1c43df;"/><polygon points="34.3 304.77 34.42 304.87 34.66 304.97 34.3 304.77" style="fill:#1c43df;"/><path d="M35.33,304.38s.05,.1,.05,.14c0-.07,.01-.14-.05-.14Z" style="fill:#1c43df;"/><path d="M35.38,304.56s0-.02,0-.03c0,.01,0,.02,0,.03Z" style="fill:#1c43df;"/><path d="M35.26,304.53l.11,.13s0-.07,0-.1c-.01,.03-.05,.03-.12-.02Z" style="fill:#1c43df;"/><path d="M35.59,304.21l-.47-.2c.03,.31,.33,.01,.55,.51l-.08-.31Z" style="fill:#1c43df;"/><path d="M35.96,303.64c.24-.02-.11-.74,.37-.41,.16-.58-.75-.58-.48-1.15-.6,.19,.57,.97,0,1.1,.42,.08,.08,.31,.12,.46Z" style="fill:#1c43df;"/><path d="M35.23,303.04c.18,.22,.36,.07,.28-.11-.07,.03-.43-.17-.28,.11Z" style="fill:#1c43df;"/><polygon points="36.5 302.75 36.77 302.79 36.67 302.63 36.5 302.75" style="fill:#1c43df;"/><path d="M37,302.41l.12,.34c-.05-.13,.13-.27-.12-.34Z" style="fill:#1c43df;"/><path d="M37.89,302.1c.18-.02-.26-.65-.36-.32l.07-.03c.07,.1,.38,.17,.29,.35Z" style="fill:#1c43df;"/><path d="M38.41,299.89c-.08,.06-.1,.21,.03,.31l.08-.3h-.11Z" style="fill:#1c43df;"/><path d="M37.08,298.62c-.39-.26-.15,.21-.39,.23,.21-.08,.24-.02,.39-.23Z" style="fill:#1c43df;"/><path d="M39.09,300.14c.08,.19-.09,.18-.16,.21,.21,.16,.29-.02,.16-.21Z" style="fill:#1c43df;"/><path d="M39.29,299.72c.2,.07,.17,.2,.31,.24,.28,.01,.41-.15,.3-.41-.17-.1-.6-.43-.71-.65-.1,.33,.39,1.05-.18,.69l.39,.75c.26-.08-.26-.53-.11-.62Z" style="fill:#1c43df;"/><path d="M37.78,299.07l.31,.07c-.21-.16-.15-.28-.15-.4-.45-.38-.11,.24-.15,.33Z" style="fill:#1c43df;"/><polygon points="40.24 298.27 40.39 297.92 40.29 297.98 40.24 298.27" style="fill:#1c43df;"/><polygon points="40.53 298.24 40.66 298.35 40.63 297.95 40.53 298.24" style="fill:#1c43df;"/><polygon points="40.93 298.12 40.88 298.13 40.84 298.38 40.93 298.12" style="fill:#1c43df;"/><path d="M41.53,297.69l-.22-.13c-.02,.11-.34,.04-.09,.26-.03-.13,.13-.23,.31-.13Z" style="fill:#1c43df;"/><path d="M38.78,291.55c.07,.16,.2,.24,.33,.31l-.23-.37s-.02,.11-.1,.05Z" style="fill:#1c43df;"/><path d="M39.56,291.73l-.16-.52c-.26,.16-.02,.45-.16,.69,.19,.03,.05-.32,.24-.33l.07,.16Z" style="fill:#1c43df;"/><path d="M43.47,288.34c.2,.24,.21,.16,.22,.44,.05-.32,.26-.43,.44-.68-.17-.1-.25-.5-.28-.36l-.11,.37-.11-.18c-.33,0,.14,.35-.16,.41Z" style="fill:#1c43df;"/><path d="M55.34,281.1c.08,.13,.21,.2,.33,.26,.02-.26-.34-.21-.33-.26Z" style="fill:#1c43df;"/></g><g><path d="M15.23,278.38c-.12,.39,.04,.13,.18,.08l-.18-.08Z" style="fill:#1c43df;"/><path d="M15.42,278.46l.13,.06c-.03-.07-.08-.07-.13-.06Z" style="fill:#1c43df;"/><path d="M16.62,278.73c-.28,.31-.61-.12-.78,.36,.28,.28,.71,.17,.78-.36Z" style="fill:#1c43df;"/><polygon points="16.21 278.42 16.17 278.68 16.41 278.28 16.21 278.42" style="fill:#1c43df;"/><polygon points="16.03 278.18 16.07 278.28 16.45 278.01 16.03 278.18" style="fill:#1c43df;"/><path d="M17.56,278.92l-.28,.07c-.26-.36,.17-.48,0-.72-.35,0-.12,.74-.55,.62,.03,.33,.7,0,.63,.52,.36,.17,.02-.31,.21-.5Z" style="fill:#1c43df;"/><path d="M34.31,276.08s.03,.03,.04,.05c-.02-.06-.03-.1-.04-.05Z" style="fill:#1c43df;"/><path d="M38.9,275.71c.06,.05,.13,.09,.19,.11-.02-.05-.04-.1-.07-.14l-.11,.04Z" style="fill:#1c43df;"/><path d="M31.44,277.07c-.07-.06-.13-.1-.18-.13,.03,.07,.09,.13,.18,.13Z" style="fill:#1c43df;"/><path d="M56.13,281.82s-.09-.02-.15-.02h-.01s.14,.05,.14,.05l.02-.04Z" style="fill:#1c43df;"/><path d="M44.04,274.89c.07,0,.14-.02,.21-.05-.12,0-.18,.01-.21,.05Z" style="fill:#1c43df;"/><path d="M29.78,277.11s.05,0,.07,0c-.02-.02-.05-.04-.09-.05v.05h.02Z" style="fill:#1c43df;"/><path d="M37.4,275c.06,.04,.12,.07,.17,.06-.06-.04-.11-.06-.17-.06Z" style="fill:#1c43df;"/><path d="M21.82,279.51c.08,.05,.14,.02,.2-.05-.05-.08-.11-.09-.2,.05Z" style="fill:#1c43df;"/><path d="M23.46,279.45h0c0,.07,.01,.05,0,0Z" style="fill:#1c43df;"/><path d="M24.51,279.5h-.02c.01,.06,.02,.07,.02,0Z" style="fill:#1c43df;"/><path d="M22.02,279.46c.14,.21,.18,.88,.35,.14l-.03-.1c.11,.17,.26-.12,.38-.14-.01-.07-.03-.13-.04-.18-.06,0-.14-.03-.27-.08-.15-.15-.24,.2-.39,.35Z" style="fill:#1c43df;"/><path d="M34.3,276.21c-.02-.13-.13-.07,0,0h0Z" style="fill:#1c43df;"/><path d="M32.88,276.76s.09,.02,.14,.02c-.04-.03-.09-.05-.14-.02Z" style="fill:#1c43df;"/><path d="M27.55,276.57l.03,.03c0-.08-.01-.06-.03-.03Z" style="fill:#1c43df;"/><path d="M33.15,276.79s-.09,0-.13,0c.04,.03,.08,.05,.13,0Z" style="fill:#1c43df;"/><path d="M29.15,276.97s.02,.02,.02,.02c0-.01-.01-.02-.02-.02Z" style="fill:#1c43df;"/><path d="M53.79,303.73c-.06-.11,.13-.17,.19-.27-.48-.23-.01,.47-.44,.14,0,.1,.07,.18,.14,.25l.46-.14c-.18-.2-.15,.13-.34,.02Z" style="fill:#1c43df;"/><path d="M55.18,283.15l.04-.05c-.21,.03-.27,0-.38,.18,.32,.15,.8-.08,1.15,.18-.04-.05-.02-.13,.02-.2-.28,.11-.58,0-.83-.11Z" style="fill:#1c43df;"/><path d="M56.01,283.26h.02s.08-.03,.11-.05c0-.04,.02-.07,.05-.1-.08,.03-.15,.09-.19,.15Z" style="fill:#1c43df;"/><path d="M53.99,300.17s.03-.08,.04-.12c-.09,.06-.09,.09-.04,.12Z" style="fill:#1c43df;"/><path d="M43.71,280.71c-.05,.05-.1,.1-.14,.14,.08-.02,.12-.08,.14-.14Z" style="fill:#1c43df;"/><path d="M55.63,281.05s.06-.07,.07-.11c0-.02-.02-.03-.02-.04l-.05,.15Z" style="fill:#1c43df;"/><path d="M60.03,289.06c-.52-.09,.04,.07-.26,.25l.28,.17c.08-.15,0-.3-.02-.42Z" style="fill:#1c43df;"/><polygon points="53.64 303.86 53.68 303.86 53.67 303.85 53.64 303.86" style="fill:#1c43df;"/><path d="M60.15,294.01s-.05,.05-.07,.08c.03-.02,.06-.04,.07-.08Z" style="fill:#1c43df;"/><path d="M56.23,282.27l.03-.6-.13,.15c.26,.09-.22,.36,.1,.45Z" style="fill:#1c43df;"/><path d="M60.34,286.33l.32-.06c-.67-.63,.29-1.36-.65-1.87,1.11-.77-.99-.51,0-1.22l-.16,.02c.03-.42,.08-.84,.13-1.27l.02-.18,.02-.29,.04-.59,.08-1.2c.1-1.61,.18-3.31,.17-4.88-1.25,0-2.52,.07-3.72,.22l.12-.22c-.81-.05-1.65-.08-2.49-.11-.58-.01-1.17-.03-1.75-.04-.87-.01-1.74,0-2.6,.03-1.73,.05-3.46,.12-5.2,.03-.32,.21-.13,.69-.41,.94-.12-.02-.4,0-.4-.27,.24-.15,.1-.39,.18-.5-.39,.03-.9-.29-1.25,.05l.29,.35c-.14,.15-.35,.05-.47,.03,.05-.18-.13-.56-.02-.65-.74,.88-.58-.38-1.2-.03-.12,.75-.9,1.36-1.41,1.9l-.27-.19c.36,0,0-.55,.44-.51-.37-.22-.71,.11-1.06-.01,.07,.19,.05,.43-.09,.52-.21-.1-.23-.48-.48-.52l.24-.23c-.16-.28-.3,.09-.45,.13-.05-.31-.42-.37-.35-.72-.33,.43-.45,.19-.8,.46,.37,.33-.09,.41-.05,.67l.42-.12c-.59-.21,.19-.06,.15-.59,.28,.25-.38,.88,.08,.8-.55,.27-.67,.03-1.23,.47,.34-.1-.07,.35,.12,.51-.43,.02-.11-.19-.24-.53-.24,.02-.32-.29-.54,.11-.38-.16,.06-.4-.14-.62,.14-.37,1.06,.45,.96-.72,.2-.01,.44-.46,.73-.44-.25-.15-.61-.54-.92-.27l-.02,.66c-.24,.02-.28,.47-.45,.41,.09-.19-.07-.47-.26-.42,.05,.09,.13,.07,.11,.19-.35,.05-.4,.5-.82,.62,.34,.17,.42,.37,.74,.66-.09,.46-.23,.07-.42,.12,.03-.06,.07-.08,.01-.17l-.2,.22c-.43-.2,.05-.67-.3-.89-.24-.39-.34,.22-.52,0,.01,.04,.03,.09,.04,.12-.04,0-.07-.02-.09-.03,0,.01,0,.02,0,.03-.23,.07-.47,.03-.54,.38-.02-.16-.2,.05-.27,.15-.13,.14-.43,.55-.62,0,0,0,0,0,.01,0-.28-.07-.51-.24-.44-.43l-.46-.14,.05-.45c-.42,.12-.38,.38-.66,.85-.3-.27-.82-.05-1.02,.12-.03-.02-.08-.02-.17,0l.17,.18c-.33-.02-.29,.22-.5,.22,.04,.04,.05,.07-.07,0-.04,0-.08-.02-.12-.03,.01-.05,.06-.04,.11-.02l-.04-.15c-.26-.48-.4,.27-.68,.1,.03-.02,.07-.05,.1-.04-.16-.12-.38-.76-.45-.37-.04-.05-.09,.03-.14,.13l-.12-.07s.08,.04,.11,.07c-.07,.13-.14,.29-.15,.19l-.4-.08c-.08-.06-.18,0-.26,.05l-.07-.19c-.15,.03-.15-.08-.13-.13-.51-.65-.78,.33-1.33-.23-.1,.31,.12,.45,.14,.62-.09,.24-.4,.45-.55,.62-.24-.43-.99-.81-.87-1.43-.45-.05,.14,.38-.08,.6l-.05-.02c.16,.07,.28,.29,.36,.52,.03,.34-.36,.43-.49,.34l.09-.48c-.42,.17-.33,.89-.59,1.36-.33-.19-.14-.62-.21-1.05l-.35,.12v-.36c-.23,.1-.28,.43-.59,.29,.23-.34-.47-.33-.16-.79-.17-.12-.22,.57-.31,.1-.12,.38,.16,.19,.24,.31,.07,.55-.38,.26-.59,.41-.02-.28,.14-.34-.11-.52-.05,.22-.21,.38-.35,.12,0,.36-.28,.07-.42,.05,.16,.07,.38,.33,.28,.64-.12,.14-.23,.22-.5,.17l.19,.17c-.24,.53-.4-.38-.73-.21,.14-.22,.23-.22,.35-.48-.16,.17-.45,.43-.69,.6l-.28-.52c-.03,.26-.31-.02-.31,.34-.35-.24,.28-.43,.31-.69-.43-.24-.35,.6-.76,.05l.14-.33c-.14-.02-.42,.17-.43,0,0,.12,.07,.07,.16,.07-.09,.72-.64,.5-.59,1.24l.19,.05c-.29,.14-.5,.65-.73,.38-.17-.24,.12-.5,.22-.69-.28-.05-.22,.81-.55,.74,.17,.12,.14,.38,.04,.57,.19,.05,.59,.19,.52-.12l-.07-.07c.02-.19,.12-.26,.17-.36,.26,0,.12,.33,.17,.48,.43,.12,.04-.74,.43-.72l.05,.14c.19-.19,.49-.22,.54-.67,.17,.48,.45-.19,.64,.09,.04,1.05-.68-.07-.9,.5,.21,.22-.12,.5-.21,.74l.66-.46c.05,.14,.25,.67,.36,.29l-.05-.02c.26-.12,.19-.55,.42-.41,.04,.1-.03,.26-.05,.33,.21,.1,.17-.24,.31-.33,.21,.09-.1,.43,.07,.55,.24-.41,.38,.1,.59,.07-.09-.6,.83-.81,.38-1.34l.5-.41c.16,.31-.35,.84-.21,1.34l-.4-.02c.07,.74,.84-.49,1.1,.34,.21,.03,.16-.07,.57,.3l-.07-.66c.21,.15,.28,.51,.29,.64,.12-.04,.23-.03,.35,0-.03,.1-.07,.19-.15,.22,.16,.37,.2,.23,.26,.03,.09-.17,.21-.14,.35-.14l-.12,.25c.08-.06,.18-.13,.19-.25,.05,0,.11-.02,.16-.06-.04-.12-.12-.5-.31-.67,.49,.26,.87,.12,1.28,.67-.02,.19-.19,.43-.14,.45,.21,.1,.43-.24,.42-.53,.05-.02,.08-.03,.12-.03,.04,.16,.09,.34,.19,.37,.02,.06,.06,.11,.13,.13,.07-.53,.47-.26,.56-.5-.09-.05-.21-.05-.33-.03,.17-.35,.32-.75,.45-.47-.31,.33,.33,.55-.14,.69,.33,.67,.17-.48,.52-.24l.23,.26c-.03,.38-.36,.19-.31,.34l.16-.05c-.16,.29-.75,.1-1.11,.53l.73,.21c.92-.46,2.07,.07,2.85-.77h-.03s.02-.1,.03-.24l.04,.1,.15-.29c.18,.36,.5,.43,.78,.71q-.18-.24-.19-.52c.03-.38,.06-.55,.32-.4,0,.27-.16,.27,.03,.48-.1-.13-.01-.33,.1-.36,.15,.18,.39,.21,.39,.49-.07,.07-.12-.02-.17-.06-.07,.07,.28,.25,.07,.47l.27-.08c.15,.23-.1,.36-.04,.5,.44-.19,.67-.81,1.07-1-.02,.14-.02,.75-.02,.58,.31,.18,.66-.66,1.01-.71-.05,.18-.18,.11-.29,.2,1.07,.23,1.94,.24,2.95,.82l.26-.62,.26,.42c1.06,.4,1.87,0,2.87-.19,.31-.04,.19,.44,.33,.61,.69,.07,.85-.63,1.51-.77-.09,.19-.24,.73,.04,.76,.05-.18,.09-.46,.26-.35l-.09,.19c.16,.28,.32,.02,.66,.13,.59-.01,1.16-.46,1.65-1.14,.53,.06-.05,.67,.05,.81-.37-.23-.26,.11-.34,.33,.2-.18,.43-.29,.53,.16,.27-.03,.4,0,.67-.31-.14,.15-.25-.09-.13-.29,.22,.16,.79-.01,.76,.54,1.29-.11,2.74,0,4.13-.02,.23-.29-.18-.11-.05-.31,.34-.37,.27,.19,.54-.1l-.11,.3c.4,.05,.83-.52,1.23-.8-.07,.35,.32,.29,0,.49,.19-.06,.42,1.49,.57,1.17l-.22-1.44c.01-.14,.28-.05,.25-.15,.17,.28,.37,.62,.49,.62,.06,.36-.23,.29-.39,.28-.02,.61,.54,.39,.31,.95,.34-.1-.05-.31,.16-.54l.3,.13-.23-.2c.25-.18,.33-.65,.67-.31,.15-.2,.15-.4,.21-.59-.02,.48,.09,.09,.14,.2l-.08,.31c.07-.02,.08,.07,.06,.24-.13,.42-.02-.1-.12,.3,0,.05,0,.09,0,.14,.07-.27,.17-.49,.17-.65,.2-.51,.43-.93,.73-.89-.14,.47-.34,.41-.51,.87,.03,.1,.24-.2,.52-.52,.27-.32,.6-.66,.69-.63,.1,.17,.38-.15,.7-.25,.01,.01,.02,.04,.02,.07-.32,.22-.34,.53-.64,.82-.11,.06-.22,.13-.33,.21,.1-.03-.03,.13-.26,.31,.43-.38,.4-.09,.6-.05l.37-.25c.12,.07,.35,.2,.26,.42,.12,.23,.44,.06,.84,.25-.33,.21-.72,.23-1.12,.27,.19-.1,.08-.19,.19-.33-.32-.26-1.09,0-.91-.28-.89,.52,.1,.05-.21,.33-.05,.02-.07,.03-.08,.03,0,0,0,.02-.03,.03-.11,0-.25,0-.7,.3,.09-.04,.88-.48,.5-.18,.25-.03-.45,.31-.51,.32,.33-.08,1.04-.24,.91-.05-.17,0-.33,0-.5,.02-.01,.13,.73-.06,.7,.2,.06-.15,.49,.11,.5-.11,.27,.06,.32,.48,.17,.72,.08,.07,.17,.01,.34,.03,.35-.29-.34-.46,.16-.69-.18-.05-.36-.09-.53-.12,.19-.16,.62-.27,.84-.15-.02-.06-.1-.1,0-.16,.81-.14-.29,.29,.4,.32l-.06-.17c.52-.13,.46,.42,.42,.66-.25,.28-.34,.53-.71,.55l-.16-.37c-.3,.19,.18,.47,.16,.69-.05,.01-.09,.04-.12,.06,.03-.01,.07-.02,.1-.02-.02,.05-.07,.09-.16,.12-.02,.19,.21,.47,.09,.64l.34-.02-.19-.02c.01-.17,.22-.41,.47-.28,.23,.39-.42,.47-.71,.56-.52-.09,0-.38-.17-.58-.51,.12-.05,.4-.39,.8-.56-.16,0-.47-.51-.56-.1,.33,.3,.41,.16,.75-.26-.04-.29-.38-.62-.36l-.16,.22c-.03-.54-.7,.09-.84-.33-.23,.2,.46,.28,.1,.56,.24-.08,.69-.3,.91-.03l-.17,.31c-.27,.13-.6-.32-.83-.12l.19,.32c.17-.01,.25-.16,.48-.07-.18,.19,.65,.3,.9,.52-.01,.17-.05,.31-.24,.37,.5,.44,.48,.99,.95,1.4-.34-.28-.57,.01-.83,.18-.07-.32-.6-.32-.94-.3,.06,.19,.6,.32,.78,.22-.22,.32,.37,.22,.01,.51-.18,.18-.52-.09-.72-.03-.02,.35,.64,.09,.52,.47-.07-.02-.09-.06-.19-.03-.11,.2,.14,.42,.4,.47-.69,.22,.07,.61-.59,.57,.18,.49,.36-.07,.6,.02,.3,.2,.05,.58-.05,.69-.01-.12-.2-.23-.09-.35l-.46,.1c-.33,.61,1.05,.39,.65,.98-.24-.31-.35-.1-.68-.25,.12,.09-.01,.56,.34,.28-.04,.22-.12,.38-.21,.53,.18,.2,.31,.41,.61,.53-.05,.31-.38,.54-.58,.69,.34,.66-.24,1.26,.12,1.95l.03-.05c-.09,.54,.62-.24,.6,.32-.57-.07-.38,.33-.68,.51-.29,.68,.42,1.18,.03,1.81-.12,0-.26-.05-.27-.17-.18,.48-.07,.87-.1,1.3l-.07-.02c-.46,.69,.09,1.32,.23,2.04-.07-.06-.29-.07-.36-.12-.13,.36-.21,.94,.31,1.19-.56,.43,.17,.28-.37,.84-.1,.03-.09-.05-.12-.09-.19,.27-.13,.46-.2,.74,.36,.61,1.09,.76,.87,1.46-.77,.04-.19-.43-.81-.45,.14,.14,.29,.26,.11,.46-.3-.12-.19-.03-.47-.11-.2,.15,.8,.6,.73,.6,.15,0,.23-.04,.21-.18,.47,.16,.04,.69,.23,1.03,.01-.11,.16-.46,.53-.33-.16,.46,.58,.61,.89,.93-.35,.42-.65-.31-1.19-.23-.2,.07-.63,.24-.84,.06-.12,.38,.35,.65,.46,.99h-.15c.06,.46,.73,.97,.42,1.36l.17-.21c.09,.08,.05,.32,.36,.45-.25-.01-.48,.29-.69,.17,.81,.21,.49,1.07,1.26,1.31-.2,.13-.53,.03-.72-.01,.07-.3,.23-.4-.09-.56,.01,.25-.2,.43-.38,.39,.51,.25,.71,.84,1.21,.96-.25,.18-.39,.35-.81,.29,.26,.76,1.3-.38,1.3,.48-.41,.39-.55-.38-.69,.16l-.07-.1c-1.09,.39,.78,.27,.74,.72-.59,.06-.42-.31-.85,0,.15,.4,1.03,.58,.84,.99l-.25-.06c.05,.26-.07,.76-.03,1.02-.12,.01-.1-.03-.13-.07-.22,.48,.3,.2-.11,.59l.29,.11c.2-.2,.49-.58,.16-.82,.34,.25,.75-.39,1.25-.27l-.2-.05c.87-.65,.98-1.48,1.3-2.3-.61-.52,.24-.88-.17-1.44-.69-.09-.14-.1-.28-.58,.09,.25,.53,.03,.62-.13-.18-.09-.24-.21-.31-.32,.24-.1,.79-.7,.32-.92,.22-.29,.22,.07,.37,.13,.35-.12-.28-.24-.04-.33,0,0,.07,0,.11,.04-.03-.44,.15-.71,.24-1.17-.68-.04-.26-.45-.5-.66,.22,.07,.25-.26,.38-.39l-.5-.25c-.43-.25,.3-.34,.07-.66l-.12,.08c-.2-.23,.2-.84,.57-1.07-1.33-2.14,.75-3.31,.39-5.57-.2-.15-.34,.11-.65,0-.08-.23-.05-.28-.06-.49-.18,.18,.04,.15-.14,.13l.19,.32c-.05,.02-.07-.02-.17,.01,.06,.11,.2,.23,.16,.37-.18-.2-.68-.25-.49-.52,.07,.02,.09,.06,.13,.13,.04-.22-.2-.23-.07-.4,.11-.21-.04-.15,.17-.18l.27-.64c-.6-.32-.03-.71,.03-.81,.45,.07,.14,.42,.58,.58l.33-.23h-.36s.1-.34,.1-.34l.07,.02c-.14-.04-.28-.08-.16-.16,.05-.01,.15-.05,.17,0l-.2-.23c.37,.14,.11-.2,.54-.17,.22-.76-.58-.97,0-1.64-.2,.11-.68-.21-.6-.42,.1-.12,.2-.15,.37-.07l-.22-.27c.67-.34,.24-.67,.47-1.16l.19,.03c-.22-.18-.4-.38-.33-.66l.38,.05c.27-.34-.79-.26-.55-.63-.41,0-.61,.24-1,.27,.41-.09,.47-.49,.18-.39-.17-.37,.01-.26,.11-.29l-.25-.22c.02-.26,.53-.08,.77,.01-.44-.24-.13-.51-.06-.78l.18,.11,.07-.36c-.32-.24-.34-.57-.17-.88l.53,.21c.28-.21-.19-.11-.28-.17-.26-.34,.1-.41,.4-.59-.56-.54,.88-1.08,.07-1.55Zm-32.66-9.51l.05,.08c-.11,.09-.18,.18-.05-.08Zm2.99,.15c-.36,.21-.25-.04-.27-.19,.35,.15,.55-.02,.86,.15-.05-.11-.06-.25-.08-.34,.12,.03,.25,.14,.29,.42-.15,.54-.96-.35-.81-.03Zm-6.72,2.64l.04-.12h0l-.04,.12Zm1.78-.48c.03,.12,.07,.18,.12,.22-.03-.14-.06-.26-.12-.22Zm3.54,.66c.08,.22,.27,.16,.4,.1-.06-.02-.18-.09-.4-.1Zm22.36-.24c-.11,.09-.31,.31-.12,.47,.09-.19,.26,.14,.33-.15,.01,.01,.01,.02,.02,.03-.11-.18-.2-.34-.23-.35Zm5.73,3.72c-.22-.02-.46-.1-.63-.05l.02-.03c-.07,.03-.14,.05-.19,.03-.04,.09-.1,.18-.03,.24,.72,.03,.83,.21,.83-.19Z" style="fill:#1c43df;"/><path d="M54.4,281.2s0,.02,.02,.02c0,0,0-.01-.02-.02Z" style="fill:#1c43df;"/><path d="M56.53,283.46s.12-.09,.2-.22c-.09,.03-.16,.09-.2,.22Z" style="fill:#1c43df;"/><path d="M18.15,277.2l.1-.07-.21-.22c-.35,.24-.36,.55-.45,.91,.31-.34,.5-.17,.9-.27l-.35-.36Z" style="fill:#1c43df;"/><path d="M18.33,279.59c.04,.1,.12,.34,.17,.36l.05-.22-.23-.14Z" style="fill:#1c43df;"/><path d="M22.44,280.64l-.33-.19c-.1,.19,.28,.53,.33,.19Z" style="fill:#1c43df;"/><path d="M20.98,276.86l-.17,.24c.16,.19,.36,.17,.4-.1-.21,.14-.05-.14-.23-.14Z" style="fill:#1c43df;"/><path d="M23.33,280.68c.1-.43,.33,.19,.4-.22-.09,.12-.38-.22-.4,.22Z" style="fill:#1c43df;"/><path d="M23.1,276.59c-.1-.41-.28-.05-.49-.14,.17,0,.42,.43,.49,.14Z" style="fill:#1c43df;"/><path d="M25.1,279.46c-.02,.31-.16,.29-.31,.21,.05-.1,.09-.24,.16-.29-.26,.24-.28,.19-.49,.33,.21,.22,.52,.36,.49,.74,.15-.29,.35-.72,.15-1Z" style="fill:#1c43df;"/><path d="M23.6,276.54c-.17-.12-.28-.4-.49-.38,.04,.21,.11,.53,.35,.48l-.09,.36c.23,.26-.09-.48,.22-.45Z" style="fill:#1c43df;"/><path d="M26.05,280.29l-.1-.17c-.24,.29-.56,.14-.69,.6,.29-.02,.66-.22,.8-.43Z" style="fill:#1c43df;"/><path d="M24.45,277.21l.03-.5c-.24-.07,.02,.17-.07,.29-.07-.07-.17-.12-.22-.02,.28-.07,.02,.41,.26,.24Z" style="fill:#1c43df;"/><path d="M25.25,276.65l.31-.21-.24-.55c-.36,.19-.02,.31-.07,.76Z" style="fill:#1c43df;"/><path d="M25.63,276.99l.03,.1,.47-.74c-.28,.31-.3,.26-.5,.65Z" style="fill:#1c43df;"/><path d="M31.3,280.25c.05-.22-.22-.48-.1-.24-.05,.18,.31,.46,.1,.24Z" style="fill:#1c43df;"/><path d="M30.18,276.23c.13,.16,.57-.14,.76-.29-.23,.1-.79,0-.76,.29Z" style="fill:#1c43df;"/><path d="M31.02,275.88s-.04,.03-.08,.06c.03-.02,.06-.03,.08-.06Z" style="fill:#1c43df;"/><path d="M39.04,274.77s.04-.02,.06-.06c-.02,.02-.04,.04-.06,.06Z" style="fill:#1c43df;"/><path d="M38.85,274.9c-.13-.07-.39,.06-.43,.29,.2-.11,.38-.18,.62-.42-.09,.03-.2-.14-.19,.13Z" style="fill:#1c43df;"/><path d="M40.7,275.01c-.1,.14-.23,.07-.19,.28,.05,.09,.26-.13,.19-.28Z" style="fill:#1c43df;"/><path d="M53.11,281.29c.22,.11,.19,.03,.19-.29-.11,0-.07,.19-.19,.29Z" style="fill:#1c43df;"/><path d="M53.36,280.93v.16s-.01,.24-.01,.24c0-.13,.01-.26,.01-.4Z" style="fill:#1c43df;"/><path d="M53.46,281.39s-.04,.09-.06,.14c.02-.04,.05-.09,.06-.14Z" style="fill:#1c43df;"/><path d="M53.39,281.55v-.02s0,.02,0,.02Z" style="fill:#1c43df;"/><path d="M53.42,281.45l-.06,.17s.02-.04,.03-.07c0,.01,0-.01,.03-.1Z" style="fill:#1c43df;"/><path d="M53.47,281.45c.07-.16,.14-.32,.19-.48-.14,.23-.07,.25-.34,.75,.04-.09,.09-.18,.14-.28Z" style="fill:#1c43df;"/><path d="M53.65,281.32c-.12,.16,.59-.6,.12-.03,.32-.24,.7-.72,1.05-1,.06-.05,.11-.06,.15-.04,.05-.09,.05-.14,.03-.14-.29,.12-1.09,1.07-.97,.8-.23,.35-.27,.28-.37,.41Z" style="fill:#1c43df;"/><path d="M54.3,280.37c-.21,.28-.14,.31,.04,.12,0-.03,.23-.43-.04-.12Z" style="fill:#1c43df;"/><polygon points="54.04 281.11 53.82 281.34 54 281.19 54.04 281.11" style="fill:#1c43df;"/><path d="M53.92,281.34c-.11,.07-.22,.15-.33,.23,.13-.1,.1-.04,.33-.23Z" style="fill:#1c43df;"/><path d="M53.51,281.7c-.11,.05,.65-.22,.48-.23l-.03,.03c-.12,.05-.38,.19-.45,.2Z" style="fill:#1c43df;"/><path d="M54.7,282.47c.02-.12-.08-.27-.24-.24l.15,.33,.08-.09Z" style="fill:#1c43df;"/><path d="M56.55,282.42c.46-.11-.04-.31,.11-.53-.09,.25-.15,.22-.11,.53Z" style="fill:#1c43df;"/><path d="M54.05,282.85c-.19-.09-.07-.23-.04-.31-.26,.04-.19,.27,.04,.31Z" style="fill:#1c43df;"/><path d="M54.21,283.38c-.19,.11-.26-.02-.38,.06-.21,.23-.18,.48,.07,.61,.2-.06,.73-.15,.96-.05-.16-.37-1.02-.56-.36-.75l-.8-.31c-.13,.3,.56,.23,.51,.44Z" style="fill:#1c43df;"/><path d="M55.73,282.63l-.27,.2c.26-.04,.31,.11,.39,.22,.59-.05-.09-.3-.12-.42Z" style="fill:#1c43df;"/><polygon points="54.56 285.45 54.7 285.87 54.73 285.73 54.56 285.45" style="fill:#1c43df;"/><polygon points="54.37 285.72 54.2 285.73 54.52 286.05 54.37 285.72" style="fill:#1c43df;"/><polygon points="54.17 286.16 54.2 286.11 54.05 285.86 54.17 286.16" style="fill:#1c43df;"/><path d="M54.06,287.05l.25-.08c-.06-.11,.21-.32-.12-.3,.11,.09,.07,.32-.12,.38Z" style="fill:#1c43df;"/><path d="M60.35,289.97c-.16-.08-.31-.03-.46,.02l.42,.12s-.06-.11,.03-.14Z" style="fill:#1c43df;"/><path d="M59.66,290.48l.48,.31c.07-.36-.3-.41-.38-.73-.15,.13,.19,.32,.06,.49l-.16-.08Z" style="fill:#1c43df;"/><path d="M59.3,296.78c-.31-.03-.27,.04-.47-.19,.19,.32,.12,.6,.17,.96,.19-.06,.53,.21,.45,.07l-.19-.41,.21,.06c.24-.29-.35-.19-.18-.49Z" style="fill:#1c43df;"/><path d="M56.02,313.23c-.15-.04-.29,.01-.42,.06,.17,.24,.39-.11,.42-.06Z" style="fill:#1c43df;"/></g></g></g></g></svg>