<?xml version="1.0" encoding="UTF-8"?><svg id="Layer_2" xmlns="http://www.w3.org/2000/svg" viewBox="0 0 190.06 649.89"><g id="Layer_1-2"><g><g><g><line x1="49.43" y1="291.52" x2="49.43" y2="358.29" style="fill:none; stroke:#d8d5d4; stroke-miterlimit:10; stroke-width:5.04px;"/><line x1="16.04" y1="324.9" x2="82.81" y2="324.9" style="fill:none; stroke:#d8d5d4; stroke-miterlimit:10; stroke-width:5.04px;"/><g><path d="M5.56,321.97c1.44-21.63,18.55-39.03,40.07-40.87v-4.45c-23.98,1.87-43.07,21.24-44.53,45.33H5.56Z" style="fill:#d8d5d4;"/><path d="M5.68,329.55H1.19c2.23,23.3,21.03,41.8,44.44,43.62v-4.45c-20.96-1.8-37.75-18.33-39.95-39.17Z" style="fill:#d8d5d4;"/></g><g><path d="M93.29,321.97h4.45c-1.46-24.09-20.55-43.46-44.53-45.33v4.45c21.52,1.85,38.63,19.24,40.07,40.87Z" style="fill:#d8d5d4;"/><path d="M93.17,329.55c-2.2,20.84-19,37.37-39.95,39.17v4.45c23.41-1.82,42.22-20.33,44.44-43.62h-4.49Z" style="fill:#d8d5d4;"/></g></g><g><line x1="141.74" y1="291.52" x2="141.74" y2="358.29" style="fill:none; stroke:#d8d5d4; stroke-miterlimit:10; stroke-width:5.04px;"/><line x1="108.36" y1="324.9" x2="175.13" y2="324.9" style="fill:none; stroke:#d8d5d4; stroke-miterlimit:10; stroke-width:5.04px;"/><g><path d="M97.88,321.97c1.44-21.63,18.55-39.03,40.07-40.87v-4.45c-23.98,1.87-43.07,21.24-44.53,45.33h4.45Z" style="fill:#d8d5d4;"/><path d="M98,329.55h-4.49c2.23,23.3,21.03,41.8,44.44,43.62v-4.45c-20.96-1.8-37.75-18.33-39.95-39.17Z" style="fill:#d8d5d4;"/></g><g><path d="M185.61,321.97h4.45c-1.46-24.09-20.55-43.46-44.53-45.33v4.45c21.52,1.85,38.63,19.24,40.07,40.87Z" style="fill:#d8d5d4;"/><path d="M185.49,329.55c-2.2,20.84-19,37.37-39.95,39.17v4.45c23.41-1.82,42.22-20.33,44.44-43.62h-4.49Z" style="fill:#d8d5d4;"/></g></g><g><line x1="49.43" y1="199.9" x2="49.43" y2="266.67" style="fill:none; stroke:#d8d5d4; stroke-miterlimit:10; stroke-width:5.04px;"/><line x1="16.04" y1="233.28" x2="82.81" y2="233.28" style="fill:none; stroke:#d8d5d4; stroke-miterlimit:10; stroke-width:5.04px;"/><g><path d="M5.56,230.34c1.44-21.63,18.55-39.03,40.07-40.87v-4.45c-23.98,1.87-43.07,21.24-44.53,45.33H5.56Z" style="fill:#d8d5d4;"/><path d="M5.68,237.93H1.19c2.23,23.3,21.03,41.8,44.44,43.62v-4.45c-20.96-1.8-37.75-18.33-39.95-39.17Z" style="fill:#d8d5d4;"/></g><g><path d="M93.29,230.34h4.45c-1.46-24.09-20.55-43.46-44.53-45.33v4.45c21.52,1.85,38.63,19.24,40.07,40.87Z" style="fill:#d8d5d4;"/><path d="M93.17,237.93c-2.2,20.84-19,37.37-39.95,39.17v4.45c23.41-1.82,42.22-20.33,44.44-43.62h-4.49Z" style="fill:#d8d5d4;"/></g></g><g><line x1="141.74" y1="199.9" x2="141.74" y2="266.67" style="fill:none; stroke:#d8d5d4; stroke-miterlimit:10; stroke-width:5.04px;"/><line x1="108.36" y1="233.28" x2="175.13" y2="233.28" style="fill:none; stroke:#d8d5d4; stroke-miterlimit:10; stroke-width:5.04px;"/><g><path d="M97.88,230.34c1.44-21.63,18.55-39.03,40.07-40.87v-4.45c-23.98,1.87-43.07,21.24-44.53,45.33h4.45Z" style="fill:#d8d5d4;"/><path d="M98,237.93h-4.49c2.23,23.3,21.03,41.8,44.44,43.62v-4.45c-20.96-1.8-37.75-18.33-39.95-39.17Z" style="fill:#d8d5d4;"/></g><g><path d="M185.61,230.34h4.45c-1.46-24.09-20.55-43.46-44.53-45.33v4.45c21.52,1.85,38.63,19.24,40.07,40.87Z" style="fill:#d8d5d4;"/><path d="M185.49,237.93c-2.2,20.84-19,37.37-39.95,39.17v4.45c23.41-1.82,42.22-20.33,44.44-43.62h-4.49Z" style="fill:#d8d5d4;"/></g></g><g><line x1="49.43" y1="106.92" x2="49.43" y2="173.69" style="fill:none; stroke:#d8d5d4; stroke-miterlimit:10; stroke-width:5.04px;"/><line x1="16.04" y1="140.31" x2="82.81" y2="140.31" style="fill:none; stroke:#d8d5d4; stroke-miterlimit:10; stroke-width:5.04px;"/><g><path d="M5.56,137.37c1.44-21.63,18.55-39.03,40.07-40.87v-4.45c-23.98,1.87-43.07,21.24-44.53,45.33H5.56Z" style="fill:#d8d5d4;"/><path d="M5.68,144.95H1.19c2.23,23.3,21.03,41.8,44.44,43.62v-4.45c-20.96-1.8-37.75-18.33-39.95-39.17Z" style="fill:#d8d5d4;"/></g><g><path d="M93.29,137.37h4.45c-1.46-24.09-20.55-43.46-44.53-45.33v4.45c21.52,1.85,38.63,19.24,40.07,40.87Z" style="fill:#d8d5d4;"/><path d="M93.17,144.95c-2.2,20.84-19,37.37-39.95,39.17v4.45c23.41-1.82,42.22-20.33,44.44-43.62h-4.49Z" style="fill:#d8d5d4;"/></g></g><g><line x1="141.74" y1="106.92" x2="141.74" y2="173.69" style="fill:none; stroke:#d8d5d4; stroke-miterlimit:10; stroke-width:5.04px;"/><line x1="108.36" y1="140.31" x2="175.13" y2="140.31" style="fill:none; stroke:#d8d5d4; stroke-miterlimit:10; stroke-width:5.04px;"/><g><path d="M97.88,137.37c1.44-21.63,18.55-39.03,40.07-40.87v-4.45c-23.98,1.87-43.07,21.24-44.53,45.33h4.45Z" style="fill:#d8d5d4;"/><path d="M98,144.95h-4.49c2.23,23.3,21.03,41.8,44.44,43.62v-4.45c-20.96-1.8-37.75-18.33-39.95-39.17Z" style="fill:#d8d5d4;"/></g><g><path d="M185.61,137.37h4.45c-1.46-24.09-20.55-43.46-44.53-45.33v4.45c21.52,1.85,38.63,19.24,40.07,40.87Z" style="fill:#d8d5d4;"/><path d="M185.49,144.95c-2.2,20.84-19,37.37-39.95,39.17v4.45c23.41-1.82,42.22-20.33,44.44-43.62h-4.49Z" style="fill:#d8d5d4;"/></g></g><g><line x1="49.43" y1="14.88" x2="49.43" y2="81.65" style="fill:none; stroke:#d8d5d4; stroke-miterlimit:10; stroke-width:5.04px;"/><line x1="16.04" y1="48.26" x2="82.81" y2="48.26" style="fill:none; stroke:#d8d5d4; stroke-miterlimit:10; stroke-width:5.04px;"/><g><path d="M5.56,45.33C7,23.69,24.11,6.3,45.64,4.45V0C21.66,1.87,2.57,21.24,1.11,45.33H5.56Z" style="fill:#d8d5d4;"/><path d="M5.68,52.91H1.19c2.23,23.3,21.03,41.8,44.44,43.62v-4.45c-20.96-1.8-37.75-18.33-39.95-39.17Z" style="fill:#d8d5d4;"/></g><g><path d="M93.29,45.33h4.45C96.29,21.24,77.19,1.87,53.22,0V4.45c21.52,1.85,38.63,19.24,40.07,40.87Z" style="fill:#d8d5d4;"/><path d="M93.17,52.91c-2.2,20.84-19,37.37-39.95,39.17v4.45c23.41-1.82,42.22-20.33,44.44-43.62h-4.49Z" style="fill:#d8d5d4;"/></g></g><g><line x1="141.74" y1="14.88" x2="141.74" y2="81.65" style="fill:none; stroke:#d8d5d4; stroke-miterlimit:10; stroke-width:5.04px;"/><line x1="108.36" y1="48.26" x2="175.13" y2="48.26" style="fill:none; stroke:#d8d5d4; stroke-miterlimit:10; stroke-width:5.04px;"/><g><path d="M97.88,45.33c1.44-21.63,18.55-39.03,40.07-40.87V0c-23.98,1.87-43.07,21.24-44.53,45.33h4.45Z" style="fill:#d8d5d4;"/><path d="M98,52.91h-4.49c2.23,23.3,21.03,41.8,44.44,43.62v-4.45c-20.96-1.8-37.75-18.33-39.95-39.17Z" style="fill:#d8d5d4;"/></g><g><path d="M185.61,45.33h4.45c-1.46-24.09-20.55-43.46-44.53-45.33V4.45c21.52,1.85,38.63,19.24,40.07,40.87Z" style="fill:#d8d5d4;"/><path d="M185.49,52.91c-2.2,20.84-19,37.37-39.95,39.17v4.45c23.41-1.82,42.22-20.33,44.44-43.62h-4.49Z" style="fill:#d8d5d4;"/></g></g><g><line x1="49.43" y1="384.02" x2="49.43" y2="450.78" style="fill:none; stroke:#d8d5d4; stroke-miterlimit:10; stroke-width:5.04px;"/><line x1="16.04" y1="417.4" x2="82.81" y2="417.4" style="fill:none; stroke:#d8d5d4; stroke-miterlimit:10; stroke-width:5.04px;"/><g><path d="M5.56,414.46c1.44-21.63,18.55-39.03,40.07-40.87v-4.45c-23.98,1.87-43.07,21.24-44.53,45.33H5.56Z" style="fill:#d8d5d4;"/><path d="M5.68,422.04H1.19c2.23,23.3,21.03,41.8,44.44,43.62v-4.45c-20.96-1.8-37.75-18.33-39.95-39.17Z" style="fill:#d8d5d4;"/></g><g><path d="M93.29,414.46h4.45c-1.46-24.09-20.55-43.46-44.53-45.33v4.45c21.52,1.85,38.63,19.24,40.07,40.87Z" style="fill:#d8d5d4;"/><path d="M93.17,422.04c-2.2,20.84-19,37.37-39.95,39.17v4.45c23.41-1.82,42.22-20.33,44.44-43.62h-4.49Z" style="fill:#d8d5d4;"/></g></g><g><line x1="141.74" y1="384.02" x2="141.74" y2="450.78" style="fill:none; stroke:#d8d5d4; stroke-miterlimit:10; stroke-width:5.04px;"/><line x1="108.36" y1="417.4" x2="175.13" y2="417.4" style="fill:none; stroke:#d8d5d4; stroke-miterlimit:10; stroke-width:5.04px;"/><g><path d="M97.88,414.46c1.44-21.63,18.55-39.03,40.07-40.87v-4.45c-23.98,1.87-43.07,21.24-44.53,45.33h4.45Z" style="fill:#d8d5d4;"/><path d="M98,422.04h-4.49c2.23,23.3,21.03,41.8,44.44,43.62v-4.45c-20.96-1.8-37.75-18.33-39.95-39.17Z" style="fill:#d8d5d4;"/></g><g><path d="M185.61,414.46h4.45c-1.46-24.09-20.55-43.46-44.53-45.33v4.45c21.52,1.85,38.63,19.24,40.07,40.87Z" style="fill:#d8d5d4;"/><path d="M185.49,422.04c-2.2,20.84-19,37.37-39.95,39.17v4.45c23.41-1.82,42.22-20.33,44.44-43.62h-4.49Z" style="fill:#d8d5d4;"/></g></g><g><line x1="49.43" y1="475.74" x2="49.43" y2="542.51" style="fill:none; stroke:#d8d5d4; stroke-miterlimit:10; stroke-width:5.04px;"/><line x1="16.04" y1="509.13" x2="82.81" y2="509.13" style="fill:none; stroke:#d8d5d4; stroke-miterlimit:10; stroke-width:5.04px;"/><g><path d="M5.56,506.19c1.44-21.63,18.55-39.03,40.07-40.87v-4.45c-23.98,1.87-43.07,21.24-44.53,45.33H5.56Z" style="fill:#d8d5d4;"/><path d="M5.68,513.77H1.19c2.23,23.3,21.03,41.8,44.44,43.62v-4.45c-20.96-1.8-37.75-18.33-39.95-39.17Z" style="fill:#d8d5d4;"/></g><g><path d="M93.29,506.19h4.45c-1.46-24.09-20.55-43.46-44.53-45.33v4.45c21.52,1.85,38.63,19.24,40.07,40.87Z" style="fill:#d8d5d4;"/><path d="M93.17,513.77c-2.2,20.84-19,37.37-39.95,39.17v4.45c23.41-1.82,42.22-20.33,44.44-43.62h-4.49Z" style="fill:#d8d5d4;"/></g></g><g><line x1="141.74" y1="475.74" x2="141.74" y2="542.51" style="fill:none; stroke:#d8d5d4; stroke-miterlimit:10; stroke-width:5.04px;"/><line x1="108.36" y1="509.13" x2="175.13" y2="509.13" style="fill:none; stroke:#d8d5d4; stroke-miterlimit:10; stroke-width:5.04px;"/><g><path d="M97.88,506.19c1.44-21.63,18.55-39.03,40.07-40.87v-4.45c-23.98,1.87-43.07,21.24-44.53,45.33h4.45Z" style="fill:#d8d5d4;"/><path d="M98,513.77h-4.49c2.23,23.3,21.03,41.8,44.44,43.62v-4.45c-20.96-1.8-37.75-18.33-39.95-39.17Z" style="fill:#d8d5d4;"/></g><g><path d="M185.61,506.19h4.45c-1.46-24.09-20.55-43.46-44.53-45.33v4.45c21.52,1.85,38.63,19.24,40.07,40.87Z" style="fill:#d8d5d4;"/><path d="M185.49,513.77c-2.2,20.84-19,37.37-39.95,39.17v4.45c23.41-1.82,42.22-20.33,44.44-43.62h-4.49Z" style="fill:#d8d5d4;"/></g></g><g><line x1="49.43" y1="568.24" x2="49.43" y2="635.01" style="fill:none; stroke:#d8d5d4; stroke-miterlimit:10; stroke-width:5.04px;"/><line x1="16.04" y1="601.62" x2="82.81" y2="601.62" style="fill:none; stroke:#d8d5d4; stroke-miterlimit:10; stroke-width:5.04px;"/><g><path d="M5.56,598.68c1.44-21.63,18.55-39.03,40.07-40.87v-4.45c-23.98,1.87-43.07,21.24-44.53,45.33H5.56Z" style="fill:#d8d5d4;"/><path d="M5.68,606.26H1.19c2.23,23.3,21.03,41.8,44.44,43.62v-4.45c-20.96-1.8-37.75-18.33-39.95-39.17Z" style="fill:#d8d5d4;"/></g><g><path d="M93.29,598.68h4.45c-1.46-24.09-20.55-43.46-44.53-45.33v4.45c21.52,1.85,38.63,19.24,40.07,40.87Z" style="fill:#d8d5d4;"/><path d="M93.17,606.26c-2.2,20.84-19,37.37-39.95,39.17v4.45c23.41-1.82,42.22-20.33,44.44-43.62h-4.49Z" style="fill:#d8d5d4;"/></g></g><g><line x1="141.74" y1="568.24" x2="141.74" y2="635.01" style="fill:none; stroke:#d8d5d4; stroke-miterlimit:10; stroke-width:5.04px;"/><line x1="108.36" y1="601.62" x2="175.13" y2="601.62" style="fill:none; stroke:#d8d5d4; stroke-miterlimit:10; stroke-width:5.04px;"/><g><path d="M97.88,598.68c1.44-21.63,18.55-39.03,40.07-40.87v-4.45c-23.98,1.87-43.07,21.24-44.53,45.33h4.45Z" style="fill:#d8d5d4;"/><path d="M98,606.26h-4.49c2.23,23.3,21.03,41.8,44.44,43.62v-4.45c-20.96-1.8-37.75-18.33-39.95-39.17Z" style="fill:#d8d5d4;"/></g><g><path d="M185.61,598.68h4.45c-1.46-24.09-20.55-43.46-44.53-45.33v4.45c21.52,1.85,38.63,19.24,40.07,40.87Z" style="fill:#d8d5d4;"/><path d="M185.49,606.26c-2.2,20.84-19,37.37-39.95,39.17v4.45c23.41-1.82,42.22-20.33,44.44-43.62h-4.49Z" style="fill:#d8d5d4;"/></g></g></g><path d="M.09,413.53c-.63,9.26,1.95,18.79,6.21,26.72,2.59,4.82,6.01,9.15,9.9,12.52,3.93,3.41,8.31,5.9,12.85,8.28-.36,.53-.7,1.08-1.02,1.63l-.43,.71c-.93,1.51-1.99,2.87-3.12,4.32l-.78,1c-.84,1.09-1.64,2.12-2.58,2.99-1,.93-2.38,2.21-2.28,4.06,0,.03,0,.08,.02,.13-.02,.19-.03,.37-.02,.55,.08,1.37,1.13,2.41,2.39,2.41h.06c2.3-.06,4.41-.94,6.46-1.79l1.14-.47c2.7-1.08,5.28-2.28,7.69-3.57,4.96-2.68,8.89-5.17,12.31-7.8,2.2-.02,4.36-.16,6.43-.42,17.99-2.26,33.05-13.18,39.29-28.51,2.24-5.51,3.32-11.51,3.19-17.84,.13-13.27-5.22-26.61-14.3-35.66-6.25-6.23-14.39-10.84-23.53-13.31-9.5-2.57-18.53-2.45-26.98,.62,0,0-30.6,9.74-32.89,43.44Zm43.26-39.06c17.86-1.22,31.4,5.24,40.83,17.9,5.42,7.28,8.53,16.45,8.76,25.81-.05,7.21-1.87,14.09-5.27,19.84-7.4,12.51-22.02,20.49-38.17,20.85-.33-.05-.65-.05-.96,.03-1.06,.06-1.81,.59-2.17,1.41-4,3.16-8.38,5.66-11.78,7.5-1.84,1-3.72,1.91-5.59,2.72,.26-.34,.52-.68,.78-1.02,.73-.95,1.35-1.96,1.95-2.94,.44-.71,.87-1.42,1.35-2.11l.35-.5c.72-1,1.47-2.03,1.52-3.58,.05-.27,.05-.54,0-.8,0-.17,0-.34-.02-.52,.2-1.04-.26-2.02-1.22-2.51-2.58-1.33-5.05-2.61-7.39-3.99-4.84-2.86-8.65-6.06-11.66-9.8-2.9-3.6-5.3-7.97-6.94-12.63-1.82-5.19-1.69-11.34-.95-16.88,4.84-36.11,36.57-38.8,36.57-38.8Z" style="fill:#1c43df;"/></g></g></svg>