<?xml version="1.0" encoding="UTF-8"?><svg id="Layer_2" xmlns="http://www.w3.org/2000/svg" viewBox="0 0 384.04 126.67"><g id="Layer_1-2"><g><g><path d="M70.33,62.06c-1.99-1.42-4.88-2.13-8.66-2.13-4.16,0-7.4,.98-9.74,2.93-2.34,1.95-3.87,4.96-4.56,9.03l-1.23,7.15c-.66,4.03,.04,7.15,2.1,9.38,2.06,2.22,5.2,3.33,9.44,3.33,2.59,0,4.84-.37,6.75-1.11,1.91-.74,3.42-1.78,4.53-3.12,1.11-1.34,1.71-2.93,1.79-4.78,.04-.45-.16-.68-.62-.68h-5.61c-.41,0-.66,.25-.74,.74-.12,.99-.69,1.76-1.7,2.31-1.01,.55-2.27,.83-3.79,.83-1.98,0-3.41-.48-4.32-1.45-.91-.97-1.21-2.39-.93-4.29l.12-1.05,8.57-.99c3.82-.45,6.71-1.47,8.67-3.05,1.95-1.58,2.93-3.94,2.93-7.06,0-2.59-1-4.6-2.99-6.01Zm-5.58,9.87c-.82,.68-2.18,1.16-4.07,1.45l-6.72,.86,.37-2.47c.33-2.01,1.05-3.52,2.16-4.53,1.11-1.01,2.67-1.51,4.69-1.51,1.56,0,2.75,.28,3.58,.83,.82,.55,1.23,1.35,1.23,2.37,0,1.32-.41,2.31-1.23,2.99Z" style="fill:#fff;"/><path d="M98.67,60.12c-.33-.12-.9-.18-1.73-.18-1.07,0-2.21,.28-3.42,.83-1.21,.56-2.38,1.32-3.51,2.28-.9,.77-1.76,1.64-2.59,2.58,.07-.55,.12-1.14,.15-1.78,.04-.92,.06-1.76,.06-2.5-.04-.45-.29-.68-.74-.68h-5.06c-.53,0-.8,.25-.8,.74-.04,1.11-.12,2.22-.22,3.33-.1,1.11-.26,2.28-.46,3.51l-3.45,22.02c-.08,.49,.1,.74,.55,.74h5.74c.25,0,.43-.07,.55-.22,.12-.14,.21-.32,.25-.52l2.91-18.48c.69-.7,1.38-1.34,2.08-1.87,.99-.74,1.98-1.3,2.99-1.7,1.01-.39,1.98-.58,2.93-.58,.45,0,.85,.02,1.2,.06,.35,.04,.67,.1,.96,.19,.45,.12,.76-.08,.92-.62,.25-.99,.47-2.04,.68-3.14,.21-1.11,.35-2.14,.43-3.08,.04-.25,.04-.44,0-.58-.04-.15-.19-.26-.43-.34Z" style="fill:#fff;"/><path d="M115.64,59.93c-4.24,0-7.55,.99-9.93,2.96-2.38,1.98-3.93,4.98-4.63,9l-1.17,6.85c-.66,4.2,.03,7.41,2.07,9.65,2.04,2.24,5.27,3.36,9.71,3.36s7.74-.99,10.15-2.96c2.4-1.97,3.94-5.06,4.6-9.25l1.05-6.66c.66-4.2-.08-7.4-2.22-9.62-2.14-2.22-5.35-3.33-9.62-3.33Zm4.69,13.51l-.86,5.43c-.37,2.38-1.11,4.09-2.22,5.12-1.11,1.03-2.76,1.54-4.93,1.54s-3.74-.6-4.57-1.79c-.82-1.19-1.05-3-.68-5.43l.92-5.49c.41-2.38,1.15-4.09,2.22-5.12,1.07-1.03,2.67-1.54,4.81-1.54s3.65,.58,4.53,1.76c.89,1.17,1.14,3.01,.77,5.52Z" style="fill:#fff;"/><path d="M150.3,50.62h-11.1c-.45,0-.72,.25-.8,.74l-6.11,38.92c-.08,.49,.12,.74,.62,.74h5.8c.41,0,.66-.25,.74-.74l2.16-13.38h5.06c3.58,0,6.65-.58,9.22-1.76,2.57-1.17,4.54-2.89,5.92-5.15,1.38-2.26,2.07-5,2.07-8.2,0-3.62-1.06-6.38-3.18-8.29-2.12-1.91-5.58-2.87-10.39-2.87Zm3.92,17.98c-1.58,1.34-3.92,2-7,2h-4.63l2.16-13.69h4.87c2.34,0,4.09,.43,5.24,1.3,1.15,.86,1.73,2.26,1.73,4.19,0,2.8-.79,4.86-2.37,6.2Z" style="fill:#fff;"/><path d="M181.75,59.93c-4.32,0-7.59,.94-9.81,2.81-2.22,1.87-3.68,4.96-4.38,9.28l-1.36,8.2c-.37,2.3-.38,4.32-.03,6.05,.35,1.73,1.08,3.07,2.19,4.04,1.11,.97,2.69,1.45,4.75,1.45,1.81,0,3.71-.45,5.7-1.36,2-.9,3.92-2.22,5.77-3.95-.04,.66-.08,1.32-.12,1.98-.04,.66-.04,1.27,0,1.85,0,.49,.25,.74,.74,.74h4.81c.53,0,.8-.25,.8-.74,.04-1.11,.13-2.25,.28-3.42,.14-1.17,.3-2.35,.46-3.55l3.52-21.89c-2.43-.17-4.65-.45-6.66-.87-2.02-.41-4.24-.61-6.66-.61Zm3.02,21.46c-1.64,1.44-3.09,2.48-4.35,3.11-1.25,.64-2.5,.96-3.73,.96-1.56,0-2.57-.53-3.02-1.6-.45-1.07-.53-2.49-.25-4.26l1.11-7.09c.37-2.22,1.08-3.86,2.13-4.93,1.05-1.07,2.68-1.6,4.9-1.6,.86,0,1.81,.06,2.84,.19,1.03,.12,1.93,.27,2.71,.43l-2.34,14.8Z" style="fill:#fff;"/><path d="M219.93,60.12c-.33-.12-.9-.18-1.73-.18-1.07,0-2.21,.28-3.42,.83-1.21,.56-2.38,1.32-3.51,2.28-.9,.77-1.76,1.64-2.59,2.58,.07-.55,.12-1.14,.15-1.78,.04-.92,.06-1.76,.06-2.5-.04-.45-.29-.68-.74-.68h-5.06c-.53,0-.8,.25-.8,.74-.04,1.11-.12,2.22-.22,3.33-.1,1.11-.26,2.28-.46,3.51l-3.45,22.02c-.08,.49,.1,.74,.55,.74h5.74c.25,0,.43-.07,.55-.22,.12-.14,.21-.32,.25-.52l2.91-18.48c.69-.7,1.38-1.34,2.08-1.87,.99-.74,1.98-1.3,2.99-1.7,1.01-.39,1.98-.58,2.93-.58,.45,0,.85,.02,1.2,.06,.35,.04,.67,.1,.96,.19,.45,.12,.76-.08,.92-.62,.25-.99,.47-2.04,.68-3.14,.21-1.11,.35-2.14,.43-3.08,.04-.25,.04-.44,0-.58-.04-.15-.19-.26-.43-.34Z" style="fill:#fff;"/><path d="M243.67,60.67h-8.27l1.11-7.34c.12-.49-.06-.74-.55-.74h-4.56c-.41,0-.7,.23-.86,.68l-1.98,7.4h-4.69c-.45,0-.72,.23-.8,.68l-.74,4.69c-.08,.49,.12,.74,.62,.74h4.44l-2.28,14.43c-.57,3.54-.25,6.18,.99,7.93,1.23,1.75,3.58,2.62,7.03,2.62,1.19,0,2.29-.08,3.3-.25,1.01-.17,1.92-.41,2.74-.74,.41-.21,.64-.49,.68-.86l.74-4.69c.12-.62-.1-.8-.68-.55-.7,.25-1.43,.45-2.19,.61-.76,.17-1.53,.25-2.31,.25-1.4,0-2.34-.37-2.84-1.11-.49-.74-.6-1.97-.31-3.7l2.22-13.94h8.32c.41,0,.68-.25,.8-.74l.74-4.69c.08-.45-.15-.68-.68-.68Z" style="fill:#fff;"/><path d="M256.38,60.67h-5.61c-.45,0-.72,.23-.8,.68l-4.57,28.93c-.08,.49,.1,.74,.55,.74h5.74c.41,0,.68-.25,.8-.74l4.57-28.93c.08-.45-.15-.68-.68-.68Z" style="fill:#fff;"/><path d="M283.79,61.26c-1.83-.88-4.08-1.33-6.75-1.33-4.4,0-7.76,1.01-10.08,3.02-2.32,2.02-3.83,5.06-4.53,9.13l-1.11,6.91c-.66,4.03,.03,7.16,2.07,9.41,2.04,2.24,5.27,3.36,9.71,3.36,3.9,0,7.04-.92,9.41-2.75,2.36-1.83,3.71-4.43,4.04-7.8,.08-.49-.15-.74-.68-.74h-5.37c-.45,0-.7,.25-.74,.74-.25,1.32-.83,2.37-1.76,3.15-.93,.78-2.33,1.17-4.23,1.17-2.14,0-3.65-.55-4.53-1.67-.89-1.11-1.14-2.84-.77-5.18l.86-5.67c.41-2.38,1.13-4.12,2.16-5.21,1.03-1.09,2.65-1.63,4.87-1.63,1.69,0,3.01,.36,3.98,1.08,.96,.72,1.35,1.8,1.14,3.24-.08,.49,.12,.74,.62,.74h5.37c.41,0,.68-.25,.8-.74,.45-2.18,.28-4.04-.52-5.58-.8-1.54-2.12-2.75-3.95-3.64Z" style="fill:#fff;"/><path d="M303.13,60.67h-5.61c-.45,0-.72,.23-.8,.68l-4.56,28.93c-.08,.49,.1,.74,.55,.74h5.74c.41,0,.68-.25,.8-.74l4.57-28.93c.08-.45-.15-.68-.68-.68Z" style="fill:#fff;"/><path d="M328.35,59.93c-2.06,0-4.01,.46-5.86,1.39-1.47,.73-3.07,1.8-4.8,3.17,0-.09,.02-.17,.02-.27,.02-.51,.03-1.03,.03-1.54v-1.33c-.04-.45-.29-.68-.74-.68h-5.06c-.53,0-.8,.27-.8,.8-.04,.95-.12,2-.22,3.14-.1,1.15-.24,2.28-.4,3.39l-5.37,33.68c-.08,.49,.12,.74,.62,.74h5.73c.41,0,.66-.25,.74-.74l1.86-11.63c.84,.45,1.87,.82,3.1,1.12,1.63,.39,3.22,.59,4.78,.59,3.41,0,6.14-1.04,8.17-3.11,2.04-2.08,3.38-5.13,4.04-9.16l1.36-8.39c.57-3.74,.26-6.54-.96-8.39-1.21-1.85-3.3-2.78-6.26-2.78Zm-.06,12.27l-.99,6.6c-.37,2.34-1.08,4.08-2.13,5.21-1.05,1.13-2.5,1.69-4.35,1.69-1.07,0-2.23-.17-3.48-.52-.86-.24-1.61-.54-2.31-.87l2.33-14.56c1.27-1.01,2.44-1.81,3.49-2.37,1.46-.78,2.81-1.17,4.04-1.17,1.48,0,2.51,.47,3.08,1.42,.57,.95,.68,2.47,.31,4.56Z" style="fill:#fff;"/><path d="M362.65,60.55c-2.02-.41-4.24-.61-6.66-.61-4.32,0-7.59,.94-9.81,2.81-2.22,1.87-3.68,4.96-4.38,9.28l-1.36,8.2c-.37,2.3-.38,4.32-.03,6.05,.35,1.73,1.08,3.07,2.19,4.04,1.11,.97,2.69,1.45,4.75,1.45,1.81,0,3.71-.45,5.7-1.36,2-.9,3.92-2.22,5.77-3.95-.04,.66-.08,1.32-.12,1.98-.04,.66-.04,1.27,0,1.85,0,.49,.25,.74,.74,.74h4.81c.53,0,.8-.25,.8-.74,.04-1.11,.13-2.25,.28-3.42,.14-1.17,.3-2.35,.46-3.55l3.52-21.89c-2.43-.17-4.65-.45-6.66-.87Zm-3.64,20.85c-1.64,1.44-3.09,2.48-4.35,3.11-1.25,.64-2.5,.96-3.73,.96-1.56,0-2.57-.53-3.02-1.6-.45-1.07-.53-2.49-.25-4.26l1.11-7.09c.37-2.22,1.08-3.86,2.13-4.93,1.05-1.07,2.68-1.6,4.9-1.6,.86,0,1.81,.06,2.84,.19,1.03,.12,1.93,.27,2.71,.43l-2.34,14.8Z" style="fill:#fff;"/><path d="M34.72,51.36c-.13-.49-.37-.74-.74-.74h-7.9c-.29,0-.55,.25-.8,.74L6.1,90.28c-.08,.25-.09,.43-.03,.55s.22,.19,.46,.19h6.35c.37,0,.68-.25,.92-.74l11.17-24.12c.74-1.56,1.44-3.09,2.1-4.6,.66-1.5,1.32-3.03,1.98-4.6h.12c.16,1.52,.35,3.06,.55,4.63,.21,1.56,.41,3.08,.62,4.56l2.41,16.23-11.48-8.22-2.58,5.58,3.69,2.64,11.9,8.52s0,0,0-.01c.11,.07,.23,.12,.39,.12h6.35c.53,0,.76-.25,.68-.74l-6.97-38.92Z" style="fill:#fff;"/><circle cx="254.76" cy="53.15" r="4.2" style="fill:#fff;"/><circle cx="301.47" cy="53.15" r="4.2" style="fill:#fff;"/></g><g><path d="M233.99,29.98c-.37,.14-1.15,.21-1.72,.14-.68-.08-.81-.21-.36-.38,.37-.14,1.15-.21,1.72-.14,.68,.08,.81,.21,.36,.38Z" style="fill:#65a8df;"/><path d="M234.12,121.52c-.79-.2-.77-.55,.05-.86,.36-.14,.62,.03,.56,.36-.07,.37-.31,.57-.61,.5Z" style="fill:#65a8df;"/><path d="M240.77,121.01c.23,.22,.11,.54-.25,.67-.36,.14-.88,.07-1.1-.15-.23-.22-.11-.54,.25-.67,.36-.14,.88-.07,1.1,.15Z" style="fill:#65a8df;"/><path d="M240.63,30.31c.69-.04,1.08,.14,.88,.41-.2,.27-.95,.36-1.7,.21-1.44-.29-1.16-.51,.82-.63Z" style="fill:#65a8df;"/><path d="M244.29,120.66c.96-.15,2.96,.75,2.27,1.02-.54,.21-3.88-.16-3.96-.44-.06-.19,.05-.33,.27-.36,.2-.03,.84-.13,1.42-.21Z" style="fill:#65a8df;"/><path d="M239.67,29.64l-1.21,.15c-.68,.08-1.36,.21-1.55,.28-.2,.08-.4-.08-.49-.39-.21-.7,.26-.8,1.9-.38l1.36,.34Z" style="fill:#65a8df;"/><path d="M236.5,31.15c-.19-.11,.05-.34,.51-.49,.55-.18,.69-.1,.36,.21-.27,.26-.68,.39-.87,.28Z" style="fill:#65a8df;"/><path d="M226.74,31.09c.5-.19,1-.12,1.08,.16,.08,.28-.14,.63-.5,.77-.36,.14-.84,.07-1.08-.16-.23-.22,0-.58,.5-.77Z" style="fill:#65a8df;"/><path d="M219.14,120.98c1.08,.45,1.07,.47-.11,.56-1.53,.11-2.65-.39-1.69-.76,.38-.15,1.17-.06,1.8,.2Z" style="fill:#65a8df;"/><path d="M215.28,120.44c.54,.13,1.06,.51,1.16,.86,.13,.43,0,.46-.4,.09-.32-.28-.83-.35-1.13-.14-.29,.2-.73,.11-.95-.21-.47-.69,0-.91,1.31-.6Z" style="fill:#65a8df;"/><path d="M200.24,119.3c1.81,.41,7.8,.99,9.75,.94,1.15-.02,2.19,.26,2.3,.63,.2,.67,.15,.67-7.36-.2-2.03-.23-4.21-.46-4.91-.51-.67-.05-1.1-.32-.92-.57,.18-.25,.71-.39,1.15-.29Z" style="fill:#65a8df;"/><path d="M227.95,121.32c.37,.59,.29,.63-.47,.29-.5-.22-1.83-.24-2.98-.04-1.15,.2-1.92,.16-1.71-.09,.2-.25,1.37-.55,2.55-.66,1.18-.11,2.38,.12,2.61,.5Z" style="fill:#65a8df;"/><path d="M197,118.92c.63,.09,1.22,.38,1.3,.64,.15,.52-.49,.8-1.07,.47-.28-.16-.69-.2-.96-.09-.26,.1-.66-.09-.87-.42-.45-.68-.03-.84,1.6-.6Z" style="fill:#65a8df;"/><path d="M231.68,121.6c-2.03,.13-2.64-.12-1.43-.59,.5-.19,1.4-.16,2.01,.06,1.01,.38,.96,.42-.58,.52Z" style="fill:#65a8df;"/><path d="M228.88,31.42c-.09-.31-.07-.55,.05-.6,.12-.05,.37,.09,.63,.34,.24,.24,.22,.49-.05,.6s-.54-.04-.63-.34Z" style="fill:#65a8df;"/><path d="M219.3,32.22c.24,.24,.22,.49-.05,.6-.27,.1-.54-.04-.63-.34-.09-.31-.07-.55,.05-.6,.12-.05,.37,.09,.63,.34Z" style="fill:#65a8df;"/><path d="M267.86,30.62c-.25,.35-.37,.32-.3-.07,.08-.38-.74-.72-1.92-.79-1.13-.07-2.09-.25-2.13-.39-.05-.15-.03-.26,.05-.25,.07,0,.84,.03,1.75,.06,2.13,.07,3.13,.63,2.54,1.44Z" style="fill:#65a8df;"/><path d="M257.81,29.95c-.34-.91,.61-1.57,1.31-.91,.23,.21,.19,.51-.08,.61-.38,.15-.31,.35,.25,.77,.41,.3,.58,.64,.36,.71-.69,.24-1.5-.28-1.84-1.18Z" style="fill:#65a8df;"/><path d="M261.16,28.25c-.27,.1-.51-.03-.61-.34-.09-.31,.03-.59,.3-.69,.27-.1,.51,.03,.61,.34,.09,.31-.03,.59-.3,.69Z" style="fill:#65a8df;"/><path d="M262.35,30.65c-.48-.08-.99,.07-1.13,.35-.13,.27-.25,.04-.24-.48,0-.52-.28-.98-.6-.98-.35,0-.54-.14-.45-.34,.08-.19,.76-.32,1.52-.3,.82,.03,1.46,.43,1.58,.98,.15,.69-.02,.89-.67,.78Z" style="fill:#65a8df;"/><path d="M267.71,28.28c-.12-.39,1.68-.88,2.03-.55,.21,.2-.16,.46-.79,.56-.62,.1-1.21,.1-1.24-.01Z" style="fill:#65a8df;"/><path d="M266.14,28.07c-.36,.14-1.07,.14-1.51,0-.72-.22-.74-.29-.15-.52,.36-.14,1.07-.14,1.51,0,.72,.22,.74,.29,.15,.52Z" style="fill:#65a8df;"/><path d="M266.91,30.66c.09,.31-.03,.59-.3,.69s-.51-.03-.61-.35c-.09-.31,.03-.59,.3-.69,.27-.1,.51,.03,.61,.34Z" style="fill:#65a8df;"/><path d="M258.49,27.75c-1.97,.32-9.62,.1-8.63-.26,.37-.13,2.86-.19,5.5-.13,2.64,.06,4.06,.24,3.14,.39Z" style="fill:#65a8df;"/><path d="M251.8,29.28c-.08,.2-.78,.34-1.55,.31-.92-.04-1.54,.18-1.8,.63-.21,.38-.72,.61-1.1,.51-.53-.14-.47-.38,.23-.92,1.22-.96,1.59-1.07,3.13-.98,.67,.04,1.17,.25,1.09,.45Z" style="fill:#65a8df;"/><path d="M243.43,30.85c-1.13-.22-1.09-.28,.58-.92,.99-.38,1.62-.46,1.41-.17-.25,.35-.14,.53,.31,.54,.41,.02,.33,.18-.21,.4-.48,.2-1.46,.27-2.1,.14Z" style="fill:#65a8df;"/><path d="M240.12,29.41c-.26-.25-.37-.41-.28-.41,.08,0,1.11,.01,2.32,.03,1.21,.02,2.12,.15,2.06,.31-.18,.42-3.67,.49-4.1,.07Z" style="fill:#65a8df;"/><path d="M145.54,104.84c1.05,.7,2.07,1.17,2.32,1.07,.76-.29,.81,.52,.1,1.67-.51,.82-.5,1.21,.02,1.58,.38,.26,.61,.69,.51,.93-.11,.24-.69-.2-1.27-.96-.58-.76-1.17-1.2-1.29-.95-.12,.26-.32,.1-.46-.37-.14-.47,.02-1.19,.38-1.68,.47-.63,.46-.77-.03-.53-1.32,.64-1.8,.61-2.54-.19-1.41-1.52,.23-1.94,2.27-.58Z" style="fill:#65a8df;"/><path d="M250.91,30.17c1.19,.12,1.35,.24,.66,.53-.94,.4-2.6,.16-2.37-.35,.08-.19,.82-.27,1.71-.18Z" style="fill:#65a8df;"/><path d="M253.64,29.96c-.45,.19-.44,.4,.02,.66,.79,.45,3.25-.08,2.72-.58-.21-.2-.12-.47,.2-.6,.33-.13,0-.35-.76-.52-.75-.16-1.85-.11-2.48,.12-1.05,.38-1.05,.42-.09,.53,.63,.07,.78,.23,.4,.4Zm1.36-.49c.27-.1,.42,.08,.36,.44-.07,.37-.2,.65-.32,.7-.12,.05-.26-.13-.36-.44-.09-.3,.05-.6,.32-.7Z" style="fill:#65a8df;"/><path d="M238.01,28.12c-.47-.25,1.49-.74,2.68-.65,.62,.04,1.17,.2,1.21,.34,.08,.25-3.46,.54-3.88,.32Z" style="fill:#65a8df;"/><path d="M169.55,114.32c.09,.31-.03,.59-.3,.69-.27,.1-.51-.03-.61-.34-.09-.31,.03-.59,.3-.69,.27-.1,.51,.03,.61,.34Z" style="fill:#65a8df;"/><path d="M149,33.15c-.62,.3-1.38,.98-1.65,1.47-.43,.77-.48,.77-.35,0,.12-.74,.07-.75-.26-.04-.31,.65-.24,.98,.25,1.26,.75,.43,1.66-.52,1.06-1.1-.22-.21-.07-.49,.33-.65,.51-.19,.73,.06,.76,.86,.03,.86,.19,1,.65,.56,.39-.38,.69-.3,.84,.2,.16,.54-.09,.8-.82,.87-.74,.06-.91,.23-.56,.56,.34,.33,.02,.66-1.06,1.07-1.17,.45-1.69,.37-2.09-.35-.29-.52-.38-1.16-.2-1.43,.19-.27,.15-.75-.11-1.11-.29-.42-.09-.88,.59-1.32,.55-.36,1.51-1.01,2.06-1.37,.54-.36,1.19-.53,1.38-.36,.19,.18-.18,.58-.79,.88Z" style="fill:#65a8df;"/><path d="M213.35,12.3l1.88-.46-2.02-.29c-1.11-.16-3.98,.15-6.34,.68-2.38,.53-6.45,1.42-9.05,1.98-2.61,.56-7.31,1.83-10.48,2.85-3.17,1.01-5.88,1.76-6.05,1.67-.31-.17-17.4,6.99-19.47,8.15-3.41,1.91-4.9,2.74-6.87,3.81-1.21,.66-2.33,1.5-2.55,1.91-.26,.49-.53,.59-.82,.32-.56-.53-1.65,.52-1.4,1.35,.25,.83,1.71,1.47,1.97,.86,.33-.76,1.43-1.27,1.6-.73,.32,1.07,.94,.04,.86-1.43-.08-1.47-.06-1.49,.54-.47,.6,1.02,.66,1.02,1.65-.19,1.29-1.57,1.52-1.69,1.34-.76-.1,.51,.06,.56,.49,.16,.35-.33,.81-.42,1.05-.2,.25,.24,.68,.07,1.08-.42,.37-.45,.82-.73,1.02-.62,.19,.1,.57-.12,.82-.46,.64-.89,1.99-1.54,1.86-.88-.16,.8,.47,.43,1.62-.94,.59-.71,1.21-1.08,1.43-.87,.74,.71,1.8-.06,1.72-1.24-.05-.62,.09-1.19,.3-1.27,.22-.09,.37,.23,.35,.76-.02,.77,.2,.76,1.47-.04,.85-.54,1.67-.79,1.89-.58,.3,.29,6.98-2.17,6.87-2.53,0-.03,.3-.25,.73-.51,.43-.26,.8-.27,.88-.02,.07,.25,.68,.08,1.39-.39,.84-.55,1.32-.62,1.45-.21,.13,.45,.39,.37,.9-.26,.41-.5,1.03-.86,1.44-.84,.39,.02,.94-.47,1.22-1.07,.45-1.01,.53-1.01,.82-.03,.28,.93,.43,.96,1.06,.17,.55-.69,.78-.77,.91-.32,.1,.35,.43,.35,.79,.02s.56-.34,.49-.02c-.11,.51,1.01,.23,5.94-1.47,1.46-.5,2.69-.76,2.75-.58,.06,.19,.88-.1,1.82-.64,.95-.54,2.06-.84,2.47-.68,1.09,.44,2.58,.4,2.1-.07-.48-.45,.19-.8,.83-.44,.23,.14,.97,.06,1.65-.17q4.44-1.48,3.93-.65c-.4,.66-.39,.74,.07,.39,1.06-.82,.65-1.71-.83-1.78-1.32-.07-1.29-.11,.44-.53Zm-19.83,4.4c-.91-.09-.88-.17,.2-.61,.67-.28,1.31-.27,1.39,.01,.18,.6-.18,.74-1.59,.59Zm2.99-.27c-.24,.55-.55,1.08-.67,1.12-.12,.05-.22-.32-.21-.79,0-.47,.32-.99,.67-1.12,.57-.22,.6-.11,.21,.79Zm4.37-1.56c-.27,.26-.68,.39-.87,.28-.19-.11,.05-.34,.51-.48,.55-.18,.69-.1,.36,.21Zm6.65-1.4c-.27,.27-.77,.46-1.13,.43-.36-.02-.14-.23,.49-.48,.63-.24,.91-.22,.64,.04Zm3.29-.69c-.27,.26-.68,.39-.87,.28-.19-.11,.05-.34,.51-.48,.55-.18,.69-.1,.36,.21Z" style="fill:#65a8df;"/><path d="M122.49,87.36c-.11,.56-.02,.62,.3,.17,.35-.48,.46-.41,.43,.29-.04,1.17,.82,2.51,1.24,1.94,.15-.21,.33,.34,.37,1.19,.09,1.64,1.51,4.15,2.2,3.89,.21-.08,.55,.31,.7,.83,.4,1.35,1.27,2.49,1.57,2.07,.14-.19,.42,.11,.63,.67,.2,.55,1.61,2.09,3.07,3.38,2.42,2.13,2.76,2.27,3.29,1.4,.34-.56,.38-1.18,.09-1.45-.3-.28-.22-.58,.18-.74,.45-.17,.67,.06,.66,.7-.01,.7,.11,.79,.45,.32,.34-.47,.46-.38,.45,.32,0,.52,.17,.89,.39,.8,.23-.09,.4,.25,.38,.78-.02,.76,.1,.69,.69-.41,.55-1.04,.54-1.32-.02-1.24-.42,.06-.71-.28-.69-.8,.02-.53-.18-.98-.48-1.09-.28-.1-.9-.55-1.38-1-.48-.45-2.19-2.07-3.79-3.6-2.29-2.18-3.01-2.61-3.34-2.01-.22,.41-.18,1.14,.09,1.55,.34,.52,.07,.49-.81-.09-.77-.51-1.34-1.28-1.36-1.85-.02-.51-.45-1.15-.91-1.36-1.05-.47-1.39-1.49-.92-2.67,.2-.49,.2-1.67,.01-2.63-.19-.97-.57-1.66-.84-1.55-.27,.1-.42,.44-.33,.74,.09,.31-.07,.49-.38,.41-.33-.08-.49,.06-.4,.36,.09,.29,.48,.51,.94,.53,.46,.02,.73,.33,.65,.73-.1,.45-.64,.33-1.56-.35-1.08-.8-1.46-.85-1.58-.23Zm10.23,13.19c-.07-.24,.1-1.19,.38-2.11l.51-1.67,.56,1.87c.31,1.04,.4,2.08,.2,2.35-.2,.27-.51-.03-.72-.71-.29-.98-.39-1.03-.57-.24-.12,.51-.28,.75-.35,.51Zm-.58-4.54c-.46-.02-.82-.13-.85-.25-.12-.4,.82-.49,1.21-.12,.25,.24,.1,.39-.36,.37Zm-.82,2.57c.09-.22,.3,.06,.43,.59,.16,.63,.09,.79-.18,.42-.23-.32-.34-.78-.25-1Z" style="fill:#65a8df;"/><path d="M127.21,89.53c.51-.94,.57-.88,.76,.78,.17,1.44,.35,1.74,.93,1.52,.45-.17,.71,.07,.7,.66-.01,.52,0,1.02,.04,1.14,.03,.11-.16,.29-.43,.4-.28,.11-.49-.13-.49-.53,0-.41-.4-1-.94-1.37-.76-.52-.82-.69-.32-.89,.5-.19,.48-.29-.09-.46-.55-.16-.59-.45-.17-1.24Z" style="fill:#65a8df;"/><path d="M178.6,41.34c-.51,.32-1.46,.68-2.03,.78-.6,.1-.18-.16,.95-.6,1.13-.43,1.61-.52,1.08-.18Z" style="fill:#65a8df;"/><path d="M153.24,30.94c-.32,.26-.55,.13-.55-.31,0-.41,.24-.96,.52-1.21,.31-.27,.53-.14,.55,.31,.01,.4-.24,.98-.52,1.21Z" style="fill:#65a8df;"/><path d="M176.94,40.77c-.19-.11,.05-.34,.51-.48,.55-.18,.69-.1,.36,.21-.27,.26-.68,.39-.87,.28Z" style="fill:#65a8df;"/><path d="M163.05,25.26c-.62,.3-1.75,.95-2.6,1.49s-2.04,.92-2.73,.88c-1.19-.07-1.19-.1,.09-.7,3.31-1.57,4.94-2.41,6.02-3.11,.63-.41,1.21-.51,1.29-.22,.15,.51-.05,.68-2.07,1.66Z" style="fill:#65a8df;"/><path d="M200.02,12.83c-12.29,3-16.16,4.17-25.86,7.82-4.93,1.85-8.52,2.99-8.6,2.71-.16-.55,15.21-6.37,22.39-8.48,7.45-2.18,13.79-3.55,13.95-3.02,.08,.26-.75,.68-1.88,.96Z" style="fill:#65a8df;"/><path d="M155.7,29.13c-.54,.05-1,.02-1.03-.07-.03-.08,.33-.43,.78-.76,.5-.36,.91-.34,1.03,.07,.12,.4-.19,.71-.78,.76Z" style="fill:#65a8df;"/><path d="M203.37,11.75c-.56-.13-.31-.38,.81-.84,.9-.36,1.74-.58,1.89-.5,.15,.09,.92-.03,1.76-.27,.83-.24,1.53-.27,1.59-.06,.15,.5-4.97,1.91-6.05,1.67Z" style="fill:#65a8df;"/><path d="M153.21,108.48c.09,.31-.03,.59-.3,.69-.27,.1-.51-.03-.61-.34-.09-.31,.03-.59,.3-.69,.27-.1,.51,.03,.61,.34Z" style="fill:#65a8df;"/><path d="M151.56,31.35c-.35,.34-.56,.32-.48-.05,.11-.56,.91-1.14,1.03-.74,.04,.12-.19,.45-.54,.79Z" style="fill:#65a8df;"/><path d="M214.24,10.22c-.54,0-1.63,.1-2.36,.2-1.16,.16-2.77-.41-1.69-.6,.2-.04,.93-.16,1.56-.26,.62-.1,1.72,0,2.33,.23,1.13,.41,1.13,.42,.15,.43Z" style="fill:#65a8df;"/><path d="M199.45,32.75c-.41,.32-.99,.55-1.35,.52-.36-.02-.05-.27,.71-.56,.77-.3,1.05-.28,.64,.04Z" style="fill:#65a8df;"/><path d="M120.72,81.4c.45,1.91,.92,2.84,1.67,3.35,.55,.37,.72,.63,.37,.55-.38-.08-.6,.09-.51,.4,.09,.29,.7,.33,1.34,.09,.86-.33,1.05-.64,.69-1.13-.26-.36-.27-.76-.03-.86,.31-.12,.21-.43-.32-.97-.44-.47-.62-.94-.42-1.14,.2-.19,.06-1.5-.31-2.97-.37-1.47-.55-2.98-.42-3.42,.14-.46,.05-.97-.21-1.22-.26-.25-.25-.51,.02-.61,.27-.1,.41-.41,.32-.7-.08-.28,.13-1.18,.45-1.94,.39-.9,.4-1.75,.04-2.32-.41-.65-.37-.99,.15-1.19,1.04-.4,2.91-4.58,2.57-5.72-.15-.52-.04-.92,.25-.85,.3,.08,.47-.12,.37-.43-.09-.31,.08-.51,.37-.43,.33,.08,.48-.07,.39-.38-.09-.31-.37-.57-.7-.65-.3-.08-.65-.47-.77-.89-.12-.42-.02-.83,.23-.93,.24-.09,.56,.19,.68,.6,.12,.42,.45,.69,.71,.59,.25-.1,.41,.16,.34,.54-.08,.44,0,.52,.23,.2,.21-.28,.34-1.02,.29-1.64-.05-.62-.21-.94-.37-.73-.16,.22-.23-.26-.15-1.1,.09-1.02,.25-1.26,.5-.77,.21,.41,.86,.53,1.5,.29,1.18-.45,2.26-2.2,1.6-2.58-.19-.11-.11-.3,.16-.41,.27-.1,.59,.05,.67,.32,.08,.27,.42-.11,.72-.8,.51-1.2,.43-2.94-.2-4.31-.13-.28-.35,.19-.52,1.07-.27,1.43-.3,1.45-.37,.28-.04-.73-.28-1.19-.55-1.09-.27,.1-.41,.4-.32,.7,.09,.31,0,.54-.23,.57-.92,.13-1.6,1.45-1.1,2.14,.46,.63,.4,.7-.37,.37-.78-.33-1.09-.01-1.98,2.06-.59,1.38-1.25,2.53-1.51,2.63-.86,.33-2.7,4.62-2.4,5.6,.15,.52,.1,1.18-.13,1.49-.25,.34-.36,.28-.27-.15,.07-.37-.09-.63-.34-.54-.25,.1-.31,.73-.13,1.35,.25,.83,.17,1.01-.27,.62-.46-.4-.65-.36-.75,.17-.08,.4,.34,1.03,.95,1.42,1.01,.65,1.03,.73,.35,.99-.41,.16-.68,.59-.6,.95,.11,.48,.03,.51-.26,.13-.59-.78-1.61,1.89-1.22,3.18,.17,.57,.07,1.07-.22,1.1-.75,.09-.75,5.92,0,9.09Zm9.9-31.82c.23-.09,.54,.2,.66,.61,.12,.41,.15,.81,.05,.85-.1,.04-.4-.25-.66-.61s-.28-.76-.05-.85Zm-8.79,31.34c-.03-.11,.25-.33,.61-.47,.36-.14,.75-.03,.83,.23s-.21,.48-.62,.47c-.41-.01-.79-.12-.82-.23Z" style="fill:#65a8df;"/><path d="M144.08,39.52c-.31-.63-.5-1.56-.41-1.98,.09-.44,.01-.93-.18-1.12-.43-.4-2.04,1.13-2.04,1.94,0,.39,.32,.57,.72,.41,1.12-.43,1.09,.6-.03,1.07-1.79,.75-2.5,1.23-2.39,1.59,.06,.19-.21,.49-.57,.62-.92,.36-.41-.86,.62-1.47,1.03-.6,.85-1.44-.27-1.25-.48,.08-.79,.39-.7,.69,.09,.31-.29,.72-.88,.94-1.54,.59-5.03,4.8-4.45,5.35,.78,.74,1.23,2.24,.63,2.08-.3-.08-.36,.13-.14,.45,.22,.32,.76,.52,1.19,.44,.48-.1,.62-.39,.35-.74-.53-.72,.1-1.72,.72-1.14,.62,.59,1.15,.31,1.65-.87,.25-.58,.98-1.36,1.66-1.77,.68-.41,1.31-.79,1.43-.87,.11-.07-.19-.28-.64-.45-.68-.25-.63-.34,.25-.44,.58-.07,1.03-.35,.95-.6-.08-.27,.15-.58,.56-.74,.41-.16,.65,0,.58,.35-.07,.36,.09,.55,.36,.44s.41-.4,.32-.7c-.09-.29,.16-.64,.57-.8,.53-.2,.57-.59,.14-1.47Zm-8.68,5.91c-.27,.1-.51-.03-.61-.35-.09-.31,.03-.59,.3-.69,.27-.1,.51,.03,.61,.34,.09,.31-.03,.59-.3,.69Zm1.58-1.3c-.3,0-.63-.24-.71-.51-.08-.27,.06-.66,.3-.86,.23-.2,.57,.04,.71,.51,.14,.47,0,.87-.3,.87Z" style="fill:#65a8df;"/><path d="M271.61,28.52c-.87-.05-1.13-.38-.49-.63,.24-.09,.58,0,.83,.26,.25,.25,.12,.4-.34,.37Z" style="fill:#65a8df;"/><path d="M218.06,29.75c-1.6-.11,.05-.52,2.81-.71l2.47-.17-2.13,.47c-1.18,.26-2.58,.44-3.15,.4Z" style="fill:#65a8df;"/><path d="M139.31,105.76c.09,.3,.53,.25,.97-.11,.69-.56,.88-.42,1.28,.92,.26,.88,.27,1.66,.02,1.75-.24,.09-.56-.19-.68-.6-.12-.41-.39-.72-.57-.65-.19,.07-.73-.24-1.21-.69-.52-.49-.69-.89-.42-.99,.26-.1,.52,.06,.61,.37Z" style="fill:#65a8df;"/><path d="M230.36,29.99c.19-.44-.48-.41-7.36,.29-11.23,1.15-22.75,3.27-31.74,5.82-3.34,.95-6.86,1.94-7.89,2.23-1.02,.28-2.03,.54-2.24,.57-.23,.04-.21,.23,.04,.47,.23,.23,1.85-.13,3.56-.79,2.48-.96,3.19-1.05,3.37-.43,.18,.59,.75,.56,2.35-.13,2.06-.87,2.07-.9,.43-.66-1.59,.23-1.55,.19,.55-.68,1.26-.52,3.19-1.08,4.4-1.29l2.16-.37-1.77,.82c-1.62,.76-1.53,.78,1.08,.25,1.57-.32,4.65-.85,6.87-1.2,2.21-.34,4.66-1.03,5.46-1.54,1.65-1.06,4.72-1.72,4.92-1.06,.08,.26-.56,.58-1.42,.72-.86,.14-1.42,.34-1.25,.45,.17,.11,1.41,.02,2.81-.21,2.02-.33,2.5-.57,2.53-1.23,.02-.63,.27-.77,1.08-.62,.59,.12,1.5,.04,2.09-.17,.96-.34,.98-.31,.29,.38-.7,.7-.69,.75,.16,.78,.51,.01,1.34-.15,1.88-.37,.94-.39,.94-.4-.08-.51-1.8-.18-.22-.56,3.76-.89,2.11-.17,3.9-.47,3.98-.66Zm-29.85,4.64c-.41,.31-1.09,.57-1.58,.61-.47,.04-.14-.21,.72-.54,.86-.33,1.25-.36,.86-.07Zm5.18-.78c-.76,.31-1.99,.59-2.82,.65-1.33,.1-1.37,.07-.34-.3,.62-.22,1.91-.52,2.83-.65,1.64-.24,1.65-.23,.34,.3Zm3.65-.85c-.27,.27-.77,.46-1.13,.43-.36-.02-.15-.23,.49-.48,.63-.24,.92-.23,.64,.04Zm7.24-1.05c-.27,.27-.77,.46-1.13,.43-.36-.02-.15-.23,.49-.48,.63-.24,.92-.22,.64,.04Z" style="fill:#65a8df;"/><path d="M141.19,103.48c.15-.46,.34-.91,.4-.93s.21,.29,.32,.65c.11,.36-.09,.81-.4,.93-.45,.17-.54,0-.32-.66Z" style="fill:#65a8df;"/><path d="M144.66,36.09c-.27,.1-.42-.08-.36-.44,.07-.37,.2-.65,.32-.7,.12-.05,.27,.13,.36,.44,.09,.3-.05,.6-.32,.7Z" style="fill:#65a8df;"/><path d="M180.1,39.61c-.27,.27-.77,.46-1.13,.43-.36-.02-.14-.23,.49-.48,.63-.24,.91-.23,.64,.04Z" style="fill:#65a8df;"/><path d="M144.94,39.82c-.1-.34-.34-.88-.57-1.25-.31-.52,.38-1.84,.72-1.37,.59,.81,.88,2.43,.5,2.78-.28,.26-.55,.19-.65-.16Z" style="fill:#65a8df;"/><path d="M182.03,37.72c-.28,.26-.68,.39-.87,.28-.19-.11,.05-.34,.51-.48,.55-.18,.68-.1,.36,.21Z" style="fill:#65a8df;"/><path d="M195.45,33.71c-.51,.32-1.46,.68-2.03,.78-.6,.1-.17-.16,.95-.6,1.13-.43,1.61-.52,1.08-.18Z" style="fill:#65a8df;"/><path d="M202.75,32.03c-.41,.31-1.09,.57-1.58,.61-.47,.04-.14-.21,.72-.54,.86-.33,1.25-.36,.86-.07Z" style="fill:#65a8df;"/><path d="M211.64,30.51c.4,.21-4.76,1.24-7.27,1.45-1.52,.13,1.62-.82,4.16-1.25,1.44-.25,2.85-.34,3.11-.2Z" style="fill:#65a8df;"/><path d="M184.15,39.79c-.27,.26-.68,.39-.87,.28-.19-.11,.05-.34,.51-.48,.55-.18,.69-.1,.36,.21Z" style="fill:#65a8df;"/><path d="M331.6,108.5c.21,.2-.16,.46-.79,.56-.62,.1-1.21,.1-1.24-.01-.12-.39,1.68-.88,2.03-.55Z" style="fill:#65a8df;"/><path d="M170.69,116.19c.23-.09,.44,.05,.53,.35,.09,.29,.03,.65-.16,.9-.17,.22-.41,.07-.53-.34-.12-.41-.05-.82,.16-.9Z" style="fill:#65a8df;"/><path d="M332.63,111.45c-.42,1.61-.4,1.65,.35,1.17,.42-.27,1.13-.4,1.55-.29,1.43,.4,5.4-1.24,5.75-2.38,.31-.98,.33-.99,.32-.12,0,.78,.56,.77,3.62-.1,4.78-1.35,17.87-6.88,20.25-8.55,1.04-.73,2.55-1.67,3.39-2.13,2.52-1.36,6.38-4.23,5.97-4.45-.2-.11,.17-.28,.79-.38,.67-.11,1.35-.65,1.63-1.29,.27-.62,.69-1.19,.97-1.3,1.63-.63,5.7-8.17,4.96-9.18-.74-1.01-1.56-.35-4.12,3.37-1.37,1.98-2.87,3.72-3.39,3.91-.5,.19-.85,.61-.76,.9,.09,.31-.03,.5-.3,.43-.26-.06-1.07,.37-1.85,.99-5.38,4.25-22.29,11.69-31.99,14.08-5.72,1.4-7.75,2.16-6.98,2.6,.33,.19,2.84-.35,5.56-1.19,2.72-.84,4.76-1.26,4.53-.93-.25,.35-.65,.61-.97,.63-.3,.02-2.39,.59-4.7,1.29-4.07,1.22-4.17,1.29-4.59,2.92Zm44.51-22.66c.07-.37,.2-.65,.32-.7s.27,.13,.36,.44c.09,.3-.05,.6-.32,.7-.27,.1-.43-.08-.36-.44Zm-20.97,13.24c-.08-.26,.17-.61,.53-.75,.36-.14,.71-.16,.74-.05,.03,.11-.21,.46-.53,.75-.31,.29-.66,.32-.74,.05Zm-5.87,2.26c-.08-.26,.17-.61,.53-.75,.36-.14,.71-.16,.74-.05,.03,.11-.21,.46-.53,.75-.32,.29-.66,.32-.74,.05Zm-2.37,.48c.63-.24,.92-.22,.64,.04-.27,.27-.77,.46-1.13,.43-.36-.02-.14-.23,.49-.48Zm-4.16,1.25c-.03-.09,.25-.27,.61-.41,.36-.14,.61-.03,.56,.25-.09,.44-1.04,.57-1.16,.16Z" style="fill:#65a8df;"/><path d="M189.51,121.75c.59,.12,.88-.01,.78-.36-.09-.31-.37-.47-.64-.36-.27,.1-.42-.09-.35-.44,.16-.78,.82-1.01,1.38-.47,.43,.41,2.4,.68,2.87,.39,.12-.08,.91,0,1.82,.18,2.03,.4,3.76,.49,4.85,.24,.26-.06,.57,.23,.7,.65,.19,.65-.05,.75-1.87,.72-1.16-.02-2.45-.18-2.88-.37-.52-.22-.73-.16-.63,.18,.08,.28,1.18,.59,2.42,.69,1.44,.11,2.26,.45,2.25,.95-.01,.61-.28,.66-1.22,.21-.65-.31-.97-.34-.7-.08,.73,.72-.2,.94-1.15,.27-.64-.45-.83-.4-.98,.26-.14,.62-.27,.57-.54-.2-.19-.56-.41-1.29-.47-1.61-.1-.51-3.55-1.75-4.19-1.51-.12,.05,.07,.69,.43,1.42,.38,.78,.41,1.07,.08,.69-.32-.36-1.06-.43-1.68-.14-1.46,.67-1.97,.46-1.55-.64,.23-.6,.63-.82,1.28-.69Z" style="fill:#65a8df;"/><path d="M329.47,111.39c-.02,.68,.27,.82,1.04,.53,.86-.33,.9-.46,.23-.67-.69-.22-.7-.31-.02-.58,.77-.3,1.64,1.05,.93,1.44-2.24,1.26-2.63,1.3-2.88,.29-.15-.58-.04-1.26,.23-1.5,.31-.28,.49-.1,.47,.48Z" style="fill:#65a8df;"/><path d="M302.42,116.74c.55-.06,1.67-.13,2.57-.15,1.55-.04,1.58,0,1.15,1.23-.55,1.54-.95,1.79-1.26,.77-.12-.41,.02-.67,.33-.59,.32,.08,.33-.07,.03-.36-.64-.61-3.05,.36-3.04,1.23,0,.52-.13,.57-.52,.2-.31-.29-.33-.57-.05-.67,.26-.1,.4-.44,.31-.75-.1-.33-.43-.33-.78,0-.35,.34-.56,.32-.48-.05,.13-.67,.19-.69,1.74-.87Z" style="fill:#65a8df;"/><path d="M303.45,118.34c.55-.18,.69-.1,.36,.21-.28,.26-.68,.39-.87,.28-.19-.11,.05-.34,.51-.48Z" style="fill:#65a8df;"/><path d="M306.91,117.53c.24-.09,.38-.55,.32-1.05-.06-.5,.07-.77,.31-.64,.42,.24,2.37-.16,4.56-.92,.59-.21,1-.1,.93,.26-.07,.37-.31,.58-.6,.52-.29-.06-.52,.1-.58,.4-.08,.41,.94,.3,2.97-.31,.86-.26,.79-.05-.48,1.41-.98,1.12-1.11,1.18-.85,.37,.26-.79,.21-.92-.31-.72-.36,.14-.76,.51-.92,.87-.19,.41-.58,.45-1.09,.13-.46-.29-.6-.58-.33-.68,.27-.1,.37-.54,.23-1.01-.2-.67-.33-.67-.7,0-.32,.6-.58,.72-.91,.41-.24-.23-.81-.28-1.22-.11-.68,.29-.65,.36,.26,.71,.62,.24,.88,.59,.65,.91-.21,.3-.44,.3-.53,0-.09-.28-.53-.27-1,.04-.46,.3-.91,.33-.99,.06-.09-.3,.02-.56,.28-.66Z" style="fill:#65a8df;"/><path d="M366.34,56.31c-.19-.11,.05-.34,.51-.48,.55-.18,.69-.1,.36,.21-.28,.26-.68,.39-.87,.28Z" style="fill:#65a8df;"/><path d="M194.08,122.22c.26-.1,.49,.04,.58,.35,.09,.3-.14,.63-.55,.79-.41,.16-.65,0-.58-.35,.07-.37,.29-.69,.55-.79Z" style="fill:#65a8df;"/><path d="M370.27,54.46c0-.48,.26-.51,.85-.1,.48,.33,.77,.81,.65,1.08-.27,.63-1.5-.17-1.5-.98Z" style="fill:#65a8df;"/><path d="M374.93,59.51c-.29-.58-.34-1.38-.11-1.72,.31-.44,.19-.54-.4-.31-.54,.21-.83,.02-.81-.53,.01-.47-.21-.91-.5-.99-.28-.08-.4,.27-.26,.73,.18,.6-.46,.41-2.02-.61-1.28-.84-2.44-1.28-2.64-1.01-.2,.26,.04,.57,.53,.66,.48,.1,.96,.43,1.05,.72,.11,.36-.13,.42-.7,.18-.46-.19-.8-.16-.73,.08,.07,.24,.62,.58,1.23,.74,.6,.17,1.23,.74,1.39,1.28,.4,1.35,1.83,1.83,2.86,.98,.56-.47,.84-.5,.76-.08-.08,.37,.09,.72,.39,.8,.3,.08,.29-.31-.03-.94Zm-3.91-1.79c-.57-.23-1.02-.48-1.06-.6-.14-.46,.29-.34,1.15,.31,.81,.61,.8,.65-.09,.29Zm2.2,1.38c-.32,.12-.72,.04-.97-.2-.53-.5-.36-.56,.69-.25,.5,.15,.61,.33,.29,.45Z" style="fill:#65a8df;"/><path d="M170.31,115.18c.09,.29,.39,.37,.68,.17,.28-.18,.55,.05,.58,.5,.03,.47,.25,1.41,.51,2.12,.33,.91,.28,1.12-.16,.73-.41-.36-.66-.32-.74,.14-.07,.38,.45,.75,1.18,.84,.73,.09,1.27,.39,1.21,.69-.05,.29,.16,.29,.48-.01,.36-.34,.73-.22,1,.31,.39,.78,.47,.74,.95-.43,.45-1.08,.74-1.24,1.94-1.09,.78,.1,1.42,.09,1.43-.03,0-.11,.52,.04,1.11,.33,.6,.29,1.52,.47,2.06,.39,.9-.13,.91-.07,.11,.94-.48,.6-.8,.79-.73,.42,.07-.37-.86-.78-2.12-.95-1.26-.16-2.26-.05-2.26,.26,0,.32-.26,.49-.59,.4-.35-.1-.38,.03-.08,.32,.26,.25,.62,.3,.76,.11,.15-.2,1.2,.07,2.31,.58,1.98,.91,3.39,.48,3.8-1.17,.1-.39,.23,0,.3,.9,.11,1.46,.2,1.54,.99,.89,.65-.53,.94-.49,1.12,.14,.14,.47,.48,.65,.75,.4,.27-.25,.31-.84,.08-1.33-.33-.7-.17-.9,.81-.99,2.18-.19,1.58-1.3-.66-1.2-1.84,.08-3.85-.66-3.56-1.3,.05-.11,2.54,.18,5.5,.64,2.96,.46,5.48,.68,5.56,.49,.21-.49-1.89-1.26-2.66-.98-.32,.12-2.12-.12-3.95-.52-1.83-.4-3.43-.57-3.51-.38-.08,.19-.52,.09-.95-.21-.42-.3-1.2-.4-1.65-.23-.45,.17-.93,.08-1.01-.19-.2-.67-5.38-1.4-5.51-.77-.09,.47,1.76,.69,2.44,.28,.21-.12,.4,0,.5,.32,.08,.28,.38,.43,.65,.33,.63-.24,2.21,.65,2,1.14-.1,.23-1.01,.23-2.09,0-1.08-.24-2.16-.19-2.48,.12-.38,.36-.57,.25-.55-.34,0-.46-.2-.79-.44-.7-.25,.1-.47-.34-.49-.97-.02-.63-.24-1.06-.49-.97-.24,.09-.39,.61-.32,1.11,.11,.83,0,.86-1,.27q-1.13-.66-.41-1.37c.66-.65,.65-.69-.08-.43-.46,.16-.86,.06-.95-.24-.08-.28-.47-.4-.83-.26-.36,.14-.61,.5-.52,.78Zm12.48,2.51c.53,.29,.27,1.26-.4,1.52-.31,.12-.7-.14-.82-.55-.23-.78,.51-1.36,1.22-.96Zm-7.9,.35c.1-.04,.4,.25,.66,.61,.26,.36,.28,.76,.05,.85-.23,.09-.54-.2-.66-.61-.12-.42-.15-.81-.05-.85Zm-1.69,.07c.26-.1,.55,.16,.69,.63,.14,.47,.01,.75-.31,.67-.33-.08-.6-.33-.69-.63-.09-.3,.03-.56,.31-.67Z" style="fill:#65a8df;"/><path d="M380.66,81.83l.62-1.56c.34-.86,.54-2.29,.45-3.18-.17-1.61,.33-2.12,1.69-1.72,.44,.13,.72,.48,.6,.76-.12,.29-.53,.26-.9-.06-.51-.43-.51-.29-.01,.55,.42,.71,.46,1.07,.12,.98-.71-.19-.82,1.32-.12,1.73,.3,.18,.34,.71,.1,1.23-.25,.52-.49,.71-.58,.42-.08-.27-.56-.19-1.06,.17l-.91,.67Z" style="fill:#65a8df;"/><path d="M367.4,53.77c.44,.11,.57,.38,.34,.7-.2,.28-.59,.31-.85,.07-.63-.6-.36-1,.51-.77Z" style="fill:#65a8df;"/><path d="M382.34,69.77c-.8,.02-.94,.18-.58,.66,.25,.33,.21,1.11-.09,1.65-.5,.93-.57,.88-.75-.49-.11-.82-.41-1.57-.67-1.65-.26-.08-.61-.6-.78-1.17-.17-.58-.98-1.79-1.82-2.74-.84-.95-1.39-1.75-1.24-1.8,.15-.06-.07-.35-.49-.65-.42-.3-.71-.82-.64-1.17,.2-1,1.4-1.29,2-.48,.31,.42,.86,.47,1.31,.12,1.03-.79,1.15-.04,.22,1.42-.45,.7-.55,1.16-.24,1.06,.32-.11,.6-.44,.66-.8,.17-.92,.77-1.05,1.33-.28,.33,.45,.27,.67-.19,.65-.36-.01-.75,.29-.82,.63-.07,.38-.35,.61-.64,.54-.29-.07-.44,.11-.35,.42,.09,.3,.39,.46,.66,.35,.27-.11,.49,.19,.47,.66-.02,.59,.23,.68,.82,.29,.55-.36,.79-.31,.7,.14-.09,.45,.09,.47,.52,.06,.39-.37,.61-.36,.54,.02-.07,.37-.6,.7-1.19,.75-.59,.05-.77,.13-.4,.18,.37,.05,.61,.31,.56,.59-.05,.27,.23,.34,.62,.14,.39-.2,.91-.08,1.13,.26,.29,.44,.11,.63-.64,.65Z" style="fill:#65a8df;"/><path d="M374.38,60.96c.26,.25,.41,.61,.33,.8-.22,.51-1.3,.21-1.48-.41-.2-.66,.58-.92,1.15-.38Z" style="fill:#65a8df;"/><path d="M377.41,61.01c.09-.56,0-.67-.24-.31-.24,.34-.66,.08-1.09-.68-.97-1.71-.75-1.94,.74-.75,.98,.78,1.14,1.14,.83,1.79-.3,.64-.35,.63-.24-.05Z" style="fill:#65a8df;"/><path d="M273.73,28.62c-.45,.17-.86,.08-.94-.22-.19-.64-.15-.66,.91-.34,.71,.22,.72,.29,.04,.55Z" style="fill:#65a8df;"/><path d="M237.71,124.5c.35-.13,1.02,.01,1.43,.32,.57,.42,.64,.62,.25,.77-.28,.11-.94-.04-1.43-.32-.79-.45-.82-.55-.26-.77Z" style="fill:#65a8df;"/><path d="M237.98,120.95c.73,.22,.74,.28,.06,.54-.41,.16-.97,.1-1.2-.12-.56-.53,.04-.75,1.14-.42Z" style="fill:#65a8df;"/><path d="M240.11,123.85c.5-.18,1.19-.25,1.54-.14,.34,.1,1.17,.04,1.77-.13,1.07-.3,1.13-.23,.92,1.23-.2,1.44-.11,1.57,1.19,1.7,1.92,.2,2.77-.13,2.11-.8-.4-.41-.34-.43,.31-.09,.47,.24,1.1,.3,1.5,.14,.4-.15,1.39-.15,2.3,.01,.96,.17,1.59,.05,1.58-.29-.01-.37,.44-.55,1.25-.52,1.58,.06,1.72,.01,1.55-.56-.18-.6-2.59-.76-4.21-.28-.69,.2-1.36,.18-1.43-.06-.07-.23,.26-.47,.71-.49,1.73-.11,3.99-.52,4.11-.73,.07-.14,.48-.09,.94,.11,.79,.34,4.34,.04,4.96-.43,.19-.14,.4-.01,.49,.3,.09,.31-.38,.68-1.08,.85-.85,.21-1.2,.59-1.1,1.2,.1,.62,.39,.71,.92,.31,.49-.37,.86-.33,.99,.11,.17,.56,.25,.51,.43-.25,.19-.82,.26-.82,.5,0,.2,.67,.41,.75,.71,.25,.22-.38,.98-.83,1.65-.98,.71-.16,1.37-.68,1.57-1.24,.26-.74,.63-.93,1.57-.81,.68,.09,1.18,.43,1.11,.76-.08,.35-.37,.37-.72,.04-.39-.37-.53-.35-.41,.07,.11,.36,.41,.68,.73,.76,.33,.08,.51,.33,.46,.63-.04,.28,.39,.2,.98-.17,.85-.53,.94-.86,.45-1.62-.42-.65-.42-.89,0-.78,.34,.1,.74,.61,.91,1.18,.22,.74,.6,.9,1.41,.58,.59-.23,1.32-.21,1.57,.03,.25,.25,.93,.16,1.48-.19,.68-.43,1.08-.42,1.22,.05,.11,.36,.43,.62,.66,.53,.64-.25,.23-1.42-.68-1.94-.56-.32-.55-.48,.04-.71,.41-.16,.84-.06,.91,.2,.08,.27,.37,.33,.66,.12,.29-.21,.39-.21,.23,0-.49,.62-.01,1.3,.71,1.03,.36-.14,.74-.05,.81,.18,.07,.24,.59,.21,1.12-.05,.53-.26,1.39-.42,1.86-.34,.58,.1,.99-.18,1.2-.84,.37-1.13,1.7-1.89,1.49-.86-.07,.37-.32,.58-.61,.52-.29-.06-.52,.08-.57,.36-.05,.25,.49,.55,1.18,.65,.68,.1,1.1,.03,.91-.15-1.08-1.02,2.45-3.07,3.95-2.29,.37,.19,1.34,0,2.21-.43,1.14-.57,1.66-.56,1.94,0,.21,.43,.81,.69,1.33,.58,.51-.1,1.54-.24,2.22-.31,1.03-.09,1.26-.33,1.21-1.25-.05-.91-.35-1.09-1.55-.9-.96,.15-1.55,.51-1.66,1.01-.12,.59-.24,.55-.44-.12-.15-.52-.41-.8-.6-.65-.3,.24-2.44,.6-4.89,.83-.68,.06-1.64,.21-2.16,.33-.52,.12-1.83,.27-2.92,.35-2.07,.13-5.13,.62-6.73,1.07-.56,.16-1.19,.22-1.47,.14-.53-.14-8.43,.42-13.56,.97-1.48,.16-5.47,.4-8.9,.54-3.43,.14-6.66,.29-7.2,.34-.54,.05-1.2,.11-1.47,.13-.29,.03-.64,.07-.85,.1-.2,.03-1.19-.01-2.17-.09-.98-.08-1.78-.05-1.74,.06,.03,.11-.72,.13-1.65,.03-2.03-.21-2.4-.12-2.21,.53,.21,.69,1.34,.95,2.43,.55Zm39.99-1.79c-.08-.28,.27-.68,.77-.88,.5-.19,.87-.07,.81,.27-.06,.34-.41,.73-.77,.87-.36,.14-.73,.02-.81-.27Zm-5.72-.29c.58-.09,1.18,.23,1.32,.71,.17,.57,.08,.73-.25,.44-.29-.25-1.17-.45-2.03-.47-1.52-.03-1.06-.36,.95-.68Zm-11.67,1.66c.13-.63,1.46-1.11,2.34-.86,.44,.13,.1,.42-.86,.75-.87,.3-1.53,.35-1.48,.11Zm-15.74,.63c-.12-.4,.82-.49,1.21-.12,.25,.24,.1,.39-.36,.37-.46-.02-.82-.13-.85-.25Zm-1.73-.32c.21-.29,.6-.39,.8-.19,.55,.52,.47,2.19-.11,2.41-.29,.11-.34-.16-.15-.75,.24-.73,.17-.92-.32-.92-.45,0-.51-.15-.22-.55Z" style="fill:#65a8df;"/><path d="M235.9,124.44c.87,.05,1.02,.73,.32,1.4-.4,.38-.58,.26-.57-.38,.02-.64-.11-.76-.39-.37-.21,.29-.49,.32-.57,.04-.17-.58,.13-.76,1.2-.69Z" style="fill:#65a8df;"/><path d="M223,124.9c.15,.63,.09,.69-.23,.23-.29-.41-.48-.38-.58,.08-.1,.49-.46,.58-1.19,.31-.96-.35-.93-.42,.38-.93,.99-.38,1.48-.29,1.63,.3Z" style="fill:#65a8df;"/><path d="M228.24,124.67c.41-.16,.76-.05,.85,.25,.09,.31-.02,.58-.27,.68-.26,.1-.6,0-.85-.25-.25-.24-.13-.53,.27-.68Z" style="fill:#65a8df;"/><path d="M231.96,124.75c.49,.31,.53,.58,.14,.96-.29,.28-.88,.19-1.26-.18-.38-.37-.64-.43-.57-.13,.08,.31-.17,.7-.53,.84-.5,.19-.6,.03-.38-.6,.34-1,1.68-1.45,2.6-.88Z" style="fill:#65a8df;"/><path d="M228.17,123.49c-.08-.28-.08-.45,0-.43,.08,.02,.82-.12,1.67-.32,.85-.2,1.6-.12,1.68,.16,.09,.31,.3,.32,.51,.03,.21-.29,.41-.31,.49-.04,.08,.25,.48,.33,.94,.19,.44-.14,1.25-.29,1.79-.34,.54-.05,1.15-.13,1.36-.18,.23-.05,.32,.16,.25,.54-.13,.64-1.94,.98-2.62,.49-.19-.14-.5-.17-.77-.08-1.24,.38-5.17,.38-5.29-.01Z" style="fill:#65a8df;"/><path d="M203.3,123.99c.15,1.08,.36,1.19,1.44,.77,.68-.26,1.45-.76,1.67-1.07,.23-.33,1.05-.55,1.87-.49l1.46,.1-1.01,.82c-.61,.49-.7,.73-.23,.58,.41-.13,1.1,.08,1.47,.45,.38,.38,1.18,.58,1.79,.44,.6-.14,1.7-.36,2.42-.5,.71-.13,1.25-.46,1.17-.71-.2-.67,1.93-1.44,2.49-.9,.23,.22,.91,.23,1.45,.02,.54-.21,1.29-.26,1.6-.11,.63,.3,5.9,.7,6.44,.49,.24-.09,.35-.35,.26-.65-.08-.27-1.57-.46-3.27-.42-1.7,.04-3.95,.01-4.93-.06-3.04-.23-3.82-.28-4.35-.23-.28,.02-.88,.01-1.39-.02-.51-.03-.83,.16-.74,.46,.08,.28,.67,.48,1.26,.44,.89-.06,1.01,.07,.6,.66-.32,.46-.76,.63-1.17,.45-.35-.15-.76-.08-.86,.16-.1,.23-.28,.16-.37-.15-.09-.32-.49-.47-.86-.33-.36,.14-.76,0-.85-.31-.09-.32,.16-.56,.57-.54,.41,.02,.79-.19,.85-.47,.13-.61-1.11-.82-2.87-.5-.67,.12-1.34,.1-1.53-.06-.19-.15-1.38-.41-2.69-.58s-2.59-.09-2.89,.19c-.44,.41-.4,.52,.25,.66,.47,.1,.85,.65,.95,1.42Zm.94-1.32c.21-.3,.44-.3,.53,0,.09,.3,.51,.45,.99,.37,.48-.08,.69,.07,.49,.36-.2,.28-.8,.35-1.37,.15-.62-.22-.87-.56-.64-.88Z" style="fill:#65a8df;"/><path d="M257.69,123.75c.41-.16,.76,0,.75,.32-.01,.35-.2,.68-.45,.78-.24,.09-.57-.04-.75-.32-.17-.26,.04-.62,.45-.78Z" style="fill:#65a8df;"/><path d="M214.6,125.94c.55-.17,.69-.1,.36,.21-.27,.26-.68,.39-.87,.28-.19-.11,.05-.34,.51-.49Z" style="fill:#65a8df;"/><path d="M289.16,120.71c.33,.03,.73,.41,.85,.83,.2,.66,.09,.71-.72,.36-.52-.23-1.05-.29-1.18-.15-.12,.14-.37,.03-.55-.25-.32-.5,.46-.88,1.6-.79Z" style="fill:#65a8df;"/><path d="M256.2,125.48c.36-.14,.8-.08,1.02,.13,.21,.2-.05,.41-.6,.45-1.13,.09-1.36-.22-.42-.58Z" style="fill:#65a8df;"/><path d="M291.96,120.79c.27,.16,.79,.16,1.2,0,.41-.16,.91,.03,1.16,.42,.35,.56,.3,.59-.23,.17-.54-.43-.67-.38-.72,.28-.05,.59-.18,.66-.53,.26-.26-.31-.73-.44-1.1-.3-.36,.14-.7,.02-.79-.28-.19-.62,.37-.93,1-.56Z" style="fill:#65a8df;"/><path d="M243,124.61c1.06,.07,.97,.88-.11,.97-.54,.04-1.05-.13-1.12-.38-.14-.48,.21-.65,1.24-.58Z" style="fill:#65a8df;"/><path d="M201.47,123.45c.1,.34,.41,.37,.72,.07,.37-.36,.57-.19,.62,.54,.08,1.3-.63,1.78-.96,.66-.14-.47-.4-.62-.61-.34-.21,.29-.42,.28-.51-.03-.09-.31-.01-.71,.2-1,.19-.25,.44-.2,.54,.11Z" style="fill:#65a8df;"/><path d="M314.03,115.22c-.24-.14,.1-.42,.75-.61,.65-.19,1.17-.19,1.13,0-.04,.19,1.95-.38,4.45-1.28,2.5-.9,4.86-1.48,5.27-1.31,.39,.17,1.1,0,1.5-.37,.67-.62,.71-.58,.4,.42-.22,.72-.17,1.05,.15,.92,.28-.11,.59,.12,.71,.53,.13,.44-.2,.85-.85,1.05-.83,.25-1.1,.05-1.23-.91-.12-.88-.39-1.15-.94-.94-.63,.24-.64,.39-.03,.82,1.22,.86,.11,1.6-1.24,.83-1.39-.79-2.06-.71-2.05,.27,.01,1.15-1.79,1.84-2.58,.99-.4-.42-.63-.99-.51-1.27,.11-.27-.18-.27-.6,0-.42,.27-.81,.9-.81,1.32,0,.58,.14,.62,.5,.16,.29-.38,.41-.4,.28-.05-.42,1.1-1.71,1.24-2.3,.25-.31-.52-.79-.85-1.06-.75-.27,.1-.7,.07-.95-.07Z" style="fill:#65a8df;"/><path d="M283.28,29.49c-1.48-.06-2.82-.28-3.04-.49-.66-.63,.14-.64,4.04-.04,3.8,.58,3.54,.72-1,.52Z" style="fill:#65a8df;"/><path d="M351.6,45.11c-.46-.01-.9-.24-.98-.49-.2-.66,.1-.67,1.01-.04,.68,.47,.68,.55-.03,.53Z" style="fill:#65a8df;"/><path d="M354.02,45.97c-1.85-1.14-1.56-1.26,.69-.29,.98,.42,1.52,.84,1.24,.96-.27,.12-1.12-.17-1.93-.67Z" style="fill:#65a8df;"/><path d="M343.24,42.15c-14.04-4.88-28.98-8.37-47.41-11.07-4.11-.6-7.51-1.21-7.55-1.35-.13-.42-.28-.43,6.2,.37,11.6,1.43,31.98,5.8,42.43,9.08,6.28,1.97,12.46,4.31,12.31,4.66-.08,.19-2.79-.57-5.99-1.69Z" style="fill:#65a8df;"/><path d="M359.93,48.9c-1.01-.71-.23-1.01,.82-.32,.44,.29,.63,.62,.4,.71-.23,.09-.8-.1-1.22-.4Z" style="fill:#65a8df;"/><path d="M155.37,114.05c.17,.57,.07,.97-.21,.89-.3-.08-.51-.5-.49-.97,.04-1.2,.34-1.17,.71,.08Z" style="fill:#65a8df;"/><path d="M367.12,52.49c-1.1-.67-1.84-1.32-1.6-1.41s1.33,.41,2.39,1.1c1.07,.69,1.8,1.33,1.6,1.41-.2,.08-1.29-.43-2.39-1.1Z" style="fill:#65a8df;"/><path d="M149.52,110.81c.73,.42,.68,1.08-.09,1.05-.41-.02-.83-.25-.9-.5-.17-.57,.4-.89,.99-.56Z" style="fill:#65a8df;"/><path d="M150.78,110.71c-.45-.25-.58-.7-.45-1.5,.1-.62,.27-.91,.37-.63,.1,.27,.28,.06,.4-.44,.13-.57,.29-.7,.4-.33,.11,.36-.08,.99-.44,1.47-.5,.68-.48,.89,.09,1.06,.38,.11,.7,.62,.68,1.1-.02,.53,.27,.9,.73,.92,.92,.05,1.3-.97,.45-1.19-.33-.09-.51-.38-.45-.73,.06-.35,.31-.54,.62-.47,.29,.07,.44-.11,.35-.42-.09-.31,.03-.62,.29-.72,.24-.09,.56,.19,.68,.6,.12,.41,.01,.86-.24,.96-.27,.1-.29,.36-.05,.6,.24,.24,.22,.49-.05,.6-.26,.1-.34,.65-.17,1.22,.37,1.24-.15,1.56-1.26,.77-.42-.3-.96-.32-1.16-.04-.23,.32-.32,.24-.24-.2,.07-.39-.14-.63-.46-.52-.38,.13-.39-.14-.03-.77,.4-.68,.38-1.08-.07-1.33Z" style="fill:#65a8df;"/><path d="M272.44,120.01c-.98-.11-1.33-.08-3.44,.27-.91,.15-1.92,.14-2.3-.02-.35-.15-.76-.08-.86,.16-.1,.23-.57,.27-.98,.09-.41-.19-.86-.18-.93,.01-.08,.2-2.48,.45-5.32,.55-2.84,.1-6.56,.31-8.24,.48-1.66,.17-3.12,.1-3.19-.16-.19-.65,1.2-1.05,3.06-.87,.92,.09,4.48-.09,7.96-.39,3.48-.3,6.42-.38,6.56-.19,.14,.19,.52,.13,.79-.13,.28-.26,.75-.29,.99-.06,.26,.25,.59,.24,.78-.01,.32-.44,10.25-1.31,10.79-.94,.18,.12,.72,.03,1.2-.2,.48-.23,1.35-.38,1.91-.33,.67,.06,.29,.29-1.07,.64-2.48,.64-6.61,1.24-7.72,1.12Z" style="fill:#65a8df;"/><path d="M281.87,31.87c.09,.31-.07,.49-.38,.41-.33-.08-.57-.23-.61-.37-.04-.14,.11-.3,.38-.41,.26-.1,.52,.06,.61,.37Z" style="fill:#65a8df;"/><path d="M276.95,30.56c-.33-.08-.57-.23-.61-.37-.04-.14,.11-.3,.38-.41,.26-.1,.52,.06,.61,.37,.09,.31-.07,.48-.38,.41Z" style="fill:#65a8df;"/><path d="M143.92,107.71c.15,.52,.4,.62,.66,.27,.25-.34,.36-.32,.27,.07-.08,.35,.39,.89,1.04,1.22,.65,.32,1.29,.96,1.43,1.41,.14,.46-.53,.15-1.49-.7-.96-.84-1.89-1.31-2.08-1.05-.18,.25-.44,.11-.57-.3-.12-.41-.07-1,.13-1.26,.2-.27,.47-.12,.61,.34Z" style="fill:#65a8df;"/><path d="M275.65,30.93c-.61-.02-1.09-.25-1.12-.54-.03-.27-.42-.55-.83-.6-.43-.06-1.27-.2-1.86-.32-1.39-.28-2.43,.05-1.85,.59,.24,.23,.08,.55-.38,.72-.68,.26-.67,.35,.01,.54,.49,.14,.94-.05,1.12-.46,.41-.97,.97-1.01,.95-.08-.01,.56,.73,.82,2.35,.83,2.32,.01,3.78-.61,1.61-.69Zm-1.98,.02c-.54,.21-1.09,.15-1.17-.13-.19-.62,.31-.81,1.36-.5,.66,.19,.62,.32-.19,.63Z" style="fill:#65a8df;"/><path d="M280.36,30.17c.36-.14,1.19-.07,1.76,.15,1.42,.54,.7,.81-1.09,.41-.75-.17-1.05-.42-.67-.56Z" style="fill:#65a8df;"/><path d="M287.99,32.95c-1.72-.53-1.57-.87,.33-.74,1.13,.08,2.33,.87,1.69,1.12-.21,.08-1.08-.09-2.03-.38Z" style="fill:#65a8df;"/><path d="M291.08,116.68c3.34-.45,5.89-.61,5.69-.34-.2,.27-1.86,.69-3.74,.95-1.89,.26-3.81,.54-4.34,.63-.53,.09-.97,.13-.98,.09-.01-.04-.96,.16-2.13,.47-2.34,.6-3.96,.14-1.87-.54,.73-.24,4.04-.8,7.38-1.25Z" style="fill:#65a8df;"/><path d="M157.75,110.19c.08,.28-.16,.64-.52,.78-.37,.14-.56,.65-.42,1.12,.24,.79,.3,.76,.87-.39,.34-.7,.85-1.18,1.16-1.1,.65,.17,1.2,2.18,.66,2.39-.2,.08-.28,.4-.19,.71,.2,.67,1.92-.68,2.15-1.69,.11-.5,.21-.51,.35-.05,.11,.36,.33,.57,.49,.47,.94-.55,1.54-.42,1.78,.41,.2,.67,.12,.75-.33,.33-.38-.35-.37,.14,.03,1.37,.4,1.23,.89,1.92,1.37,1.9,.6-.02,.59-.12-.01-.49-1.02-.61-1.15-1.23-.34-1.54,.36-.14,.55-.68,.41-1.14-.22-.73-.13-.81,.49-.45,.49,.28,.63,.62,.41,.96-.33,.5-.35,1.13-.1,3.05,.06,.44-.22,.85-.58,.89-1.13,.1-2.04-.53-2.01-1.4,.04-1.14-1.88-2.33-2.93-1.83-.44,.21-.64,.52-.44,.71,.2,.19-.08,.41-.65,.53-1.28,.26-2.41-.71-1.82-1.56,.32-.46,.27-.66-.19-.81-1.06-.35-1.55-1.56-1-2.5,.67-1.14,1.15-1.38,1.36-.67Z" style="fill:#65a8df;"/><path d="M323.87,111.01c-.07,.37-.31,.57-.61,.5-.78-.2-.77-.55,.05-.86,.36-.14,.62,.03,.56,.36Z" style="fill:#65a8df;"/><path d="M325.45,110.41c.71,.22,.72,.29,.04,.55-.45,.17-.86,.08-.95-.21-.19-.64-.15-.66,.91-.34Z" style="fill:#65a8df;"/><path d="M327.45,110.03c-.27,.26-.68,.39-.87,.28-.19-.11,.05-.34,.51-.49,.55-.18,.69-.1,.36,.21Z" style="fill:#65a8df;"/><path d="M318.98,112.34c.09,.31-.07,.49-.38,.41-.33-.08-.57-.23-.61-.37-.04-.14,.11-.3,.38-.41,.26-.1,.52,.06,.61,.37Z" style="fill:#65a8df;"/><path d="M321.78,110.66c.12-.05,.26,.13,.36,.44,.09,.3-.05,.6-.32,.7-.27,.1-.42-.08-.36-.44,.07-.37,.2-.65,.32-.7Z" style="fill:#65a8df;"/><path d="M224.24,124.51c.54-.22,1.36-.1,1.91,.28,1.45,1,1.97,1.67,1.45,1.87-.24,.09-.56-.19-.68-.6-.12-.41-.51-.67-.82-.55-.33,.13-1.07,.05-1.69-.19q-1.11-.41-.16-.8Z" style="fill:#65a8df;"/><path d="M347.67,46.31c.16,.23,1.15,.64,2.13,.89,.98,.24,1.67,.66,1.5,.9-.39,.54-4.39-1.13-4.13-1.73,.12-.29,.32-.31,.51-.05Z" style="fill:#65a8df;"/><path d="M343.62,44.6c.48,.27,1.23,.5,1.74,.52,.51,.02,1,.39,1.14,.86,.21,.7,0,.74-1.41,.25-.9-.31-1.86-.76-2.09-.99-.73-.7-.29-1.16,.62-.64Z" style="fill:#65a8df;"/><path d="M167.4,113.7c.12,.3,.29,.7,.42,.99,.12,.27,.66,.93,1.2,1.48,.54,.54,.71,.92,.38,.84-.32-.08-.52,.1-.43,.4,.09,.31,.36,.47,.61,.37,.24-.09,.56,.19,.68,.6,.3,1.02-1.24,1.58-2.3,.83-.6-.43-.76-.92-.66-2.06,.08-.84,0-1.63-.19-1.8-.18-.17-.23-.72-.11-1.23,.11-.51,.29-.69,.4-.42Z" style="fill:#65a8df;"/><path d="M365.1,52.81c-.9-1.1-3.48-1.96-4.59-1.53-.37,.14-1.07-.02-1.54-.36-.76-.55-.71-.62,.39-.64,1.1-.02,1.15-.09,.37-.63-.59-.41-1.02-.37-1.27,.11-.45,.84-1.1,.6-1.06-.4,.01-.39-1.05-1.18-2.38-1.77-1.33-.59-2.87-1.27-3.45-1.53-.56-.25-1.63-.65-2.29-.85-.67-.21-1.7-.64-2.21-.93-1.39-.77-12.36-4.3-18.15-5.83-11.31-2.99-27.49-6.11-36.86-7.1-2.86-.3-5.79-.64-6.52-.76-1.79-.28-1.95-.15-1.49,1.17,.39,1.12,2.26,1.41,1.93,.3-.18-.59,3.35-.57,5.24,.03q1.11,.36,.24,.72c-.85,.36-.84,.38,.2,.76,.57,.21,1.2,.22,1.34,.03,.14-.19,.63-.1,1.04,.21,.41,.3,1.01,.48,1.27,.38,1.35-.52,27.01,4.97,36.4,7.78,8.35,2.5,9.81,2.8,9.95,2.06,.07-.34-.04-.51-.25-.42-.21,.08-1.12-.21-2.11-.66-.97-.44,.58-.07,3.47,.83,2.89,.9,6.31,2.18,7.65,2.86,1.36,.69,2.57,1.18,2.75,1.12,.68-.25,3.85,1.57,3.74,2.14-.06,.31-.94,.01-1.93-.64-.99-.66-1.75-.98-1.67-.71,.08,.28-.27,.16-.81-.27-.54-.43-.89-.51-.8-.18,.17,.63,5.41,3.13,5.83,2.79,.16-.13,.7,.22,1.21,.77,.51,.55,1.35,.97,1.86,.93,.54-.04,.74-.25,.48-.5-.25-.23-.15-.43,.2-.42,.35,0,.86,.54,1.09,1.14,.23,.6,1.05,1.48,1.74,1.87,1.15,.65,1.27,.64,1.03-.17-.15-.52-.04-.85,.27-.77,.34,.09,.22-.26-.32-.92Zm-70.54-19.84c-.46-.02-.82-.13-.86-.25-.12-.4,.82-.49,1.21-.12,.25,.24,.1,.39-.36,.37Zm10.19,1.34c.07,.23-8.3-.97-8.89-1.28-.14-.07-.07-.18,.18-.25,.6-.19,8.62,1.22,8.71,1.53Zm8.01,1.54c.04,.14-.87,.1-2.04-.08-1.16-.19-2.15-.46-2.19-.6q-.11-.36,2.13,.05c1.12,.21,2.06,.49,2.1,.63Zm3.97,1.07c-.63-.1-1.22-.3-1.26-.44-.11-.38,.15-.35,1.36,.16,1.07,.45,1.07,.45-.09,.28Zm3.78,.86c-.63-.1-1.22-.3-1.26-.44-.11-.38,.15-.35,1.36,.16,1.07,.45,1.07,.45-.09,.28Zm10.71,2.73c-.74-.29-1.27-.59-1.15-.64,.28-.12,4.48,1.17,5.27,1.62,.82,.46-2.41-.31-4.12-.98Zm32.7,12.93c-.24,.09-.68-.15-.93-.51-.26-.36-.41-.71-.32-.74,.08-.03,.52,.2,.93,.51,.46,.34,.59,.64,.32,.74Z" style="fill:#65a8df;"/><path d="M160.74,115.52c.26-.23,.58-.08,.7,.33,.12,.4-.09,.87-.45,1.01-.78,.3-.97-.71-.25-1.34Z" style="fill:#65a8df;"/><path d="M162.47,115.89c.27-.1,.51,.03,.61,.34,.09,.31-.02,.59-.3,.69-.27,.1-.51-.03-.61-.34s.03-.59,.3-.69Z" style="fill:#65a8df;"/><path d="M312.22,113.29c.07,.23-.28,.57-.78,.76s-.97,.13-1.05-.15c-.08-.27,.27-.61,.78-.76,.51-.15,.98-.08,1.05,.15Z" style="fill:#65a8df;"/><path d="M307.93,114.28c-.36,.5-2.2,.91-2.31,.51-.03-.09,.57-.37,1.35-.63,.78-.27,1.2-.21,.97,.12Z" style="fill:#65a8df;"/><path d="M299.38,115.83c.09,.31-.07,.49-.38,.41-.33-.08-.57-.23-.61-.37-.04-.14,.11-.3,.38-.41,.26-.1,.52,.06,.61,.37Z" style="fill:#65a8df;"/><path d="M304.75,114.32c.12-.05,.27,.13,.36,.44,.09,.3-.05,.6-.32,.7-.27,.1-.42-.08-.36-.44,.07-.37,.2-.65,.32-.7Z" style="fill:#65a8df;"/></g><path id="arrow" d="M208.1,6.92c-.08-.19-.25-.99-.37-1.72-.18-1.12-.07-1.45,.59-1.78,.68-.34,.66-.42-.09-.47-.85-.07-2.07-1.93-1.73-2.66,.25-.54,2.83-.27,4.71,.5,.96,.39,2.09,.74,2.51,.76,1.52,.09,8.78,3.28,9.03,3.96,.16,.44,.33,.53,.45,.26,.18-.39,2.97-.24,5.07,.27,1.31,.32,3.27,1.93,3.01,2.48-.14,.3-.06,.75,.18,.97,.65,.62-.98,1.34-2.42,1.07-.7-.13-1.35,.15-1.79,.78-.55,.78-.52,.94,.14,.77,.87-.22,.76,.32-.19,.93-.41,.26-.9,.07-1.75-.67-1.57-1.36-2.87-1.54-5.67-.78-1.31,.36-2.66,.52-3,.36-.34-.16,1.14-.66,3.33-1.14,3.35-.72,3.85-.95,3.28-1.53-.85-.85-1.45-.8-.87,.08,.34,.52,.23,.63-.56,.53-.54-.06-1.51,.11-2.16,.38-1.35,.57-2.19,.31-1.42-.45,.74-.73,.49-.76-.94-.12-.69,.31-.96,.53-.61,.5,1.47-.14,.14,.81-1.95,1.4-1.49,.42-1.73,.57-.74,.47,2.24-.23,2.84,.29,.78,.67-1.14,.21-1.9,.69-2.16,1.34-.22,.57-.22,1.09,0,1.19,.2,.09,.48,.64,.58,1.15,.25,1.22,1.38,1,3.39-.67,.76-.63,1.54-1.06,1.75-.96,.56,.26,.22,.98-.49,1.07-1,.12-1.21,1.26-.25,1.32,.68,.04,.41,.37-1.25,1.52-2.6,1.81-2.47,2.07,.2,.41,1.1-.68,2.02-1.08,2.08-.91,.06,.17-1.04,1.05-2.5,1.99-1.46,.93-2.69,1.82-2.79,2.01-.27,.55-2.84,1.72-2.61,1.19,.11-.26-.11-.73-.5-1.03-.39-.31-.85-1.82-.72-3.38,.35-4.26-1.56-12.09-1.56-12.09Zm17.23,4.18c.06,.44,.37,.46,.98,.06,.93-.6,.75-.95-.41-.79-.39,.05-.62,.35-.57,.73Zm-14.02-6.62c.16,.24,.16,.81,0,1.2-.17,.4,.12,1.65,.65,2.75,.53,1.1,.94,1.73,.9,1.4-.07-.6,2.24-1.28,3.89-1.14,.5,.04,1-.13,1.12-.39,.12-.26,.33-.3,.46-.1,.14,.21,.64,.11,1.14-.22,.81-.54,.79-.65-.19-1.1-.77-.36-.93-.62-.52-.89,.45-.31,.39-.34-.32-.16-1.06,.27-3.37-.51-3.91-1.33-.21-.32-.44-.39-.55-.17s-.63,.12-1.2-.22c-1.1-.66-2.02-.42-1.48,.38Zm9.05,12.4c-.9,.87-.38,.92,.97,.08,2.31-1.43,4.31-2.98,4-3.11-.35-.14-3.99,2.07-4.97,3.02Zm-.12-.73c.15,.07-.11,.32-.55,.53-1.19,.57-1.72,.14-.73-.6,.6-.45,.73-.7,.43-.84-.67-.31-.05-1.35,.96-1.62,.47-.12,.86-.44,.83-.67-.09-.72,2.6-1.47,3.17-.89,.28,.29,.67,.59,.9,.7,.22,.1-.19,.43-.91,.73-.72,.29-1.41,.75-1.53,1.01s-.82,.71-1.53,1.01c-.72,.29-1.19,.59-1.04,.66Zm1.98-2.44c.08,.2,.43,.07,.78-.29,.49-.5,.46-.58-.15-.35-.44,.16-.72,.44-.64,.64Zm6.81-2.59c-.33,.04-.58,.14-.64,.25s.08,.27,.34,.39,.52,0,.64-.25-.03-.42-.34-.39Z" style="fill:#65a8df;"/><g><g><path d="M33.52,38.31s.11-.23,.14-.27c-.1,.03-.16,.34-.14,.27Z" style="fill:#7cb5e4;"/><polygon points="32.53 38.65 32.58 38.55 32.39 38.77 32.53 38.65" style="fill:#7cb5e4;"/><path d="M31.8,38.45c-.04,.47,.29,0,.38,.19v.11s.15-.35,.15-.35c-.18,.02-.45,.21-.53,.05Z" style="fill:#7cb5e4;"/><path d="M31.62,37.36c-.01,.18-.12,.13,.08,.08,0-.02,0-.03,0-.05-.02,0-.04,0-.08-.03Z" style="fill:#7cb5e4;"/><path d="M31.7,37.39c.09,0-.02-.16,0,0h0Z" style="fill:#7cb5e4;"/><path d="M31.29,37.42l.14-.14c0-.11-.1-.15-.04-.22-.13,.07-.13,.18-.1,.36Z" style="fill:#7cb5e4;"/><path d="M31.12,37.73l.07-.06s-.01-.06-.07,.06Z" style="fill:#7cb5e4;"/><path d="M31.34,37.56l-.15,.12c0,.08-.03,.23,.06-.04-.04,.13,.01,0,.08-.08Z" style="fill:#7cb5e4;"/><path d="M31.39,37.64c.04,.11,.1,.19-.04,.33,.21-.02,.26-.35,.04-.33Z" style="fill:#7cb5e4;"/><path d="M31.65,38.91l.04,.15,.1-.14c-.05,.07-.11-.16-.14-.02Z" style="fill:#7cb5e4;"/><path d="M30.65,37.06c-.02,.1,0,.27-.02,.4l.1-.1c-.03-.07-.1-.15-.08-.3Z" style="fill:#7cb5e4;"/><path d="M30.63,37.45l-.15,.15c.1,.04,.14-.04,.15-.15Z" style="fill:#7cb5e4;"/><polygon points="31.01 38.24 31.27 37.92 30.97 38.24 31.01 38.24" style="fill:#7cb5e4;"/><polygon points="30.18 36.98 30.28 36.76 30.11 37.09 30.18 36.98" style="fill:#7cb5e4;"/><path d="M29.86,36.98c.07-.18-.04-.33,.03-.44-.09,.02-.18,.18-.26,.32,.08-.07,.15-.04,.23,.12Z" style="fill:#7cb5e4;"/><path d="M29.5,37.06s.08-.12,.13-.2c-.04,.04-.08,.1-.13,.2Z" style="fill:#7cb5e4;"/><path d="M30.29,37.52c0-.06,0-.22-.06-.29v.28s.06,0,.06,0Z" style="fill:#7cb5e4;"/><path d="M30.24,37.52h0s-.08-.03-.1-.04c.01,0,.04,.02,.1,.04Z" style="fill:#7cb5e4;"/><path d="M30.3,37.52h-.01s0,.03,.01,0Z" style="fill:#7cb5e4;"/><path d="M30.75,37.94c-.1,.14-.26,.28-.17,.54,.08-.18,.02-.33,.17-.54Z" style="fill:#7cb5e4;"/><path d="M30.31,37.88l.11,.08c0-.07,0-.18,.05-.25l-.16,.17Z" style="fill:#7cb5e4;"/><polygon points="30.23 37.96 30.31 37.88 30.26 37.85 30.23 37.96" style="fill:#7cb5e4;"/><path d="M29.69,37.34c-.07,.11-.13,.12-.2,.13,.07,.06,.14,.1,.21,.11,.02-.09,.07-.24-.01-.24Z" style="fill:#7cb5e4;"/><path d="M29.96,37.45h-.01s0,.05,.01,0Z" style="fill:#7cb5e4;"/><polygon points="28.83 37.42 28.83 37.47 28.84 37.43 28.83 37.42" style="fill:#7cb5e4;"/><path d="M29.71,37.64c.05,.06,.09,0,.13-.09-.04,.02-.09,.04-.14,.03,0,.04-.01,.06,0,.05Z" style="fill:#7cb5e4;"/><path d="M29.3,37.17c.02,.06,.05,.11,.08,.16-.02-.09-.07-.23-.08-.16Z" style="fill:#7cb5e4;"/><path d="M29.94,37.39s0-.01,0-.01c-.01-.06-.01-.03,0,.01Z" style="fill:#7cb5e4;"/><path d="M29.94,37.39s-.06,.1-.09,.16c.04-.02,.07-.04,.1-.08,0-.02,0-.05,0-.08Z" style="fill:#7cb5e4;"/><path d="M28.54,39.21c.02-.26,.17-.49,.26-.21,.12-.19,.11-1.04,.03-1.53-.01,.11-.02,.22-.15,.36,.04,.14,.25,.35,.13,.57-.17,.12-.12-.1-.19-.24,.05,.33-.22,.46-.21,.94l.14-.16c0,.07-.05,.19-.02,.26Z" style="fill:#7cb5e4;"/><path d="M29.07,37.51l.05-.03c-.06-.05-.09-.15-.16-.36-.1,.12-.12,.22-.13,.3l.25,.05-.02,.04Z" style="fill:#7cb5e4;"/><path d="M29.36,37.5c-.07,.27-.2,.39-.15,.7,.15,0,.12-.22,.22-.34-.25,.04,.08-.15-.08-.33,.05-.04,.1-.05,.14-.06-.04-.04-.08-.09-.12-.14v.02s0,0,0,0h0s0,.06,0,.04h0s-.01,.08-.02,.11c-.07-.07,0-.07,.02-.1v-.04s0,0,0,0l-.26,.14s.11,.04,.23,.01Z" style="fill:#7cb5e4;"/><path d="M30.36,39.05s0-.05,0-.07c-.02,.03-.03,.05,0,.07Z" style="fill:#7cb5e4;"/><path d="M30.29,38.87s.05-.15,.1-.11c.03,.09-.02,.13-.03,.23,.04-.07,.15-.18,.07-.33l-.02,.03c-.08-.11-.14-.48-.12-.52,0,.25-.01,.44,.01,.7Z" style="fill:#7cb5e4;"/><path d="M29.83,38.26l-.21,.11,.07,.25v-.15c.11,.07,.11-.11,.14-.22Z" style="fill:#7cb5e4;"/><polygon points="28.81 37.28 28.85 36.99 28.71 37.4 28.81 37.28" style="fill:#7cb5e4;"/><polygon points="28.54 37.3 28.56 37.04 28.48 37.2 28.54 37.3" style="fill:#7cb5e4;"/><path d="M17.18,44.94l.02,.09s0-.06-.02-.09Z" style="fill:#7cb5e4;"/><path d="M17.45,44.7l-.08-.1c.04,.06,.07,.1,.08,.1Z" style="fill:#7cb5e4;"/><path d="M22.06,38.22c-.16-.2-.38-.53-.27-.26l.12,.26c.04-.07,.1-.05,.16,0Z" style="fill:#7cb5e4;"/><path d="M18.9,41.58l.07,.06c-.04-.09-.07-.18-.1-.26,.01,.06,.02,.13,.03,.2Z" style="fill:#7cb5e4;"/><path d="M19.5,42.6l-.18-.1c.05,.04,.11,.07,.18,.1Z" style="fill:#7cb5e4;"/><path d="M16.17,46.63l.2,.21c.05-.07-.09-.13-.2-.21Z" style="fill:#7cb5e4;"/><path d="M25.81,37.5c-.09-.1-.15-.14-.21-.15,.11,.15,.21,.39,.21,.15Z" style="fill:#7cb5e4;"/><path d="M15.12,42.74c.01,.06,.04,.11,.09,.16,0-.06-.03-.11-.09-.16Z" style="fill:#7cb5e4;"/><path d="M25.38,37.38s.03,.04,.05,.06c.05-.05,.1-.1,.17-.09-.08-.11-.17-.18-.22,.03Z" style="fill:#7cb5e4;"/><path d="M13.3,53.04s-.02,0-.04,.01c.04,0,.04,0,.04-.01Z" style="fill:#7cb5e4;"/><path d="M10.28,55.09s-.02-.06-.02-.1c-.02,.02-.02,.05,.02,.1Z" style="fill:#7cb5e4;"/><path d="M27.46,37.16c.06-.02,0-.03,0,0h0Z" style="fill:#7cb5e4;"/><path d="M27.74,38.29s-.02,.07-.02,.14c0-.07,.01-.11,.02-.14Z" style="fill:#7cb5e4;"/><path d="M25.1,39.2h0c.02,.05,.02,.04,0,0Z" style="fill:#7cb5e4;"/><path d="M27.55,37.29s-.05-.06-.07-.08c.01,.02,.03,.05,.07,.08Z" style="fill:#7cb5e4;"/><path d="M27.53,37.16s.04,.02,.05,.03c0-.05,0-.08-.05-.03Z" style="fill:#7cb5e4;"/><path d="M27.38,37.18s.06,0,.09,.03c-.01-.02-.02-.04-.01-.04-.02,0-.04,0-.08,.02Z" style="fill:#7cb5e4;"/><path d="M13.65,49.07s-.02,0-.03,0c.09,.09,.08,.06,.03,0Z" style="fill:#7cb5e4;"/><polygon points="21.82 41.46 21.82 41.45 21.81 41.44 21.82 41.46" style="fill:#7cb5e4;"/><path d="M21.75,41.73c-.08-.35-.02-.33,.06-.28l-.37-.73,.31,1.02Z" style="fill:#7cb5e4;"/><path d="M16.67,45.64l.27,.08c.23,.38,.06,.36,.4,.51-.67-.59,.21-.39-.44-.99l.19,.07s.02,.05,0,.06c.41,.17-.4-.52-.17-.58,.1,0,.22,.05,.27,.16l-.05-.26s.15,.1,.1,.12l.11-.22,.02,.02c-.08-.12-.17-.33-.21-.42,.13,.05,.04,.09,.13,.16l-.06-.25c.2,.13,.28,.37,.19,.41,.7,.55-.08-.24,.47-.04v.16c.39,.32,.33,.12,.64,.27-.13-.1-.73-.41-.78-.66,.07,.02,.13,.01,.07-.17,.21,.23,.21,.13,.27,.05l.27,.32c0-.15-.15-.31-.24-.49,.11-.04,.34,.19,.53,.38,.18-.05-.43-.32-.32-.51,.22,.03,.19-.16,.17-.47,.17,.05,.14,.21,.25,.28l-.13-.32s.08,.08,.11,.12c-.02-.15-.25-.34-.22-.5-.25-.4,.6,.39,.42-.12,.1,.08,.13,.22,.24,.35-.03-.4,0-.3-.12-.79l.27,.14c-.26-.2-.36-.59-.41-.92-.12-.11-.22-.2-.27-.24l.06-.3c.06,.04,.12,.18,.18,.34,0-.04-.01-.07-.02-.1,.15,.09,.24,.32,.32,.54-.06-.06-.13-.12-.2-.18,.09,.24,.21,.5,.35,.7-.02-.05-.02-.1,0-.13,.03,.06,.05,.12,.08,.15,.03,.03,0-.05-.03-.16l.29,.37-.09-.16,.37,.12c-.09-.49-.31-1.18-.13-1.5,.1,.33,.26,.5,.45,.85-.28-.34-.1,.27-.27,.27,.09,0,.17,.17,.19,.24l.03-.48c.16,.29,.17,.19,.3,.28-.36-.55-.03-.47-.03-.7,.11,.19,.19,.4,.05,.42,.36,.37-.19-.77,.13-.46-.03,.02-.06,0-.02,.1-.02-.21,.22-.16,.26,.03l-.03,.02c.22-.04,.59-.26,.4-.79,.03,.07,.24,.63,.28,.73-.14-.62-.26-1.25-.37-1.89,.15,.46,.71,1.46,.65,1.78,.07,.04,.16,.09,.19-.11-.06-.05-.34-.61-.31-.67,.32,.45,.2,.23,.51,.6-.09-.08-.3-.8-.21-.81,.03,.11,.27,.69,.27,.77l-.06-.76c0,.14,.21,.59,.32,.77-.07-.13,.17-.05,.19-.14l-.14-.13c.25,.02-.12-1.06,.13-1.09,.02,.15,.22,.91,.36,.97-.07-.37-.31-1.8-.16-2.15l.1,.19,.1-.29c.04,.58,.09,1.81,.09,2.3,.13,.14,.1,.24,.21,.18,.1,.18,.02,.31,0,.34l.31,.04c-.13-.42,.09-.49-.01-.84-.07,.17-.13,.36-.19,.53-.14-.41-.17-1.27,.08-1.24,.1,.16,.16,.77,.2,.91-.01-.15,.12-.33,.17-.23l-.03,.25c.15,.13,.05-.61,.29-.24,.06,.02,.27,.52,.22,.26-.19-.47-.56-1.98-.58-2.36,.03,.03,.39,.4,.49,.64,.16,.37,.06,.94,.21,1.26-.02-.12,0-.27,0-.32,.07,.09,.05,.37,.15,.3-.07-.44,.24,0-.02-.38,.09-.15,.14,.07,.26,.03-.09-.28-.05-.99,.05-1.14,.01,.11,.06,.25,.09,.32,.24,0,.4,.19,.62,.16,.03,.1,.15,.22,.13,.42,.02-.08,.03-.24,.1-.25,.17,.37-.14,.08,0,.53-.02-.26,.13-.38,.21-.55-.07-.4-.23-.05-.31,.12-.07-.55,.04-1.14,.26-1.43,.18-.15,.12,.35,.14,.27,.37,.07,.25-.98,.58-.6,.14,.34,.04,.7,.08,.95-.15,.14-.25-.21-.36-.19l.14,.16c-.04,.12-.14,.21-.2,.12,.12,.31,.6,.01,.88,.31,.04-.12,.13-.24,.08-.38l-.09,.05c-.09-.28,.16-.39,.04-.53,.11-.2,.25-.51,.42-.35l.03,.4c0-.12-.11-.24-.16-.12,.07-.18,.25,.54,.34,.02l-.12-.28c.12-.2,.29-.63,.44-.49-.06-.4-.04,.04-.14-.43,.08,.58-.41-.02-.26,.58-.11-.54-.19-.23-.35-.69,0,.13,.06,.25-.08,.19,0,.04-.02,.09-.03,.12h0s0,0,0,0c0,.02,0,.02,0,0,.03,.06,.06,.13,.07,.2-.06,.3-.27,.3-.33,.45-.08-.06,.03-.15-.02-.29l-.1,.24c-.02-.29-.22-.48-.05-.66h-.17c-.11-.16-.25-.22-.32-.09-.08-.06-.18,.34-.12,.1l-.25,.2v-.07c-.27-.02-.48,.54-.84,.05-.08,.08-.15,.19-.31,.12l-.06-.25c-.1,.1-.38-.19-.38,.08-.24-.65-.57-.05-.79-.13l.06,.33c-.14,.01-.24,.14-.38,.3l.08,.28c-.08,.27-.4-.12-.62-.03-.01-.11,.05-.1,.11-.04-.45-.58-.42,.63-.79,.23-.03,.12-.08,.1-.14,.04,0,0,0,0,.01-.02,0,0-.02,0-.03,0-.04-.04-.09-.09-.13-.12,.05,.06,.09,.11,.12,.13-.04,.02-.1,.08-.14,.17l-.13-.29s0,0-.01,.01c-.1-.09,0,.16,.11,.37-.02,.06-.03,.13-.02,.21-.22-.46-.11,.22-.37-.26,.05,.27-.26,.31-.09,.84-.03-.07-.06-.09-.03-.11-.09-.03-.19-.06-.19,.1l-.18-.36,.05,.56c-.18-.19-.28-.3-.31-.62-.04,.54-.11,.25-.11,.76l-.1-.24c-.06,.04-.03,.4-.16,.23-.37-.39-.76,.3-1.35,.09,.44,.63-.34-.2-.07,.32-.11-.14-.21-.2-.23-.37-.1,.27-.44-.07-.31,.43-.12-.14-.1-.25-.17-.33,0,.04,.02,.17-.06,.09-.08-.08-.05-.15-.06-.23-.19,.15,.09,.63,.36,1.08-.23-.15-.26-.09-.14,.24-.12-.12-.28-.23-.2-.36-.08,.02-.53,.06-.3,.41-.08-.07-.11,.04-.1,.09-.16,.08-.19,.06-.31,.19l.08,.03c.24,.44-.04,.17-.12,.31l-.03-.04c-.47-.09,0,.22-.5,.09l.21,.23c.4,.54-.46-.14-.44,.17l.16,.1c.08,.24-.8-.52-.94-.51-.06-.03-.04-.09-.04-.15-.47-.12,.25,.33,.16,.54-.18-.14-.34-.45-.47-.39-.17-.08,.2,.79-.22,.61,.15,.09,.29,.19,.32,.35-.05,.14-.72-.19-.43,.28-.05-.02-.08-.05-.11-.08,.03,.17-.07,.41,.1,.65-.87-.65-.03,.84-.78,.18l-.17,.28-.07-.07c-.19,.12-.04,.33,.1,.54-.08,0-.13-.09-.17-.13-.34,.12-.33,.17-.08,.67l-.28-.17c.11,.16-.67,.07-.53,.53-.03-.02-.08-.06-.1-.11,.13,.48-1.21,.21-.26,.94l.14,.34c.22-.19,.42,.29,.65,.3,0,.12-.45,.06-.43-.08h.06c-.51-.34-.37,.2-.73,0-.23,.51-.79,.84-1.02,1.33l.46,.14-.1,.16c-.12,0-.37-.09-.3-.2-.28-.04,.12,.29,.22,.33-.28,.16-.48-.31-.52-.24v.11s.05,0,.05,0c.15,.16,.33,.24,.26,.38-.12,.06-.29-.06-.32-.03-.03-.01-.05,0-.03,.05l-.12,.21,.39,.05c.14,.16-.09,.2,.34,.25-.68-.09-.51,.72-.72,.75,.22,.22,.18,.35,.09,.51,.09-.02,.5,.07,.41,.2-.83-.29-.44,.16-1.08,.12,.43,0,0,.45,.62,.42-.1,.1-.32-.07-.54-.02,.25,.36-.36,.61-.31,1.01,.11,.02,.3,0,.45,.1l-.6,.1c.04,.08,.64,.17,.23,.24,.1,0,.25-.01,.28,.04-.65,.67,.3,1.48-.76,2.2,.22-.1,.25-.03,.25,.05,.05-.05,.28,0,.44,0l-.43,.31c.43,.05,.03,.34,.45,.36l-.08-.09c.49,.11,1.08-.2,1.71-.19-.56-.13,.82-.34,.02-.55,.13-.04,.2,.04,.35,.02-.27-.06-.32-.13-.19-.24l.07,.02c-.04-.34,.22-.47,.43-.82h-.31c.05-.08,.15-.08,.23-.11-.46-.14-.05,.22-.56,.09,.64-.04,.08-.57,.8-.55,.02-.12-.36-.01-.34-.13h.2s-.24-.07-.24-.07c.05-.07,.3-.08,.46-.05-.02,.02,.04,.06,.05,.08,.24-.06-.03-.29,.05-.32l-.14,.09c-.12-.36,.19-.7-.1-1.1h-.15c-.2-.32,.2-.17,.15-.46l.03,.02c-.13-.09-.18-.18-.14-.25,.14,.11,.36-.03,.51,.11-.2-.34-.18-.19-.65-.52l.24,.03c-.19-.12-.3-.16-.32-.32,.16,.17,.38,.03,.6,.24,.58-.1-.37-.58,.41-.45-.59-.35-.44,.11-.55,0-.23-.01-.43-.27-.34-.34,.05-.09,.86,.15,.93-.07-.01,.02,.04,.04,.03,.06,.19-.02-.16-.24,.14-.24-.35-.21,.08-.12-.39-.33l.02,.24c-.08-.16-.59-.5-.24-.58,.09,.06,.19,.17,.25,.23,.16,0-.05-.14,.12-.14,.47,.22,0,.28,.31,.55,.23,.03-.25-.37,.24-.09-.62-.37,.17-.17-.26-.53l.28,.14s-.15-.15-.12-.19l.33,.24c-.26-.26,.36-.09,.25-.27-.1,.22-.36-.11-.61-.12-.23-.46,.81,.2,.83-.17,.02,.06-.24,.07-.34-.06,.09-.03,.23-.05,.39,0,.04-.23-.3-.12-.42-.29,.37,.11-.08-.17-.14-.32l.28,.15c.3-.13-.54-.38-.21-.47l.33,.3-.04-.16,.3,.2c-.16-.25-.08-.25,.07-.31-.21-.09-.48-.31-.43-.42,.2,.03,.23,.2,.28,.03,.15,.14,.34,.3,.06,.21,.08,.07,.16,.13,.23,.19,.23,.04,.15-.15,.17-.21-.02,.01-.05,.03-.09,.01l-.24-.43c.12,.03,.18,.11,.25,.18,0-.06-.11-.16-.09-.24,.2,.16,.43,.3,.48,.44l-.12-.34c.1,.05,.32,.08,.38,.15,.19-.01-.25-.53,.01-.55-.04-.04-.06-.08-.07-.13,.14-.09,.47,0,.3-.36l.42,.2c0-.18-.54-.25-.53-.55-.01-.23,.34,.2,.48,.23-.13-.21-.39-.62,0-.5,.03,.1-.05,.08-.05,.14Zm1.07-1.42c.02,.07,.11,.27-.04,.15-.22-.29-.08-.18,.04-.15Zm1.73-2.27c.03,.1-.03,.08-.13,0,.02-.04,.06-.05,.13,0Zm7.37-4.51v.02c-.1-.12-.07-.07,0-.02Zm.2,.13s.01-.09,0-.13c0,.08-.05,.09-.1,.07,.02,.08,.04,.14,.1,.06Zm-15.57,11.22h.09c.06,.11-.01,.05-.09,0Z" style="fill:#7cb5e4;"/><path d="M19.43,42.48s-.07-.09-.11-.14c.02,.05,.05,.1,.11,.14Z" style="fill:#7cb5e4;"/><polygon points="16.13 46.59 16.12 46.59 16.17 46.63 16.13 46.59" style="fill:#7cb5e4;"/><path d="M24.67,40.55s-.07-.09-.1-.15c.01,.08,.04,.14,.1,.15Z" style="fill:#7cb5e4;"/><path d="M28.05,37.02l-.13,.08c.06-.02,.08,.05,.11,.1,0-.07-.02-.18,.02-.19Z" style="fill:#7cb5e4;"/><path d="M28.99,39.02s.04,0,.05-.04v-.15c-.06,0-.12,.12-.05,.19Z" style="fill:#7cb5e4;"/><path d="M28.15,38.07c0,.27,.08,.17,.16,.13,0,0,0,0-.01,0,.04-.37-.06-.25-.15-.13Z" style="fill:#7cb5e4;"/><path d="M28.33,38.19s.05-.02,.08,0c.02-.15-.03-.03-.08,0Z" style="fill:#7cb5e4;"/><path d="M27.28,37.38c.04,.07,.02-.34,.04-.23,.04-.34-.26,.41-.04,.23Z" style="fill:#7cb5e4;"/><polygon points="28.19 38.95 28.17 38.62 28.12 38.88 28.19 38.95" style="fill:#7cb5e4;"/><path d="M27.57,38.71l.13,.09c0-.06,.01-.09,.03-.11-.08-.01-.17-.08-.16,.02Z" style="fill:#7cb5e4;"/><path d="M27.73,38.68s.08,0,.1-.05c-.02,0-.07,.01-.1,.05Z" style="fill:#7cb5e4;"/><polygon points="28.02 39.04 27.98 38.98 27.89 38.95 28.02 39.04" style="fill:#7cb5e4;"/><path d="M26.2,38.71l-.13,.11c0,.11,.04,.18,.09,.13,.02-.08,.07-.13,.04-.24Z" style="fill:#7cb5e4;"/><path d="M26.68,39.58c-.04-.07-.05-.14-.08-.25l.02,.41,.05-.16Z" style="fill:#7cb5e4;"/><path d="M26.3,39.7c0,.11-.16,.35,0,.3,0-.12,.12-.21,0-.3Z" style="fill:#7cb5e4;"/><polygon points="24.24 39.5 24.27 39.49 24.12 38.83 24.24 39.5" style="fill:#7cb5e4;"/><path d="M23.01,41.49c.19,.11-.1-.4,.09-.25-.02-.16-.16-.12-.16-.26-.03,.18-.11,.11,.07,.51Z" style="fill:#7cb5e4;"/><path d="M22.94,40.98s.01-.06,.01-.11c-.01,.05-.01,.08-.01,.11Z" style="fill:#7cb5e4;"/><polygon points="9.93 55.51 9.79 55.63 10.01 55.55 9.93 55.51" style="fill:#7cb5e4;"/><path d="M10.42,55.72l-.42,.04,.39,.05s-.06-.07,.04-.1Z" style="fill:#7cb5e4;"/><path d="M18.5,44.68l-.06-.08c-.08-.07-.1-.07-.15-.05l.21,.13Z" style="fill:#7cb5e4;"/><polygon points="17.4 45.31 17.42 45.3 17.12 45.07 17.4 45.31" style="fill:#7cb5e4;"/><path d="M17.1,46.4s0-.11,.04-.13c0,.11-.42-.16-.04,.13Z" style="fill:#7cb5e4;"/></g><g><path d="M31.38,28.25c.07,.02,.02-.25,.03-.3-.1,.07-.02,.37-.03,.3Z" style="fill:#7cb5e4;"/><polygon points="30.37 28.94 30.38 28.83 30.24 29.11 30.37 28.94" style="fill:#7cb5e4;"/><path d="M29.38,29.01c.13,.46,.35-.1,.54,.05l.04,.1,.05-.38c-.21,.07-.47,.35-.63,.23Z" style="fill:#7cb5e4;"/><path d="M28.77,28.04c.05,.18-.1,.17,.13,.05-.01-.02-.02-.03-.03-.04-.02,0-.05,0-.1,0Z" style="fill:#7cb5e4;"/><path d="M28.88,28.05c.1-.02-.08-.15,0,0h0Z" style="fill:#7cb5e4;"/><path d="M28.4,28.19l.12-.17c-.04-.1-.16-.12-.12-.2-.13,.1-.1,.21,0,.37Z" style="fill:#7cb5e4;"/><path d="M28.3,28.55l.06-.07s-.04-.06-.06,.07Z" style="fill:#7cb5e4;"/><path d="M28.5,28.31l-.14,.16c.03,.07,.04,.22,.06-.06,0,.14,.02,0,.07-.1Z" style="fill:#7cb5e4;"/><path d="M28.6,28.38c.09,.09,.19,.15,.07,.32,.26-.09,.19-.41-.07-.32Z" style="fill:#7cb5e4;"/><path d="M29.37,29.5l.11,.13,.08-.16c-.04,.08-.21-.11-.19,.04Z" style="fill:#7cb5e4;"/><path d="M27.52,28.03c0,.1,.07,.26,.1,.38l.09-.12c-.06-.06-.16-.12-.19-.26Z" style="fill:#7cb5e4;"/><path d="M27.61,28.42l-.14,.19c.14,0,.15-.08,.14-.19Z" style="fill:#7cb5e4;"/><polygon points="28.32 29.06 28.54 28.68 28.28 29.07 28.32 29.06" style="fill:#7cb5e4;"/><polygon points="26.93 28.08 26.99 27.84 26.87 28.21 26.93 28.08" style="fill:#7cb5e4;"/><path d="M26.54,28.17c.04-.2-.12-.31-.07-.44-.1,.05-.17,.22-.24,.37,.08-.09,.17-.08,.31,.06Z" style="fill:#7cb5e4;"/><path d="M26.12,28.34c.04-.05,.07-.14,.11-.23-.04,.05-.08,.12-.11,.23Z" style="fill:#7cb5e4;"/><path d="M27.21,28.58c-.02-.06-.06-.21-.15-.27l.09,.27h.06Z" style="fill:#7cb5e4;"/><path d="M27.15,28.59h0c-.07,0-.11,0-.13,0,.02,0,.06,0,.13,0Z" style="fill:#7cb5e4;"/><path d="M27.23,28.58h-.02s.01,.04,.02,0Z" style="fill:#7cb5e4;"/><path d="M27.9,28.85c-.07,.16-.24,.35-.04,.57,.05-.2-.07-.32,.04-.57Z" style="fill:#7cb5e4;"/><path d="M27.34,28.92l.17,.05c-.01-.07-.05-.18-.01-.26l-.15,.21Z" style="fill:#7cb5e4;"/><polygon points="27.27 29.02 27.34 28.92 27.28 28.9 27.27 29.02" style="fill:#7cb5e4;"/><path d="M26.43,28.56c-.06,.13-.13,.15-.22,.18,.1,.04,.2,.06,.29,.05,0-.09,.02-.25-.07-.23Z" style="fill:#7cb5e4;"/><path d="M26.79,28.6v.02s0,.03,0-.02Z" style="fill:#7cb5e4;"/><polygon points="25.37 28.85 25.39 28.9 25.38 28.85 25.37 28.85" style="fill:#7cb5e4;"/><path d="M26.53,28.84c.08,.05,.11-.03,.14-.12-.05,.03-.1,.06-.16,.07,0,.04,0,.07,.02,.05Z" style="fill:#7cb5e4;"/><path d="M25.9,28.5c.04,.05,.09,.1,.14,.14-.05-.08-.14-.21-.14-.14Z" style="fill:#7cb5e4;"/><path d="M26.74,28.54s0-.01,0-.01c-.03-.06-.02-.03,0,.01Z" style="fill:#7cb5e4;"/><path d="M26.74,28.54s-.05,.12-.07,.18c.04-.03,.08-.06,.1-.11-.01-.02-.02-.05-.03-.07Z" style="fill:#7cb5e4;"/><path d="M25.35,30.66c-.02-.26,.12-.52,.31-.27,.13-.21-.08-1.05-.28-1.5,.01,.11,.02,.22-.11,.39,.08,.13,.4,.28,.29,.53-.19,.16-.18-.07-.3-.19,.13,.31-.2,.5-.09,.97l.16-.19c.01,.07-.04,.2,.02,.26Z" style="fill:#7cb5e4;"/><path d="M25.7,28.88l.06-.04c-.08-.04-.15-.13-.27-.32-.09,.14-.1,.24-.1,.33h.33s-.02,.03-.02,.03Z" style="fill:#7cb5e4;"/><path d="M26.05,28.8c-.02,.29-.16,.43-.03,.72,.19-.04,.1-.25,.21-.39-.3,.11,.07-.17-.17-.3,.06-.06,.11-.08,.16-.09-.06-.03-.12-.06-.18-.11v.02s.01,0,.01,0h0s.02,.06,0,.04h0s0,.08,0,.11c-.1-.05-.02-.07,0-.11v-.04s0,0,0,0l-.29,.19c.07,.03,.15,.01,.3-.04Z" style="fill:#7cb5e4;"/><path d="M27.76,30.04s-.01-.04-.02-.06c-.02,.04-.02,.06,.02,.06Z" style="fill:#7cb5e4;"/><path d="M27.62,29.88s.03-.16,.1-.13c.07,.08,.01,.13,.03,.23,.04-.08,.13-.22-.02-.34l-.02,.04c-.13-.08-.33-.42-.31-.46,.06,.25,.11,.43,.22,.67Z" style="fill:#7cb5e4;"/><path d="M26.84,29.41l-.24,.17,.16,.23-.02-.15c.15,.04,.1-.14,.11-.25Z" style="fill:#7cb5e4;"/><polygon points="25.32 28.71 25.31 28.41 25.22 28.85 25.32 28.71" style="fill:#7cb5e4;"/><polygon points="24.99 28.79 24.96 28.54 24.89 28.7 24.99 28.79" style="fill:#7cb5e4;"/><path d="M9.54,39v.1s0-.07,0-.1Z" style="fill:#7cb5e4;"/><path d="M9.9,38.65l-.08-.1c.03,.07,.06,.11,.08,.1Z" style="fill:#7cb5e4;"/><path d="M16.73,30.79c-.19-.19-.45-.49-.33-.23l.13,.25c.06-.08,.13-.07,.2-.03Z" style="fill:#7cb5e4;"/><path d="M12.31,34.82l.07,.06c-.03-.1-.06-.19-.08-.27,0,.07,0,.14,.01,.21Z" style="fill:#7cb5e4;"/><path d="M12.88,35.86l-.21-.08c.06,.04,.13,.06,.21,.08Z" style="fill:#7cb5e4;"/><path d="M8.1,41.29l.2,.23c.07-.1-.08-.14-.2-.23Z" style="fill:#7cb5e4;"/><path d="M21.54,29.5c-.12-.09-.21-.12-.28-.12,.15,.13,.29,.35,.28,.12Z" style="fill:#7cb5e4;"/><path d="M7.51,36.75c0,.07,.03,.13,.08,.17,0-.07-.02-.13-.08-.17Z" style="fill:#7cb5e4;"/><path d="M20.98,29.45s.04,.03,.07,.05c.06-.06,.12-.12,.21-.12-.11-.1-.23-.15-.28,.06Z" style="fill:#7cb5e4;"/><path d="M4.12,50.57s-.02,.01-.04,.02c.04,.01,.04,0,.04-.02Z" style="fill:#7cb5e4;"/><path d="M.63,52.98s0-.08,0-.13c-.02,.02-.03,.06,0,.13Z" style="fill:#7cb5e4;"/><path d="M23.6,28.88c.07-.03,0-.03,0,0h0Z" style="fill:#7cb5e4;"/><path d="M24.13,29.93s-.02,.08,0,.14c0-.07,0-.11,0-.14Z" style="fill:#7cb5e4;"/><path d="M20.69,31.34h0s.03,.04,0,0Z" style="fill:#7cb5e4;"/><path d="M23.73,28.99s-.07-.05-.11-.07c.02,.02,.05,.04,.11,.07Z" style="fill:#7cb5e4;"/><path d="M23.69,28.86s.05,.01,.07,.02c0-.05-.01-.08-.07-.02Z" style="fill:#7cb5e4;"/><path d="M23.5,28.91s.08,0,.12,0c-.02-.02-.03-.03-.02-.04-.02,0-.05,.02-.1,.03Z" style="fill:#7cb5e4;"/><path d="M5.06,44.99s-.02,0-.03,0c.08,.11,.08,.07,.03,0Z" style="fill:#7cb5e4;"/><polygon points="16.12 34.21 16.12 34.2 16.11 34.19 16.12 34.21" style="fill:#7cb5e4;"/><path d="M15.99,34.5c-.05-.36,.02-.35,.12-.31l-.41-.72,.28,1.03Z" style="fill:#7cb5e4;"/><path d="M8.82,39.94l.3,.04c.2,.41,0,.42,.38,.54-.67-.58,.32-.51-.34-1.12l.21,.05s0,.05-.02,.07c.46,.14-.37-.54-.09-.66,.11-.02,.25,.02,.29,.14l-.02-.31c.06-.03,.16,.09,.1,.12l.18-.28,.02,.02c-.07-.13-.14-.36-.17-.46,.15,.03,.04,.1,.13,.16l-.02-.28c.21,.12,.26,.38,.15,.44,.74,.53-.06-.27,.57-.13l-.05,.19c.42,.3,.39,.08,.74,.19-.14-.1-.81-.34-.82-.63,.09,.01,.16-.01,.12-.21,.21,.24,.23,.11,.32,.01l.27,.32c.02-.18-.12-.33-.18-.53,.15-.07,.38,.16,.58,.35,.23-.1-.46-.29-.29-.54,.26,0,.26-.23,.31-.58,.2,.03,.14,.22,.25,.28l-.1-.34s.08,.08,.11,.12c0-.17-.25-.34-.18-.54-.23-.41,.68,.34,.55-.21,.11,.07,.13,.23,.23,.35,.04-.45,.06-.35,0-.87l.32,.12c-.3-.18-.34-.6-.36-.95-.13-.1-.24-.18-.3-.22l.12-.35c.07,.04,.12,.18,.17,.35,0-.04,0-.08,0-.11,.17,.08,.25,.31,.32,.55-.07-.05-.15-.11-.22-.16,.08,.25,.18,.52,.32,.72-.01-.05,0-.1,.01-.14,.02,.07,.05,.13,.08,.16,.03,.03,0-.06-.01-.18l.3,.36-.09-.17,.45,.07c-.03-.53-.19-1.25,.09-1.62,.08,.35,.25,.5,.44,.86-.31-.32-.19,.31-.41,.34,.12-.02,.19,.16,.2,.24l.13-.52c.16,.29,.19,.18,.34,.25-.38-.54,.03-.52,.07-.77,.11,.19,.18,.4,0,.45,.41,.34-.13-.8,.25-.53-.04,.03-.08,0-.04,.11,0-.22,.31-.2,.34,0l-.04,.02c.3-.07,.82-.39,.63-.92,.03,.06,.24,.63,.28,.74-.1-.65-.19-1.29-.26-1.94,.15,.46,.77,1.43,.65,1.78,.09,.03,.2,.07,.27-.14-.07-.04-.39-.59-.34-.65,.38,.42,.23,.21,.61,.54-.11-.07-.32-.79-.2-.81,.03,.11,.29,.68,.28,.77v-.79c-.02,.15,.21,.58,.35,.75-.08-.12,.23-.08,.28-.17l-.17-.11c.34-.01-.06-1.08,.27-1.16,.01,.16,.23,.91,.41,.95-.06-.38-.29-1.83-.08-2.2l.12,.19,.15-.31c.03,.59,.03,1.85,0,2.35,.17,.12,.12,.23,.28,.15,.13,.17,0,.32-.04,.35h.43c-.16-.42,.16-.53,.04-.87l-.29,.58c-.16-.41-.14-1.27,.18-1.29,.13,.14,.18,.76,.23,.9,0-.16,.19-.36,.25-.27l-.05,.26c.21,.11,.09-.64,.41-.29,.07,0,.36,.49,.3,.23-.25-.45-.71-1.94-.73-2.32,.04,.03,.51,.36,.65,.58,.22,.35,.08,.95,.27,1.25-.03-.12,0-.28,0-.33,.1,.08,.07,.37,.21,.27-.09-.44,.32-.05-.03-.38,.12-.17,.19,.05,.36-.02-.13-.26-.08-.99,.05-1.16,.02,.11,.09,.25,.12,.31,.33-.04,.55,.12,.85,.05,.05,.1,.22,.19,.2,.4,.02-.09,.03-.24,.12-.27,.26,.34-.19,.1,.04,.53-.04-.26,.16-.4,.26-.59-.12-.38-.32-.01-.42,.17-.12-.54-.01-1.15,.26-1.47,.23-.19,.18,.33,.21,.24,.49,0,.23-1.03,.7-.71,.22,.32,.13,.69,.21,.93-.18,.17-.36-.16-.5-.12l.2,.13c-.04,.13-.16,.24-.26,.15,.19,.29,.81-.09,1.23,.14,.04-.13,.14-.27,.06-.4l-.11,.07c-.15-.26,.15-.42-.02-.53,.12-.22,.25-.56,.5-.44l.1,.39c-.02-.12-.18-.21-.23-.08,.07-.19,.42,.49,.44-.05l-.2-.25c.13-.22,.26-.68,.48-.58-.15-.38-.04,.05-.25-.39,.21,.55-.52,.05-.23,.62-.23-.51-.29-.19-.55-.61,.03,.13,.11,.24-.07,.2,0,.04-.01,.09-.02,.12h-.01s.01,0,.01,0c0,.02,0,.03,0,0,.05,.05,.09,.11,.12,.18-.03,.31-.3,.35-.36,.52-.11-.05,.02-.16-.06-.29l-.09,.25c-.06-.29-.35-.44-.14-.65l-.21,.02c-.15-.14-.34-.17-.42-.03-.11-.04-.19,.37-.15,.12l-.3,.24-.02-.07c-.34,.03-.57,.61-1.05,.18-.09,.1-.19,.21-.39,.17l-.09-.24c-.12,.12-.49-.14-.48,.13-.32-.63-.73,.03-1.01-.01l.08,.32c-.17,.03-.31,.16-.48,.36l.1,.28c-.11,.29-.52-.06-.8,.06-.02-.11,.07-.11,.14-.06-.55-.52-.56,.69-1.02,.34-.04,.13-.11,.11-.19,.06,0,0,.01-.01,.01-.02,0,0-.02,0-.03,0-.05-.04-.11-.08-.16-.11,.06,.06,.11,.1,.14,.12-.06,.03-.13,.09-.19,.19l-.15-.28s-.01,0-.02,.02c-.13-.08-.02,.16,.11,.37-.03,.06-.04,.14-.05,.22-.25-.45-.16,.25-.45-.22,.04,.27-.36,.36-.19,.89-.03-.07-.07-.09-.02-.11-.12-.02-.24-.04-.26,.14l-.2-.35v.58c-.21-.17-.32-.28-.32-.61-.11,.57-.17,.27-.23,.81l-.1-.24c-.09,.05-.08,.43-.22,.26-.42-.35-1.01,.41-1.72,.29,.47,.61-.4-.17-.13,.36-.12-.14-.24-.19-.24-.37-.17,.3-.53-.02-.45,.51-.12-.14-.08-.26-.16-.34,0,.05,0,.18-.08,.11-.08-.08-.04-.15-.04-.24-.25,.18,.02,.67,.28,1.13-.26-.13-.3-.06-.21,.29-.14-.12-.31-.22-.19-.37-.1,.04-.67,.14-.45,.49-.09-.07-.14,.06-.13,.11-.2,.11-.24,.09-.41,.26l.09,.02c.22,.46-.09,.2-.2,.36l-.03-.04c-.55-.04-.04,.25-.62,.17l.21,.23c.39,.55-.53-.09-.56,.27l.18,.08c.05,.26-.87-.47-1.04-.44-.06-.02-.03-.1-.02-.16-.53-.06,.23,.34,.1,.59-.18-.13-.33-.47-.49-.37-.19-.07,.1,.88-.37,.74,.16,.08,.31,.17,.32,.35-.09,.17-.82-.1-.55,.4-.05-.01-.09-.04-.12-.07,0,.2-.15,.5,0,.76-.91-.63-.17,1.01-.94,.36-.08,.12-.16,.25-.24,.38l-.07-.07c-.22,.19-.1,.41,.04,.63-.09,.01-.14-.08-.18-.12-.41,.2-.41,.27-.18,.84l-.29-.15c.11,.18-.77,.21-.65,.76-.03-.02-.08-.06-.1-.11,.09,.57-1.35,.5-.38,1.22l.12,.4c.26-.29,.43,.29,.67,.25,0,.16-.49,.16-.46-.02h.07c-.52-.34-.41,.32-.78,.12-.31,.68-.92,1.21-1.2,1.86l.47,.1-.11,.21c-.13,.02-.38-.06-.3-.21-.29-.01,.1,.36,.2,.4-.31,.25-.47-.33-.52-.23l-.02,.15h.06c.14,.17,.33,.25,.23,.44-.13,.09-.3-.04-.33,0-.03-.01-.05,0-.04,.07l-.14,.28h.4c.13,.2-.12,.28,.34,.29-.7-.03-.59,.99-.82,1.05,.2,.26,.14,.44,.05,.65,.09-.03,.51,.06,.4,.23-.82-.32-.47,.23-1.12,.21,.44-.02-.05,.57,.58,.52-.11,.14-.32-.08-.55-.01,.22,.47-.44,.78-.45,1.28,.11,.04,.3,0,.44,.14l-.62,.11c.03,.11,.62,.25,.19,.32,.1,0,.25,0,.27,.07-.77,.79,0,1.97-1.23,2.67,.25-.08,.25,.01,.24,.11,.07-.05,.28,.06,.43,.08l-.51,.3c.41,.16-.06,.42,.33,.55l-.05-.14c.44,.27,1.11,0,1.72,.16-.5-.3,.91-.3,.2-.77,.14-.04,.19,.1,.33,.1-.25-.13-.28-.24-.13-.38l.06,.03c.04-.49,.35-.63,.64-1.12l-.31-.03c.07-.1,.17-.11,.25-.14-.43-.24-.1,.31-.58,.08,.65,0,.2-.8,.92-.73,.05-.17-.36-.03-.32-.21h.2s-.23-.1-.23-.1c.07-.1,.32-.1,.48-.07-.03,.02,.02,.09,.03,.12,.26-.09,.03-.43,.11-.46l-.16,.14c-.06-.52,.34-1.02,.09-1.57h-.15c-.17-.43,.23-.24,.22-.65l.03,.02c-.12-.12-.16-.24-.11-.34,.14,.14,.37-.08,.52,.1-.17-.45-.17-.25-.61-.66l.25,.02c-.18-.15-.29-.19-.29-.4,.15,.22,.39,0,.6,.25,.63-.22-.32-.75,.48-.67-.57-.4-.47,.21-.57,.06-.24,.01-.42-.31-.31-.41,.06-.12,.89,.08,.98-.23-.01,.03,.03,.05,.02,.08,.2-.05-.14-.31,.18-.34-.35-.22,.09-.17-.38-.38v.32c-.06-.2-.57-.58-.19-.73,.09,.06,.19,.19,.24,.27,.17-.02-.04-.18,.14-.21,.47,.22-.03,.38,.27,.69,.24,0-.23-.45,.26-.16-.62-.39,.2-.26-.22-.67l.28,.13s-.14-.17-.11-.23l.33,.26c-.25-.29,.41-.19,.3-.41-.13,.32-.37-.08-.64-.03-.2-.57,.84,.1,.9-.4,.01,.07-.27,.14-.36-.01,.1-.06,.26-.11,.43-.09,.08-.31-.31-.09-.42-.3,.39,.07-.07-.21-.12-.39l.28,.14c.34-.24-.55-.39-.18-.57l.32,.32-.02-.2,.3,.2c-.15-.28-.06-.31,.11-.41-.22-.07-.49-.3-.42-.45,.22,0,.23,.2,.3-.02,.15,.14,.34,.31,.04,.26,.08,.06,.15,.14,.23,.2,.25,0,.18-.23,.22-.3-.03,.02-.06,.04-.11,.04l-.21-.5c.13,.02,.19,.1,.25,.18,0-.07-.1-.19-.07-.29,.21,.15,.44,.29,.47,.46l-.09-.41c.11,.04,.34,.03,.4,.11,.21-.06-.2-.61,.1-.69-.03-.04-.06-.08-.06-.14,.17-.14,.52-.11,.39-.52l.45,.16c.03-.22-.58-.2-.52-.56,.03-.28,.36,.17,.51,.19-.12-.23-.36-.69,.07-.61,.02,.11-.07,.11-.08,.18Zm1.53-1.9c0,.08,.08,.29-.07,.18-.21-.3-.06-.2,.07-.18Zm2.61-2.9c.02,.11-.05,.09-.17,.03,.03-.05,.08-.06,.17-.03Zm9.9-5.87v.02c-.14-.1-.09-.06,0-.02Zm.27,.09s0-.09-.01-.13c0,.08-.06,.1-.12,.09,.03,.08,.07,.13,.13,.05ZM2.8,44.94l.09-.02c.05,.13-.02,.08-.09,.02Z" style="fill:#7cb5e4;"/><path d="M12.82,35.74s-.08-.08-.11-.13c.01,.06,.05,.11,.11,.13Z" style="fill:#7cb5e4;"/><polygon points="8.06 41.24 8.06 41.25 8.1 41.29 8.06 41.24" style="fill:#7cb5e4;"/><path d="M20.1,32.78c-.06-.03-.1-.08-.13-.13,.02,.08,.06,.13,.13,.13Z" style="fill:#7cb5e4;"/><path d="M24.33,28.62l-.14,.11c.07-.03,.11,.04,.16,.08-.01-.07-.06-.17-.01-.19Z" style="fill:#7cb5e4;"/><path d="M25.93,30.37s.05,0,.06-.05l-.02-.14c-.09,.02-.14,.15-.04,.2Z" style="fill:#7cb5e4;"/><path d="M24.62,29.64c.05,.26,.13,.16,.23,.09,0,0-.01,0-.02,0-.02-.37-.12-.23-.21-.1Z" style="fill:#7cb5e4;"/><path d="M24.88,29.72s.06-.03,.1-.02c0-.15-.04-.03-.1,.02Z" style="fill:#7cb5e4;"/><path d="M23.4,29.13c.06,.06-.02-.34,.02-.24,0-.34-.28,.46-.02,.24Z" style="fill:#7cb5e4;"/><polygon points="24.84 30.49 24.75 30.17 24.73 30.44 24.84 30.49" style="fill:#7cb5e4;"/><path d="M23.97,30.38l.18,.06c-.01-.05,0-.09,.03-.12-.11,0-.23-.04-.21,.06Z" style="fill:#7cb5e4;"/><path d="M24.18,30.33c.06,0,.11-.02,.13-.07-.03,0-.09,.03-.13,.07Z" style="fill:#7cb5e4;"/><polygon points="24.62 30.62 24.56 30.56 24.44 30.56 24.62 30.62" style="fill:#7cb5e4;"/><path d="M22.14,30.65l-.16,.13c0,.11,.07,.17,.13,.11,.03-.09,.09-.14,.04-.24Z" style="fill:#7cb5e4;"/><path d="M22.86,31.43c-.06-.06-.08-.13-.13-.23l.07,.4,.06-.17Z" style="fill:#7cb5e4;"/><path d="M22.35,31.62c0,.11-.19,.37,.03,.3,0-.11,.16-.24-.03-.3Z" style="fill:#7cb5e4;"/><polygon points="19.53 31.78 19.58 31.76 19.39 31.12 19.53 31.78" style="fill:#7cb5e4;"/><path d="M17.75,34.04c.25,.08-.1-.4,.15-.28,0-.17-.2-.1-.2-.24-.06,.2-.16,.13,.05,.53Z" style="fill:#7cb5e4;"/><path d="M17.7,33.51s.02-.07,.03-.12c-.02,.05-.03,.09-.03,.12Z" style="fill:#7cb5e4;"/><polygon points=".17 53.41 0 53.52 .24 53.48 .17 53.41" style="fill:#7cb5e4;"/><path d="M.59,53.79l-.42-.06,.36,.16s-.03-.1,.06-.11Z" style="fill:#7cb5e4;"/><path d="M11.18,38.43l-.06-.08c-.09-.07-.11-.06-.17-.03l.23,.11Z" style="fill:#7cb5e4;"/><polygon points="9.74 39.4 9.76 39.38 9.44 39.16 9.74 39.4" style="fill:#7cb5e4;"/><path d="M9.2,40.8s.02-.14,.07-.18c-.02,.14-.46-.1-.07,.18Z" style="fill:#7cb5e4;"/></g></g></g></g></svg>