<?xml version="1.0" encoding="UTF-8"?><svg id="Layer_2" xmlns="http://www.w3.org/2000/svg" viewBox="0 0 314.94 78.08"><g id="Layer_1-2"><g><g><path d="M55.64,37.82c-1.41-1-3.45-1.5-6.12-1.5-2.94,0-5.23,.69-6.89,2.07-1.66,1.38-2.73,3.51-3.23,6.38l-.87,5.06c-.46,2.85,.03,5.06,1.48,6.62,1.45,1.57,3.67,2.35,6.67,2.35,1.83,0,3.42-.26,4.77-.78,1.35-.52,2.42-1.26,3.2-2.2,.79-.94,1.21-2.07,1.26-3.38,.03-.32-.12-.48-.44-.48h-3.96c-.29,0-.46,.18-.52,.52-.09,.7-.49,1.24-1.2,1.63-.71,.39-1.6,.59-2.68,.59-1.4,0-2.41-.34-3.05-1.02-.64-.68-.86-1.69-.65-3.03l.09-.74,6.06-.7c2.7-.32,4.74-1.04,6.12-2.16,1.38-1.12,2.07-2.78,2.07-4.99,0-1.83-.7-3.25-2.11-4.25Zm-3.94,6.97c-.58,.48-1.54,.82-2.88,1.02l-4.75,.61,.26-1.74c.23-1.42,.74-2.49,1.52-3.2,.79-.71,1.89-1.07,3.31-1.07,1.1,0,1.95,.2,2.53,.59,.58,.39,.87,.95,.87,1.68,0,.93-.29,1.63-.87,2.11Z" style="fill:#fff;"/><path d="M75.66,36.44c-.23-.09-.64-.13-1.22-.13-.76,0-1.56,.2-2.42,.59-.86,.39-1.68,.93-2.48,1.61-.64,.54-1.24,1.16-1.83,1.82,.05-.39,.09-.8,.11-1.26,.03-.65,.04-1.24,.04-1.76-.03-.32-.2-.48-.52-.48h-3.57c-.38,0-.57,.17-.57,.52-.03,.78-.08,1.57-.15,2.35-.07,.78-.18,1.61-.33,2.48l-2.44,15.56c-.06,.35,.07,.52,.39,.52h4.05c.17,0,.31-.05,.39-.15,.09-.1,.15-.23,.17-.37l2.06-13.06c.48-.49,.97-.95,1.47-1.32,.7-.52,1.4-.92,2.11-1.2,.71-.27,1.4-.41,2.07-.41,.32,0,.6,.01,.85,.04,.25,.03,.47,.07,.68,.13,.32,.09,.54-.06,.65-.44,.17-.7,.33-1.44,.48-2.22,.15-.79,.25-1.51,.31-2.18,.03-.17,.03-.31,0-.41-.03-.1-.13-.18-.31-.24Z" style="fill:#fff;"/><path d="M87.65,36.31c-2.99,0-5.33,.7-7.02,2.09-1.68,1.4-2.77,3.52-3.27,6.36l-.83,4.84c-.46,2.96,.02,5.24,1.46,6.82,1.44,1.58,3.73,2.37,6.86,2.37s5.47-.7,7.17-2.09c1.7-1.39,2.78-3.57,3.25-6.54l.74-4.71c.46-2.96-.06-5.23-1.57-6.8-1.51-1.57-3.78-2.35-6.8-2.35Zm3.31,9.54l-.61,3.84c-.26,1.68-.79,2.89-1.57,3.62-.79,.73-1.95,1.09-3.49,1.09s-2.64-.42-3.23-1.26c-.58-.84-.74-2.12-.48-3.84l.65-3.88c.29-1.68,.81-2.89,1.57-3.62,.76-.73,1.89-1.09,3.4-1.09s2.58,.41,3.2,1.24c.63,.83,.81,2.13,.55,3.9Z" style="fill:#fff;"/><path d="M112.14,29.73h-7.84c-.32,0-.51,.17-.57,.52l-4.31,27.5c-.06,.35,.09,.52,.44,.52h4.1c.29,0,.46-.17,.52-.52l1.52-9.46h3.57c2.53,0,4.7-.41,6.51-1.24s3.21-2.04,4.18-3.64c.97-1.6,1.46-3.53,1.46-5.8,0-2.56-.75-4.51-2.24-5.86-1.5-1.35-3.94-2.03-7.34-2.03Zm2.77,12.7c-1.12,.94-2.77,1.41-4.95,1.41h-3.27l1.52-9.67h3.44c1.66,0,2.89,.31,3.7,.92,.81,.61,1.22,1.6,1.22,2.96,0,1.98-.56,3.43-1.68,4.38Z" style="fill:#fff;"/><path d="M134.36,36.31c-3.05,0-5.36,.66-6.93,1.98-1.57,1.32-2.6,3.51-3.09,6.56l-.96,5.79c-.26,1.63-.27,3.05-.02,4.27,.25,1.22,.76,2.17,1.55,2.85,.78,.68,1.9,1.02,3.35,1.02,1.28,0,2.62-.32,4.03-.96,1.41-.64,2.77-1.57,4.07-2.79-.03,.47-.06,.93-.09,1.4-.03,.46-.03,.9,0,1.31,0,.35,.17,.52,.52,.52h3.4c.38,0,.57-.17,.57-.52,.03-.78,.09-1.59,.2-2.42,.1-.83,.21-1.66,.33-2.51l2.48-15.47c-1.71-.12-3.28-.32-4.71-.61-1.42-.29-2.99-.43-4.71-.43Zm2.13,15.16c-1.16,1.02-2.19,1.75-3.07,2.2-.89,.45-1.76,.68-2.63,.68-1.1,0-1.82-.38-2.14-1.13-.32-.76-.38-1.76-.17-3.01l.78-5.01c.26-1.57,.76-2.73,1.5-3.49s1.9-1.13,3.46-1.13c.61,0,1.28,.04,2.01,.13,.73,.09,1.36,.19,1.92,.31l-1.66,10.46Z" style="fill:#fff;"/><path d="M161.33,36.44c-.23-.09-.64-.13-1.22-.13-.76,0-1.56,.2-2.42,.59-.86,.39-1.68,.93-2.48,1.61-.64,.54-1.24,1.16-1.83,1.82,.05-.39,.09-.8,.11-1.26,.03-.65,.04-1.24,.04-1.76-.03-.32-.2-.48-.52-.48h-3.57c-.38,0-.57,.17-.57,.52-.03,.78-.08,1.57-.15,2.35-.07,.78-.18,1.61-.33,2.48l-2.44,15.56c-.06,.35,.07,.52,.39,.52h4.05c.17,0,.3-.05,.39-.15,.09-.1,.15-.23,.17-.37l2.06-13.06c.48-.49,.97-.95,1.47-1.32,.7-.52,1.4-.92,2.11-1.2,.71-.27,1.4-.41,2.07-.41,.32,0,.6,.01,.85,.04,.25,.03,.47,.07,.68,.13,.32,.09,.54-.06,.65-.44,.17-.7,.33-1.44,.48-2.22,.15-.79,.25-1.51,.31-2.18,.03-.17,.03-.31,0-.41-.03-.1-.13-.18-.31-.24Z" style="fill:#fff;"/><path d="M178.11,36.84h-5.84l.79-5.19c.09-.35-.04-.52-.39-.52h-3.23c-.29,0-.49,.16-.61,.48l-1.4,5.23h-3.31c-.32,0-.51,.16-.57,.48l-.52,3.31c-.06,.35,.09,.52,.44,.52h3.14l-1.61,10.2c-.41,2.5-.17,4.37,.7,5.6,.87,1.24,2.53,1.85,4.97,1.85,.84,0,1.62-.06,2.33-.17,.71-.12,1.36-.29,1.94-.52,.29-.15,.45-.35,.48-.61l.52-3.31c.09-.44-.07-.57-.48-.39-.49,.17-1.01,.32-1.55,.43-.54,.12-1.08,.18-1.63,.18-.99,0-1.66-.26-2-.79-.35-.52-.42-1.39-.22-2.61l1.57-9.85h5.88c.29,0,.48-.18,.57-.52l.52-3.31c.06-.32-.1-.48-.48-.48Z" style="fill:#fff;"/><path d="M187.09,36.84h-3.97c-.32,0-.51,.16-.57,.48l-3.23,20.44c-.06,.35,.07,.52,.39,.52h4.05c.29,0,.48-.17,.57-.52l3.23-20.44c.06-.32-.1-.48-.48-.48Z" style="fill:#fff;"/><path d="M206.46,37.25c-1.29-.62-2.88-.94-4.77-.94-3.11,0-5.48,.71-7.12,2.13-1.64,1.42-2.71,3.57-3.2,6.45l-.78,4.88c-.46,2.85,.02,5.06,1.46,6.65,1.44,1.58,3.73,2.37,6.86,2.37,2.76,0,4.97-.65,6.65-1.94,1.67-1.29,2.62-3.13,2.85-5.51,.06-.35-.1-.52-.48-.52h-3.79c-.32,0-.49,.17-.52,.52-.17,.93-.59,1.67-1.24,2.22-.65,.55-1.65,.83-2.99,.83-1.51,0-2.58-.39-3.2-1.18-.63-.78-.81-2-.54-3.66l.61-4.01c.29-1.68,.8-2.91,1.52-3.68,.73-.77,1.87-1.15,3.44-1.15,1.19,0,2.13,.25,2.81,.76,.68,.51,.95,1.27,.81,2.29-.06,.35,.09,.52,.44,.52h3.79c.29,0,.48-.17,.57-.52,.32-1.54,.2-2.85-.37-3.94-.57-1.09-1.5-1.95-2.79-2.57Z" style="fill:#fff;"/><path d="M220.12,36.84h-3.97c-.32,0-.51,.16-.57,.48l-3.23,20.44c-.06,.35,.07,.52,.39,.52h4.05c.29,0,.48-.17,.57-.52l3.23-20.44c.06-.32-.1-.48-.48-.48Z" style="fill:#fff;"/><path d="M237.94,36.31c-1.45,0-2.83,.33-4.14,.98-1.04,.52-2.17,1.27-3.39,2.24,0-.07,.01-.12,.01-.19,.01-.36,.02-.73,.02-1.09v-.94c-.03-.32-.2-.48-.52-.48h-3.57c-.38,0-.57,.19-.57,.57-.03,.67-.08,1.41-.15,2.22-.07,.81-.17,1.61-.28,2.4l-3.79,23.79c-.06,.35,.09,.52,.44,.52h4.05c.29,0,.46-.18,.52-.52l1.32-8.22c.59,.32,1.32,.58,2.19,.79,1.15,.28,2.27,.41,3.38,.41,2.41,0,4.34-.73,5.77-2.2,1.44-1.47,2.39-3.62,2.85-6.47l.96-5.93c.41-2.64,.18-4.62-.68-5.93-.86-1.31-2.33-1.96-4.42-1.96Zm-.04,8.67l-.7,4.66c-.26,1.66-.76,2.88-1.5,3.68-.74,.8-1.77,1.2-3.07,1.2-.76,0-1.58-.12-2.46-.37-.61-.17-1.14-.38-1.63-.61l1.65-10.29c.9-.71,1.73-1.28,2.47-1.67,1.03-.55,1.98-.83,2.85-.83,1.05,0,1.77,.34,2.18,1,.41,.67,.48,1.74,.22,3.22Z" style="fill:#fff;"/><path d="M262.17,36.75c-1.42-.29-2.99-.43-4.71-.43-3.05,0-5.36,.66-6.93,1.98-1.57,1.32-2.6,3.51-3.09,6.56l-.96,5.79c-.26,1.63-.27,3.05-.02,4.27,.25,1.22,.76,2.17,1.55,2.85,.78,.68,1.9,1.02,3.35,1.02,1.28,0,2.62-.32,4.03-.96,1.41-.64,2.77-1.57,4.07-2.79-.03,.47-.06,.93-.09,1.4-.03,.46-.03,.9,0,1.31,0,.35,.17,.52,.52,.52h3.4c.38,0,.57-.17,.57-.52,.03-.78,.09-1.59,.2-2.42,.1-.83,.21-1.66,.33-2.51l2.48-15.47c-1.71-.12-3.28-.32-4.71-.61Zm-2.57,14.73c-1.16,1.02-2.19,1.75-3.07,2.2-.89,.45-1.76,.68-2.63,.68-1.1,0-1.82-.38-2.14-1.13-.32-.76-.38-1.76-.17-3.01l.78-5.01c.26-1.57,.76-2.73,1.5-3.49,.74-.76,1.9-1.13,3.46-1.13,.61,0,1.28,.04,2.01,.13,.73,.09,1.36,.19,1.92,.31l-1.66,10.46Z" style="fill:#fff;"/><path d="M30.47,30.26c-.09-.35-.26-.52-.52-.52h-5.58c-.2,0-.39,.17-.57,.52l-13.55,27.5c-.06,.17-.07,.3-.02,.39s.15,.13,.33,.13h4.49c.26,0,.48-.17,.65-.52l7.89-17.04c.52-1.1,1.02-2.19,1.48-3.25,.46-1.06,.93-2.14,1.4-3.25h.09c.12,1.07,.25,2.17,.39,3.27,.15,1.1,.29,2.18,.44,3.23l1.7,11.47-8.11-5.81-1.83,3.94,2.6,1.86,8.41,6.02s0,0,0,0c.08,.05,.16,.08,.27,.08h4.49c.38,0,.54-.17,.48-.52l-4.92-27.5Z" style="fill:#fff;"/><circle cx="185.94" cy="31.52" r="2.97" style="fill:#fff;"/><circle cx="218.95" cy="31.52" r="2.97" style="fill:#fff;"/></g><path id="line" d="M75.1,71.89c.05-.13,.19-.22,.29-.18,.11,.04,.12,.13,.02,.22-.1,.08-.05,.19,.1,.25,.37,.14,.66-.12,.41-.36-.1-.1,.11-.07,.47,.06,.75,.28,1.15,.34,1.56,.26,.16-.03,.34,.03,.44,.16,.11,.14,.15,.12,.11-.07-.08-.39,.77-.62,.98-.26,.11,.19,.46,.24,1.21,.17,1.1-.11,1.58-.03,1.67,.28,.07,.23,.75,.24,.84,.01,.04-.1,0-.19-.12-.23-.1-.04-.11-.22-.02-.42,.12-.25,.21-.27,.32-.07,.09,.16,.11,.36,.05,.46-.26,.42,.27,.46,.67,.05l.43-.44,.19,.57c.11,.32,.23,.48,.27,.37s.23-.15,.41-.08c.52,.19,.71,.01,.5-.49-.23-.57-.03-.54,.24,.04,.22,.47,1.07,.84,1.69,.73,.23-.04,.31-.11,.2-.16-.12-.05-.21-.23-.22-.4,0-.21,.08-.24,.26-.09,.19,.17,.26,.14,.25-.11,0-.19,.11-.33,.27-.34,.18,0,.21,.14,.09,.39-.29,.61-.23,.91,.18,.85,.21-.03,.76,.02,1.22,.11,.46,.09,.97,.08,1.13-.02,.15-.09,.4-.09,.52,0,.11,.1,.32,.11,.44,.02,.15-.11,.23-.09,.27,.08,.03,.17,.23,.22,.63,.17,.42-.05,.61,0,.71,.21s.15,.23,.21,.06c.05-.12,.22-.17,.39-.11s.93,.16,1.68,.21c.75,.05,1.79,.19,2.3,.31,.53,.12,.95,.11,.96-.02,.02-.13,.37-.12,.89,.04,1.01,.31,2.16,.53,2.34,.45,.07-.03-.04-.12-.25-.2s-.46-.35-.56-.61c-.16-.4-.14-.47,.13-.47,.22,0,.25,.08,.1,.26-.17,.19-.15,.24,.08,.2,.18-.04,.23,0,.11,.08-.5,.39,1.98,1.11,2.69,.78,.31-.14,.33-.24,.15-.75-.15-.42-.24-.51-.32-.31-.08,.2-.13,.2-.18-.01-.04-.16-.13-.26-.21-.23-.08,.03-.45-.01-.81-.09s-.89-.19-1.16-.24c-.27-.04-.84-.14-1.24-.21s-1-.15-1.32-.18l-.58-.04,.4,.37c.25,.24,.28,.33,.08,.26-.17-.06-.37-.27-.44-.47-.09-.24-.22-.34-.4-.27-.15,.05-.7,0-1.26-.11s-1.21-.16-1.5-.09c-.28,.06-.66,.04-.83-.05-.62-.29-.83-.29-.77,0,.04,.21,0,.19-.16-.08-.16-.26-.26-.31-.42-.2-.12,.09-.29,.09-.4,0-.23-.2-.84-.04-1.13,.29-.16,.18-.18,.16-.1-.11,.08-.25,0-.35-.23-.35-.19,0-.5-.06-.71-.13s-.35-.04-.32,.07c.07,.34-.47,.36-.55,.01-.05-.21-.15-.28-.28-.19-.12,.08-.46,.07-.79-.02s-.72-.15-.9-.14c-.17,0-.47-.06-.63-.15-.41-.21-.72,.09-.57,.54,.09,.27,.05,.4-.17,.5-.22,.1-.27,.06-.18-.16,.28-.76-1.01-.92-1.51-.19-.27,.39-.34,.41-.5,.11-.11-.2-.11-.46,0-.61,.13-.18,.05-.31-.25-.42-.51-.19-.75,.19-.3,.47,.2,.13,.11,.16-.27,.1-.42-.07-.52-.14-.38-.3,.12-.13,.05-.25-.18-.31-.19-.05-.45,0-.55,.11-.13,.14-.36,.1-.74-.13-.45-.28-.54-.28-.49-.02,.05,.26,.02,.26-.16-.05-.19-.32-.28-.32-.62,.03-.21,.22-.54,.4-.71,.4-.25,0-.25-.04,0-.18,.27-.15,.2-.22-.44-.44-.42-.14-.79-.2-.82-.12s-.17,.04-.32-.09c-.18-.15-.25-.14-.22,.03,.06,.32-1.33,.23-1.84-.12-.2-.13-1.94-.34-3.9-.45-10.95-.66-25.07-.77-38.74-.32-2.52,.08-5.23,.14-6.05,.14-2.18-.02-6.57,.22-6.62,.37-.03,.07-.2,.09-.39,.03-.36-.1-5.66,.3-6.21,.47-.17,.05-.79,.12-1.39,.14-.6,.03-3.58,.36-6.66,.75C.71,72.22,.02,72.43,0,73.47c-.02,.99,.81,1.2,3.21,.82,1.13-.18,3.78-.51,5.91-.74,2.13-.23,3.83-.49,3.81-.6-.02-.1,.11-.08,.29,.04,.18,.13,.71,.18,1.18,.12,.47-.06,1.31-.14,1.87-.18,2-.13,2.9-.18,4.64-.31,5.08-.36,17.88-.79,27.24-.92,7.54-.11,11.95-.06,19.77,.2,4.56,.15,7.11,.15,7.17-.02Zm15.37,.32c.2,.14,.44,.19,.53,.12,.1-.08,.24-.1,.35-.06,.1,.04,.01,.15-.19,.25-.45,.22-.92,.08-1-.28-.04-.19,.05-.2,.31-.02Zm-2.93-.92c.1,.04,.29,.2,.4,.36,.11,.16,.12,.26,.02,.22s-.29-.2-.4-.36-.12-.26-.02-.22Zm-4.74,.17c.1,.03-.03,.11-.29,.19s-.49,.07-.52,0c-.06-.14,.55-.28,.81-.19Zm-2.22,.25c.61-.04,.79,.03,.56,.2-.1,.08-.37,.07-.59-.02-.39-.15-.39-.16,.03-.19Zm-.81-.73c.02,.12-.05,.22-.19,.25-.12,.02-.18-.09-.12-.24,.12-.34,.25-.34,.31-.01Zm-1.52,.08c.05,.02,.1,.12,.13,.26,.02,.13-.04,.2-.15,.16s-.17-.15-.13-.26c.04-.11,.1-.17,.15-.16Zm-1.81-.24c.11-.09,.26-.12,.37-.08s.11,.13,0,.22-.26,.12-.37,.08-.11-.13,0-.22Zm21.74,6.69c-.1,.26-1.3,.72-1.39,.53-.05-.1-.2-.14-.35-.09-.29,.1-1.49,.01-2.61-.19-.39-.07-1.48-.19-2.45-.26-.97-.08-2.45-.2-3.3-.28-.84-.08-1.73-.14-1.95-.14-.3,0-.34-.06-.18-.21,.13-.12,.04-.1-.2,.04s-.46,.18-.5,.08c-.04-.1-.2-.13-.34-.08-.15,.05-.86,.03-1.6-.05-.74-.08-1.57-.14-1.86-.14-.29,0-1.23-.06-2.08-.12-3.06-.23-5.74-.38-7.95-.46-1.24-.04-2.38-.1-2.52-.12-.13-.02-.4-.03-.58-.03-.76,.03-5.43-.1-5.89-.16-.28-.04-.61-.04-.74,0-.57,.16-2.67,.04-2.98-.18-.35-.25-.49-.9-.16-.78,.11,.04,.17-.01,.15-.14-.08-.38,4.58-.57,5-.21,.13,.11,.21,.12,.19,.01-.04-.22,7.97-.15,8.14,.07,.08,.1,.2,.11,.3,.04,.16-.12,5.46,.05,8.62,.29,.68,.05,1.9,.1,2.7,.12,.8,.01,1.65,.1,1.89,.19s.51,.09,.62,0c.11-.09,.29-.07,.42,.04,.13,.11,.26,.11,.3,0s.18-.11,.31,0c.13,.11,.3,.15,.38,.09,.08-.06,.68-.05,1.32,.04,.65,.09,1.56,.17,2.03,.19,1.84,.08,3.4,.3,3.56,.5,.11,.14,.14,.11,.1-.09-.04-.22,.01-.24,.21-.07,.15,.12,.29,.16,.32,.08s.36-.13,.73-.11c.38,.02,1.05,.18,1.51,.37,.74,.29,.82,.37,.67,.74-.09,.22-.08,.39,.02,.37,.11-.02,.16,.03,.12,.13Z" style="fill:#65a8df;"/><g><path d="M292.87,9.74c.26-.12,.41-.27,.32-.31-.09-.04,.19-.22,.61-.39,.42-.17,.83-.44,.89-.59,.07-.15,.48-.42,.89-.59,.42-.17,.66-.36,.53-.42-.14-.06-.36-.24-.53-.41-.33-.34-1.9,.11-1.85,.52,.02,.14-.21,.32-.49,.39-.59,.15-.95,.77-.56,.95,.18,.08,.1,.23-.25,.49-.58,.43-.27,.68,.43,.35Zm1.85-2.11c.36-.13,.38-.09,.09,.21-.21,.21-.41,.28-.46,.17-.05-.12,.12-.28,.37-.38Z" style="fill:#65a8df;"/><path d="M297.96,6.64c-.03,.07,.05,.16,.2,.23,.14,.07,.3,0,.37-.15,.07-.15-.02-.25-.2-.23-.19,.02-.34,.08-.37,.15Z" style="fill:#65a8df;"/><path d="M293.82,9.91c1.35-.84,2.52-1.74,2.34-1.82-.2-.08-2.33,1.21-2.9,1.77-.52,.51-.22,.54,.56,.05Z" style="fill:#65a8df;"/><path d="M281.1,10.17c1.15-.27,2.2-.63,2.09-.72-.12-.11-1.94,.3-2.48,.55-.49,.23-.29,.33,.39,.17Z" style="fill:#65a8df;"/><path d="M283.95,6.08c.17-.03,.3-.1,.32-.16s-.05-.14-.19-.19c-.13-.05-.27,.02-.32,.16-.05,.14,.03,.22,.19,.19Z" style="fill:#65a8df;"/><path d="M277.19,51.15c.03-.06,.08-.14,.19-.32,.07-.11,.22-.38,.22-.38,0,0,.13-.22,.2-.34,.14-.24,.22-.38,.27-.46,.18-.31,.24-.52,.31-.84-.24,.21-.39,.36-.58,.67-.05,.08-.14,.23-.28,.47-.07,.12-.2,.35-.2,.35,0,0-.16,.26-.22,.38-.11,.18-.15,.26-.19,.32-.18,.32-.24,.52-.31,.83,.24-.21,.4-.36,.58-.67Z" style="fill:#65a8df;"/><g><path d="M257.47,33.13c.98,0,1.92,.05,2.83,.13-.08-.58-.08-1.02-.03-1.16,.02-.05,.02-.1,.02-.15-.03-.43-.04-.7-.19-.82,0-.03,0-.05,0-.08,.01-.1,.03-.2,.06-.3,.02-.06,.02-.12,0-.19l-.07-.3s0,0,0-.01c.17-.1,.21-.29,.22-.46,0,0,0,0,0,0,.02-.35,.08-.77,.14-1.21,.04-.29,.08-.59,.11-.85,.13-.74,.3-1.36,.33-1.48,.02-.08,.02-.15,0-.22,.4-1.35,1-2.74,1.76-4.02,.89-1.53,2.05-3.06,3.55-4.69,.05-.06,.08-.12,.09-.19,.74-.75,1.1-1.06,1.51-1.36,.43-.35,.9-.69,1.98-1.48l.08-.06s.04-.02,.06-.04l.17-.13c.4-.3,.88-.66,1.41-.97,.16,0,.29-.08,.47-.16,.1,.03,.21,.02,.3-.04,.73-.44,1.16-.68,1.43-.82,.24-.13,.37-.2,.44-.27l.09-.07c.15-.11,.32-.23,1.01-.61l.41-.07s.07-.02,.11-.04l.27-.15c.22-.12,.38-.21,.69-.34,.04,0,.08,0,.12,0,.1-.03,.2-.05,.3-.08,.09,.06,.19,.1,.31,.06,1.15-.29,2.06-.58,2.87-.84,1.01-.32,1.8-.57,2.52-.63h.1c.18-.02,.35-.02,.53-.02,.04,0,.08,0,.12-.02,.13-.04,.28-.11,.4-.21,.04,0,.06,.02,.11,.02,.26,0,.44-.04,.38-.11-.05-.07,.24-.1,.64-.06,.4,.04,.84,0,.96-.1,.1-.08,.45-.12,.8-.1,.11,.96,.18,1.91,.12,2.67-.07,.91,.2,1.79,.42,1.97,.22,.18,.36,.45,.29,.6-.14,.31,1.36-.37,1.52-.69,.05-.11,.77-.63,1.63-1.18,.85-.55,1.5-1.06,1.46-1.16-.04-.1-.57,.13-1.22,.53-1.56,.97-1.64,.82-.12-.24,.97-.68,1.12-.87,.73-.89-.56-.03-.44-.7,.15-.77,.42-.05,.61-.47,.29-.62-.13-.06-.58,.19-1.02,.56-1.18,.98-1.84,1.11-1.98,.39-.06-.3-.22-.62-.34-.67-.13-.06-.13-.36,0-.7,.15-.38,.59-.66,1.26-.79,1.2-.22,.85-.53-.46-.39-.58,.06-.44-.03,.43-.28,1.22-.34,2-.9,1.14-.82-.21,.02-.05-.11,.35-.29,.84-.37,.98-.35,.55,.07-.45,.44,.04,.6,.83,.26,.38-.16,.95-.26,1.26-.22,.46,.06,.53,0,.33-.31-.34-.51,0-.55,.51-.05,.33,.34,.04,.47-1.92,.89-1.28,.28-2.15,.57-1.95,.66,.2,.09,.99,0,1.75-.21,1.63-.45,2.39-.34,3.31,.45,.5,.43,.79,.54,1.03,.39,.55-.35,.62-.67,.11-.54-.39,.1-.4,.01-.08-.45,.26-.37,.63-.53,1.04-.45,.84,.16,1.79-.26,1.41-.63-.14-.13-.18-.39-.1-.57,.15-.32-.99-1.27-1.76-1.45-1.23-.29-2.86-.38-2.97-.15-.07,.16-.17,.1-.26-.15-.15-.4-4.39-2.26-5.28-2.31-.24-.01-.9-.21-1.47-.44-1.1-.45-2.6-.61-2.75-.29-.2,.43,.52,1.52,1.01,1.55,.44,.03,.45,.08,.05,.28-.39,.19-.45,.38-.34,1.04,.07,.43,.17,.9,.22,1.01,0,0,.17,.69,.36,1.68-.24,0-.44,.03-.48,.15-.04,.12-.3,.17-.55,.11-.44-.1-.86,.11-.87,.36-.1,.02-.21,.04-.31,.06-.61,.13-1.25,.26-1.87,.38-.01-.02,0-.05-.03-.06-.09-.08-.21-.12-.34-.08l-.29,.08c-.09-.07-.21-.1-.32-.06l-.67,.18c-.15,.04-.23,.18-.25,.32-.48,.12-1.04,.28-1.64,.44l-.76,.21c-1.4,.37-3.11,.96-5.12,1.77-.22,.12-.7,.39-.85,.51-1.52,.74-2.97,1.59-4.32,2.53l-.2,.13c-.13,.08-.26,.17-.38,.26-.04,.03-.07,.07-.1,.11-1.1,.81-2.13,1.69-3.08,2.61t0,0c-.06,.02-.11,.05-.16,.09-.24,.24-.47,.51-.67,.76-.13,.04-.23,.14-.27,.18-.05,.05-.09,.11-.1,.18-.03,.05-.07,.12-.12,.18-.52,.59-1.01,1.19-1.43,1.78,0,0-.06,.08-.06,.08-.38,.53-.74,1.07-1.08,1.63-.01,.02-.07,.1-.08,.12l-.07,.14c-1.63,2.8-2.53,5.78-2.7,8.88-.06,1.15-.01,2.29,.14,3.39,.01,0,.02,0,.04,0Zm39.03-27.07c.68-.09,.78,.11,.24,.46-.36,.23-.54,.22-.57-.04-.03-.22,.11-.4,.33-.43Zm-7.66-3.66c.33,.2,.64,.25,.7,.13,.06-.13,.19-.09,.32,.1,.32,.48,1.67,.93,2.28,.77,.41-.11,.45-.09,.18,.09-.23,.16-.14,.31,.31,.52,.58,.27,.59,.33,.11,.64-.3,.2-.59,.25-.67,.13-.08-.12-.2-.09-.27,.06-.07,.15-.36,.26-.65,.23-.96-.08-2.31,.31-2.27,.67,.02,.19-.22-.18-.53-.82-.31-.64-.48-1.37-.38-1.6,.1-.23,.1-.56,0-.7-.31-.47,.22-.61,.86-.22Z" style="fill:#65a8df;"/><path d="M314.34,20.63c-.03-.09-.08-.16-.15-.2-.05-.09-.11-.23-.18-.39-.09-.19-.19-.41-.29-.63-.66-1.36-.85-1.35-1.04-1.33-.02,0-.04,0-.06,.01-.09-.16-.18-.32-.28-.48-.02-.05-.05-.1-.09-.14-.12-.12-.35-.43-.53-.68-.18-.24-.35-.47-.46-.6-.38-.42-.71-.76-1.03-1.08,.19-.27,.01-.44-.5-.89-.12-.13-.32-.31-.63-.57-.04-.02-.14-.1-.24-.18-.43-.31-.64-.45-.85-.27-.77-.51-1.57-1.04-2.56-1.51-.02-.03-.05-.06-.07-.08-.05-.04-.1-.07-.17-.09-.29-.07-.61-.21-.94-.37-.3-.14-.62-.28-.93-.37l-.13-.04c-.66-.19-1.17-.34-2.06-.44-.17,.01-.34,0-.52-.03-.11-.02-.22,0-.3,.08l-.27,.22c-.1,.08-.15,.21-.13,.34,.02,.13,.11,.24,.23,.29,.17,.07,.28,.13,.41,.19,0,0,0,0,0,0l.11,.05s.02,.01,.05,.02l.06,.03h0s.02,0,.03,.01c.29,.15,.48,.28,.66,.41l.1,.06c.46,.35,.94,.65,2.64,1.71,.06,.04,.13,.05,.19,.05,.25,.2,.47,.38,.6,.51,.69,.53,.96,.74,1.15,.73,.15,.12,.29,.22,.44,.33,.22,.15,.44,.31,.72,.55,0,.09,.03,.18,.09,.25l.22,.25c.85,.95,.94,1.05,1.15,1.15,0,0,.01,0,.02,.01-.03,.11,0,.24,.07,.33,.16,.2,.31,.41,.46,.62-.03,.1-.01,.21,.05,.31,.83,1.19,.99,1.63,1.4,2.94,.04,.12,.13,.2,.24,.23,0,0,0,0,0,.01-.11,.08-.16,.22-.13,.36,.16,.82,.33,2.03,.35,2.72,0,.06,0,.13,0,.19,0,.09,.03,.17,.09,.23,.02,.37,.02,.76,.01,1.18-.06,.06-.1,.14-.11,.23,0,.04,0,.07-.01,.1-.12,.05-.2,.16-.21,.3-.01,.13-.03,.25-.04,.35-.09,.72-.24,1.42-.4,2.03-.03,.07-.08,.17-.14,.29-.06,.14-.14,.29-.19,.4-.05,.04-.1,.09-.13,.16l-.25,.6c-.21,.5-.44,1.07-.71,1.65-.27,.57-.57,1.07-.87,1.55-.1,.01-.2,.05-.26,.14-.32,.47-.46,.68-.42,.86-.05,.09-.13,.2-.24,.36-.93,1.15-1.9,2.05-3.12,3.19l-.6,.58c-.21,.13-.43,.25-.65,.37l-.43,.25c-.35,.27-.59,.46-.51,.71,0,0,0,0,0,0-.07,0-.14,.02-.2,.06l-.13,.09s-.1-.09-.15-.11c-.11-.04-.23-.02-.33,.04-.15,.1-.3,.2-.46,.31-.17,.12-.34,.24-.51,.35-.11,.07-.23,.14-.36,.23-.14,.09-.17,.25-.13,.4-.15,.11-.29,.21-.46,.33-.05,.01-.11,.04-.19,.07-.18-.18-.44-.06-.9,.14-.09,.04-.16,.12-.2,.21-.13,.13-.71,.52-2.17,1.25l-.67,.34c-1.16,.58-1.64,.83-1.83,1.05h-.02c-.06,0-.13,0-.2,.02-.88,.3-1.2,.51-1.53,.74-.15,.1-.32,.22-.57,.35-.04,0-.07,.01-.11,.02l-.13,.05s0,0-.02,0l-.26-.05c-.07-.01-.14,0-.2,.02l-.24,.1c-.14,.06-.2,.19-.21,.33-.09-.03-.18-.03-.27,.01l-.53,.25s0,0,0,0l-1.51,.7c-.07-.01-.14,0-.2,.02l-1.94,.81c-.07,0-.16,0-.26,.05-.05,.02-.1,.05-.14,.1l-.04,.04c-.21,.12-.56,.31-.88,.48-.06-.02-.13-.03-.2-.02h0c-.81,.13-1.12,.29-1.64,.56-.07,.03-.14,.07-.21,.11,.38-.98,.63-1.95,.86-3.14,.11-.06,.18-.18,.2-.37,0-.02,.02-.14,.02-.16-.02-.54-.42-1.08-.9-1.24-.21-.08-.43-.12-.65-.11-.86-.17-1.8-.31-2.83-.41-.23-.07-.6-.18-.77-.25-.07-.11-.2-.18-.33-.17-.69,.04-1.6-.09-2.65-.24-.95-.13-2-.28-3.07-.33-.04-.04-.09-.07-.14-.09-.04-.02-.09-.02-.13-.02-.48,0-1.12-.03-2.22-.35-.04-.03-.09-.06-.14-.07-.06-.02-.12-.04-.18-.05l-.37,2.28c2.03,.45,4.13,.62,6.15,.77,.59,.04,1.18,.09,1.77,.14,.99,.09,1.99,.21,2.97,.38,0,.04,0,.2-.14,.74-.01,.05-.02,.08,0,.13,0,.08-.11,.5-.58,1.48-.22,.47-.5,.98-.77,1.46-.12,.21-.23,.42-.34,.62-.04,0-.09,.02-.12,.04-.06,.04-.11,.09-.15,.15-.02,.05-.05,.09-.12,.2l-.16,.25c-.08,.12-.17,.23-.25,.33l-.14,.17s-.06,.09-.1,.12l-.37,.14c-.06,.02-.12,.06-.16,.11l-.06,.07c-.1,.12-.11,.29-.03,.43,0,0,0,0,0,0-.17,.25-.37,.58-.44,.82-.07,.14-.13,.33-.03,.62,.1,.3,.37,.56,.7,.68l.32,.24s.07,.04,.11,.05l.46,.13c.08,0,.46,.06,.66,.05,.01,0,.02,0,.04,0,.04,0,.08-.02,.11-.04l.44-.23s.06-.04,.09-.07c.29-.3,.41-.46,.59-.71l.19-.25,.25-.15c.09-.02,.18-.05,.26-.09,.09,.07,.19,.1,.3,.08,.11-.02,.22-.06,.32-.1,.09-.04,.16-.1,.2-.18,.02,0,.05,0,.07,0,.12-.03,.23-.1,.48-.25l.13-.08,.44-.04c.1,0,.21-.07,.27-.15l.02-.02c.86-.34,1.72-.68,2.62-1.02l.87-.47c.41-.22,.81-.43,1.24-.66,.09,.04,.19,.06,.29,0,0,0,0,0,.01,0,.07-.03,.13-.05,.19-.07,.1,.04,.21,.05,.31,0l2.6-1.21c.19,.02,.44-.08,.92-.25,.18-.07,.38-.14,.59-.22,.12-.04,.2-.14,.23-.26,.25-.13,.72-.34,1.13-.53,.07,.03,.15,.03,.24,0,.9-.27,1.4-.59,1.89-.91,.23-.15,.45-.29,.72-.43,.08,.02,.17,0,.24-.04,.41-.24,1.15-.6,1.66-.83,.08,.02,.17,.02,.25-.03,.42-.21,.92-.47,1.46-.76l1.15-.65c.52-.31,1.06-.62,1.54-.95,.67-.43,1.4-.97,1.92-1.4,.14,.06,.3,.04,.41-.07,.25-.24,.46-.5,.69-.75,0,0,0,0,0,0,.08,.06,.19,.09,.28,.07,.08-.01,.16-.05,.22-.12,.42-.48,.74-.75,1.09-1.03l.34-.28s0-.01,.01-.02c.01-.01,.02-.02,.04-.03,0,0,0,0,.01,0,.5-.4,1.06-.91,1.87-1.88,.08-.1,.11-.23,.07-.35,.33-.29,.45-.42,.83-.84l.62-.68s.03-.03,.04-.04c.12-.14,.12-.34,.01-.47,0-.01,.01-.03,.02-.04,.17,.06,.36-.01,.45-.17,0,0,0-.01,.01-.02,.27-.51,.53-1.07,.81-1.73,.16-.07,.37-.25,.64-.63,.04-.05,.06-.11,.06-.17,.02-.05,.06-.12,.1-.2,.08-.17,.19-.39,.3-.62,.28-.6,.55-1.31,.65-1.61,.03-.09,.02-.17,0-.25,.12-.42,.17-.78,.22-1.12,.02,0,.05,.01,.07,0,.19-.03,.32-.22,.38-.32,.02-.04,.04-.08,.05-.12,.23-.96,.22-1.08,.18-1.26-.02-.07,.02-.33,.12-.85,0-.12-.07-.24-.17-.33,.05-.2,.09-.42,.11-.66,0-.03,0-.07,0-.1-.03-.21-.1-.55-.2-.97,.15-.05,.26-.19,.26-.35,0-.28,.01-.42,.02-.51,.1-.07,.16-.19,.15-.32-.08-1.18-.28-2.32-.6-3.39Z" style="fill:#65a8df;"/></g></g></g></g></svg>