<?xml version="1.0" encoding="UTF-8"?><svg id="Layer_2" xmlns="http://www.w3.org/2000/svg" viewBox="0 0 765.08 148.33"><g id="Layer_1-2"><g><path d="M597.41,26.77c-.11,.25-1.02,.39-2,.3-1.18-.1-1.99,.14-2.34,.7-.29,.46-.96,.73-1.44,.59-.67-.2-.58-.5,.34-1.14,1.62-1.14,2.1-1.26,4.07-1.06,.85,.08,1.49,.37,1.38,.62Z" style="fill:#65a8df;"/><path d="M586.59,28.31c-1.44-.33-1.39-.4,.79-1.12,1.29-.43,2.1-.49,1.82-.14-.34,.42-.21,.65,.38,.7,.53,.04,.41,.24-.29,.49-.62,.23-1.88,.26-2.7,.07Z" style="fill:#65a8df;"/><path d="M653.89,31.26c-5.25-.96-9.59-1.9-9.64-2.08-.14-.54-.34-.56,7.95,.78,14.84,2.39,40.8,8.89,54.08,13.54,7.97,2.79,15.8,6.04,15.6,6.46-.11,.23-3.56-.86-7.61-2.42-17.81-6.83-36.83-11.96-60.37-16.28Z" style="fill:#65a8df;"/><path d="M595,24.43c.49-.15,3.69-.1,7.07,.11s5.2,.5,4.01,.65c-2.54,.31-12.36-.37-11.08-.76Z" style="fill:#65a8df;"/><path d="M577.67,28.33c-.24-.15,.08-.42,.68-.58,.72-.19,.89-.09,.46,.28-.36,.31-.89,.45-1.14,.31Z" style="fill:#65a8df;"/><path d="M581.82,26.6l-1.57,.12c-.88,.07-1.76,.19-2.01,.27-.26,.09-.51-.12-.61-.51-.24-.89,.38-.98,2.46-.38l1.73,.5Z" style="fill:#65a8df;"/><path d="M599.25,27.19c.8,.12,1,.33,.49,.52-.58,.22-.58,.47,0,.82,.99,.6,4.18,.06,3.53-.59-.26-.26-.13-.6,.28-.74,.43-.14,0-.44-.95-.69-.96-.24-2.37-.23-3.2,.02-1.36,.42-1.37,.47-.15,.65Zm1.82,.83c-.1-.38,.09-.74,.44-.86,.35-.12,.54,.13,.44,.57-.11,.46-.29,.81-.45,.86-.16,.05-.33-.18-.44-.57Z" style="fill:#65a8df;"/><path d="M582.4,26.34c-.32-.32-.46-.54-.34-.53,.11,0,1.43,.07,2.98,.16,1.56,.08,2.72,.3,2.63,.49-.25,.52-4.74,.42-5.27-.12Z" style="fill:#65a8df;"/><path d="M578.9,141.07c.28,.29,.12,.68-.35,.83-.47,.16-1.13,.04-1.41-.25-.28-.29-.11-.68,.36-.83,.47-.15,1.13-.04,1.41,.25Z" style="fill:#65a8df;"/><path d="M579.76,24.61c-.6-.34,1.95-.84,3.47-.68,.79,.09,1.49,.31,1.54,.48,.09,.32-4.47,.5-5,.2Z" style="fill:#65a8df;"/><path d="M586.3,142.2c-.71,.23-4.97-.4-5.06-.75-.06-.24,.08-.41,.36-.44,.26-.03,1.09-.11,1.84-.2,1.24-.13,3.77,1.09,2.86,1.39Z" style="fill:#65a8df;"/><path d="M583.02,27.49c.89-.01,1.38,.23,1.11,.56-.27,.33-1.23,.41-2.19,.18-1.84-.44-1.46-.69,1.08-.74Z" style="fill:#65a8df;"/><path d="M616.76,29.27c.1,.39-.06,.74-.41,.85-.35,.12-.66-.07-.76-.46-.1-.39,.06-.73,.41-.85,.35-.12,.66,.07,.76,.46Z" style="fill:#65a8df;"/><path d="M644.19,32.3c1.45,.15,2.96,1.21,2.12,1.49-.27,.09-1.39-.16-2.58-.58-2.18-.75-1.97-1.17,.46-.91Z" style="fill:#65a8df;"/><path d="M643.73,138.22c4.31-.4,7.59-.46,7.32-.13-.27,.33-2.42,.77-4.85,1-2.44,.23-4.92,.48-5.61,.57-.68,.09-1.25,.12-1.26,.06-.01-.05-1.24,.15-2.75,.47-3.03,.63-5.09-.03-2.38-.77,.95-.26,5.23-.79,9.54-1.19Z" style="fill:#65a8df;"/><path d="M629.6,140.43c-3.21,.68-8.55,1.22-9.97,1-1.26-.19-1.71-.17-4.44,.16-1.18,.14-2.48,.08-2.95-.14-.44-.21-.97-.13-1.11,.15-.14,.29-.75,.32-1.26,.06-.52-.26-1.09-.27-1.19-.03-.11,.25-3.21,.44-6.87,.41-3.66-.02-8.45,.06-10.61,.18-2.14,.13-4.01-.04-4.09-.36-.22-.82,1.59-1.25,3.97-.94,1.17,.15,5.76,.12,10.25-.08,4.49-.2,8.27-.15,8.44,.1,.17,.24,.66,.18,1.02-.12,.37-.31,.98-.32,1.27-.03,.32,.32,.75,.33,1,.02,.43-.54,13.22-1.12,13.9-.63,.22,.16,.92,.08,1.56-.19,.63-.27,1.75-.41,2.47-.32,.85,.11,.36,.37-1.4,.75Z" style="fill:#65a8df;"/><path d="M627.97,30.05c-.78-.06-1.39-.37-1.41-.73-.02-.34-.51-.71-1.04-.8-.55-.09-1.62-.32-2.37-.49-1.78-.42-3.12-.06-2.4,.64,.3,.3,.07,.69-.52,.88-.88,.29-.88,.41-.01,.68,.63,.2,1.21,0,1.46-.52,.58-1.19,1.3-1.21,1.22-.05-.04,.7,.91,1.07,2.98,1.16,2.98,.13,4.88-.57,2.1-.78Zm-2.55-.07c-.71,.23-1.41,.13-1.5-.22-.21-.79,.44-1,1.77-.56,.84,.27,.79,.43-.27,.78Z" style="fill:#65a8df;"/><path d="M629.66,29.65c-.42-.12-.72-.32-.77-.49-.05-.18,.16-.37,.51-.49,.34-.11,.67,.1,.77,.5,.1,.39-.11,.6-.51,.49Z" style="fill:#65a8df;"/><path d="M488.67,130.17c.1,.37,.48,.48,.87,.25,.37-.22,.7,.09,.72,.66,.02,.6,.26,1.77,.55,2.68,.38,1.16,.31,1.41-.24,.9-.51-.48-.83-.43-.96,.14-.11,.47,.54,.97,1.48,1.12,.94,.15,1.61,.56,1.52,.92-.08,.36,.19,.37,.61,.01,.48-.4,.95-.24,1.27,.44,.47,.99,.57,.95,1.25-.48,.63-1.33,1-1.52,2.54-1.27,1,.16,1.82,.18,1.83,.04,.02-.14,.66,.07,1.4,.46,.76,.4,1.94,.67,2.62,.6,1.17-.12,1.17-.04,.09,1.18-.64,.73-1.07,.95-.96,.49,.11-.45-1.07-1.03-2.68-1.29-1.61-.27-2.9-.17-2.92,.21-.02,.4-.35,.6-.77,.47-.44-.14-.49,.02-.12,.4,.32,.32,.79,.41,.97,.18,.2-.24,1.54,.14,2.94,.84,2.5,1.25,4.33,.78,4.94-1.27,.14-.49,.29,.01,.34,1.14,.08,1.83,.18,1.93,1.24,1.16,.86-.63,1.22-.57,1.44,.24,.16,.59,.59,.84,.95,.55,.36-.3,.44-1.04,.17-1.66-.39-.9-.18-1.14,1.09-1.2,2.81-.13,2.09-1.54-.79-1.54-2.37,0-4.92-1.02-4.51-1.81,.07-.13,3.26,.35,7.04,1.08,3.78,.72,7,1.13,7.12,.9,.29-.6-2.36-1.67-3.37-1.37-.42,.13-2.72-.26-5.06-.85-2.33-.59-4.38-.89-4.49-.66-.11,.23-.67,.08-1.2-.32-.52-.39-1.53-.57-2.11-.37-.59,.19-1.2,.06-1.29-.29-.23-.85-6.85-2.02-7.04-1.24-.14,.58,2.23,.95,3.13,.48,.27-.14,.52,.03,.62,.42,.09,.36,.47,.56,.82,.44,.82-.27,2.81,.93,2.52,1.53-.14,.29-1.31,.24-2.68-.11-1.37-.35-2.77-.34-3.19,.02-.51,.43-.74,.28-.69-.45,.03-.58-.21-1-.53-.9-.32,.11-.59-.45-.58-1.24s-.26-1.34-.58-1.24c-.31,.1-.53,.75-.47,1.37,.11,1.05-.03,1.08-1.3,.29q-1.42-.89-.46-1.74c.88-.78,.87-.83-.08-.54-.59,.18-1.11,.03-1.21-.35-.09-.35-.59-.52-1.06-.37-.47,.16-.8,.6-.71,.95Zm14.29,4.92c-.26-.99,.72-1.68,1.62-1.14,.67,.4,.29,1.59-.59,1.88-.41,.13-.89-.21-1.03-.73Zm-8.55-1.1c.13-.04,.51,.33,.82,.8,.31,.47,.32,.96,.03,1.06-.3,.1-.68-.27-.82-.8-.14-.53-.15-1.02-.03-1.06Zm-2.6,.82c-.1-.37,.07-.7,.42-.82,.34-.11,.7,.23,.86,.82s-.02,.93-.42,.82c-.42-.12-.76-.45-.86-.82Z" style="fill:#65a8df;"/><path d="M634.06,29.34c.46-.15,1.53-.02,2.25,.28,1.79,.75,.85,1.05-1.41,.46-.96-.25-1.33-.58-.84-.74Z" style="fill:#65a8df;"/><path d="M635.92,31.54c.1,.39-.11,.61-.51,.49-.42-.12-.73-.32-.77-.49-.05-.18,.16-.37,.51-.49,.34-.11,.67,.1,.77,.49Z" style="fill:#65a8df;"/><path d="M624.41,26.74c-.22-.81-.16-.83,1.18-.38,.9,.31,.91,.41,.02,.7-.59,.19-1.1,.06-1.2-.32Z" style="fill:#65a8df;"/><path d="M607.41,29.48c-.9,.27-1.91-.42-2.31-1.57-.4-1.16,.85-1.93,1.72-1.07,.28,.28,.22,.64-.13,.76-.5,.16-.42,.42,.29,.98,.52,.4,.72,.83,.43,.91Z" style="fill:#65a8df;"/><path d="M613.95,25.91c-.92-.32-.94-.4-.17-.66,.47-.16,1.38-.12,1.94,.07,.92,.32,.94,.4,.17,.66-.47,.16-1.38,.12-1.94-.07Z" style="fill:#65a8df;"/><path d="M609.48,25.96c-.35,.12-.66-.07-.76-.46-.1-.39,.06-.74,.41-.85,.35-.12,.66,.07,.76,.46,.1,.39-.06,.73-.41,.85Z" style="fill:#65a8df;"/><path d="M617.98,29.27c-.34,.42-.49,.38-.38-.1,.12-.47-.92-.93-2.43-1.09-1.45-.15-2.67-.42-2.72-.6-.05-.2-.02-.32,.08-.31,.09,0,1.08,.08,2.25,.16,2.74,.19,3.99,.95,3.2,1.93Z" style="fill:#65a8df;"/><path d="M610.91,29.02c-.61-.13-1.28,.04-1.47,.38-.19,.33-.32,.04-.29-.62,.03-.65-.31-1.25-.72-1.26-.45-.02-.69-.21-.57-.46,.11-.24,.99-.37,1.97-.29,1.05,.08,1.85,.61,1.98,1.31,.16,.88-.07,1.12-.9,.94Z" style="fill:#65a8df;"/><path d="M622.3,26.01c.32-.11,.74,.04,1.06,.37,.31,.32,.13,.5-.46,.45-1.12-.11-1.43-.54-.6-.81Z" style="fill:#65a8df;"/><path d="M572.28,26.82c-.87-.13-1.02-.3-.45-.49,.49-.16,1.48-.2,2.22-.09,.87,.13,1.02,.3,.45,.49-.48,.16-1.48,.2-2.22,.09Z" style="fill:#65a8df;"/><path d="M619.49,26.4c-.81,.1-1.55,.06-1.59-.08-.13-.5,2.2-1.01,2.63-.58,.25,.26-.23,.57-1.04,.67Z" style="fill:#65a8df;"/><path d="M597.05,28.54c-1.22,.46-3.34,.06-3.03-.56,.12-.23,1.07-.3,2.2-.14,1.53,.21,1.72,.37,.83,.7Z" style="fill:#65a8df;"/><path d="M428.55,92.89c-.17,.7-.05,.77,.38,.23,.47-.58,.61-.49,.54,.39-.1,1.46,.94,3.19,1.5,2.49,.21-.25,.4,.45,.42,1.51,.04,2.06,1.75,5.28,2.64,4.98,.28-.09,.69,.42,.86,1.07,.45,1.71,1.51,3.18,1.92,2.67,.19-.23,.53,.16,.77,.87,.23,.7,1.97,2.71,3.79,4.39,3.01,2.79,3.43,2.99,4.15,1.91,.46-.68,.54-1.46,.19-1.81-.37-.37-.26-.74,.27-.91,.59-.19,.86,.11,.82,.91-.05,.87,.11,.99,.56,.42,.46-.57,.61-.45,.56,.42-.03,.65,.18,1.12,.46,1.02,.3-.1,.5,.34,.45,.99-.06,.96,.1,.87,.9-.47,.75-1.27,.76-1.62,.04-1.55-.54,.06-.9-.38-.85-1.04,.05-.66-.19-1.24-.56-1.39-.35-.14-1.13-.73-1.73-1.32-.59-.59-2.72-2.71-4.7-4.7-2.84-2.85-3.74-3.42-4.2-2.68-.31,.5-.29,1.42,.04,1.95,.41,.67,.07,.62-1.03-.16-.97-.68-1.65-1.67-1.66-2.38,0-.64-.52-1.47-1.1-1.75-1.32-.65-1.72-1.93-1.05-3.4,.28-.61,.34-2.08,.14-3.3-.2-1.22-.65-2.11-1.01-1.99-.35,.12-.56,.53-.46,.9,.1,.39-.12,.6-.51,.49-.42-.12-.63,.05-.53,.42,.1,.36,.59,.66,1.18,.72,.59,.05,.92,.45,.8,.95-.14,.56-.83,.38-1.99-.52-1.35-1.05-1.83-1.14-2.02-.37Zm12.52,17.04c-.08-.31,.18-1.49,.58-2.62l.73-2.06,.63,2.37c.35,1.31,.41,2.63,.14,2.95-.27,.33-.66-.07-.88-.92-.33-1.25-.46-1.3-.73-.33-.18,.63-.4,.92-.48,.62Zm-.53-5.72c-.59-.05-1.04-.2-1.08-.35-.13-.5,1.08-.57,1.56-.09,.31,.31,.11,.5-.48,.44Zm-1.17,3.17c.13-.27,.38,.09,.52,.76,.17,.8,.08,.99-.25,.51-.28-.41-.41-.99-.27-1.27Z" style="fill:#65a8df;"/><path d="M531.68,3.53c-15.93,3.13-20.95,4.4-33.59,8.47-6.43,2.07-11.09,3.3-11.18,2.96-.19-.7,19.85-7.2,29.16-9.47,9.68-2.35,17.88-3.75,18.07-3.06,.09,.33-1,.82-2.46,1.1Z" style="fill:#65a8df;"/><path d="M536.03,2.34c-.72-.19-.39-.5,1.08-1.01,1.17-.41,2.26-.64,2.45-.52,.19,.12,1.19,0,2.27-.25,1.08-.26,1.98-.26,2.05,0,.17,.64-6.47,2.14-7.85,1.78Z" style="fill:#65a8df;"/><path d="M473.97,21.66c-.7,.03-1.29-.03-1.32-.14-.03-.11,.44-.52,1.04-.91,.65-.43,1.18-.37,1.32,.14,.14,.51-.28,.88-1.04,.92Z" style="fill:#65a8df;"/><path d="M550.07,.98c-.69-.02-2.1,.04-3.04,.13-1.5,.15-3.54-.65-2.14-.84,.26-.04,1.21-.15,2.01-.25,.81-.1,2.21,.1,2.99,.41,1.43,.57,1.43,.59,.18,.55Z" style="fill:#65a8df;"/><path d="M470.04,23.39c.02-.51,.36-1.2,.73-1.49,.41-.33,.69-.15,.69,.42,0,.5-.35,1.22-.73,1.49-.43,.31-.71,.14-.69-.42Z" style="fill:#65a8df;"/><path d="M434.51,95.85c.7-1.15,.77-1.08,.94,1.01,.15,1.81,.37,2.2,1.13,1.95,.59-.19,.91,.13,.87,.86-.04,.66-.04,1.28,0,1.43,.04,.14-.22,.36-.58,.48-.36,.12-.62-.19-.6-.69,.03-.52-.46-1.28-1.14-1.77-.95-.69-1.02-.91-.36-1.13,.65-.21,.63-.34-.09-.58-.7-.23-.73-.6-.16-1.56Z" style="fill:#65a8df;"/><path d="M554.05,25.63c-2.05-.21,.08-.65,3.64-.74l3.18-.08-2.75,.48c-1.53,.27-3.34,.42-4.07,.35Z" style="fill:#65a8df;"/><path d="M483.6,17.2c-.81,.35-2.3,1.1-3.41,1.73-1.11,.63-2.67,1.05-3.55,.96-1.53-.15-1.52-.18,.15-.87,4.32-1.79,6.47-2.77,7.88-3.59,.83-.48,1.57-.57,1.67-.21,.17,.65-.1,.85-2.74,1.98Z" style="fill:#65a8df;"/><path d="M458.3,35.92c.69-.23,.76-.72,.25-1.83-.37-.81-.57-1.98-.44-2.5,.14-.55,.06-1.16-.18-1.41-.53-.53-2.67,1.31-2.71,2.32-.02,.49,.38,.73,.91,.56,1.45-.48,1.37,.81-.09,1.34-2.33,.85-3.27,1.41-3.15,1.87,.07,.25-.29,.6-.76,.75-1.2,.4-.48-1.1,.87-1.8,1.35-.7,1.15-1.76-.29-1.58-.62,.08-1.04,.44-.93,.83,.1,.39-.4,.88-1.17,1.14-2,.66-6.69,5.75-5.97,6.47,.97,.97,1.48,2.87,.71,2.64-.38-.12-.47,.14-.21,.55,.27,.42,.95,.69,1.51,.61,.62-.1,.81-.45,.49-.91-.64-.93,.21-2.15,.98-1.39,.77,.77,1.46,.45,2.17-1,.35-.72,1.32-1.65,2.22-2.13,.9-.48,1.72-.92,1.88-1.01,.15-.09-.22-.36-.8-.59-.86-.34-.79-.45,.34-.54,.75-.06,1.34-.39,1.25-.7-.09-.34,.23-.72,.76-.89,.53-.18,.84,.02,.73,.47-.1,.44,.08,.69,.44,.57,.35-.12,.54-.49,.44-.86-.1-.37,.24-.79,.77-.97Zm-10.77,4.27c.1,.39-.06,.74-.41,.85-.35,.12-.66-.07-.76-.46-.1-.39,.06-.73,.41-.85,.35-.12,.66,.07,.76,.46Zm2.09-1.76c.16,.59-.04,1.09-.42,1.07-.39-.03-.79-.33-.88-.67-.09-.34,.1-.83,.42-1.07,.31-.24,.73,.08,.88,.67Z" style="fill:#65a8df;"/><path d="M426.56,85.34c.49,2.41,1.05,3.61,1.98,4.27,.69,.49,.9,.82,.44,.71-.48-.12-.78,.09-.68,.47,.1,.37,.89,.46,1.71,.18,1.12-.37,1.37-.74,.95-1.38-.31-.47-.31-.97,0-1.07,.4-.13,.29-.52-.36-1.24-.55-.61-.75-1.21-.48-1.45,.26-.23,.15-1.87-.26-3.74-.41-1.86-.57-3.76-.37-4.3,.21-.57,.11-1.21-.21-1.54-.32-.32-.3-.65,.05-.77,.35-.12,.54-.49,.44-.86-.09-.35,.22-1.47,.67-2.4,.54-1.11,.6-2.17,.16-2.91-.5-.84-.43-1.25,.25-1.48,1.35-.45,3.96-5.58,3.57-7.04-.17-.66,0-1.15,.36-1.05,.38,.11,.6-.13,.5-.52-.1-.39,.12-.63,.5-.52,.42,.12,.62-.06,.52-.46-.1-.39-.45-.74-.87-.86-.38-.11-.81-.63-.95-1.15-.14-.53,.01-1.04,.34-1.15,.31-.1,.71,.27,.85,.79,.14,.53,.55,.89,.88,.78,.32-.11,.52,.22,.41,.69-.13,.54-.01,.65,.29,.26,.28-.35,.48-1.26,.45-2.04-.03-.78-.23-1.19-.44-.93-.21,.27-.28-.34-.14-1.38,.16-1.27,.38-1.57,.68-.94,.24,.52,1.08,.71,1.91,.44,1.53-.51,3.01-2.64,2.17-3.15-.24-.15-.13-.39,.22-.5,.35-.12,.76,.09,.85,.43,.09,.35,.55-.11,.96-.96,.72-1.47,.69-3.66-.05-5.41-.15-.35-.46,.22-.71,1.31-.41,1.78-.45,1.8-.49,.34-.02-.92-.3-1.51-.66-1.39-.35,.12-.54,.49-.44,.86,.1,.39-.02,.67-.32,.7-1.19,.11-2.13,1.74-1.52,2.62,.56,.81,.48,.89-.49,.45-.99-.46-1.39-.07-2.64,2.48-.83,1.7-1.73,3.11-2.06,3.22-1.12,.37-3.68,5.65-3.35,6.9,.17,.66,.07,1.48-.24,1.86-.34,.42-.47,.33-.34-.21,.11-.47-.08-.79-.41-.69-.33,.11-.43,.89-.23,1.68,.28,1.05,.17,1.27-.37,.77-.57-.53-.82-.48-.98,.18-.12,.5,.39,1.3,1.16,1.83,1.26,.87,1.29,.97,.4,1.26-.53,.18-.9,.7-.81,1.16,.11,.61,.02,.65-.33,.15-.72-1-2.16,2.28-1.72,3.92,.19,.72,.04,1.34-.34,1.37-.97,.07-1.24,7.37-.42,11.39Zm14.22-39.35c.3-.1,.68,.27,.82,.8,.14,.53,.15,1.02,.03,1.06-.13,.04-.51-.33-.82-.8s-.32-.96-.03-1.06Zm-12.78,38.8c-.04-.14,.34-.4,.81-.55,.47-.16,.96,0,1.05,.33,.09,.33-.29,.59-.81,.56-.52-.04-1.01-.19-1.05-.33Z" style="fill:#65a8df;"/><path d="M459.46,29.82c-.35,.12-.54-.13-.44-.57,.11-.46,.29-.81,.44-.86,.16-.05,.34,.18,.44,.57,.1,.38-.09,.75-.44,.86Z" style="fill:#65a8df;"/><path d="M459.65,34.5c-.11-.43-.4-1.12-.67-1.6-.37-.66,.58-2.28,.98-1.68,.72,1.05,1.02,3.09,.51,3.51-.37,.31-.71,.21-.83-.23Z" style="fill:#65a8df;"/><path d="M467.01,120.9c.1,.39-.06,.73-.41,.85-.35,.12-.66-.07-.76-.46-.1-.39,.06-.74,.41-.85,.35-.12,.66,.07,.76,.46Z" style="fill:#65a8df;"/><path d="M465.17,26.36c-.81,.34-1.82,1.16-2.19,1.76-.58,.94-.66,.94-.46-.03,.19-.92,.12-.93-.34-.07-.43,.8-.36,1.22,.26,1.59,.94,.57,2.16-.57,1.41-1.33-.27-.27-.07-.62,.46-.79,.66-.22,.94,.12,.94,1.12,0,1.07,.2,1.26,.8,.74,.52-.45,.9-.35,1.07,.29,.18,.69-.15,1-1.1,1.04-.95,.04-1.18,.24-.75,.68,.43,.43,0,.82-1.42,1.29-1.53,.51-2.19,.37-2.67-.55-.35-.67-.44-1.48-.19-1.8,.26-.33,.22-.93-.08-1.4-.35-.54-.07-1.1,.82-1.63,.72-.43,1.99-1.18,2.71-1.61,.72-.43,1.56-.6,1.79-.37,.23,.23-.26,.72-1.06,1.06Z" style="fill:#65a8df;"/><path d="M468.54,24.24c-.47,.4-.73,.37-.62-.08,.17-.7,1.22-1.38,1.35-.88,.04,.15-.27,.55-.74,.96Z" style="fill:#65a8df;"/><path d="M541.76,26.36c1.86-.23,3.68-.28,4.01-.09,.5,.28-6.18,1.31-9.41,1.45-1.96,.08,2.12-.94,5.4-1.36Z" style="fill:#65a8df;"/><path d="M555.43,29.53c-.35,.12-.69-.08-.79-.45-.1-.39-.07-.69,.09-.74,.16-.05,.48,.13,.79,.45,.3,.31,.26,.63-.09,.74Z" style="fill:#65a8df;"/><path d="M551.11,139.93c1.36,.61,1.35,.64-.17,.69-1.97,.06-3.38-.63-2.13-1.04,.5-.16,1.5-.01,2.3,.35Z" style="fill:#65a8df;"/><path d="M562.41,140.81c.44,.75,.34,.81-.61,.35-.63-.3-2.34-.39-3.83-.2-1.48,.2-2.47,.11-2.2-.2,.27-.3,1.79-.62,3.3-.7,1.52-.08,3.05,.27,3.33,.76Z" style="fill:#65a8df;"/><path d="M569.84,26.55c.26-.54-.59-.54-9.47,0-14.49,.87-29.38,2.93-41.05,5.67-4.34,1.02-8.91,2.08-10.25,2.39-1.33,.3-2.64,.57-2.91,.61-.3,.03-.29,.27,.03,.6,.29,.3,2.38-.07,4.62-.81,3.24-1.07,4.14-1.15,4.35-.37,.2,.75,.93,.74,3.03-.04,2.68-.99,2.7-1.02,.59-.8-2.05,.21-2.01,.16,.74-.82,1.64-.58,4.15-1.19,5.71-1.39l2.79-.35-2.31,.94c-2.12,.86-2,.89,1.38,.37,2.03-.32,6.02-.83,8.88-1.15,2.86-.31,6.04-1.06,7.08-1.65,2.16-1.24,6.15-1.91,6.37-1.08,.09,.33-.74,.7-1.86,.83-1.12,.13-1.84,.35-1.63,.5,.22,.15,1.82,.09,3.61-.12,2.61-.31,3.24-.59,3.3-1.41,.06-.79,.39-.95,1.41-.72,.75,.18,1.92,.13,2.69-.1,1.24-.38,1.27-.33,.35,.49-.93,.83-.92,.91,.16,.98,.65,.04,1.73-.12,2.43-.37,1.23-.44,1.23-.46-.07-.64-2.31-.32-.25-.71,4.88-.92,2.72-.11,5.03-.39,5.14-.63Zm-38.57,4.28c-.54,.36-1.43,.66-2.06,.68-.6,.02-.17-.27,.95-.63,1.12-.37,1.63-.39,1.11-.05Zm6.69-.71c-1,.35-2.58,.64-3.66,.67-1.71,.05-1.76,.01-.43-.4,.8-.25,2.48-.55,3.66-.67,2.12-.21,2.13-.2,.42,.4Zm4.73-.88c-.36,.32-1.01,.53-1.47,.49-.46-.05-.18-.3,.65-.57,.82-.27,1.19-.23,.82,.09Zm9.35-.95c-.36,.32-1.01,.53-1.47,.49-.46-.05-.18-.3,.65-.57,.82-.27,1.19-.23,.82,.09Z" style="fill:#65a8df;"/><path d="M565.38,140.54c.65-.21,1.81-.13,2.58,.18,1.28,.52,1.21,.58-.76,.62-2.61,.06-3.39-.29-1.81-.81Z" style="fill:#65a8df;"/><path d="M539.39,138.54c1.48,.03,2.8,.44,2.93,.91,.22,.85,.16,.84-9.44-.62-2.6-.4-5.38-.79-6.28-.89-.86-.1-1.4-.45-1.16-.76,.24-.31,.94-.45,1.49-.31,2.31,.6,9.97,1.63,12.48,1.68Z" style="fill:#65a8df;"/><path d="M565.14,27.75c.65-.21,1.29-.09,1.38,.26,.1,.36-.21,.78-.68,.94-.47,.16-1.09,.04-1.38-.26-.28-.29,.03-.73,.68-.94Z" style="fill:#65a8df;"/><path d="M567.87,28.28c-.1-.39-.07-.69,.09-.74,.16-.05,.48,.13,.79,.45,.3,.31,.26,.63-.09,.74-.35,.12-.69-.08-.79-.45Z" style="fill:#65a8df;"/><path d="M546.18,139.06c.69,.19,1.34,.7,1.45,1.14,.14,.54-.02,.58-.52,.1-.39-.37-1.06-.48-1.44-.24-.38,.24-.94,.1-1.21-.32-.58-.89,.05-1.14,1.71-.68Z" style="fill:#65a8df;"/><path d="M533.17,27.75c1.12-.37,1.63-.39,1.11-.05-.54,.36-1.43,.66-2.06,.68-.6,.03-.17-.26,.95-.63Z" style="fill:#65a8df;"/><path d="M570.34,141.37c-1-.29-.96-.72,.1-1.07,.47-.16,.8,.07,.7,.48-.11,.46-.43,.7-.8,.59Z" style="fill:#65a8df;"/><path d="M524.41,137.08c.17,.66-.66,.98-1.39,.53-.35-.21-.88-.28-1.23-.16-.33,.11-.84-.15-1.1-.56-.55-.88,0-1.05,2.08-.66,.81,.15,1.55,.54,1.64,.86Z" style="fill:#65a8df;"/><path d="M529.17,28.35c1-.33,1.36-.29,.82,.08-.54,.38-1.29,.63-1.77,.58-.47-.05-.06-.34,.94-.67Z" style="fill:#65a8df;"/><path d="M510.02,36.47c-.36,.31-.89,.45-1.14,.3-.24-.15,.08-.42,.68-.58,.72-.19,.89-.09,.46,.28Z" style="fill:#65a8df;"/><path d="M523.43,29.61c1.47-.49,2.09-.56,1.39-.17-.67,.37-1.9,.78-2.65,.88-.77,.1-.22-.21,1.25-.7Z" style="fill:#65a8df;"/><path d="M506.25,34.07c-.24-.15,.08-.42,.68-.58,.72-.19,.88-.09,.46,.28-.37,.31-.89,.45-1.14,.3Z" style="fill:#65a8df;"/><path d="M637.84,28.64c-1.9-.16-3.61-.49-3.88-.76-.81-.82,.2-.79,5.19,.16,4.85,.93,4.51,1.08-1.31,.6Z" style="fill:#65a8df;"/><path d="M477.25,130.56c.13,.51-.16,1.09-.63,1.24-1.02,.34-1.21-.94-.26-1.69,.35-.28,.75-.08,.89,.45Z" style="fill:#65a8df;"/><path d="M472.76,123.29c.09,.35-.24,.79-.71,.95-.48,.16-.75,.78-.6,1.38,.27,1,.35,.97,1.13-.44,.48-.86,1.15-1.44,1.54-1.32,.82,.25,1.44,2.79,.74,3.03-.26,.08-.38,.48-.28,.88,.23,.85,2.5-.75,2.84-2.01,.17-.62,.3-.63,.45-.04,.12,.46,.39,.73,.61,.62,1.24-.64,1.99-.44,2.27,.61,.23,.85,.12,.95-.44,.4-.47-.46-.48,.16-.02,1.72,.45,1.56,1.06,2.45,1.67,2.45,.77,0,.77-.12,0-.61-1.28-.82-1.42-1.6-.37-1.95,.47-.15,.74-.82,.59-1.41-.24-.92-.13-1.02,.66-.54,.61,.37,.78,.81,.48,1.22-.45,.61-.51,1.39-.28,3.82,.05,.55-.32,1.06-.79,1.08-1.45,.07-2.59-.77-2.51-1.85,.1-1.43-2.3-3.02-3.68-2.44-.58,.24-.84,.62-.6,.86,.25,.24-.12,.51-.86,.63-1.66,.25-3.07-1.01-2.27-2.04,.43-.55,.38-.81-.21-1.02-1.35-.49-1.91-2.03-1.16-3.18,.91-1.39,1.54-1.66,1.78-.77Z" style="fill:#65a8df;"/><path d="M476.24,47.13c-.1-.39-.07-.69,.09-.74,.16-.05,.48,.13,.79,.45,.3,.31,.26,.63-.09,.74-.35,.12-.69-.08-.79-.45Z" style="fill:#65a8df;"/><path d="M478.56,130.66c.35-.12,.66,.07,.76,.46,.1,.39-.06,.73-.41,.85-.35,.12-.66-.07-.76-.46-.1-.39,.06-.73,.41-.85Z" style="fill:#65a8df;"/><path d="M581.6,145.69c1.36,.14,1.2,1.15-.19,1.21-.7,.03-1.34-.21-1.42-.54-.16-.61,.3-.8,1.61-.67Z" style="fill:#65a8df;"/><path d="M576.62,145.76c.71,.55,.79,.81,.29,.98-.36,.12-1.21-.1-1.82-.47-.99-.6-1.03-.73-.29-.98,.45-.15,1.3,.07,1.82,.47Z" style="fill:#65a8df;"/><path d="M486.55,129.44c-.1-.39,.06-.74,.41-.85,.35-.12,.66,.07,.76,.46,.1,.39-.06,.73-.41,.85-.35,.12-.66-.07-.76-.46Z" style="fill:#65a8df;"/><path d="M577.91,144.59c.65-.2,1.55-.25,1.99-.1,.43,.14,1.5,.11,2.28-.08,1.39-.32,1.46-.23,1.13,1.59-.32,1.79-.22,1.96,1.45,2.19,2.46,.35,3.57-.02,2.75-.9-.49-.54-.42-.55,.41-.1,.59,.32,1.39,.43,1.92,.26,.52-.17,1.79-.11,2.95,.13,1.22,.26,2.04,.15,2.04-.28,0-.46,.59-.67,1.64-.59,2.03,.16,2.2,.1,2.01-.62-.2-.76-3.3-1.08-5.4-.57-.9,.22-1.75,.15-1.83-.15-.08-.29,.36-.57,.93-.58,2.23-.05,5.15-.44,5.32-.71,.1-.17,.62-.09,1.2,.19,.99,.47,5.57,.27,6.39-.28,.25-.17,.51,0,.62,.4,.1,.39-.52,.83-1.43,1.01-1.1,.21-1.57,.68-1.47,1.45,.1,.78,.47,.91,1.17,.43,.65-.44,1.12-.37,1.27,.19,.19,.71,.3,.65,.56-.29,.28-1.02,.37-1.01,.65,.04,.23,.85,.49,.96,.89,.35,.31-.47,1.3-1,2.16-1.14,.92-.16,1.8-.78,2.07-1.47,.37-.92,.85-1.13,2.06-.93,.87,.15,1.49,.6,1.39,1.01-.11,.44-.49,.45-.92,.02-.49-.48-.66-.46-.53,.07,.12,.46,.5,.87,.9,.99,.41,.12,.64,.44,.57,.81-.07,.34,.49,.27,1.27-.17,1.12-.62,1.25-1.03,.65-2-.51-.83-.5-1.14,.03-.97,.43,.14,.92,.8,1.11,1.53,.25,.94,.72,1.15,1.78,.8,.76-.25,1.71-.2,2.02,.12,.31,.32,1.19,.25,1.91-.17,.89-.51,1.41-.47,1.57,.12,.12,.46,.52,.79,.82,.69,.83-.28,.36-1.76-.78-2.46-.7-.42-.68-.63,.09-.88,.53-.18,1.08-.04,1.17,.29,.09,.35,.47,.43,.85,.18,.38-.25,.51-.24,.29,.01-.65,.75-.08,1.63,.86,1.32,.47-.16,.95-.03,1.03,.27,.08,.3,.75,.29,1.44-.01,.69-.3,1.81-.46,2.41-.33,.75,.16,1.27-.17,1.59-.99,.53-1.39,2.27-2.28,1.96-1-.11,.47-.43,.72-.8,.62-.37-.09-.67,.08-.75,.43-.07,.31,.61,.71,1.48,.87,.87,.16,1.42,.09,1.18-.14-1.34-1.34,3.3-3.72,5.18-2.66,.47,.26,1.72,.08,2.86-.42,1.49-.65,2.16-.62,2.49,.11,.25,.55,1.01,.91,1.68,.8,.66-.1,1.99-.23,2.87-.27,1.33-.06,1.64-.35,1.62-1.5-.02-1.15-.4-1.38-1.95-1.21-1.24,.14-2.02,.55-2.18,1.18-.19,.73-.33,.68-.56-.17-.17-.66-.49-1.02-.73-.84-.39,.28-3.16,.63-6.32,.79-.88,.05-2.11,.18-2.8,.31-.67,.12-2.37,.25-3.76,.28-2.67,.06-6.62,.51-8.7,.99-.72,.17-1.53,.21-1.89,.1-.67-.21-10.85,.1-17.46,.52-1.91,.12-7.04,.22-11.46,.22-4.42,0-8.56,.03-9.26,.06-.69,.03-1.55,.07-1.9,.09-.38,.02-.82,.05-1.1,.08-.25,.03-1.53-.08-2.78-.22-1.26-.15-2.28-.15-2.24,0s-.93,.12-2.12-.05c-2.59-.36-3.08-.27-2.86,.55,.23,.88,1.68,1.26,3.09,.81Zm51.46-.19c-.09-.35,.38-.84,1.03-1.06,.65-.21,1.12-.04,1.03,.38-.1,.42-.56,.9-1.03,1.05-.47,.16-.93-.01-1.03-.37Zm-7.34-.65c.74-.09,1.5,.35,1.66,.96,.19,.72,.07,.91-.34,.54-.36-.33-1.48-.62-2.58-.69-1.95-.11-1.35-.5,1.26-.81Zm-15.07,1.48c.2-.78,1.93-1.32,3.05-.96,.55,.18,.11,.53-1.14,.9-1.13,.33-1.98,.36-1.91,.06Zm-20.25-.02c-.13-.5,1.08-.57,1.56-.09,.31,.31,.11,.5-.48,.44-.59-.05-1.04-.2-1.08-.35Zm-2.21-.48c.29-.36,.79-.45,1.04-.2,.68,.68,.5,2.76-.26,3.02-.38,.13-.43-.21-.16-.95,.34-.9,.26-1.15-.37-1.16-.58-.01-.65-.21-.25-.7Z" style="fill:#65a8df;"/><path d="M600.51,145.36c.53-.18,.98,.03,.95,.44-.03,.44-.29,.85-.61,.95-.32,.11-.73-.08-.95-.44-.21-.33,.08-.78,.61-.95Z" style="fill:#65a8df;"/><path d="M658.3,138.87c.71-.05,2.15-.08,3.31-.06,1.99,.03,2.04,.08,1.42,1.6-.77,1.9-1.31,2.19-1.65,.9-.14-.52,.05-.83,.45-.72,.4,.12,.43-.07,.05-.45-.79-.8-3.93,.3-3.96,1.38-.02,.65-.19,.7-.68,.22-.38-.37-.39-.73-.03-.85,.34-.11,.53-.53,.43-.93-.11-.42-.53-.43-1-.03-.47,.4-.73,.37-.62-.08,.2-.83,.27-.86,2.28-1.01Z" style="fill:#65a8df;"/><path d="M659.55,140.92c.72-.19,.89-.09,.46,.28-.37,.31-.89,.45-1.14,.3-.24-.15,.08-.42,.68-.58Z" style="fill:#65a8df;"/><path d="M664.49,138.79c-.06-.62,.13-.97,.43-.79,.52,.32,3.05-.08,5.9-.92,.77-.23,1.29-.07,1.18,.37-.11,.46-.42,.71-.8,.62-.37-.09-.67,.09-.76,.47-.12,.51,1.19,.43,3.83-.23,1.12-.28,1.02-.02-.69,1.74-1.31,1.35-1.49,1.42-1.1,.42,.37-.98,.31-1.14-.37-.91-.47,.16-1,.61-1.23,1.05-.26,.5-.76,.54-1.41,.11-.58-.38-.75-.76-.39-.87,.35-.12,.5-.66,.34-1.25-.23-.85-.4-.86-.9-.02-.45,.73-.78,.87-1.19,.47-.3-.3-1.03-.39-1.56-.2-.88,.32-.85,.42,.3,.9,.79,.33,1.1,.78,.79,1.17-.29,.36-.58,.35-.68-.03-.1-.36-.67-.36-1.28,0s-1.18,.37-1.27,.03c-.1-.37,.06-.7,.39-.81,.32-.1,.52-.67,.46-1.3Z" style="fill:#65a8df;"/><path d="M598.51,147.45c.47-.15,1.03-.06,1.3,.21,.26,.27-.09,.5-.79,.53-1.46,.05-1.73-.34-.52-.74Z" style="fill:#65a8df;"/><path d="M673.28,137.57c-.31-.19,.15-.52,.99-.72,.84-.2,1.51-.18,1.45,.06-.06,.24,2.52-.38,5.78-1.37,3.26-1,6.31-1.61,6.84-1.37,.5,.23,1.42,.04,1.94-.39,.89-.74,.94-.68,.5,.55-.32,.89-.27,1.3,.15,1.16,.37-.12,.75,.18,.89,.7,.15,.56-.3,1.06-1.14,1.27-1.08,.27-1.41,.01-1.53-1.21-.11-1.1-.45-1.46-1.16-1.22-.82,.27-.84,.45-.07,1.03,1.52,1.14,.07,2-1.64,.97-1.75-1.06-2.61-.99-2.64,.23-.04,1.44-2.38,2.22-3.36,1.11-.49-.55-.76-1.27-.6-1.62,.15-.33-.22-.34-.77-.03-.56,.32-1.08,1.08-1.11,1.62-.04,.73,.14,.79,.63,.22,.39-.46,.54-.48,.36-.05-.59,1.35-2.26,1.46-2.97,.2-.37-.66-.97-1.11-1.32-.99-.35,.12-.91,.06-1.22-.13Z" style="fill:#65a8df;"/><path d="M575.32,140.85c.93,.31,.93,.39,.05,.68-.53,.18-1.25,.08-1.54-.21-.7-.69,.09-.94,1.49-.47Z" style="fill:#65a8df;"/><path d="M641.08,143.17c.42,.05,.92,.56,1.06,1.08,.22,.84,.08,.9-.95,.42-.66-.31-1.34-.42-1.5-.25-.16,.17-.48,.02-.7-.34-.38-.64,.64-1.08,2.09-.91Z" style="fill:#65a8df;"/><path d="M644.68,143.41c.34,.21,1.01,.24,1.54,.06,.53-.18,1.17,.08,1.47,.59,.42,.72,.36,.76-.3,.21-.67-.56-.85-.51-.94,.31-.09,.74-.27,.82-.69,.3-.32-.4-.92-.59-1.39-.43-.47,.16-.9,0-1-.39-.21-.79,.52-1.15,1.31-.65Z" style="fill:#65a8df;"/><path d="M528.3,142.11c.11,.43,.51,.48,.93,.12,.5-.43,.74-.21,.77,.71,.05,1.63-.89,2.2-1.27,.78-.16-.59-.49-.79-.76-.46-.29,.35-.55,.33-.66-.07-.1-.39,.02-.89,.31-1.25,.25-.31,.58-.23,.68,.17Z" style="fill:#65a8df;"/><path d="M572.49,145.12c1.12,.11,1.28,.97,.34,1.77-.54,.46-.76,.3-.71-.5,.05-.8-.1-.95-.48-.48-.29,.36-.64,.37-.73,.03-.2-.74,.2-.94,1.58-.81Z" style="fill:#65a8df;"/><path d="M519.6,140.67c.1,.38-.21,.78-.74,.96-.53,.17-.84-.02-.73-.47,.11-.46,.4-.85,.74-.96,.34-.11,.63,.08,.73,.47Z" style="fill:#65a8df;"/><path d="M513.02,139.38c.75,.18,1.13,.03,1.01-.41-.1-.39-.45-.6-.8-.49-.35,.12-.54-.13-.43-.57,.24-.97,1.1-1.22,1.79-.52,.54,.54,3.05,.98,3.67,.64,.16-.09,1.17,.05,2.33,.32,2.59,.61,4.81,.8,6.22,.55,.34-.06,.73,.32,.86,.84,.22,.83-.1,.93-2.44,.81-1.49-.08-3.13-.35-3.68-.61-.66-.3-.93-.24-.81,.2,.09,.36,1.49,.81,3.08,.98,1.85,.21,2.88,.68,2.84,1.31-.05,.77-.39,.81-1.58,.2-.81-.42-1.23-.48-.9-.13,.9,.94-.3,1.17-1.5,.28-.8-.59-1.05-.54-1.27,.28-.21,.76-.38,.7-.68-.27-.22-.71-.46-1.63-.53-2.04-.1-.64-4.48-2.38-5.31-2.1-.16,.05,.06,.87,.48,1.81,.45,.99,.48,1.36,.07,.87-.39-.47-1.34-.59-2.15-.27-1.91,.76-2.55,.47-1.96-.88,.33-.74,.85-1,1.67-.8Z" style="fill:#65a8df;"/><path d="M693.3,133.56c-.05,.85,.31,1.04,1.31,.71,1.12-.37,1.18-.53,.33-.82-.88-.31-.88-.42,0-.72,1-.34,2.05,1.39,1.13,1.85-2.94,1.46-3.43,1.49-3.71,.22-.16-.73,0-1.57,.36-1.87,.41-.34,.63-.1,.58,.63Z" style="fill:#65a8df;"/><path d="M502.81,38.13c-.67,.37-1.91,.78-2.65,.88-.77,.1-.22-.21,1.25-.7,1.47-.49,2.09-.56,1.39-.17Z" style="fill:#65a8df;"/><path d="M504,35.96c.82-.27,1.18-.24,.82,.08-.36,.32-1.01,.53-1.47,.49-.46-.05-.17-.3,.65-.57Z" style="fill:#65a8df;"/><path d="M529.46,141.05c.6,.15,1.06,.86,1.16,1.83,.14,1.36,.4,1.51,1.81,1.04,.88-.29,1.9-.88,2.19-1.26,.31-.4,1.37-.63,2.42-.52l1.88,.2-1.34,.98c-.8,.59-.93,.87-.32,.72,.54-.14,1.42,.16,1.86,.63,.47,.5,1.49,.78,2.28,.64,.78-.14,2.21-.37,3.13-.5,.92-.13,1.62-.51,1.54-.83-.22-.84,2.54-1.7,3.24-1,.29,.29,1.15,.33,1.86,.1,.7-.23,1.67-.26,2.06-.06,.79,.4,7.54,1.17,8.25,.94,.32-.1,.46-.42,.36-.8-.09-.34-2-.65-4.18-.69-2.19-.04-5.07-.19-6.33-.33-3.89-.45-4.9-.54-5.58-.52-.36,.02-1.13-.03-1.78-.09-.66-.07-1.08,.16-.98,.54,.09,.35,.84,.64,1.6,.61,1.14-.03,1.29,.14,.74,.86-.43,.56-1.01,.75-1.53,.51-.44-.21-.97-.13-1.11,.15-.14,.29-.36,.19-.47-.2-.11-.4-.61-.62-1.08-.46-.47,.16-.97-.05-1.07-.43-.11-.4,.23-.69,.76-.64,.52,.04,1.02-.2,1.11-.55,.2-.76-1.38-1.09-3.67-.78-.87,.12-1.73,.05-1.96-.15-.23-.2-1.75-.59-3.43-.87-1.67-.28-3.33-.24-3.72,.09-.59,.49-.54,.63,.29,.83Zm2.43,.23c.29-.36,.58-.35,.68,.03,.1,.37,.64,.6,1.26,.51,.62-.08,.88,.12,.61,.48-.26,.35-1.05,.4-1.76,.12-.79-.31-1.09-.75-.78-1.13Z" style="fill:#65a8df;"/><path d="M500.71,37.33c-.24-.15,.08-.42,.68-.58,.72-.19,.89-.09,.46,.28-.36,.31-.89,.45-1.14,.3Z" style="fill:#65a8df;"/><path d="M489.77,131.92c.1,.37,0,.82-.25,1.12-.23,.27-.53,.07-.67-.46-.14-.52-.03-1.03,.25-1.12,.3-.1,.57,.08,.66,.46Z" style="fill:#65a8df;"/><path d="M563.72,145.38c.1,.39-.05,.73-.38,.84-.34,.11-.77-.03-1.09-.35-.31-.31-.14-.67,.38-.84,.53-.18,.98-.03,1.09,.36Z" style="fill:#65a8df;"/><path d="M567.4,145.3c.62,.41,.66,.75,.14,1.2-.39,.33-1.15,.2-1.61-.29-.47-.49-.81-.58-.72-.19,.09,.39-.25,.87-.72,1.02-.65,.21-.77,0-.47-.77,.48-1.23,2.22-1.73,3.38-.97Z" style="fill:#65a8df;"/><path d="M562.59,143.53c-.09-.35-.09-.57,.02-.54,.1,.03,1.06-.11,2.15-.32,1.1-.2,2.06-.07,2.16,.29,.1,.39,.37,.42,.66,.07,.29-.35,.54-.36,.63-.03,.08,.32,.6,.44,1.2,.28,.58-.15,1.62-.3,2.31-.33,.7-.03,1.48-.1,1.75-.15,.29-.05,.41,.22,.29,.69-.2,.8-2.54,1.12-3.38,.48-.24-.18-.63-.24-.99-.15-1.62,.42-6.66,.21-6.79-.28Z" style="fill:#65a8df;"/><path d="M485,128.17c.14,.38,.34,.89,.5,1.26,.14,.35,.8,1.2,1.47,1.91,.66,.71,.86,1.19,.44,1.07-.41-.12-.68,.1-.58,.48,.1,.39,.44,.61,.77,.5,.31-.1,.71,.27,.85,.79,.34,1.29-1.67,1.91-2.99,.92-.75-.56-.93-1.19-.75-2.61,.14-1.04,.07-2.04-.15-2.27-.22-.22-.26-.91-.09-1.54s.41-.85,.54-.5Z" style="fill:#65a8df;"/><path d="M545.05,145.9c.72-.19,.89-.09,.46,.28-.36,.31-.89,.45-1.13,.3-.24-.15,.08-.42,.68-.58Z" style="fill:#65a8df;"/><path d="M555.89,145.03c.16,.8,.09,.87-.31,.28-.35-.53-.6-.5-.75,.07-.15,.6-.61,.7-1.54,.33-1.22-.49-1.18-.58,.53-1.14,1.29-.43,1.92-.29,2.07,.46Z" style="fill:#65a8df;"/><path d="M559.94,145.05c1.82,1.33,2.45,2.19,1.77,2.41-.31,.1-.71-.26-.85-.79-.14-.53-.62-.87-1.03-.73-.43,.14-1.37,0-2.16-.32q-1.4-.57-.17-1.01c.7-.25,1.75-.06,2.44,.45Z" style="fill:#65a8df;"/><path d="M742.21,63.18c.43,.12,.29-.31-.37-1.16-1.11-1.42-4.37-2.63-5.82-2.15-.48,.16-1.37-.08-1.96-.53-.95-.72-.89-.82,.53-.78,1.42,.04,1.48-.06,.5-.77-.74-.54-1.29-.52-1.64,.08-.62,1.03-1.44,.69-1.34-.55,.04-.49-1.29-1.53-2.98-2.34-1.68-.81-3.63-1.74-4.36-2.09-.7-.34-2.06-.89-2.9-1.18-.85-.29-2.15-.89-2.8-1.27-1.74-1.04-15.67-6.01-23.04-8.22-14.39-4.32-35.03-9.05-47.01-10.78-3.66-.53-7.41-1.1-8.34-1.28-2.29-.44-2.5-.29-1.97,1.39,.45,1.42,2.84,1.88,2.46,.47-.2-.75,4.33-.55,6.74,.31q1.41,.5,.27,.91c-1.11,.4-1.1,.43,.22,.96,.72,.29,1.53,.34,1.72,.11,.19-.23,.81-.09,1.33,.31,.52,.4,1.27,.65,1.61,.54,1.75-.58,34.46,7.6,46.4,11.61,10.61,3.56,12.47,4.01,12.69,3.09,.1-.42-.02-.64-.3-.54-.27,.09-1.43-.32-2.68-.94-1.22-.61,.75-.06,4.42,1.22,3.67,1.28,8,3.06,9.69,3.98,1.72,.93,3.25,1.61,3.48,1.54,.89-.27,4.88,2.16,4.7,2.87-.09,.38-1.21-.03-2.45-.9-1.24-.88-2.21-1.32-2.12-.98,.09,.35-.35,.19-1.03-.37s-1.12-.68-1.02-.27c.19,.8,6.8,4.2,7.36,3.79,.21-.15,.89,.31,1.52,1.03,.63,.72,1.68,1.28,2.35,1.26,.7-.02,.97-.28,.64-.6-.31-.3-.18-.54,.28-.52,.45,.02,1.08,.71,1.35,1.48,.27,.77,1.28,1.9,2.15,2.43,1.45,.88,1.61,.86,1.34-.16-.17-.66,0-1.06,.39-.95Zm-90.04-29.61c-.59-.05-1.05-.2-1.09-.36-.13-.5,1.08-.57,1.56-.09,.31,.31,.11,.5-.48,.44Zm13.03,2.2c.08,.29-10.61-1.64-11.36-2.05-.18-.1-.08-.22,.24-.31,.78-.21,11.02,1.97,11.12,2.36Zm10.22,2.34c.05,.18-1.13,.09-2.61-.21-1.49-.29-2.74-.68-2.79-.86q-.12-.46,2.73,.17c1.43,.32,2.62,.72,2.67,.9Zm5.05,1.54c-.81-.15-1.56-.44-1.6-.61-.13-.48,.21-.43,1.74,.27,1.35,.62,1.35,.62-.13,.34Zm4.82,1.27c-.81-.15-1.56-.44-1.6-.61-.13-.48,.21-.43,1.73,.27,1.35,.62,1.35,.62-.13,.34Zm13.62,3.96c-.94-.41-1.6-.8-1.44-.86,.37-.13,5.7,1.7,6.69,2.3,1.03,.62-3.08-.51-5.25-1.44Zm41.4,17.86c-.31,.1-.86-.22-1.17-.68-.31-.47-.49-.91-.38-.95,.11-.04,.66,.28,1.17,.68,.58,.45,.73,.83,.38,.95Z" style="fill:#65a8df;"/><path d="M654.44,137.58c.1,.39-.11,.6-.51,.49-.42-.12-.72-.32-.77-.49-.05-.18,.16-.37,.51-.49,.34-.11,.67,.1,.77,.5Z" style="fill:#65a8df;"/><path d="M665.49,136.07c-.48,.6-2.86,1.02-3,.53-.03-.11,.75-.43,1.76-.72s1.56-.21,1.24,.2Z" style="fill:#65a8df;"/><path d="M661.39,137.39c-.35,.12-.54-.13-.44-.57,.11-.47,.28-.81,.44-.86,.16-.05,.33,.17,.44,.57,.1,.38-.09,.75-.44,.86Z" style="fill:#65a8df;"/><path d="M463.28,121.67c.16-.77,.39-1.12,.5-.77,.11,.34,.36,.09,.53-.53,.2-.71,.41-.86,.54-.39,.12,.45-.15,1.23-.64,1.82-.68,.82-.66,1.09,.07,1.34,.49,.16,.87,.82,.82,1.41-.05,.66,.3,1.14,.89,1.19,1.18,.11,1.72-1.14,.63-1.47-.42-.12-.63-.5-.54-.94,.09-.44,.42-.66,.81-.55,.38,.1,.58-.12,.47-.51-.1-.4,.07-.77,.41-.89,.31-.1,.71,.27,.85,.79,.14,.53-.03,1.08-.36,1.19-.35,.12-.39,.44-.09,.75,.3,.31,.26,.63-.09,.74-.34,.11-.46,.8-.27,1.52,.42,1.58-.27,1.95-1.66,.9-.53-.4-1.22-.45-1.49-.11-.31,.38-.42,.28-.29-.26,.11-.48-.15-.79-.56-.67-.5,.14-.5-.2,0-.97,.55-.83,.54-1.33-.03-1.67-.56-.34-.71-.91-.51-1.91Z" style="fill:#65a8df;"/><path d="M723.63,51.03c-.22-.84,.16-.84,1.3,0,.86,.63,.84,.73-.07,.67-.59-.04-1.15-.34-1.23-.66Z" style="fill:#65a8df;"/><path d="M683.45,133.67c-.35,.12-.54-.13-.44-.57,.11-.46,.29-.81,.45-.86,.16-.05,.33,.17,.44,.57,.1,.38-.09,.74-.44,.86Z" style="fill:#65a8df;"/><path d="M679.78,134.2c.1,.39-.11,.6-.51,.49-.42-.12-.73-.32-.77-.5-.05-.18,.16-.37,.51-.49,.34-.11,.67,.1,.77,.49Z" style="fill:#65a8df;"/><path d="M671.05,135.05c.08,.29-.39,.7-1.04,.92-.65,.21-1.25,.11-1.34-.24-.09-.34,.38-.75,1.04-.91,.66-.16,1.27-.05,1.34,.24Z" style="fill:#65a8df;"/><path d="M449.28,116.79c.1,.38,.66,.34,1.25-.09,.92-.67,1.15-.49,1.6,1.22,.3,1.12,.27,2.09-.06,2.2-.31,.1-.71-.26-.85-.79-.14-.53-.47-.92-.7-.84-.24,.08-.93-.34-1.52-.92-.65-.64-.85-1.15-.5-1.27,.34-.11,.67,.1,.77,.5Z" style="fill:#65a8df;"/><path d="M686.12,132.79c-.11,.46-.43,.7-.8,.59-1-.29-.96-.72,.1-1.07,.47-.16,.8,.07,.7,.48Z" style="fill:#65a8df;"/><path d="M735.39,56.86c-1.26-.94-.25-1.28,1.07-.35,.55,.39,.78,.81,.48,.91-.3,.1-1.02-.16-1.55-.56Z" style="fill:#65a8df;"/><path d="M728.84,52.56c1.24,.58,1.91,1.13,1.55,1.27-.36,.14-1.44-.27-2.45-.94-2.32-1.52-1.95-1.66,.9-.33Z" style="fill:#65a8df;"/><path d="M451.81,114.03c.21-.57,.48-1.12,.56-1.15,.08-.03,.26,.38,.38,.84,.12,.46-.15,1.01-.56,1.15-.59,.19-.69-.02-.38-.84Z" style="fill:#65a8df;"/><path d="M462.17,123.64c.92,.56,.82,1.39-.16,1.31-.52-.04-1.05-.35-1.14-.67-.19-.72,.56-1.09,1.3-.65Z" style="fill:#65a8df;"/><path d="M455.11,119.47c.17,.66,.49,.79,.83,.37,.34-.42,.47-.38,.35,.1-.12,.43,.46,1.14,1.28,1.58,.82,.44,1.61,1.27,1.77,1.84,.15,.58-.69,.16-1.88-.95-1.2-1.11-2.37-1.74-2.62-1.42-.24,.31-.58,.12-.72-.41-.14-.52-.04-1.26,.22-1.57,.27-.33,.61-.13,.76,.46Z" style="fill:#65a8df;"/><path d="M457.33,115.96c1.31,.92,2.6,1.57,2.93,1.46,.99-.33,1.02,.69,.04,2.1-.69,1-.71,1.49-.05,1.97,.47,.34,.75,.9,.61,1.19-.15,.3-.87-.28-1.58-1.26-.71-.98-1.45-1.56-1.61-1.25-.17,.32-.42,.1-.58-.49-.16-.6,.08-1.49,.57-2.08,.63-.77,.63-.94-.02-.66-1.73,.74-2.34,.67-3.25-.36-1.74-1.97,.39-2.42,2.94-.62Z" style="fill:#65a8df;"/><path d="M748.4,64.34c.02-.6,.36-.62,1.1-.08,.6,.44,.95,1.05,.78,1.38-.38,.77-1.92-.29-1.89-1.31Z" style="fill:#65a8df;"/><path d="M754.15,70.91c-.35-.74-.38-1.75-.06-2.16,.42-.54,.27-.66-.49-.41-.7,.23-1.06-.01-1.02-.7,.04-.59-.23-1.15-.59-1.27-.35-.11-.52,.32-.37,.91,.2,.76-.61,.49-2.57-.87-1.61-1.11-3.07-1.72-3.35-1.39-.26,.32,.03,.71,.64,.86,.61,.15,1.21,.58,1.31,.96,.12,.46-.18,.53-.91,.19-.58-.26-1.02-.24-.94,.06,.08,.31,.78,.75,1.54,.99,.77,.24,1.54,.99,1.72,1.68,.45,1.71,2.27,2.39,3.63,1.37,.75-.56,1.1-.59,.97-.07-.11,.46,.08,.9,.46,1.03,.38,.12,.39-.38,0-1.18Zm-4.93-2.44c-.72-.31-1.29-.66-1.33-.81-.15-.58,.39-.41,1.46,.45,1.01,.81,1,.85-.13,.36Zm2.76,1.84c-.41,.14-.93,0-1.24-.3-.65-.65-.44-.72,.9-.28,.63,.21,.77,.44,.35,.58Z" style="fill:#65a8df;"/><path d="M753.38,72.7c.33,.32,.5,.78,.39,1.01-.3,.63-1.68,.2-1.88-.59-.22-.83,.79-1.12,1.49-.42Z" style="fill:#65a8df;"/><path d="M757.27,72.91c.15-.69,.04-.84-.3-.4-.32,.41-.85,.07-1.37-.9-1.17-2.19-.87-2.46,.99-.9,1.22,1.03,1.42,1.48,.99,2.28-.42,.78-.49,.77-.31-.08Z" style="fill:#65a8df;"/><path d="M469.13,28.98c.46-.94,1.9-1.51,2.08-.83,.36,1.36,1.21,.1,1.17-1.75-.03-1.85,0-1.87,.71-.56,.72,1.31,.79,1.31,2.13-.16,1.74-1.89,2.03-2.04,1.76-.88-.15,.64,.05,.71,.62,.22,.47-.4,1.06-.48,1.36-.2,.32,.31,.87,.13,1.41-.47,.5-.54,1.09-.87,1.34-.73,.24,.13,.74-.12,1.07-.54,.87-1.08,2.63-1.82,2.43-1.01-.25,.99,.59,.56,2.13-1.09,.8-.86,1.6-1.29,1.87-1.01,.92,.92,2.32,.02,2.26-1.46-.03-.78,.17-1.49,.45-1.58,.29-.1,.46,.31,.42,.97-.07,.96,.22,.96,1.89,.02,1.11-.63,2.19-.91,2.46-.64,.38,.38,9.07-2.36,8.95-2.81,0-.04,.4-.3,.96-.6,.56-.31,1.04-.3,1.13,.02,.08,.32,.87,.14,1.81-.42,1.11-.65,1.73-.71,1.87-.19,.15,.56,.48,.49,1.17-.28,.54-.6,1.37-1.03,1.88-.98,.5,.05,1.24-.54,1.61-1.28,.63-1.24,.73-1.24,1.06,0,.31,1.18,.51,1.22,1.35,.27,.74-.83,1.03-.92,1.19-.36,.12,.44,.54,.46,1.01,.06,.47-.4,.73-.4,.63,0-.16,.63,1.29,.35,7.7-1.53,1.9-.55,3.49-.82,3.56-.58,.06,.24,1.13-.09,2.37-.71,1.24-.63,2.68-.95,3.2-.72,1.38,.61,3.3,.63,2.7,.02-.59-.59,.29-1,1.09-.5,.29,.18,1.24,.13,2.13-.13q5.78-1.63,5.08-.61c-.55,.81-.54,.91,.07,.49,1.41-.97,.91-2.11-.99-2.28-1.7-.15-1.65-.2,.6-.64l2.43-.48-2.59-.47c-1.42-.26-5.12-.02-8.18,.52-3.08,.55-8.35,1.45-11.72,2.02-3.38,.57-9.47,1.92-13.59,3.03-4.12,1.11-7.64,1.91-7.84,1.79-.39-.22-22.68,7.87-25.39,9.21-4.47,2.22-6.43,3.18-9,4.42-1.59,.77-3.07,1.76-3.37,2.26-.35,.59-.71,.71-1.07,.35-.69-.69-2.14,.57-1.86,1.62s2.12,1.92,2.49,1.18Zm75.3-24.67c-.24-.15,.08-.42,.68-.58,.72-.19,.89-.09,.46,.28-.36,.31-.89,.45-1.14,.3Zm-3.95,.31c.82-.27,1.18-.23,.82,.08-.36,.32-1.01,.53-1.47,.49-.46-.05-.17-.3,.65-.57Zm-8.93,1.81c-.24-.15,.08-.42,.68-.58,.72-.19,.89-.09,.46,.28-.36,.31-.89,.45-1.14,.3Zm-5.69,1.81c.03-.58,.46-1.22,.92-1.37,.74-.24,.77-.11,.23,.99-.33,.68-.76,1.32-.92,1.37-.16,.05-.26-.41-.23-1Zm-2.43-.95c.88-.31,1.69-.27,1.78,.09,.2,.76-.27,.91-2.07,.66-1.16-.16-1.12-.26,.28-.75Z" style="fill:#65a8df;"/><path d="M760.45,99.15l.87-1.93c.48-1.06,.8-2.84,.73-3.95-.14-2.03,.52-2.63,2.25-2.07,.56,.18,.91,.64,.74,.98-.17,.35-.69,.3-1.15-.12-.63-.57-.64-.39-.04,.69,.5,.91,.54,1.37,.1,1.24-.91-.28-1.11,1.61-.23,2.16,.38,.24,.41,.9,.07,1.55-.34,.64-.67,.86-.76,.5-.09-.34-.71-.27-1.36,.16l-1.2,.79Z" style="fill:#65a8df;"/><path d="M762.41,84.93c.3,.43,.21,1.4-.19,2.06-.69,1.14-.77,1.08-.94-.65-.1-1.04-.46-1.99-.78-2.1-.33-.11-.75-.79-.95-1.51-.19-.73-1.17-2.29-2.21-3.52-1.04-1.23-1.71-2.26-1.51-2.32,.2-.06-.07-.44-.6-.84-.53-.4-.87-1.07-.77-1.5,.31-1.24,1.86-1.54,2.59-.5,.38,.54,1.08,.63,1.68,.22,1.36-.94,1.48,.01,.22,1.79-.61,.85-.76,1.42-.36,1.31,.42-.12,.79-.52,.89-.97,.26-1.14,1.04-1.27,1.73-.28,.4,.58,.31,.85-.27,.8-.46-.03-.98,.33-1.08,.75-.11,.47-.48,.74-.85,.64-.38-.1-.58,.12-.47,.51,.1,.38,.48,.59,.83,.48,.36-.12,.62,.26,.58,.85-.05,.74,.26,.86,1.04,.41,.72-.42,1.03-.35,.89,.21-.14,.56,.09,.59,.67,.1,.52-.45,.8-.42,.69,.06-.11,.46-.8,.84-1.56,.87-.76,.03-.99,.12-.52,.21,.47,.08,.77,.42,.69,.77-.08,.34,.28,.43,.79,.2,.52-.23,1.17-.06,1.45,.38,.36,.57,.11,.79-.85,.78-1.03-.01-1.21,.18-.78,.79Z" style="fill:#65a8df;"/><path d="M469.53,128c.19,.72,.05,1.22-.32,1.11-.38-.12-.63-.65-.59-1.24,.11-1.5,.49-1.45,.9,.13Z" style="fill:#65a8df;"/><path d="M697.36,133.79c-.61,1.99-.6,2.05,.39,1.48,.56-.32,1.48-.45,2-.28,1.82,.58,7-1.28,7.5-2.68,.44-1.22,.47-1.23,.42-.14-.04,.98,.68,.99,4.65,.06,6.2-1.45,23.28-7.7,26.42-9.67,1.37-.86,3.35-1.97,4.46-2.49,3.3-1.57,8.39-4.97,7.88-5.26-.25-.14,.23-.34,1.04-.43,.87-.1,1.77-.74,2.15-1.53,.37-.77,.95-1.46,1.31-1.57,2.12-.7,7.71-9.94,6.8-11.25-.91-1.31-1.99-.51-5.46,4-1.86,2.41-3.87,4.51-4.54,4.73-.65,.21-1.12,.72-1.02,1.09,.1,.39-.07,.62-.4,.53-.33-.09-1.4,.41-2.42,1.14-7.11,5.05-29.18,13.5-41.77,15.99-7.42,1.47-10.06,2.31-9.09,2.9,.42,.25,3.67-.29,7.2-1.2,3.53-.91,6.18-1.33,5.86-.94-.34,.42-.87,.73-1.28,.74-.39,0-3.1,.62-6.1,1.37-5.28,1.33-5.41,1.4-6.04,3.42Zm58.25-26.11c.11-.46,.28-.81,.44-.86,.16-.05,.34,.18,.44,.57,.1,.38-.09,.75-.44,.86-.35,.12-.54-.13-.44-.57Zm-27.56,15.5c-.09-.33,.25-.76,.72-.92,.47-.16,.92-.17,.95-.03,.04,.14-.3,.57-.72,.92-.42,.35-.86,.36-.95,.03Zm-7.65,2.53c-.09-.33,.25-.76,.72-.92,.47-.16,.92-.17,.95-.03,.04,.14-.3,.57-.72,.92-.42,.35-.86,.36-.95,.03Zm-3.07,.48c.82-.27,1.19-.23,.82,.08-.36,.32-1.01,.54-1.47,.49-.46-.05-.17-.3,.65-.57Zm-5.4,1.35c-.03-.11,.33-.32,.8-.48,.47-.15,.78,0,.7,.34-.13,.55-1.36,.67-1.5,.14Z" style="fill:#65a8df;"/><path d="M742.46,59.88c.3-.1,1.69,.59,3.02,1.5,1.34,.92,2.25,1.76,1.99,1.84-.26,.08-1.64-.6-3.02-1.5-1.38-.9-2.29-1.74-1.99-1.84Z" style="fill:#65a8df;"/><path d="M696.17,130.04c.26,.26-.23,.57-1.04,.66-.81,.1-1.55,.06-1.59-.08-.13-.5,2.2-1.01,2.63-.58Z" style="fill:#65a8df;"/><path d="M690.77,131.75c-.36,.31-.89,.45-1.14,.3-.24-.15,.08-.42,.68-.58,.72-.19,.89-.09,.46,.28Z" style="fill:#65a8df;"/><path d="M744.75,63.34c.56,.16,.71,.51,.4,.9-.27,.34-.77,.36-1.09,.04-.78-.78-.42-1.27,.69-.94Z" style="fill:#65a8df;"/><path d="M714.64,50.64c.61,.37,1.56,.68,2.21,.73,.65,.05,1.26,.54,1.42,1.14,.24,.89-.04,.93-1.82,.25-1.14-.44-2.35-1.05-2.64-1.34-.91-.91-.32-1.47,.83-.77Z" style="fill:#65a8df;"/><path d="M743.28,66.47c-.24-.15,.08-.42,.68-.58,.72-.19,.89-.09,.46,.28-.37,.31-.89,.45-1.14,.3Z" style="fill:#65a8df;"/><path d="M688.21,132.81c-.59,.19-1.1,.06-1.2-.32-.22-.81-.16-.83,1.18-.38,.9,.31,.91,.4,.03,.69Z" style="fill:#65a8df;"/><path d="M722.46,54.2c1.25,.36,2.12,.91,1.89,1.2-.53,.66-5.58-1.64-5.23-2.38,.17-.36,.43-.37,.65-.04,.2,.3,1.44,.86,2.69,1.22Z" style="fill:#65a8df;"/></g><g><path d="M6.63,102.87c-.57,0-.86-.31-.86-.94V52.72c0-.62,.29-.94,.86-.94h15.76c8.06,0,14.07,1.87,18.02,5.62,3.95,3.74,5.93,9.36,5.93,16.85v4.68c0,7.96-1.96,13.94-5.89,17.94-3.93,4-9.95,6.01-18.06,6.01H6.63Zm8.5-8.03h6.63c5.25,0,9.1-1.31,11.54-3.94,2.44-2.62,3.67-6.59,3.67-11.9v-4.84c0-4.84-1.22-8.44-3.67-10.8-2.44-2.37-6.29-3.55-11.54-3.55h-6.63v35.02Z" style="fill:#fff;"/><path d="M71.45,103.81c-5.62,0-9.83-1.23-12.64-3.71-2.81-2.47-4.21-6.15-4.21-11.04v-9.67c0-5.2,1.39-9.14,4.17-11.82,2.78-2.68,6.98-4.02,12.6-4.02s9.67,1.3,12.48,3.9c2.81,2.6,4.21,6.4,4.21,11.39v6.08c0,.62-.31,.94-.94,.94h-23.4v2.34c0,2.86,.61,4.95,1.83,6.28,1.22,1.33,3.21,1.99,5.97,1.99,2.13,0,3.78-.34,4.95-1.01,1.17-.67,1.75-1.69,1.75-3.04,0-.62,.31-.94,.94-.94h7.18c.57,0,.88,.29,.94,.86,.16,3.74-1.13,6.59-3.86,8.54-2.73,1.95-6.72,2.92-11.97,2.92Zm-9.75-44.46c-.68,.36-1.01,.23-1.01-.39v-4.99c0-.47,.18-.81,.55-1.01l9.28-5.46c.47-.26,.91-.26,1.33,0l9.28,5.46c.36,.21,.55,.55,.55,1.01v4.99c0,.62-.34,.75-1.01,.39l-9.44-4.68-9.52,4.68Zm2.03,20.28h15.29v-.39c0-2.86-.62-4.97-1.87-6.32-1.25-1.35-3.15-2.03-5.69-2.03s-4.6,.69-5.85,2.07c-1.25,1.38-1.87,3.5-1.87,6.36v.31Z" style="fill:#fff;"/><path d="M97.5,85.64c-.57,0-.86-.31-.86-.94v-5.15c0-.62,.29-.94,.86-.94h26.75c.62,0,.94,.31,.94,.94v5.15c0,.62-.31,.94-.94,.94h-26.75Z" style="fill:#fff;"/><path d="M135.64,102.87c-.57,0-.86-.31-.86-.94v-27.69c0-1.46-.07-2.99-.2-4.6-.13-1.61-.25-2.96-.35-4.06-.11-.73,.21-1.09,.94-1.09h6.55c.52,0,.86,.29,1.01,.86,.1,.42,.21,1.03,.31,1.83,.1,.81,.21,1.65,.31,2.54,.1,.88,.16,1.66,.16,2.34l.47,3.12v26.75c0,.62-.31,.94-.94,.94h-7.41Zm24.49,0c-.62,0-.94-.31-.94-.94v-24.02c0-2.18-.44-3.8-1.33-4.84-.88-1.04-2.24-1.56-4.06-1.56s-3.6,.53-5.34,1.6c-1.74,1.07-3.73,2.72-5.97,4.95l-.31-6.79c1.51-1.61,3.03-2.99,4.56-4.13,1.53-1.14,3.13-2.03,4.8-2.65s3.48-.94,5.46-.94c3.74,0,6.58,1.05,8.5,3.16s2.89,5.34,2.89,9.71v25.51c0,.62-.31,.94-.94,.94h-7.33Z" style="fill:#fff;"/><path d="M194.53,103.81c-5.51,0-9.76-1.31-12.75-3.94-2.99-2.63-4.49-6.62-4.49-11.97v-8.42c0-5.3,1.48-9.28,4.45-11.93s7.23-3.98,12.79-3.98,9.75,1.33,12.71,3.98,4.45,6.63,4.45,11.93v8.42c0,5.36-1.47,9.35-4.41,11.97-2.94,2.63-7.19,3.94-12.75,3.94Zm0-7.88c2.81,0,4.84-.71,6.08-2.15,1.25-1.43,1.87-3.68,1.87-6.75v-6.71c0-3.07-.62-5.32-1.87-6.75-1.25-1.43-3.28-2.15-6.08-2.15s-4.85,.72-6.12,2.15c-1.27,1.43-1.91,3.68-1.91,6.75v6.71c0,3.07,.64,5.32,1.91,6.75,1.27,1.43,3.32,2.15,6.12,2.15Z" style="fill:#fff;"/><path d="M234.08,103.81c-5.15,0-8.93-1.01-11.35-3.04s-3.55-5.17-3.39-9.44c0-.57,.31-.86,.94-.86h7.02c.52,0,.78,.29,.78,.86,0,1.87,.49,3.25,1.48,4.13,.99,.88,2.5,1.33,4.52,1.33,2.13,0,3.72-.34,4.76-1.01,1.04-.67,1.56-1.72,1.56-3.12,0-.99-.34-1.83-1.01-2.54s-1.77-1.37-3.28-1.99l-8.89-3.74c-2.7-1.14-4.64-2.5-5.81-4.06s-1.75-3.59-1.75-6.08c0-3.54,1.16-6.2,3.47-8,2.31-1.79,5.89-2.69,10.72-2.69s8.66,.94,11.15,2.81,3.74,4.6,3.74,8.19c0,.57-.31,.86-.94,.86h-7.02c-.62,0-.94-.42-.94-1.25,0-1.14-.49-2.04-1.48-2.69-.99-.65-2.37-.98-4.13-.98s-3.17,.31-4.06,.94c-.88,.62-1.33,1.56-1.33,2.81,0,.94,.27,1.66,.82,2.18,.55,.52,1.62,1.12,3.24,1.79l8.89,3.74c2.76,1.14,4.75,2.51,5.97,4.09,1.22,1.59,1.83,3.65,1.83,6.2,0,3.8-1.33,6.67-3.98,8.62-2.65,1.95-6.5,2.92-11.54,2.92Z" style="fill:#fff;"/><path d="M280.95,103.81c-3.12,0-5.51-.94-7.18-2.81-1.67-1.87-2.5-4.55-2.5-8.03,0-2.7,.52-4.9,1.56-6.59,1.04-1.69,2.74-3.02,5.11-3.98,2.37-.96,5.52-1.6,9.48-1.91l7.25-.62v5.62l-6.47,.55c-3.02,.26-5.1,.83-6.24,1.72-1.14,.88-1.72,2.31-1.72,4.29,0,1.51,.31,2.64,.94,3.39,.62,.75,1.59,1.13,2.89,1.13,1.56,0,3.15-.51,4.76-1.52,1.61-1.01,3.64-2.82,6.08-5.42l.31,6.24c-1.56,1.72-3.09,3.17-4.6,4.37-1.51,1.2-3.04,2.09-4.6,2.69s-3.25,.9-5.07,.9Zm14.9-.94c-.31,0-.53-.09-.66-.27-.13-.18-.25-.43-.35-.74-.1-.52-.23-1.42-.39-2.69-.16-1.27-.29-2.46-.39-3.55l-.55-3.2v-15.6c0-2.18-.44-3.73-1.33-4.64-.88-.91-2.42-1.37-4.6-1.37-3.95,0-5.88,1.43-5.77,4.29,0,.62-.29,.94-.86,.94h-7.02c-.62,0-.96-.47-1.01-1.4-.31-3.48,.87-6.2,3.55-8.15,2.68-1.95,6.51-2.92,11.5-2.92s8.83,1.09,11.19,3.28,3.55,5.56,3.55,10.14v16.22c0,1.66,.04,3.22,.12,4.68,.08,1.46,.2,2.78,.35,3.98,.1,.68-.18,1.01-.86,1.01h-6.47Z" style="fill:#fff;"/><path d="M341.79,103.81c-5.15,0-8.93-1.01-11.35-3.04s-3.55-5.17-3.39-9.44c0-.57,.31-.86,.94-.86h7.02c.52,0,.78,.29,.78,.86,0,1.87,.49,3.25,1.48,4.13,.99,.88,2.5,1.33,4.52,1.33,2.13,0,3.72-.34,4.76-1.01,1.04-.67,1.56-1.72,1.56-3.12,0-.99-.34-1.83-1.01-2.54s-1.77-1.37-3.28-1.99l-8.89-3.74c-2.7-1.14-4.64-2.5-5.81-4.06s-1.75-3.59-1.75-6.08c0-3.54,1.16-6.2,3.47-8,2.31-1.79,5.89-2.69,10.72-2.69s8.66,.94,11.15,2.81,3.74,4.6,3.74,8.19c0,.57-.31,.86-.94,.86h-7.02c-.62,0-.94-.42-.94-1.25,0-1.14-.49-2.04-1.48-2.69-.99-.65-2.37-.98-4.13-.98s-3.17,.31-4.06,.94c-.88,.62-1.33,1.56-1.33,2.81,0,.94,.27,1.66,.82,2.18,.55,.52,1.62,1.12,3.24,1.79l8.89,3.74c2.76,1.14,4.75,2.51,5.97,4.09,1.22,1.59,1.83,3.65,1.83,6.2,0,3.8-1.33,6.67-3.98,8.62-2.65,1.95-6.5,2.92-11.54,2.92Z" style="fill:#fff;"/><path d="M375.64,103.81c-3.43,0-6.03-1.08-7.8-3.24-1.77-2.16-2.65-5.37-2.65-9.63v-25.51c0-.62,.29-.94,.86-.94h7.41c.62,0,.94,.31,.94,.94v24.02c0,2.18,.38,3.8,1.13,4.84,.75,1.04,1.94,1.56,3.55,1.56,1.72,0,3.44-.56,5.19-1.68,1.74-1.12,3.7-2.79,5.89-5.03l.31,6.86c-1.51,1.51-3.03,2.85-4.56,4.02-1.53,1.17-3.15,2.09-4.84,2.77-1.69,.68-3.5,1.01-5.42,1.01Zm15.44-.94c-.62,0-.99-.29-1.09-.86-.16-.94-.3-1.92-.43-2.96-.13-1.04-.22-2.08-.27-3.12l-.7-3.98v-26.52c0-.62,.31-.94,.94-.94h7.41c.57,0,.86,.31,.86,.94v27.69c0,1.51,.04,3,.12,4.48s.22,2.93,.43,4.33c.1,.62-.21,.94-.94,.94h-6.32Z" style="fill:#fff;"/><path d="M415.42,103.81c-3.12,0-5.51-.94-7.18-2.81-1.67-1.87-2.5-4.55-2.5-8.03,0-2.7,.52-4.9,1.56-6.59,1.04-1.69,2.74-3.02,5.11-3.98,2.37-.96,5.52-1.6,9.48-1.91l7.25-.62v5.62l-6.47,.55c-3.02,.26-5.1,.83-6.24,1.72-1.14,.88-1.72,2.31-1.72,4.29,0,1.51,.31,2.64,.94,3.39,.62,.75,1.59,1.13,2.89,1.13,1.56,0,3.15-.51,4.76-1.52,1.61-1.01,3.64-2.82,6.08-5.42l.31,6.24c-1.56,1.72-3.09,3.17-4.6,4.37-1.51,1.2-3.04,2.09-4.6,2.69s-3.25,.9-5.07,.9Zm14.9-.94c-.31,0-.53-.09-.66-.27-.13-.18-.25-.43-.35-.74-.1-.52-.23-1.42-.39-2.69-.16-1.27-.29-2.46-.39-3.55l-.55-3.2v-15.6c0-2.18-.44-3.73-1.33-4.64-.88-.91-2.42-1.37-4.6-1.37-3.95,0-5.88,1.43-5.77,4.29,0,.62-.29,.94-.86,.94h-7.02c-.62,0-.96-.47-1.01-1.4-.31-3.48,.87-6.2,3.55-8.15,2.68-1.95,6.51-2.92,11.5-2.92s8.83,1.09,11.19,3.28,3.55,5.56,3.55,10.14v16.22c0,1.66,.04,3.22,.12,4.68,.08,1.46,.2,2.78,.35,3.98,.1,.68-.18,1.01-.86,1.01h-6.47Z" style="fill:#fff;"/><path d="M483.36,103.81c-6.86,0-12.01-1.65-15.44-4.95-3.43-3.3-5.15-8.05-5.15-14.23v-14.59c0-6.24,1.72-11,5.15-14.27,3.43-3.28,8.58-4.91,15.44-4.91s11.93,1.64,15.37,4.91c3.43,3.28,5.15,8.03,5.15,14.27v14.59c0,6.19-1.72,10.93-5.15,14.23-3.43,3.3-8.55,4.95-15.37,4.95Zm0-8.19c3.69,0,6.47-.98,8.35-2.93,1.87-1.95,2.81-4.8,2.81-8.54v-13.65c0-3.74-.94-6.59-2.81-8.54-1.87-1.95-4.66-2.92-8.35-2.92s-6.49,.98-8.38,2.92c-1.9,1.95-2.85,4.8-2.85,8.54v13.65c0,3.74,.95,6.59,2.85,8.54,1.9,1.95,4.69,2.93,8.38,2.93Z" style="fill:#fff;"/><path d="M514.56,117.31c-.57,0-.86-.31-.86-.94v-42.59c0-1.35-.05-2.76-.16-4.21-.1-1.46-.23-2.81-.39-4.06-.05-.68,.26-1.01,.94-1.01h6.55c.57,0,.91,.29,1.01,.86,.1,.42,.21,.95,.31,1.6,.1,.65,.18,1.31,.23,1.99,.05,.68,.08,1.22,.08,1.64l.62,4.37v41.42c0,.62-.31,.94-.94,.94h-7.41Zm18.33-13.49c-1.82,0-3.78-.25-5.89-.74s-3.86-1.16-5.26-1.99l-.16-7.33c1.35,.78,2.81,1.36,4.37,1.75,1.56,.39,3.01,.58,4.37,.58,2.5,0,4.32-.75,5.46-2.26,1.14-1.51,1.72-3.72,1.72-6.63v-8.27c0-2.55-.44-4.42-1.33-5.62-.88-1.2-2.26-1.79-4.13-1.79-1.61,0-3.25,.49-4.91,1.48-1.67,.99-3.64,2.52-5.93,4.6l-.39-6.86c1.51-1.46,3.02-2.72,4.52-3.78,1.51-1.07,3.07-1.9,4.68-2.5,1.61-.6,3.35-.9,5.23-.9,3.8,0,6.66,1.13,8.58,3.39,1.92,2.26,2.89,5.73,2.89,10.41v10.69c0,5.3-1.18,9.26-3.55,11.86-2.37,2.6-5.79,3.9-10.26,3.9Z" style="fill:#fff;"/><path d="M560.42,58.96c-1.77,0-3.11-.47-4.02-1.4-.91-.94-1.37-2.13-1.37-3.59v-1.17c0-1.51,.46-2.72,1.37-3.63,.91-.91,2.25-1.36,4.02-1.36s3.09,.46,3.98,1.36c.88,.91,1.33,2.12,1.33,3.63v1.17c0,1.46-.44,2.65-1.33,3.59-.88,.94-2.21,1.4-3.98,1.4Zm-3.74,43.91c-.57,0-.86-.31-.86-.94v-36.5c0-.62,.29-.94,.86-.94h7.41c.62,0,.94,.31,.94,.94v36.5c0,.62-.31,.94-.94,.94h-7.41Z" style="fill:#fff;"/><path d="M575.78,102.87c-.57,0-.86-.31-.86-.94v-27.69c0-1.46-.07-2.99-.2-4.6-.13-1.61-.25-2.96-.35-4.06-.11-.73,.21-1.09,.94-1.09h6.55c.52,0,.86,.29,1.01,.86,.1,.42,.21,1.03,.31,1.83,.1,.81,.21,1.65,.31,2.54,.1,.88,.16,1.66,.16,2.34l.47,3.12v26.75c0,.62-.31,.94-.94,.94h-7.41Zm24.49,0c-.62,0-.94-.31-.94-.94v-24.02c0-2.18-.44-3.8-1.33-4.84-.88-1.04-2.24-1.56-4.06-1.56s-3.6,.53-5.34,1.6c-1.74,1.07-3.73,2.72-5.97,4.95l-.31-6.79c1.51-1.61,3.03-2.99,4.56-4.13,1.53-1.14,3.13-2.03,4.8-2.65s3.48-.94,5.46-.94c3.74,0,6.58,1.05,8.5,3.16s2.89,5.34,2.89,9.71v25.51c0,.62-.31,.94-.94,.94h-7.33Z" style="fill:#fff;"/><path d="M623.05,58.96c-1.77,0-3.11-.47-4.02-1.4-.91-.94-1.37-2.13-1.37-3.59v-1.17c0-1.51,.46-2.72,1.37-3.63,.91-.91,2.25-1.36,4.02-1.36s3.09,.46,3.98,1.36c.88,.91,1.33,2.12,1.33,3.63v1.17c0,1.46-.44,2.65-1.33,3.59-.88,.94-2.21,1.4-3.98,1.4Zm-3.74,43.91c-.57,0-.86-.31-.86-.94v-36.5c0-.62,.29-.94,.86-.94h7.41c.62,0,.94,.31,.94,.94v36.5c0,.62-.31,.94-.94,.94h-7.41Z" style="fill:#fff;"/><path d="M645.2,103.81c-3.12,0-5.51-.94-7.18-2.81-1.67-1.87-2.5-4.55-2.5-8.03,0-2.7,.52-4.9,1.56-6.59,1.04-1.69,2.74-3.02,5.11-3.98,2.37-.96,5.52-1.6,9.48-1.91l7.25-.62v5.62l-6.47,.55c-3.02,.26-5.1,.83-6.24,1.72-1.14,.88-1.72,2.31-1.72,4.29,0,1.51,.31,2.64,.94,3.39,.62,.75,1.59,1.13,2.89,1.13,1.56,0,3.15-.51,4.76-1.52,1.61-1.01,3.64-2.82,6.08-5.42l.31,6.24c-1.56,1.72-3.09,3.17-4.6,4.37-1.51,1.2-3.04,2.09-4.6,2.69s-3.25,.9-5.07,.9Zm14.9-.94c-.31,0-.53-.09-.66-.27-.13-.18-.25-.43-.35-.74-.1-.52-.23-1.42-.39-2.69-.16-1.27-.29-2.46-.39-3.55l-.55-3.2v-15.6c0-2.18-.44-3.73-1.33-4.64-.88-.91-2.42-1.37-4.6-1.37-3.95,0-5.88,1.43-5.77,4.29,0,.62-.29,.94-.86,.94h-7.02c-.62,0-.96-.47-1.01-1.4-.31-3.48,.87-6.2,3.55-8.15,2.68-1.95,6.51-2.92,11.5-2.92s8.83,1.09,11.19,3.28,3.55,5.56,3.55,10.14v16.22c0,1.66,.04,3.22,.12,4.68,.08,1.46,.2,2.78,.35,3.98,.1,.68-.18,1.01-.86,1.01h-6.47Zm-4.13-44.07c-1.04,0-2-.18-2.89-.55-.88-.36-1.74-.71-2.57-1.05-.83-.34-1.74-.51-2.73-.51-.88,0-1.81,.18-2.77,.55-.96,.36-1.78,.7-2.46,1.01-.73,.31-1.09,.1-1.09-.62v-4.52c0-.52,.18-.91,.55-1.17,.52-.42,1.3-.87,2.34-1.36,1.04-.49,2.24-.74,3.59-.74s2.47,.17,3.35,.51c.88,.34,1.69,.7,2.42,1.09,.73,.39,1.53,.58,2.42,.58,.94,0,1.88-.18,2.85-.55,.96-.36,1.75-.7,2.38-1.01,.73-.36,1.09-.18,1.09,.55v4.52c0,.47-.18,.86-.55,1.17-.52,.42-1.3,.87-2.34,1.36-1.04,.49-2.24,.74-3.59,.74Z" style="fill:#fff;"/><path d="M693.09,103.81c-5.51,0-9.76-1.31-12.75-3.94-2.99-2.63-4.49-6.62-4.49-11.97v-8.42c0-5.3,1.48-9.28,4.45-11.93s7.23-3.98,12.79-3.98,9.75,1.33,12.71,3.98,4.45,6.63,4.45,11.93v8.42c0,5.36-1.47,9.35-4.41,11.97-2.94,2.63-7.19,3.94-12.75,3.94Zm0-7.88c2.81,0,4.84-.71,6.08-2.15,1.25-1.43,1.87-3.68,1.87-6.75v-6.71c0-3.07-.62-5.32-1.87-6.75-1.25-1.43-3.28-2.15-6.08-2.15s-4.85,.72-6.12,2.15c-1.27,1.43-1.91,3.68-1.91,6.75v6.71c0,3.07,.64,5.32,1.91,6.75,1.27,1.43,3.32,2.15,6.12,2.15Z" style="fill:#fff;"/><path d="M724.37,103.81c-1.92,0-3.37-.46-4.33-1.37-.96-.91-1.44-2.2-1.44-3.86v-1.25c0-1.72,.48-3.03,1.44-3.94,.96-.91,2.4-1.36,4.33-1.36s3.35,.46,4.29,1.36c.94,.91,1.4,2.22,1.4,3.94v1.25c0,1.67-.47,2.95-1.4,3.86-.94,.91-2.37,1.37-4.29,1.37Zm-3.67-17.71c-.62,0-.94-.29-.94-.86l-.7-32.53c0-.62,.31-.94,.94-.94h8.66c.57,0,.86,.31,.86,.94l-.62,32.53c0,.57-.31,.86-.94,.86h-7.25Z" style="fill:#fff;"/></g></g></svg>