<?xml version="1.0" encoding="UTF-8"?><svg id="Layer_2" xmlns="http://www.w3.org/2000/svg" viewBox="0 0 697.56 78.01"><g id="Layer_1-2"><g><g><path d="M5.27,51.3c-.46,0-.68-.25-.68-.74V11.44c0-.5,.23-.74,.68-.74h11.53c5.37,0,9.33,1.13,11.87,3.38,2.54,2.25,3.81,5.55,3.81,9.89s-1.3,7.51-3.91,9.76c-2.6,2.25-6.51,3.38-11.72,3.38h-4.84v13.45c0,.5-.25,.74-.74,.74H5.27Zm6.76-20.52h4.71c2.81,0,4.9-.54,6.26-1.61,1.36-1.07,2.05-2.79,2.05-5.15,0-2.48-.68-4.26-2.05-5.33-1.36-1.07-3.47-1.61-6.32-1.61h-4.65v13.7Z"/><path d="M39.12,51.3c-.46,0-.68-.25-.68-.74V28.43c0-1.24-.03-2.42-.09-3.53s-.18-2.21-.34-3.29c-.08-.54,.16-.81,.74-.81h5.21c.45,0,.72,.21,.81,.62,.16,.74,.29,1.59,.37,2.54,.08,.95,.12,1.8,.12,2.54l.5,3.6v20.46c0,.5-.25,.74-.74,.74h-5.89Zm5.95-18.48l-.37-6.32c.87-1.24,1.85-2.35,2.94-3.32,1.09-.97,2.21-1.74,3.35-2.29,1.14-.56,2.18-.84,3.13-.84,.7,0,1.26,.06,1.67,.19,.37,.12,.56,.39,.56,.81,.08,.99,.11,2.06,.09,3.19-.02,1.14-.09,2.2-.22,3.19-.08,.54-.39,.74-.93,.62-.25-.04-.56-.08-.93-.12-.37-.04-.77-.06-1.18-.06-.91,0-1.85,.2-2.82,.59-.97,.39-1.9,.96-2.79,1.71-.89,.74-1.73,1.63-2.51,2.67Z"/><path d="M73.66,52.05c-4.38,0-7.76-1.04-10.14-3.13-2.38-2.09-3.56-5.26-3.56-9.52v-6.7c0-4.22,1.18-7.38,3.53-9.49s5.75-3.16,10.17-3.16,7.75,1.05,10.11,3.16c2.36,2.11,3.53,5.27,3.53,9.49v6.7c0,4.26-1.17,7.43-3.5,9.52-2.34,2.09-5.71,3.13-10.14,3.13Zm0-6.26c2.23,0,3.84-.57,4.84-1.71,.99-1.14,1.49-2.92,1.49-5.36v-5.33c0-2.44-.5-4.23-1.49-5.36-.99-1.14-2.6-1.71-4.84-1.71s-3.85,.57-4.87,1.71c-1.01,1.14-1.52,2.92-1.52,5.36v5.33c0,2.44,.51,4.23,1.52,5.36,1.01,1.14,2.63,1.71,4.87,1.71Z"/><path d="M107.26,52.05c-4.38,0-7.74-1.07-10.08-3.22-2.34-2.15-3.5-5.25-3.5-9.3v-7.01c0-4.01,1.18-7.09,3.53-9.24,2.36-2.15,5.72-3.22,10.11-3.22,2.77,0,5.1,.44,7.01,1.33,1.9,.89,3.35,2.09,4.34,3.6,.99,1.51,1.45,3.24,1.36,5.18-.04,.87-.29,1.3-.74,1.3h-5.58c-.46,0-.68-.33-.68-.99,0-1.32-.51-2.35-1.52-3.07-1.01-.72-2.39-1.08-4.12-1.08-2.15,0-3.75,.55-4.8,1.64-1.05,1.1-1.58,2.86-1.58,5.3v5.58c0,2.4,.53,4.14,1.58,5.24,1.05,1.1,2.63,1.64,4.74,1.64,1.82,0,3.21-.38,4.19-1.15,.97-.76,1.46-1.75,1.46-2.95,0-.62,.23-.93,.68-.93h5.58c.45,0,.7,.23,.74,.68,.08,3.22-.95,5.81-3.1,7.75-2.15,1.94-5.35,2.91-9.61,2.91Z"/><path d="M139.5,52.05c-4.46,0-7.81-.98-10.04-2.95-2.23-1.96-3.35-4.89-3.35-8.77v-7.69c0-4.13,1.11-7.26,3.32-9.39,2.21-2.13,5.55-3.19,10.01-3.19s7.69,1.03,9.92,3.1c2.23,2.07,3.35,5.08,3.35,9.05v4.84c0,.5-.25,.74-.74,.74h-18.6v1.86c0,2.27,.49,3.94,1.46,4.99,.97,1.05,2.55,1.58,4.74,1.58,1.69,0,3.01-.27,3.94-.81,.93-.54,1.4-1.34,1.4-2.42,0-.5,.25-.74,.74-.74h5.7c.45,0,.7,.23,.74,.68,.12,2.98-.9,5.24-3.07,6.79-2.17,1.55-5.34,2.33-9.52,2.33Zm-6.14-19.22h12.15v-.31c0-2.27-.5-3.95-1.49-5.02-.99-1.08-2.5-1.61-4.53-1.61s-3.66,.55-4.65,1.64c-.99,1.1-1.49,2.78-1.49,5.05v.25Z"/><path d="M170.38,52.05c-4.09,0-7.1-.81-9.02-2.42-1.92-1.61-2.82-4.11-2.7-7.5,0-.45,.25-.68,.74-.68h5.58c.41,0,.62,.23,.62,.68,0,1.49,.39,2.58,1.18,3.29,.78,.7,1.98,1.05,3.6,1.05,1.69,0,2.96-.27,3.78-.81,.83-.54,1.24-1.36,1.24-2.48,0-.78-.27-1.46-.81-2.01-.54-.56-1.41-1.08-2.6-1.58l-7.07-2.98c-2.15-.91-3.69-1.98-4.62-3.22-.93-1.24-1.4-2.85-1.4-4.84,0-2.81,.92-4.93,2.76-6.36,1.84-1.43,4.68-2.14,8.52-2.14s6.88,.74,8.87,2.23c1.98,1.49,2.98,3.66,2.98,6.51,0,.46-.25,.68-.74,.68h-5.58c-.5,0-.74-.33-.74-.99,0-.91-.39-1.62-1.18-2.14-.79-.52-1.88-.78-3.29-.78s-2.52,.25-3.22,.74c-.7,.5-1.05,1.24-1.05,2.23,0,.74,.22,1.32,.65,1.74s1.29,.89,2.57,1.43l7.07,2.98c2.19,.91,3.77,2,4.74,3.25,.97,1.26,1.46,2.9,1.46,4.93,0,3.02-1.05,5.3-3.16,6.85s-5.17,2.33-9.18,2.33Z"/><path d="M198.77,52.05c-4.09,0-7.1-.81-9.02-2.42-1.92-1.61-2.82-4.11-2.7-7.5,0-.45,.25-.68,.74-.68h5.58c.41,0,.62,.23,.62,.68,0,1.49,.39,2.58,1.18,3.29,.78,.7,1.98,1.05,3.6,1.05,1.69,0,2.96-.27,3.78-.81,.83-.54,1.24-1.36,1.24-2.48,0-.78-.27-1.46-.81-2.01-.54-.56-1.41-1.08-2.6-1.58l-7.07-2.98c-2.15-.91-3.69-1.98-4.62-3.22-.93-1.24-1.4-2.85-1.4-4.84,0-2.81,.92-4.93,2.76-6.36,1.84-1.43,4.68-2.14,8.52-2.14s6.88,.74,8.87,2.23c1.98,1.49,2.98,3.66,2.98,6.51,0,.46-.25,.68-.74,.68h-5.58c-.5,0-.74-.33-.74-.99,0-.91-.39-1.62-1.18-2.14-.79-.52-1.88-.78-3.29-.78s-2.52,.25-3.22,.74c-.7,.5-1.05,1.24-1.05,2.23,0,.74,.22,1.32,.65,1.74s1.29,.89,2.57,1.43l7.07,2.98c2.19,.91,3.77,2,4.74,3.25,.97,1.26,1.46,2.9,1.46,4.93,0,3.02-1.05,5.3-3.16,6.85s-5.17,2.33-9.18,2.33Z"/><path d="M230.27,52.05c-4.38,0-7.76-1.04-10.14-3.13-2.38-2.09-3.56-5.26-3.56-9.52v-6.7c0-4.22,1.18-7.38,3.53-9.49s5.75-3.16,10.17-3.16,7.75,1.05,10.11,3.16c2.36,2.11,3.53,5.27,3.53,9.49v6.7c0,4.26-1.17,7.43-3.5,9.52-2.34,2.09-5.71,3.13-10.14,3.13Zm0-6.26c2.23,0,3.84-.57,4.84-1.71,.99-1.14,1.49-2.92,1.49-5.36v-5.33c0-2.44-.5-4.23-1.49-5.36-.99-1.14-2.6-1.71-4.84-1.71s-3.85,.57-4.87,1.71c-1.01,1.14-1.52,2.92-1.52,5.36v5.33c0,2.44,.51,4.23,1.52,5.36,1.01,1.14,2.63,1.71,4.87,1.71Z"/><path d="M271.93,52.05c-2.89,0-5.1-.91-6.63-2.73-1.53-1.82-2.29-4.59-2.29-8.31v-8.43c0-4.17,.97-7.31,2.91-9.39,1.94-2.09,4.65-3.13,8.12-3.13,1.49,0,3.1,.2,4.84,.59,1.74,.39,3.12,.92,4.15,1.58l.25,5.83c-1.16-.62-2.4-1.08-3.72-1.39-1.32-.31-2.5-.47-3.53-.47-1.9,0-3.33,.6-4.28,1.8-.95,1.2-1.43,2.96-1.43,5.27v7.01c0,1.82,.35,3.18,1.05,4.09,.7,.91,1.78,1.36,3.22,1.36,.95,0,1.87-.19,2.76-.56,.89-.37,1.83-.94,2.82-1.71s2.11-1.77,3.35-3.01l.25,5.39c-1.24,1.2-2.47,2.27-3.69,3.22-1.22,.95-2.49,1.69-3.81,2.2-1.32,.52-2.77,.78-4.34,.78Zm12.21-.74c-.46,0-.72-.23-.81-.68-.12-.66-.24-1.45-.34-2.36-.1-.91-.15-1.69-.15-2.36l-.56-3.29V9.7c0-.5,.25-.74,.74-.74h5.83c.5,0,.74,.25,.74,.74V43.93c0,.7,.02,1.46,.06,2.26,.04,.81,.09,1.58,.16,2.33s.11,1.36,.15,1.86c.12,.62-.1,.93-.68,.93h-5.15Z"/><path d="M310.12,52.05c-4.46,0-7.81-.98-10.04-2.95-2.23-1.96-3.35-4.89-3.35-8.77v-7.69c0-4.13,1.11-7.26,3.32-9.39,2.21-2.13,5.55-3.19,10.01-3.19s7.69,1.03,9.92,3.1c2.23,2.07,3.35,5.08,3.35,9.05v4.84c0,.5-.25,.74-.74,.74h-18.6v1.86c0,2.27,.49,3.94,1.46,4.99,.97,1.05,2.55,1.58,4.74,1.58,1.69,0,3.01-.27,3.94-.81,.93-.54,1.4-1.34,1.4-2.42,0-.5,.25-.74,.74-.74h5.7c.45,0,.7,.23,.74,.68,.12,2.98-.9,5.24-3.07,6.79-2.17,1.55-5.34,2.33-9.52,2.33Zm-6.14-19.22h12.15v-.31c0-2.27-.5-3.95-1.49-5.02-.99-1.08-2.5-1.61-4.53-1.61s-3.66,.55-4.65,1.64c-.99,1.1-1.49,2.78-1.49,5.05v.25Z"/><path d="M344.28,51.3c-.46,0-.68-.25-.68-.74V11.44c0-.5,.23-.74,.68-.74h11.53c5.37,0,9.33,1.13,11.87,3.38,2.54,2.25,3.81,5.55,3.81,9.89s-1.3,7.51-3.91,9.76c-2.6,2.25-6.51,3.38-11.72,3.38h-4.84v13.45c0,.5-.25,.74-.74,.74h-6.01Zm6.76-20.52h4.71c2.81,0,4.9-.54,6.26-1.61,1.36-1.07,2.05-2.79,2.05-5.15,0-2.48-.68-4.26-2.05-5.33-1.36-1.07-3.47-1.61-6.32-1.61h-4.65v13.7Z"/><path d="M382.91,52.05c-2.48,0-4.38-.74-5.7-2.23-1.32-1.49-1.98-3.62-1.98-6.39,0-2.15,.41-3.9,1.24-5.24,.83-1.34,2.18-2.4,4.06-3.16,1.88-.76,4.39-1.27,7.53-1.52l5.77-.5v4.46l-5.15,.43c-2.4,.21-4.05,.66-4.96,1.36-.91,.7-1.36,1.84-1.36,3.41,0,1.2,.25,2.1,.74,2.7,.5,.6,1.26,.9,2.29,.9,1.24,0,2.5-.4,3.78-1.21,1.28-.81,2.89-2.24,4.84-4.31l.25,4.96c-1.24,1.36-2.46,2.52-3.66,3.47-1.2,.95-2.42,1.67-3.66,2.14-1.24,.47-2.58,.71-4.03,.71Zm11.84-.74c-.25,0-.42-.07-.53-.22-.1-.14-.2-.34-.28-.59-.08-.41-.19-1.13-.31-2.14-.12-1.01-.23-1.95-.31-2.82l-.43-2.54v-12.4c0-1.74-.35-2.97-1.05-3.69-.7-.72-1.92-1.08-3.66-1.08-3.14,0-4.67,1.14-4.59,3.41,0,.5-.23,.74-.68,.74h-5.58c-.5,0-.77-.37-.81-1.12-.25-2.77,.69-4.93,2.82-6.48,2.13-1.55,5.18-2.33,9.15-2.33s7.02,.87,8.9,2.6c1.88,1.74,2.82,4.42,2.82,8.06v12.9c0,1.32,.03,2.56,.09,3.72s.15,2.21,.28,3.16c.08,.54-.15,.81-.68,.81h-5.15Z"/><path d="M408.76,51.3c-.46,0-.68-.25-.68-.74V28.43c0-1.24-.03-2.42-.09-3.53s-.18-2.21-.34-3.29c-.08-.54,.16-.81,.74-.81h5.21c.45,0,.72,.21,.81,.62,.16,.74,.29,1.59,.37,2.54,.08,.95,.12,1.8,.12,2.54l.5,3.6v20.46c0,.5-.25,.74-.74,.74h-5.89Zm5.95-18.48l-.37-6.32c.87-1.24,1.85-2.35,2.94-3.32,1.09-.97,2.21-1.74,3.35-2.29,1.14-.56,2.18-.84,3.13-.84,.7,0,1.26,.06,1.67,.19,.37,.12,.56,.39,.56,.81,.08,.99,.11,2.06,.09,3.19-.02,1.14-.09,2.2-.22,3.19-.08,.54-.39,.74-.93,.62-.25-.04-.56-.08-.93-.12-.37-.04-.77-.06-1.18-.06-.91,0-1.85,.2-2.82,.59-.97,.39-1.9,.96-2.79,1.71-.89,.74-1.73,1.63-2.51,2.67Z"/><path d="M443.85,52.05c-2.4,0-4.31-.37-5.73-1.12-1.43-.74-2.46-1.9-3.1-3.47-.64-1.57-.96-3.58-.96-6.01v-14.51h-4.53c-.5,0-.74-.25-.74-.74v-4.65c0-.5,.25-.74,.74-.74h4.77l.81-7.44c.08-.45,.35-.68,.81-.68h4.71c.5,0,.74,.25,.74,.74v7.38h8.49c.5,0,.74,.25,.74,.74v4.65c0,.5-.25,.74-.74,.74h-8.49v14.14c0,1.65,.31,2.85,.93,3.6,.62,.74,1.65,1.12,3.1,1.12,.74,0,1.5-.08,2.26-.25,.76-.17,1.48-.39,2.14-.68,.58-.21,.87-.02,.87,.56v4.77c0,.41-.19,.68-.56,.81-.83,.33-1.77,.59-2.82,.77-1.05,.19-2.2,.28-3.44,.28Z"/><path d="M459.97,16.4c-1.41,0-2.47-.37-3.19-1.12-.72-.74-1.08-1.69-1.08-2.85v-.93c0-1.2,.36-2.16,1.08-2.88,.72-.72,1.79-1.09,3.19-1.09s2.46,.36,3.16,1.09c.7,.72,1.05,1.68,1.05,2.88v.93c0,1.16-.35,2.11-1.05,2.85-.7,.74-1.76,1.12-3.16,1.12Zm-2.98,34.91c-.46,0-.68-.25-.68-.74V21.54c0-.5,.23-.74,.68-.74h5.89c.5,0,.74,.25,.74,.74v29.02c0,.5-.25,.74-.74,.74h-5.89Z"/><path d="M484.28,52.05c-4.38,0-7.74-1.07-10.08-3.22-2.34-2.15-3.5-5.25-3.5-9.3v-7.01c0-4.01,1.18-7.09,3.53-9.24,2.36-2.15,5.72-3.22,10.11-3.22,2.77,0,5.1,.44,7.01,1.33,1.9,.89,3.35,2.09,4.34,3.6,.99,1.51,1.45,3.24,1.36,5.18-.04,.87-.29,1.3-.74,1.3h-5.58c-.46,0-.68-.33-.68-.99,0-1.32-.51-2.35-1.52-3.07-1.01-.72-2.39-1.08-4.12-1.08-2.15,0-3.75,.55-4.8,1.64-1.05,1.1-1.58,2.86-1.58,5.3v5.58c0,2.4,.53,4.14,1.58,5.24,1.05,1.1,2.63,1.64,4.74,1.64,1.82,0,3.21-.38,4.19-1.15,.97-.76,1.46-1.75,1.46-2.95,0-.62,.23-.93,.68-.93h5.58c.45,0,.7,.23,.74,.68,.08,3.22-.95,5.81-3.1,7.75-2.15,1.94-5.35,2.91-9.61,2.91Z"/><path d="M507.77,16.4c-1.41,0-2.47-.37-3.19-1.12-.72-.74-1.08-1.69-1.08-2.85v-.93c0-1.2,.36-2.16,1.08-2.88,.72-.72,1.79-1.09,3.19-1.09s2.46,.36,3.16,1.09c.7,.72,1.05,1.68,1.05,2.88v.93c0,1.16-.35,2.11-1.05,2.85-.7,.74-1.76,1.12-3.16,1.12Zm-2.98,34.91c-.46,0-.68-.25-.68-.74V21.54c0-.5,.23-.74,.68-.74h5.89c.5,0,.74,.25,.74,.74v29.02c0,.5-.25,.74-.74,.74h-5.89Z"/><path d="M519.99,62.77c-.46,0-.68-.25-.68-.74V28.18c0-1.07-.04-2.19-.12-3.35-.08-1.16-.19-2.23-.31-3.22-.04-.54,.21-.81,.74-.81h5.21c.45,0,.72,.23,.81,.68,.08,.33,.16,.75,.25,1.27,.08,.52,.14,1.04,.19,1.58,.04,.54,.06,.97,.06,1.3l.5,3.47V62.03c0,.5-.25,.74-.74,.74h-5.89Zm14.57-10.73c-1.45,0-3.01-.2-4.68-.59-1.67-.39-3.07-.92-4.19-1.58l-.12-5.83c1.07,.62,2.23,1.08,3.47,1.39,1.24,.31,2.4,.47,3.47,.47,1.98,0,3.43-.6,4.34-1.8,.91-1.2,1.36-2.95,1.36-5.27v-6.57c0-2.02-.35-3.51-1.05-4.46-.7-.95-1.8-1.43-3.29-1.43-1.28,0-2.58,.39-3.91,1.18-1.32,.79-2.89,2.01-4.71,3.66l-.31-5.46c1.2-1.16,2.4-2.16,3.6-3.01,1.2-.85,2.44-1.51,3.72-1.98,1.28-.47,2.67-.71,4.15-.71,3.02,0,5.29,.9,6.82,2.7,1.53,1.8,2.29,4.56,2.29,8.28v8.49c0,4.22-.94,7.36-2.82,9.42-1.88,2.07-4.6,3.1-8.15,3.1Z"/><path d="M558.86,52.05c-2.48,0-4.38-.74-5.7-2.23-1.32-1.49-1.98-3.62-1.98-6.39,0-2.15,.41-3.9,1.24-5.24,.83-1.34,2.18-2.4,4.06-3.16,1.88-.76,4.39-1.27,7.53-1.52l5.77-.5v4.46l-5.15,.43c-2.4,.21-4.05,.66-4.96,1.36-.91,.7-1.36,1.84-1.36,3.41,0,1.2,.25,2.1,.74,2.7,.5,.6,1.26,.9,2.29,.9,1.24,0,2.5-.4,3.78-1.21,1.28-.81,2.89-2.24,4.84-4.31l.25,4.96c-1.24,1.36-2.46,2.52-3.66,3.47-1.2,.95-2.42,1.67-3.66,2.14-1.24,.47-2.58,.71-4.03,.71Zm11.84-.74c-.25,0-.42-.07-.53-.22-.1-.14-.2-.34-.28-.59-.08-.41-.19-1.13-.31-2.14-.12-1.01-.23-1.95-.31-2.82l-.43-2.54v-12.4c0-1.74-.35-2.97-1.05-3.69-.7-.72-1.92-1.08-3.66-1.08-3.14,0-4.67,1.14-4.59,3.41,0,.5-.23,.74-.68,.74h-5.58c-.5,0-.77-.37-.81-1.12-.25-2.77,.69-4.93,2.82-6.48,2.13-1.55,5.18-2.33,9.15-2.33s7.02,.87,8.9,2.6c1.88,1.74,2.82,4.42,2.82,8.06v12.9c0,1.32,.03,2.56,.09,3.72s.15,2.21,.28,3.16c.08,.54-.15,.81-.68,.81h-5.15Z"/><path d="M596.8,52.05c-4.38,0-7.74-1.07-10.08-3.22-2.34-2.15-3.5-5.25-3.5-9.3v-7.01c0-4.01,1.18-7.09,3.53-9.24,2.36-2.15,5.72-3.22,10.11-3.22,2.77,0,5.1,.44,7.01,1.33,1.9,.89,3.35,2.09,4.34,3.6,.99,1.51,1.45,3.24,1.36,5.18-.04,.87-.29,1.3-.74,1.3h-5.58c-.46,0-.68-.33-.68-.99,0-1.32-.51-2.35-1.52-3.07-1.01-.72-2.39-1.08-4.12-1.08-2.15,0-3.75,.55-4.8,1.64-1.05,1.1-1.58,2.86-1.58,5.3v5.58c0,2.4,.53,4.14,1.58,5.24,1.05,1.1,2.63,1.64,4.74,1.64,1.82,0,3.21-.38,4.19-1.15,.97-.76,1.46-1.75,1.46-2.95,0-.62,.23-.93,.68-.93h5.58c.45,0,.7,.23,.74,.68,.08,3.22-.95,5.81-3.1,7.75-2.15,1.94-5.35,2.91-9.61,2.91Zm-.93,11.47c-.58,0-1.12-.02-1.61-.06-.5-.04-.99-.1-1.49-.19-.37-.08-.56-.29-.56-.62v-2.85c0-.41,.19-.6,.56-.56,.25,.04,.55,.07,.9,.09,.35,.02,.65,.03,.9,.03,.87,0,1.49-.12,1.86-.37,.37-.25,.56-.58,.56-.99v-.62c0-.58-.17-.97-.5-1.18-.33-.21-.83-.31-1.49-.31h-1.43c-.29,0-.43-.15-.43-.43,0-.21,0-.43,.03-.68,.02-.25,.05-.46,.09-.62l1.55-4.84c.08-.29,.29-.43,.62-.43h3.91c.41,0,.54,.25,.37,.74l-1.3,3.91h.56c1.12,0,1.98,.35,2.6,1.05,.62,.7,.93,1.65,.93,2.85v.99c0,1.65-.54,2.91-1.61,3.78-1.08,.87-2.75,1.3-5.02,1.3Z"/><path d="M621.98,52.05c-2.48,0-4.38-.74-5.7-2.23-1.32-1.49-1.98-3.62-1.98-6.39,0-2.15,.41-3.9,1.24-5.24,.83-1.34,2.18-2.4,4.06-3.16,1.88-.76,4.39-1.27,7.53-1.52l5.77-.5v4.46l-5.15,.43c-2.4,.21-4.05,.66-4.96,1.36-.91,.7-1.36,1.84-1.36,3.41,0,1.2,.25,2.1,.74,2.7,.5,.6,1.26,.9,2.29,.9,1.24,0,2.5-.4,3.78-1.21,1.28-.81,2.89-2.24,4.84-4.31l.25,4.96c-1.24,1.36-2.46,2.52-3.66,3.47-1.2,.95-2.42,1.67-3.66,2.14-1.24,.47-2.58,.71-4.03,.71Zm11.84-.74c-.25,0-.42-.07-.53-.22-.1-.14-.2-.34-.28-.59-.08-.41-.19-1.13-.31-2.14-.12-1.01-.23-1.95-.31-2.82l-.43-2.54v-12.4c0-1.74-.35-2.97-1.05-3.69-.7-.72-1.92-1.08-3.66-1.08-3.14,0-4.67,1.14-4.59,3.41,0,.5-.23,.74-.68,.74h-5.58c-.5,0-.77-.37-.81-1.12-.25-2.77,.69-4.93,2.82-6.48,2.13-1.55,5.18-2.33,9.15-2.33s7.02,.87,8.9,2.6c1.88,1.74,2.82,4.42,2.82,8.06v12.9c0,1.32,.03,2.56,.09,3.72s.15,2.21,.28,3.16c.08,.54-.15,.81-.68,.81h-5.15Zm-3.29-35.03c-.83,0-1.59-.14-2.29-.43-.7-.29-1.39-.57-2.05-.84-.66-.27-1.39-.4-2.17-.4-.7,0-1.44,.15-2.2,.43-.77,.29-1.42,.56-1.95,.81-.58,.25-.87,.08-.87-.5v-3.6c0-.41,.14-.72,.43-.93,.41-.33,1.03-.69,1.86-1.08,.83-.39,1.78-.59,2.85-.59s1.96,.13,2.67,.4c.7,.27,1.34,.56,1.92,.87,.58,.31,1.22,.46,1.92,.46,.74,0,1.5-.14,2.26-.43,.76-.29,1.4-.56,1.89-.81,.58-.29,.87-.14,.87,.43v3.6c0,.37-.15,.68-.43,.93-.41,.33-1.03,.69-1.86,1.08-.83,.39-1.78,.59-2.85,.59Z"/><path d="M660.04,52.05c-4.38,0-7.76-1.04-10.14-3.13-2.38-2.09-3.56-5.26-3.56-9.52v-6.7c0-4.22,1.18-7.38,3.53-9.49s5.75-3.16,10.17-3.16,7.75,1.05,10.11,3.16c2.36,2.11,3.53,5.27,3.53,9.49v6.7c0,4.26-1.17,7.43-3.5,9.52-2.34,2.09-5.71,3.13-10.14,3.13Zm0-6.26c2.23,0,3.84-.57,4.84-1.71,.99-1.14,1.49-2.92,1.49-5.36v-5.33c0-2.44-.5-4.23-1.49-5.36-.99-1.14-2.6-1.71-4.84-1.71s-3.85,.57-4.87,1.71c-1.01,1.14-1.52,2.92-1.52,5.36v5.33c0,2.44,.51,4.23,1.52,5.36,1.01,1.14,2.63,1.71,4.87,1.71Z"/></g><g><path d="M697.11,77.47c.54,.07,.37-.33,.45-.4-.91,.02-.43,.5-.45,.4Z" style="fill:#1c43df;"/><polygon points="688.18 77.71 688.35 77.56 687.02 77.86 688.18 77.71" style="fill:#1c43df;"/><path d="M679.88,77.09c.75,.72,3.01,.11,4.48,.46l.24,.17,.7-.49c-1.8-.05-4.15,.14-5.41-.14Z" style="fill:#1c43df;"/><path d="M675.53,75.33c.26,.28-.97,.15,1.03,.16-.1-.04-.13-.05-.18-.08-.18,0-.43-.03-.84-.08Z" style="fill:#1c43df;"/><path d="M676.37,75.4c.88,.05-.56-.26,0,0h0Z" style="fill:#1c43df;"/><path d="M672.33,75.26l1.16-.15c-.23-.17-1.26-.28-.87-.36-1.19,.04-.95,.21-.29,.51Z" style="fill:#1c43df;"/><path d="M671.22,75.66l.6-.05c-.1-.07-.26-.11-.6,.05Z" style="fill:#1c43df;"/><path d="M673.09,75.5l-1.27,.11c.16,.12,.17,.34,.58-.03-.11,.19,.15,.02,.69-.08Z" style="fill:#1c43df;"/><path d="M673.8,75.65c.64,.19,1.47,.34,.3,.49,2.21,.07,1.9-.42-.3-.49Z" style="fill:#1c43df;"/><path d="M679.43,77.75l.85,.26,.76-.17c-.38,.08-1.65-.3-1.61-.09Z" style="fill:#1c43df;"/><path d="M665.17,74.5c-.08,.14,.37,.4,.45,.59l.86-.12c-.43-.12-1.26-.26-1.31-.47Z" style="fill:#1c43df;"/><path d="M665.62,75.08l-1.28,.17c1.14,.09,1.35-.01,1.28-.17Z" style="fill:#1c43df;"/><polygon points="670.98 76.39 673.09 76.03 670.57 76.37 670.98 76.39" style="fill:#1c43df;"/><polygon points="660.3 74.22 661.04 73.93 659.73 74.35 660.3 74.22" style="fill:#1c43df;"/><path d="M657.08,74.1c.54-.24-.71-.5-.14-.64-.88,0-1.64,.19-2.32,.37,.72-.08,1.48,0,2.46,.27Z" style="fill:#1c43df;"/><path d="M653.47,74.07c.36-.05,.73-.14,1.14-.24-.38,.04-.76,.11-1.14,.24Z" style="fill:#1c43df;"/><path d="M662.17,75.07c-.09-.09-.28-.33-.99-.46l.48,.43c.15,.01,.33,.02,.5,.03Z" style="fill:#1c43df;"/><path d="M661.68,75.05h-.02c-.54-.05-.92-.08-1.08-.09,.14,.01,.47,.04,1.1,.09Z" style="fill:#1c43df;"/><path d="M662.29,75.08s-.08,0-.13,0c.05,.04,.08,.06,.13,0Z" style="fill:#1c43df;"/><path d="M667.66,75.85c-.76,.18-2.33,.34-.83,.76,.55-.24-.31-.49,.83-.76Z" style="fill:#1c43df;"/><path d="M662.89,75.61l1.35,.16c-.02-.11-.26-.27,.12-.36l-1.46,.2Z" style="fill:#1c43df;"/><polygon points="662.23 75.7 662.89 75.61 662.39 75.55 662.23 75.7" style="fill:#1c43df;"/><path d="M655.77,74.57c-.59,.14-1.23,.12-1.95,.11,.77,.12,1.57,.21,2.33,.25,.11-.12,.45-.33-.38-.36Z" style="fill:#1c43df;"/><path d="M658.64,74.84s-.09,.01-.13,.02c.08,.04,.14,.05,.13-.02Z" style="fill:#1c43df;"/><polygon points="646.71 74.29 646.83 74.37 646.86 74.31 646.71 74.29" style="fill:#1c43df;"/><path d="M656.28,75.01c.58,.11,.93,.03,1.27-.08-.44,.02-.9,.02-1.39,0-.05,.05-.06,.09,.13,.08Z" style="fill:#1c43df;"/><path d="M651.48,74.15c.3,.1,.64,.19,1,.27-.29-.14-.89-.37-1-.27Z" style="fill:#1c43df;"/><path d="M658.32,74.73s.06,0,.09-.01c-.19-.1-.17-.05-.09,.01Z" style="fill:#1c43df;"/><path d="M658.32,74.73c-.3,.04-.54,.13-.78,.2,.36-.01,.69-.04,.97-.08-.07-.03-.14-.08-.19-.12Z" style="fill:#1c43df;"/><path d="M644.48,76.74c.11-.36,1.65-.62,2.96-.16,1.31-.21,.5-1.47-.61-2.21-.05,.16-.05,.31-1.39,.45,.46,.23,2.95,.63,1.81,.91-1.78,.09-1.45-.21-2.3-.45,.72,.5-2.27,.55-1.91,1.25l1.56-.15c.03,.11-.54,.25-.11,.36Z" style="fill:#1c43df;"/><path d="M649.37,74.55l.55-.02c-.62-.1-1.07-.27-1.88-.61-.92,.13-1.12,.26-1.18,.38l2.71,.2-.19,.05Z" style="fill:#1c43df;"/><path d="M652.39,74.67c-.44,.38-1.77,.48-.98,.96,1.61,.06,1.14-.28,2.11-.4-2.61-.04,.76-.18-1.12-.51,.51-.04,.98-.04,1.41-.03-.47-.07-.92-.16-1.34-.26,.02,.01,.04,.02,.06,.03h.01s0,0,0,0c.11,.06,.15,.09,.02,.05,0,0-.04,0-.05,0-.02,.06-.07,.1-.12,.15-.75-.12-.11-.11,.12-.15,0-.02,.03-.04,.03-.06h0s-2.62,.07-2.62,.07c.55,.09,1.24,.11,2.47,.13Z" style="fill:#1c43df;"/><path d="M665.4,77.4c-.08-.04-.07-.07-.08-.1-.17,.04-.24,.07,.08,.1Z" style="fill:#1c43df;"/><path d="M664.33,77.1c.19-.05,.36-.2,.97-.12,.53,.15-.01,.19,.01,.33,.38-.09,1.31-.22,.16-.48l-.19,.05c-1.04-.2-2.37-.77-2.19-.82,.29,.38,.55,.65,1.23,1.05Z" style="fill:#1c43df;"/><path d="M658.29,75.98l-2.18,.08,1.09,.41-.05-.21c1.23,.15,.97-.12,1.13-.28Z" style="fill:#1c43df;"/><polygon points="646.47 74.08 646.78 73.67 645.5 74.2 646.47 74.08" style="fill:#1c43df;"/><polygon points="643.65 73.98 643.77 73.61 643.01 73.8 643.65 73.98" style="fill:#1c43df;"/><path d="M484.29,75.68l-.64,.11c.3-.03,.5-.07,.64-.11Z" style="fill:#1c43df;"/><path d="M488.91,75.69l.11-.18c-.21,.1-.3,.18-.11,.18Z" style="fill:#1c43df;"/><path d="M574.29,71.83c-.93-.36-1.96-.92-1.85-.5l.28,.41c.65-.06,1.15,0,1.57,.09Z" style="fill:#1c43df;"/><path d="M526.78,73.63c.09,.04,.18,.08,.27,.13,.23-.14,.44-.27,.63-.38-.27,.08-.58,.17-.9,.26Z" style="fill:#1c43df;"/><path d="M526.11,75.31l-1.22-.27c.28,.09,.67,.19,1.22,.27Z" style="fill:#1c43df;"/><path d="M459.06,76.24l-.74,.42c1.16-.01,.65-.22,.74-.42Z" style="fill:#1c43df;"/><path d="M614.72,72.97c-.8-.19-1.44-.28-2-.32,.96,.25,1.73,.65,2,.32Z" style="fill:#1c43df;"/><path d="M486.1,71.37c-.39,.07-.56,.16-.55,.25,.4-.07,.63-.15,.55-.25Z" style="fill:#1c43df;"/><path d="M610.41,72.6c.14,.04,.28,.07,.42,.11,.59-.05,1.18-.09,1.9-.05-.71-.19-1.53-.32-2.32-.06Z" style="fill:#1c43df;"/><path d="M367.55,77.31c-.07-.02-.15-.02-.21-.04-.02,.06,.07,.06,.21,.04Z" style="fill:#1c43df;"/><path d="M340.81,73.92c.26-.03,.69-.05,1.09-.06-.2-.02-.53,0-1.09,.06Z" style="fill:#1c43df;"/><path d="M632.29,73.34c.6,0,.1-.04,0,0h0Z" style="fill:#1c43df;"/><path d="M635.16,75.06c-.13,.04-.23,.09-.25,.19,.05-.1,.14-.15,.25-.19Z" style="fill:#1c43df;"/><path d="M604.39,74.96s-.03,0-.05,0c.18,.08,.15,.07,.05,0Z" style="fill:#1c43df;"/><path d="M633.19,73.56c-.22-.06-.48-.11-.76-.15,.12,.04,.35,.08,.76,.15Z" style="fill:#1c43df;"/><path d="M633.07,73.36c.21,.02,.37,.04,.52,.06,.08-.06,.01-.11-.52-.06Z" style="fill:#1c43df;"/><path d="M631.46,73.33c.34,0,.66,.04,.97,.08-.12-.03-.17-.06-.13-.07-.18,0-.42,0-.84-.01Z" style="fill:#1c43df;"/><path d="M416.57,75.29s-.08-.02-.13-.04c-.6,.18-.34,.15,.13,.04Z" style="fill:#1c43df;"/><path d="M558.66,75.77s.04-.01,.07-.02c-.03,0-.06-.01-.09-.02l.02,.03Z" style="fill:#1c43df;"/><path d="M556.5,76.03c.92-.49,1.44-.42,2.13-.3l-.7-1.18-1.43,1.48Z" style="fill:#1c43df;"/><path d="M473.23,75.84l1.51,.36c-1.82,.61-3.14,.41-1.72,.91,.21-1.27,5.87-.15,6.07-1.42l1,.26c-.29-.01-.33,.06-.61,.05,1.94,.6,1.44-.92,3.93-.75,.87,.09,1.48,.28,.88,.43l1.94-.32c.56,.02,.43,.24-.13,.22l2.95-.11-.02,.04c.42-.2,1.38-.51,1.84-.65,.75,.18-.38,.14-.18,.29l1.64-.31c.67,.33-.69,.65-1.82,.61,1.53,1.27,1.36-.33,4.65,.42l-1.54,.16c1,.72,2.2,.46,3.95,.92-.41-.24-3.5-1.14-1.72-1.45,.5,.1,1.16,.14,2.12-.11,0,.45,.94,.34,2.11,.32l-.08,.6c1.26-.17,1.17-.47,1.91-.74,1.41,.06,1.7,.53,2.03,.92,2.26,.1-1.56-.75,1.11-.85,1.88,.23,3.2,0,5.44-.36,1.31,.21-.23,.37,.24,.54l1.17-.47c.29,.01,.19,.16,.15,.23,.98-.18,.08-.6,1.63-.76,.42-.66,3.17,.97,5.08,.23,.47,.17-.23,.37-.09,.6,2.62-.48,2.25-.36,4.4-1l1.83,.41c-1.35-.46,.38-.98,1.89-1.4-.48-.22-.88-.42-1.16-.51l2.41-.3c.29,.1,.05,.3-.35,.55,.16-.05,.32-.1,.44-.14,.86,.23,.41,.57-.21,.9-.29-.13-.58-.25-.86-.38-.6,.36-1.15,.76-1.03,1.11,.16-.07,.46-.12,.79-.15-.16,.1-.26,.18-.18,.24,.08,.06,.33-.07,.73-.22l.54,.67,.13-.26,3.14,.45c2.26-.65,4.22-1.62,7.8-1.86-.89,.48-.2,.8-.25,1.38-.97-.62-2.77,.24-4.62,.09,.97,.07,.75,.35,.51,.44l3.31-.53c-.08,.47,.7,.36,1.56,.57-.65-.94,2.47-.6,3.81-.88,.08,.32-.24,.63-1.88,.54,1.8,.72,2.35-1.08,4.12-.46-.4,0-.62-.05-.78,.11,.94-.27,3.22-.03,2.68,.24h-.4c2.66,.13,8.09,.09,8.5-.68,.03,.1-.36,.95-.52,1.11l4.77-2.59c-.43,.68,1.16,2.33-1.05,2.68,.63,.11,1.41,.24,2.75,.02-.43-.1-1.07-1.01-.47-1.06,1.61,.79,1.12,.43,3.11,1.11-.65-.16,.09-1.22,1.11-1.16-.16,.16,.07,1.06-.3,1.16l2.56-1.01c-.64,.18-.12,.89,.44,1.2-.26-.21,2.2,.06,2.88-.03l-1.08-.26c2.87,.21,2.86-1.43,5.71-1.32-.35,.21-.87,1.32,.58,1.48,.67-.53,2.98-2.54,5.51-2.91l.48,.32,1.94-.31c-1.22,.77-4.63,2.43-6.48,3.06,1.07,.26,.29,.37,1.91,.37,.56,.3-.88,.42-1.36,.43l3.75,.25c-.16-.64,2.88-.57,2.74-1.09l-4.08,.57c-.16-.63,2.38-1.76,5.04-1.56,.67,.27-.52,1.11-.47,1.32,.35-.21,2.53-.34,2.77-.18l-1.13,.31c1.47,.28,2.43-.77,4.19-.12,.61,.06,1.82,.86,1.93,.49-.99-.75-1.14-2.97-.47-3.49,.21,.05,3.21,.77,3.9,1.15,1,.59-1.54,1.3-.69,1.81,.04-.17,.6-.37,.84-.43,.64,.16-.28,.52,1.12,.49,.25-.63,2.85,.13,.67-.52,1.37-.14,1.45,.17,3.06,.19-.5-.43,1.47-1.36,2.85-1.51-.08,.16,.22,.38,.37,.48,2.81,.13,4.31,.47,6.92,.54,.24,.16,1.5,.38,.95,.64,.38-.1,.73-.31,1.54-.3,1.55,.61-1.8,.02-.63,.73,.11-.37,2.1-.43,3.25-.62-.34-.58-2.65-.22-3.81-.02,.01-.8,2.04-1.55,4.78-1.8,2.18-.11,.93,.55,1.31,.45,4.08,.3,3.52-1.24,6.89-.54,1.33,.56,.03,1,.32,1.38-1.78,.12-2.71-.43-3.91-.45l1.47,.3c-.57,.15-1.75,.23-2.39,.05,1.12,.5,6.9,.36,10.04,.9,.56-.15,1.54-.28,1.08-.5l-1,.03c-.9-.44,1.89-.49,.64-.73,1.35-.23,2.86-.62,4.74-.32l.34,.59c-.03-.17-1.22-.39-1.75-.24,.79-.22,2.86,.89,3.75,.17l-1.31-.45c1.35-.24,3.03-.78,4.7-.53-.74-.6-.39,.05-1.55-.66,1,.86-4.27-.2-2.65,.73-1.19-.82-2.1-.41-3.67-1.13,.04,.19,.55,.38-.85,.24-.06,.05-.22,.12-.31,.15-.04,0-.06-.01-.09-.02,.03,0,.05,.02,.08,.03-.06,.03-.07,.03,.03,0,.33,.1,.6,.21,.71,.32-.71,.41-2.94,.31-3.7,.5-.83-.12,.35-.2-.09-.42l-1.14,.29c-.1-.42-2.19-.78-.22-.95l-1.76-.09c-1.03-.28-2.46-.43-3.34-.28-.83-.12-2.11,.38-1.38,.08l-2.77,.15-.02-.11c-2.73-.15-5.63,.45-8.74-.38-.92,.08-1.87,.18-3.41,.02l-.29-.37c-1.18,.09-3.54-.46-4.05-.1-1.25-1.01-5.72-.37-7.79-.6l-.09,.47c-1.43-.07-2.8,.03-4.58,.17l.1,.42c-1.53,.3-3.92-.41-6.34-.43,.17-.16,.78-.1,1.21,.01-2.87-1.04-6.1,.57-8.71-.18-.65,.14-1.13,.08-1.58-.03,.06,0,.12,0,.16-.02-.07,0-.17,0-.27,0-.29-.08-.59-.16-.9-.24,.27,.11,.53,.2,.76,.24-.5,0-1.27,.04-2.02,.13l-.31-.46c-.06,0-.11,0-.17,.01-.73-.18-.59,.2-.21,.55-.38,.07-.72,.15-.99,.25-.59-.74-1.97,.21-2.77-.58-.51,.37-3.77,.22-4.17,1.01-.02-.1-.24-.16,.16-.16-.83-.11-1.67-.21-2.42,0l-.35-.58-1.83,.74c-1.1-.37-1.56-.58-.46-1-2.66,.63-2.16,.22-4.42,.85l.11-.37c-.81,0-2.1,.47-2.58,.16-1.8-.72-8.93-.18-13.55-.88,.89,1.1-2.15-.51-2.34,.33-.27-.26-.91-.41-.16-.63-2.37,.23-3.55-.44-5.19,.26-.27-.26,.51-.37,.27-.53-.19,.05-.75,.22-1,.06-.24-.16,.35-.21,.72-.32-2.42,.02-2.66,.81-2.84,1.56-1.22-.36-1.83-.32-2.72,.16-.42-.25-1.13-.51,.37-.58-.84-.05-5.15-.4-5.24,.2-.26-.15-1.18-.05-1.4,.02-1.89-.04-2.06-.09-3.92-.04l.52,.1c-.74,.72-1.55,.16-3.05,.24l.04-.07c-3.44-.53-1.48,.25-4.87-.36l.18,.45c-.32,.96-3-.58-4.97-.21l.71,.26c-1.08,.33-3-1.32-4.08-1.44-.24-.08,.37-.13,.7-.2-2.83-.58-.37,.59-2.47,.72-.39-.32,.5-.81-.92-.87-.71-.25-4.11,1.01-6.05,.42,.43,.24,.85,.49-.13,.67-1.5,.09-4.05-.91-5.41-.13-.19-.07-.26-.13-.27-.19-1.15,.2-3.72,.34-4.41,.76-1.06-1.55-7.12,.78-7.1-.65l-3.53,.09,.09-.15c-2.25-.09-3.05,.26-3.84,.61-.52-.1-.14-.23-.1-.31-3.29-.28-3.62-.2-6.38,.53l-.29-.46c-.75,.28-4.76-.68-7.99-.11,.03-.05,.1-.14,.35-.21-3.63,.58-8.71-1.21-10.03,.49l-2.39,.44c3.1,.1-.46,.74,.82,1.01-1.22,.11-3.16-.48-1.66-.58l.24,.08c.54-.89-3.86-.27-3.78-.87-6.1,.13-12.06-.28-17.78-.24l.67,.68h-1.99c-.53-.16-.71-.54,.71-.53-.75-.38-2.38,.36-2.42,.51-2.79-.24,1.08-.81,.22-.82l-1.16,.07,.26,.08c-.94,.29-1.02,.59-2.73,.58-1.08-.12-.56-.41-.99-.43,0-.05-.14-.07-.65,0h-2.51s1.01,.51,1.01,.51c-1.11,.29-2.36,.01-1.2,.6-1.71-.91-9.38-.17-10.42-.45-1.55,.42-3.09,.44-5,.43,.48,.1,.77,.71-.88,.66,.58-1.27-3.02-.48-4.36-1.36,1.2,.57-4.67,.25-2.8,1.06-1.37-.07-.09-.47-1.14-.74-3.26,.55-7.2-.16-11.24,.09-.06,.17,.62,.4-.24,.67l-2.15-.77c-.8,.1-.72,.97-2.18,.43,.21,.13,.52,.33-.02,.4-7.92-.62-16.15,1.06-24.21-.22,1.09,.29,.37,.34-.46,.38,.54,.06,0,.41,.11,.63l-3.38-.52c-.6,.64-3.61,.15-3.94,.75l1.06-.14c-1.4,.74,2.02,1.49,1.83,2.39,1.57-.84,4.2,1.05,6.78-.16,.58,.17-.48,.3-.17,.5,.65-.4,1.45-.5,2.92-.37l-.16,.1c4.14-.2,5.93,.12,10.59,.26l-.35-.43c1,.04,1.21,.17,1.69,.27,1.14-.7-2.81,.03-1.78-.74,1.34,.87,7.06-.16,7.97,.84,1.54-.03-.46-.5,1.08-.53l.41,.27,.38-.37c1.01,.03,1.53,.37,1.57,.6-.25-.02-.69,.08-.96,.11,1.31,.3,3.69-.2,4.14-.1l-1.48-.14c4.2-.35,9.33-.09,13.38-.75l-.31-.2c3.09-.45,2.49,.18,5.89-.07l-.12,.05c.68-.22,1.59-.35,2.52-.34-.86,.26,1.62,.45,.5,.74,3.36-.47,1.66-.36,3.87-1.17l.52,.34c.75-.33,.81-.49,2.51-.61-1.39,.32,1.09,.51-.46,.93,3.58,.7,5.29-.86,6.94,.22,1.63-.99-3.09-.48-2.18-.7-.77-.3,1.34-.74,2.46-.66,1.14,0,1.95,1.19,4.82,1.13-.29,0-.3,.07-.59,.07,1.08,.23,2.1-.37,3.42,0,.73-.59,1.71,.01,1.91-.73l-2.63,.21c1.49-.21,2.88-1.1,5.34-.71-.19,.15-.92,.36-1.42,.47,.72,.21,1.38-.16,2.13,.05-.2,.74-3.19,.2-4.78,.79,.77,.3,3.02-.58,2.22,.24,1.14-1.04,2.83,.09,4.76-.72l-.12,.45c.31-.07,.94-.29,1.51-.29l-1.02,.59c1.57-.51,3.03,.39,4.54,.1-3.16,.06-.71-.53-2.05-.83,3.89-.65,2.25,1.13,6.61,.86-.59,.07-2.22-.24-1.3-.46,.83,.08,1.93,.24,2.44,.46,2.89-.13-.45-.45,.78-.74,.99,.53,1.42-.24,2.68-.43v.45c3.31,.25,.88-.96,3.84-.64l-1.25,.64,1.54-.18-.31,.52c1.68-.4,2.2-.3,3.85-.17-.38-.31,.21-.82,1.67-.85,1,.26-.55,.43,1.51,.35-.46,.29-.97,.65-1.87,.24-.09,.15-.46,.29-.55,.43,1.07,.3,2.69,.05,3.44,.04-.29-.01-.63-.04-.81-.1l2.99-.65c.47,.17,.1,.3-.27,.44,.61-.05,1.02-.27,1.92-.31-.23,.37-.17,.75-1.43,.93l2.85-.43c.19,.16,1.47,.43,1.1,.56,1.58,.2,3.88-.75,5.97-.48,.11-.07,.33-.14,.77-.2,1.97,.07,3.72,.49,6.05-.02l1.33,.65c1.83-.16-1.8-.82,1.25-1.08,2.16-.22,.81,.56,1.56,.74,1.07-.34,2.93-1.02,4.92-.49-.66,.13-1.17,.03-1.78,.08Zm22.56-.36c-.44,.09-1.31,.38-1.63,.12,.5-.52,.88-.27,1.63-.12Zm34.3-.95c-.33,.15-.83,.07-1.39-.11,.41-.03,.88-.01,1.39,.11Zm95.62-1.08s-.03,.01-.05,.02c-.97-.21-.63-.13,.05-.02Zm2.02,.28c.21-.06,.19-.12,.11-.18-.14,.11-.6,.1-1.12,.05,.14,.12,.4,.22,1.01,.14Zm-217.6-1.38l.4,.11c-.89,.15-.64,.02-.4-.11Z" style="fill:#1c43df;"/><path d="M526.2,75.11c-.12-.08-.16-.16-.19-.25-.17,.07-.18,.16,.19,.25Z" style="fill:#1c43df;"/><path d="M459.19,76.16h-.07s-.06,.05-.07,.08l.14-.08Z" style="fill:#1c43df;"/><path d="M596.28,76.52c-.42-.08-.65-.17-.8-.25-.02,.11,.16,.21,.8,.25Z" style="fill:#1c43df;"/><path d="M638.5,73.38l-1.3,.07c.63,0,.85,.11,1.16,.19-.03-.11-.27-.27,.14-.26Z" style="fill:#1c43df;"/><path d="M649.66,76.72c.19-.05,.4,.02,.59-.03l-.04-.21c-.81-.03-1.38,.11-.55,.24Z" style="fill:#1c43df;"/><path d="M639.65,74.93c.09,.38,.91,.29,1.82,.25h-.16c.29-.53-.69-.39-1.66-.25Z" style="fill:#1c43df;"/><path d="M641.68,75.18c.28,0,.57,0,.84,.02,.11-.21-.34-.06-.84-.02Z" style="fill:#1c43df;"/><path d="M630.31,73.57c.43,.11,.28-.47,.52-.31,.5-.46-2.89,.47-.52,.31Z" style="fill:#1c43df;"/><polygon points="640.35 76.21 640.04 75.73 639.52 76.08 640.35 76.21" style="fill:#1c43df;"/><path d="M633.18,75.58l1.45,.19c-.02-.08,.17-.12,.39-.14-.89-.05-1.87-.18-1.84-.04Z" style="fill:#1c43df;"/><path d="M635.03,75.62c.47,.03,.91,.04,1.17-.03-.25,0-.8-.01-1.17,.03Z" style="fill:#1c43df;"/><polygon points="638.36 76.27 637.93 76.15 636.91 76.08 638.36 76.27" style="fill:#1c43df;"/><path d="M617.58,74.87l-1.59,.07c-.17,.15,.26,.27,.86,.23,.38-.1,.97-.14,.73-.3Z" style="fill:#1c43df;"/><path d="M622.34,76.35c-.43-.11-.45-.22-.69-.38l-.06,.58,.75-.2Z" style="fill:#1c43df;"/><path d="M617.72,76.3c-.16,.16-2.31,.37-.3,.41,.16-.15,1.75-.22,.3-.41Z" style="fill:#1c43df;"/><polygon points="593.86 74.86 594.26 74.86 594.22 73.91 593.86 74.86" style="fill:#1c43df;"/><path d="M572.78,76.66c1.87,.26,.45-.58,2.15-.27,.44-.22-1.38-.26-.93-.44-1.14,.22-1.73,.07-1.22,.71Z" style="fill:#1c43df;"/><path d="M574,75.95c.18-.03,.38-.08,.58-.13-.33,.05-.48,.1-.58,.13Z" style="fill:#1c43df;"/><polygon points="336.37 73.54 335.16 73.38 335.95 73.67 336.37 73.54" style="fill:#1c43df;"/><path d="M334.07,74.32l-.3-.6-.71,.57c.27-.04,.8-.11,1.01,.03Z" style="fill:#1c43df;"/><path d="M499.14,76.72l.09-.15c-.19-.16-.47-.17-1.04-.2l.94,.34Z" style="fill:#1c43df;"/><polygon points="482.77 76.28 483.05 76.29 482.52 75.75 482.77 76.28" style="fill:#1c43df;"/><path d="M469.03,77.03c.56,.02,1.22-.1,1.78-.08-1.22,.1-1.94-.6-1.78,.08Z" style="fill:#1c43df;"/></g></g></g></svg>