<?xml version="1.0" encoding="UTF-8"?><svg id="Layer_2" xmlns="http://www.w3.org/2000/svg" width="37.03" height="37.03" viewBox="0 0 37.03 37.03"><g id="Layer_1-2"><g><g><circle cx="18.51" cy="18.51" r="18.01" style="fill:#fff;"/><path d="M18.51,1.01c9.66,0,17.5,7.84,17.5,17.5s-7.84,17.5-17.5,17.5S1.01,28.18,1.01,18.51,8.85,1.01,18.51,1.01m0-1.01C8.31,0,0,8.31,0,18.51s8.31,18.51,18.51,18.51,18.51-8.31,18.51-18.51S28.72,0,18.51,0h0Z" style="fill:#0b3b9b;"/></g><path d="M28.61,8.39c-.52-.52-1.42-.57-2.61-.15-.81,.29-1.67,.78-2.08,1.19l-2.18,2.18h-3.05s-.9-.89-.9-.89l-.9,.9-9.84,.02v3.3l8.3,3.07-1.27,1.27-4.09,.24-2.86,2.86,4.44,2.14-1.83,1.83,.91,.91,1.83-1.83,2.14,4.44,2.86-2.86,.24-4.09,1.22-1.22,3.07,8.32h3.3l.02-9.86,.95-.95-.91-.91-.04,.04v-3.03s2.23-2.22,2.23-2.22c.41-.41,.9-1.26,1.19-2.08,.42-1.18,.37-2.09-.15-2.61ZM8.34,14.03v-1.12l12.11-.02-4.1,4.1-8.02-2.96Zm15.69,14.69h-1.12l-2.97-8.03,4.1-4.1-.02,12.14Zm3.51-18.16c-.25,.69-.65,1.37-.89,1.6l-10.18,10.18-.24,4.09-1.23,1.23-1.55-3.21,1.12-1.12-.91-.91-1.12,1.12-3.21-1.55,1.23-1.23,4.09-.24,10.18-10.18c.24-.24,.91-.64,1.6-.89,.78-.28,1.19-.22,1.26-.15,.07,.07,.13,.48-.15,1.26Z" style="fill:#0b3b9b;"/></g></g></svg>