<?xml version="1.0" encoding="UTF-8"?><svg id="Layer_2" xmlns="http://www.w3.org/2000/svg" width="24" height="24" viewBox="0 0 24 24"><g id="Layer_1-2"><g><g><circle cx="12" cy="12" r="11.67" style="fill:#0b3b9b;"/><path d="M12,.66c6.26,0,11.34,5.08,11.34,11.34s-5.08,11.34-11.34,11.34S.66,18.26,.66,12,5.74,.66,12,.66m0-.66C5.38,0,0,5.38,0,12s5.38,12,12,12,12-5.38,12-12S18.62,0,12,0h0Z" style="fill:#fff;"/></g><path d="M18.54,5.44c-.34-.34-.92-.37-1.69-.1-.53,.19-1.08,.51-1.35,.77l-1.41,1.41h-1.98s-.58-.58-.58-.58l-.59,.59H4.57v2.15l5.38,1.99-.82,.82-2.65,.16-1.85,1.85,2.88,1.39-1.19,1.19,.59,.59,1.19-1.19,1.39,2.88,1.85-1.85,.16-2.65,.79-.79,1.99,5.39h2.14v-6.39s.63-.62,.63-.62l-.59-.59-.02,.02v-1.97s1.44-1.44,1.44-1.44c.26-.26,.58-.82,.77-1.35,.28-.77,.24-1.35-.1-1.69Zm-13.13,3.66v-.72h7.85s-2.66,2.64-2.66,2.64l-5.19-1.92Zm10.17,9.52h-.72l-1.92-5.21,2.66-2.66v7.87Zm2.26-11.77c-.16,.44-.42,.89-.58,1.04l-6.6,6.6-.16,2.65-.8,.8-1.01-2.08,.73-.73-.59-.59-.72,.72-2.08-1,.8-.8,2.65-.16,6.6-6.6c.15-.15,.59-.42,1.04-.58,.51-.18,.77-.14,.82-.1,.04,.04,.08,.31-.1,.82Z" style="fill:#fff;"/></g></g></svg>