<?xml version="1.0" encoding="UTF-8"?><svg id="Layer_2" xmlns="http://www.w3.org/2000/svg" viewBox="0 0 389.54 5.26" preserveAspectRatio="none"><g id="Layer_1-2"><g><path d="M389.05,4.87c.57,.05,.39-.24,.48-.29-.97,.01-.46,.36-.48,.29Z" fill="#fff"/><polygon points="379.52 5.04 379.69 4.93 378.27 5.15 379.52 5.04" fill="#fff"/><path d="M370.65,4.59c.8,.53,3.22,.08,4.78,.34l.25,.12,.74-.36c-1.93-.03-4.44,.1-5.78-.1Z" fill="#fff"/><path d="M366,3.3c.28,.2-1.03,.11,1.1,.11-.11-.03-.14-.04-.2-.06-.19,0-.46-.02-.9-.06Z" fill="#fff"/><path d="M366.9,3.35c.94,.03-.6-.19,0,0h0Z" fill="#fff"/><path d="M362.58,3.25l1.24-.11c-.25-.12-1.34-.21-.93-.27-1.27,.03-1.02,.15-.31,.37Z" fill="#fff"/><path d="M361.39,3.54l.64-.04c-.11-.05-.28-.08-.64,.04Z" fill="#fff"/><path d="M363.39,3.42l-1.36,.08c.17,.09,.18,.25,.62-.02-.12,.14,.16,.01,.74-.06Z" fill="#fff"/><path d="M364.15,3.53c.68,.14,1.57,.25,.32,.36,2.36,.05,2.04-.31-.32-.36Z" fill="#fff"/><path d="M370.16,5.07l.91,.19,.81-.12c-.4,.06-1.77-.22-1.72-.07Z" fill="#fff"/><path d="M354.92,2.69c-.08,.1,.4,.29,.48,.43l.92-.09c-.46-.09-1.35-.19-1.4-.34Z" fill="#fff"/><path d="M355.4,3.12l-1.37,.13c1.21,.07,1.44-.01,1.37-.13Z" fill="#fff"/><polygon points="361.13 4.07 363.39 3.81 360.7 4.06 361.13 4.07" fill="#fff"/><polygon points="349.72 2.48 350.51 2.27 349.11 2.58 349.72 2.48" fill="#fff"/><path d="M346.27,2.4c.58-.18-.76-.37-.15-.47-.94,0-1.75,.14-2.48,.27,.77-.06,1.58,0,2.63,.2Z" fill="#fff"/><path d="M342.42,2.38c.38-.03,.79-.1,1.22-.18-.41,.03-.81,.08-1.22,.18Z" fill="#fff"/><path d="M351.72,3.11c-.1-.07-.29-.24-1.05-.34l.52,.31c.16,0,.35,.02,.54,.02Z" fill="#fff"/><path d="M351.2,3.09h-.02c-.58-.04-.98-.06-1.16-.07,.15,0,.5,.03,1.17,.07Z" fill="#fff"/><path d="M351.85,3.11s-.09,0-.13,0c.05,.03,.08,.04,.13,0Z" fill="#fff"/><path d="M357.58,3.68c-.81,.13-2.49,.25-.89,.56,.59-.18-.33-.35,.89-.56Z" fill="#fff"/><path d="M352.49,3.5l1.44,.12c-.02-.08-.28-.2,.12-.27l-1.56,.15Z" fill="#fff"/><polygon points="351.78 3.57 352.49 3.5 351.96 3.46 351.78 3.57" fill="#fff"/><path d="M344.88,2.74c-.63,.1-1.31,.09-2.09,.08,.82,.09,1.68,.15,2.49,.18,.12-.09,.49-.24-.4-.26Z" fill="#fff"/><path d="M347.95,2.94s-.1,0-.14,.01c.08,.03,.15,.04,.14-.01Z" fill="#fff"/><polygon points="335.2 2.54 335.32 2.6 335.35 2.55 335.2 2.54" fill="#fff"/><path d="M345.42,3.07c.62,.08,.99,.02,1.35-.06-.47,.01-.96,.01-1.49,0-.05,.04-.06,.07,.14,.06Z" fill="#fff"/><path d="M340.3,2.44c.32,.07,.68,.14,1.07,.2-.31-.1-.95-.27-1.07-.2Z" fill="#fff"/><path d="M347.61,2.86s.06,0,.09,0c-.2-.07-.18-.04-.09,0Z" fill="#fff"/><path d="M347.61,2.86c-.32,.03-.58,.09-.83,.15,.38,0,.73-.03,1.04-.06-.08-.02-.15-.06-.2-.09Z" fill="#fff"/><path d="M332.81,4.33c.12-.27,1.77-.46,3.16-.11,1.4-.15,.54-1.08-.65-1.62-.05,.12-.05,.23-1.49,.33,.49,.17,3.15,.46,1.93,.66-1.9,.07-1.54-.15-2.46-.33,.76,.37-2.43,.4-2.04,.91l1.67-.11c.03,.08-.58,.18-.12,.27Z" fill="#fff"/><path d="M338.04,2.73h.59c-.67-.08-1.14-.21-2.01-.45-.98,.1-1.19,.19-1.26,.28l2.89,.15-.2,.03Z" fill="#fff"/><path d="M341.27,2.81c-.47,.28-1.89,.35-1.05,.7,1.72,.04,1.22-.2,2.26-.29-2.79-.03,.81-.13-1.19-.38,.55-.03,1.04-.03,1.51-.02-.5-.05-.98-.12-1.43-.19,.02,0,.04,.01,.06,.02h.01s0,0,0,0c.12,.04,.16,.06,.02,.04,0,0-.04,0-.06,0-.02,.04-.07,.07-.13,.11-.8-.09-.12-.08,.13-.11,0-.01,.03-.03,.04-.04h-.01s-2.8,.05-2.8,.05c.59,.06,1.33,.08,2.64,.1Z" fill="#fff"/><path d="M355.17,4.81c-.08-.03-.08-.05-.08-.07-.18,.03-.25,.05,.08,.07Z" fill="#fff"/><path d="M354.03,4.59c.21-.03,.38-.14,1.04-.09,.57,.11-.01,.14,.01,.24,.4-.06,1.4-.16,.17-.35l-.2,.03c-1.12-.14-2.53-.56-2.34-.6,.31,.28,.59,.48,1.32,.76Z" fill="#fff"/><path d="M347.57,3.77l-2.33,.06,1.17,.3-.05-.16c1.32,.11,1.04-.09,1.21-.2Z" fill="#fff"/><polygon points="334.94 2.38 335.27 2.08 333.9 2.47 334.94 2.38" fill="#fff"/><polygon points="331.92 2.31 332.05 2.04 331.24 2.18 331.92 2.31" fill="#fff"/><path d="M161.62,3.56l-.68,.08c.32-.02,.53-.05,.68-.08Z" fill="#fff"/><path d="M166.55,3.56l.12-.13c-.23,.07-.32,.13-.12,.13Z" fill="#fff"/><path d="M257.8,.74c-.99-.26-2.09-.67-1.98-.36l.3,.3c.7-.04,1.23,0,1.68,.06Z" fill="#fff"/><path d="M207.02,2.06c.09,.03,.19,.06,.29,.09,.24-.1,.47-.19,.67-.28-.29,.06-.62,.12-.96,.19Z" fill="#fff"/><path d="M206.31,3.28l-1.31-.2c.29,.07,.71,.14,1.31,.2Z" fill="#fff"/><path d="M134.65,3.96l-.79,.31c1.24,0,.7-.16,.79-.31Z" fill="#fff"/><path d="M301.01,1.58c-.85-.14-1.53-.21-2.13-.23,1.03,.19,1.85,.47,2.13,.23Z" fill="#fff"/><path d="M163.55,.4c-.42,.05-.6,.12-.58,.18,.43-.05,.67-.11,.58-.18Z" fill="#fff"/><path d="M296.4,1.3c.15,.03,.3,.05,.45,.08,.63-.04,1.26-.07,2.03-.03-.76-.14-1.63-.24-2.48-.05Z" fill="#fff"/><path d="M36.86,4.75c-.07-.01-.16-.02-.22-.03-.02,.04,.08,.04,.22,.03Z" fill="#fff"/><path d="M8.29,2.27c.28-.02,.74-.03,1.17-.05-.21-.02-.56,0-1.17,.05Z" fill="#fff"/><path d="M319.79,1.84c.64,0,.1-.03,0,0h0Z" fill="#fff"/><path d="M322.85,3.1c-.14,.03-.24,.07-.26,.14,.06-.07,.15-.11,.26-.14Z" fill="#fff"/><path d="M289.97,3.03s-.03,0-.06,0c.19,.06,.16,.05,.06,0Z" fill="#fff"/><path d="M320.75,2c-.24-.04-.51-.08-.81-.11,.13,.03,.38,.06,.81,.11Z" fill="#fff"/><path d="M320.62,1.86c.22,.02,.39,.03,.56,.04,.08-.05,.01-.08-.56-.04Z" fill="#fff"/><path d="M318.9,1.84c.37,0,.71,.03,1.03,.06-.12-.02-.18-.04-.14-.05-.19,0-.45,0-.89,0Z" fill="#fff"/><path d="M89.24,3.27s-.09-.02-.14-.03c-.64,.13-.36,.11,.14,.03Z" fill="#fff"/><path d="M241.09,3.62s.05,0,.07-.01c-.03,0-.07,0-.09-.01l.02,.02Z" fill="#fff"/><path d="M238.79,3.81c.98-.36,1.54-.31,2.28-.22l-.75-.86-1.53,1.08Z" fill="#fff"/><path d="M149.8,3.67l1.61,.26c-1.95,.44-3.35,.3-1.84,.67,.22-.93,6.27-.11,6.49-1.04l1.06,.19c-.3,0-.35,.05-.65,.04,2.07,.44,1.53-.68,4.2-.55,.93,.07,1.58,.2,.94,.31l2.07-.23c.6,.02,.46,.18-.14,.16l3.16-.08-.02,.03c.45-.15,1.47-.37,1.97-.47,.8,.13-.4,.1-.2,.21l1.75-.23c.71,.24-.74,.48-1.94,.44,1.63,.93,1.45-.24,4.97,.31l-1.65,.12c1.06,.53,2.35,.34,4.22,.67-.44-.17-3.74-.83-1.84-1.06,.53,.07,1.24,.11,2.26-.08,0,.33,1.01,.25,2.26,.23l-.09,.44c1.35-.12,1.25-.35,2.04-.54,1.51,.05,1.82,.38,2.17,.67,2.41,.07-1.67-.55,1.19-.62,2.01,.17,3.42,0,5.82-.26,1.4,.15-.25,.27,.26,.39l1.25-.35c.3,0,.21,.12,.16,.17,1.05-.13,.09-.44,1.74-.55,.45-.48,3.38,.71,5.43,.17,.5,.12-.24,.27-.09,.44,2.8-.35,2.4-.26,4.7-.73l1.96,.3c-1.44-.34,.4-.71,2.02-1.02-.51-.16-.95-.3-1.24-.37l2.57-.22c.31,.07,.05,.22-.37,.4,.17-.04,.34-.07,.47-.1,.92,.17,.44,.42-.22,.66-.31-.09-.62-.19-.92-.28-.64,.26-1.23,.55-1.1,.81,.17-.05,.49-.09,.84-.11-.17,.07-.27,.13-.2,.18,.09,.05,.36-.05,.78-.16l.58,.49,.14-.19,3.36,.33c2.41-.48,4.51-1.19,8.33-1.36-.95,.35-.21,.58-.27,1.01-1.04-.46-2.96,.17-4.94,.07,1.03,.05,.8,.25,.54,.32l3.53-.39c-.08,.35,.75,.26,1.67,.41-.69-.69,2.64-.44,4.08-.64,.09,.23-.26,.46-2.01,.4,1.93,.53,2.51-.79,4.4-.34-.43,0-.66-.03-.83,.08,1-.2,3.44-.02,2.87,.18h-.43c2.84,.1,8.65,.07,9.08-.5,.03,.08-.38,.7-.56,.81l5.1-1.9c-.45,.49,1.24,1.7-1.12,1.96,.68,.08,1.51,.17,2.94,.01-.46-.08-1.14-.74-.51-.77,1.72,.58,1.2,.31,3.32,.81-.69-.12,.09-.89,1.18-.85-.17,.12,.08,.77-.32,.85l2.73-.74c-.68,.13-.13,.65,.47,.88-.28-.15,2.35,.04,3.08-.03l-1.15-.19c3.07,.15,3.05-1.05,6.1-.97-.37,.15-.93,.97,.62,1.08,.72-.39,3.18-1.86,5.89-2.13l.51,.23,2.08-.23c-1.3,.57-4.95,1.78-6.93,2.24,1.15,.19,.31,.27,2.04,.27,.6,.22-.95,.31-1.45,.32l4,.18c-.17-.47,3.07-.42,2.93-.8l-4.36,.41c-.17-.46,2.55-1.29,5.38-1.14,.72,.2-.56,.81-.5,.96,.37-.15,2.7-.25,2.96-.13l-1.21,.22c1.58,.2,2.59-.56,4.48-.09,.65,.04,1.94,.63,2.06,.36-1.05-.54-1.22-2.17-.5-2.55,.23,.04,3.43,.57,4.17,.84,1.07,.43-1.65,.95-.74,1.32,.04-.12,.64-.27,.89-.31,.69,.12-.3,.38,1.2,.35,.26-.46,3.04,.1,.72-.38,1.47-.11,1.55,.12,3.27,.14-.54-.31,1.57-1,3.04-1.1-.09,.12,.23,.28,.39,.35,3,.1,4.6,.34,7.4,.4,.25,.12,1.6,.28,1.02,.47,.4-.07,.78-.23,1.64-.22,1.66,.44-1.93,.02-.67,.53,.12-.27,2.24-.31,3.48-.45-.36-.43-2.84-.16-4.07-.01,.01-.58,2.18-1.13,5.11-1.32,2.33-.08,.99,.4,1.4,.33,4.36,.22,3.76-.91,7.37-.39,1.42,.41,.04,.73,.34,1.01-1.9,.09-2.9-.31-4.18-.33l1.57,.22c-.61,.11-1.87,.16-2.56,.04,1.19,.36,7.37,.26,10.73,.66,.6-.11,1.64-.21,1.16-.37l-1.07,.02c-.97-.32,2.02-.36,.68-.53,1.44-.17,3.06-.45,5.06-.23l.36,.43c-.04-.12-1.3-.29-1.88-.17,.85-.16,3.06,.65,4,.13l-1.4-.33c1.44-.17,3.24-.57,5.02-.39-.79-.44-.41,.04-1.66-.48,1.07,.63-4.56-.15-2.83,.53-1.28-.6-2.24-.3-3.92-.82,.05,.14,.59,.28-.9,.17-.07,.04-.23,.09-.33,.11-.05,0-.06,0-.1-.01,.03,0,.05,.01,.08,.02-.07,.02-.07,.02,.03,0,.35,.07,.64,.15,.75,.23-.76,.3-3.14,.22-3.95,.37-.89-.09,.38-.15-.1-.31l-1.21,.21c-.11-.31-2.34-.57-.24-.7l-1.88-.06c-1.1-.2-2.63-.31-3.57-.21-.89-.09-2.26,.28-1.47,.06l-2.96,.11-.02-.08c-2.92-.11-6.02,.33-9.34-.28-.98,.06-2,.13-3.64,.02l-.31-.27c-1.26,.07-3.78-.34-4.33-.07-1.34-.74-6.12-.27-8.33-.44l-.09,.35c-1.53-.05-2.99,.02-4.89,.13l.11,.31c-1.64,.22-4.19-.3-6.78-.31,.18-.11,.83-.07,1.29,0-3.07-.76-6.52,.41-9.31-.13-.7,.1-1.2,.06-1.69-.02,.06,0,.12,0,.17-.01-.07,0-.18,0-.29,0-.31-.06-.63-.11-.97-.18,.29,.08,.57,.14,.81,.17-.54,0-1.35,.03-2.16,.1l-.33-.33c-.07,0-.12,0-.19,0-.78-.13-.63,.15-.22,.4-.4,.05-.77,.11-1.06,.19-.63-.54-2.1,.15-2.96-.42-.54,.27-4.02,.16-4.46,.74-.03-.08-.26-.11,.17-.11-.89-.08-1.78-.15-2.58,0l-.37-.42-1.96,.54c-1.18-.27-1.67-.42-.49-.73-2.84,.46-2.3,.16-4.72,.62l.12-.27c-.86,0-2.25,.35-2.76,.12-1.92-.53-9.54-.13-14.48-.64,.95,.8-2.3-.37-2.5,.24-.29-.19-.98-.3-.17-.46-2.53,.17-3.79-.32-5.54,.19-.29-.19,.54-.27,.29-.39-.2,.04-.8,.16-1.07,.04-.26-.11,.37-.16,.77-.24-2.58,.02-2.85,.59-3.04,1.14-1.31-.27-1.96-.23-2.91,.12-.45-.18-1.21-.37,.39-.43-.9-.03-5.51-.3-5.6,.15-.28-.11-1.26-.03-1.5,.02-2.02-.03-2.2-.07-4.19-.03l.55,.07c-.79,.53-1.65,.11-3.25,.18l.05-.05c-3.67-.39-1.59,.18-5.21-.26l.2,.33c-.34,.71-3.21-.42-5.31-.15l.76,.19c-1.15,.24-3.21-.96-4.36-1.05-.25-.06,.4-.1,.75-.14-3.02-.42-.39,.43-2.64,.53-.42-.23,.54-.59-.98-.63-.76-.19-4.39,.74-6.46,.3,.46,.18,.91,.35-.14,.49-1.6,.07-4.33-.66-5.78-.1-.2-.05-.28-.09-.29-.14-1.22,.15-3.98,.25-4.72,.56-1.14-1.13-7.61,.57-7.59-.47l-3.77,.07,.1-.11c-2.41-.06-3.26,.19-4.1,.44-.56-.07-.15-.17-.11-.22-3.52-.2-3.87-.15-6.82,.39l-.31-.34c-.8,.2-5.09-.5-8.54-.08,.03-.04,.1-.1,.38-.15-3.88,.42-9.31-.88-10.72,.36l-2.56,.32c3.32,.08-.49,.54,.88,.74-1.3,.08-3.37-.35-1.77-.43l.25,.06c.58-.65-4.12-.2-4.04-.64-6.52,.09-12.89-.21-19-.18l.71,.49h-2.13c-.56-.12-.76-.39,.76-.39-.8-.28-2.55,.26-2.59,.37-2.98-.18,1.15-.59,.24-.6l-1.24,.05,.28,.06c-1,.21-1.09,.43-2.92,.43-1.16-.09-.6-.3-1.05-.32,0-.04-.15-.05-.7,0h-2.69s1.08,.37,1.08,.37c-1.19,.21-2.53,0-1.28,.44-1.83-.67-10.02-.13-11.14-.33-1.66,.31-3.31,.32-5.35,.31,.51,.08,.82,.52-.94,.48,.62-.93-3.23-.35-4.66-.99,1.28,.42-5,.18-2.99,.77-1.47-.05-.1-.34-1.21-.54-3.48,.41-7.7-.12-12.01,.06-.06,.12,.66,.29-.26,.49l-2.29-.56c-.85,.07-.77,.71-2.34,.32,.22,.1,.55,.24-.02,.29-8.47-.45-17.26,.77-25.88-.16,1.17,.21,.4,.25-.49,.27,.58,.04,0,.3,.11,.46l-3.61-.38c-.64,.47-3.85,.11-4.21,.55l1.14-.1c-1.5,.54,2.15,1.09,1.95,1.75,1.68-.61,4.49,.77,7.25-.12,.62,.12-.52,.22-.18,.37,.7-.29,1.55-.37,3.13-.27l-.18,.07c4.43-.15,6.33,.09,11.32,.19l-.38-.32c1.07,.03,1.3,.12,1.8,.2,1.21-.51-3,.02-1.9-.54,1.44,.64,7.54-.12,8.52,.62,1.65-.02-.49-.37,1.15-.39l.44,.2,.41-.27c1.08,.03,1.63,.27,1.67,.44-.26-.02-.74,.06-1.02,.08,1.4,.22,3.94-.15,4.42-.08l-1.58-.1c4.49-.26,9.97-.07,14.3-.54l-.33-.15c3.31-.33,2.66,.13,6.29-.05l-.13,.04c.72-.16,1.7-.25,2.69-.25-.91,.19,1.73,.33,.53,.54,3.59-.35,1.77-.26,4.13-.86l.55,.25c.8-.24,.87-.36,2.68-.45-1.49,.24,1.17,.37-.5,.68,3.82,.51,5.65-.63,7.41,.16,1.74-.72-3.31-.35-2.33-.51-.83-.22,1.44-.54,2.63-.49,1.22,0,2.09,.87,5.15,.82-.3,0-.32,.05-.63,.05,1.15,.17,2.24-.27,3.65,0,.78-.43,1.83,0,2.04-.54l-2.81,.15c1.59-.16,3.07-.8,5.7-.52-.2,.11-.98,.26-1.52,.35,.77,.15,1.48-.12,2.27,.04-.22,.54-3.41,.15-5.11,.58,.83,.22,3.22-.42,2.37,.17,1.22-.76,3.02,.07,5.09-.52l-.13,.33c.33-.05,1.01-.21,1.61-.21l-1.09,.43c1.67-.37,3.24,.28,4.85,.07-3.37,.04-.76-.38-2.19-.61,4.15-.47,2.4,.83,7.06,.63-.63,.05-2.37-.17-1.39-.33,.89,.06,2.06,.17,2.61,.34,3.08-.1-.48-.33,.83-.54,1.06,.39,1.51-.18,2.86-.31v.33c3.53,.18,.94-.7,4.11-.47l-1.33,.47,1.65-.13-.34,.38c1.79-.29,2.35-.22,4.11-.13-.41-.23,.22-.6,1.78-.62,1.06,.19-.59,.32,1.62,.26-.5,.21-1.04,.47-2,.17-.1,.11-.49,.21-.59,.32,1.15,.22,2.88,.03,3.67,.03-.31-.01-.68-.03-.87-.07l3.2-.48c.51,.12,.11,.22-.29,.32,.65-.04,1.09-.19,2.05-.23-.24,.27-.18,.55-1.53,.68l3.05-.32c.2,.12,1.57,.31,1.17,.41,1.69,.15,4.14-.55,6.38-.35,.12-.05,.35-.1,.83-.15,2.11,.05,3.97,.36,6.47-.01l1.42,.48c1.95-.11-1.92-.6,1.33-.79,2.3-.16,.86,.41,1.67,.54,1.14-.25,3.14-.74,5.25-.36-.7,.09-1.25,.02-1.9,.06Zm24.11-.26c-.47,.07-1.4,.28-1.74,.09,.53-.38,.94-.2,1.74-.09Zm36.66-.7c-.35,.11-.89,.05-1.49-.08,.44-.02,.94,0,1.49,.08Zm102.19-.79s-.03,0-.05,.01c-1.04-.16-.67-.1,.05-.01Zm2.16,.2c.22-.04,.21-.09,.12-.13-.15,.08-.64,.07-1.19,.03,.15,.09,.43,.16,1.08,.1ZM82.37,1.12l.42,.08c-.95,.11-.68,.02-.42-.08Z" fill="#fff"/><path d="M206.41,3.14c-.13-.06-.17-.12-.2-.18-.18,.05-.19,.12,.2,.18Z" fill="#fff"/><path d="M134.8,3.9h-.07s-.06,.04-.07,.06l.15-.06Z" fill="#fff"/><path d="M281.3,4.17c-.44-.06-.69-.12-.85-.19-.03,.08,.17,.15,.85,.19Z" fill="#fff"/><path d="M326.42,1.87l-1.39,.05c.67,0,.91,.08,1.24,.14-.03-.08-.29-.2,.15-.19Z" fill="#fff"/><path d="M338.35,4.31c.2-.03,.43,.01,.63-.02l-.05-.16c-.86-.02-1.47,.08-.58,.18Z" fill="#fff"/><path d="M327.65,3c.1,.28,.97,.21,1.94,.18h-.17c.3-.39-.74-.28-1.77-.18Z" fill="#fff"/><path d="M329.82,3.18c.3,0,.61,0,.9,.02,.12-.15-.36-.04-.9-.02Z" fill="#fff"/><path d="M317.68,2.01c.46,.08,.3-.35,.56-.23,.53-.34-3.09,.34-.56,.23Z" fill="#fff"/><polygon points="328.4 3.94 328.06 3.59 327.51 3.85 328.4 3.94" fill="#fff"/><path d="M320.74,3.48l1.55,.14c-.02-.06,.18-.09,.42-.11-.96-.04-2-.13-1.97-.03Z" fill="#fff"/><path d="M322.71,3.51c.5,.02,.97,.03,1.25-.02-.27,0-.85,0-1.25,.02Z" fill="#fff"/><polygon points="326.27 3.98 325.82 3.9 324.72 3.85 326.27 3.98" fill="#fff"/><path d="M304.07,2.96l-1.7,.05c-.18,.11,.28,.2,.91,.17,.41-.07,1.04-.1,.78-.22Z" fill="#fff"/><path d="M309.15,4.04c-.45-.08-.48-.16-.74-.28l-.07,.42,.8-.14Z" fill="#fff"/><path d="M304.21,4.01c-.17,.11-2.47,.27-.32,.3,.18-.11,1.87-.16,.32-.3Z" fill="#fff"/><polygon points="278.72 2.95 279.15 2.95 279.1 2.26 278.72 2.95" fill="#fff"/><path d="M256.19,4.27c2,.19,.48-.42,2.29-.19,.47-.16-1.48-.19-.99-.32-1.21,.16-1.85,.05-1.3,.52Z" fill="#fff"/><path d="M257.49,3.75c.19-.02,.4-.06,.62-.1-.35,.04-.52,.07-.62,.1Z" fill="#fff"/><polygon points="3.54 1.99 2.25 1.87 3.09 2.09 3.54 1.99" fill="#fff"/><path d="M1.08,2.56l-.32-.44-.76,.42c.29-.03,.86-.08,1.08,.02Z" fill="#fff"/><path d="M177.49,4.31l.1-.11c-.2-.12-.5-.12-1.11-.14l1.01,.25Z" fill="#fff"/><polygon points="159.99 4 160.29 4 159.73 3.6 159.99 4" fill="#fff"/><path d="M145.31,4.54c.6,.02,1.3-.08,1.91-.06-1.31,.08-2.07-.44-1.91,.06Z" fill="#fff"/></g></g></svg>