<?xml version="1.0" standalone="no"?>
<!DOCTYPE svg PUBLIC "-//W3C//DTD SVG 20010904//EN"
 "http://www.w3.org/TR/2001/REC-SVG-20010904/DTD/svg10.dtd">
<svg version="1.0" xmlns="http://www.w3.org/2000/svg"
 width="802.000000pt" height="802.000000pt" viewBox="0 0 802.000000 802.000000"
 preserveAspectRatio="xMidYMid meet">
<metadata>
Created by potrace 1.14, written by Peter Selinger 2001-2017
</metadata>
<g transform="translate(0.000000,802.000000) scale(0.100000,-0.100000)"
fill="#000000" stroke="none">
<path d="M3905 7882 c-27 -6 -34 -19 -29 -55 9 -77 94 -177 150 -177 47 0 47
-10 0 -41 -30 -19 -46 -37 -51 -57 -6 -31 8 -135 31 -217 7 -27 16 -68 20 -90
3 -22 8 -43 10 -46 2 -4 6 -24 10 -45 3 -22 7 -43 7 -48 1 -5 -11 -12 -27 -17
-16 -4 -33 -14 -37 -21 -5 -8 -34 -12 -84 -13 -73 0 -78 -1 -101 -30 -13 -16
-24 -27 -24 -23 0 4 -21 1 -47 -6 -89 -25 -232 -48 -250 -41 -52 23 -237 -10
-248 -44 -4 -12 -27 -24 -73 -37 -78 -21 -78 -21 -116 -29 -16 -3 -39 -11 -50
-17 -12 -6 -22 -11 -23 -10 -2 1 -4 2 -5 1 -2 0 -10 -2 -18 -4 -50 -10 -176
-47 -192 -56 -10 -5 -18 -8 -18 -5 0 3 -33 -7 -72 -20 -40 -14 -77 -27 -83
-28 -10 -3 -23 -7 -60 -22 -11 -4 -22 -8 -25 -8 -8 -2 -100 -36 -218 -82 -62
-24 -131 -56 -155 -71 -23 -14 -80 -46 -127 -71 -144 -75 -285 -155 -292 -166
-4 -6 -8 -7 -8 -2 0 5 -8 2 -18 -7 -9 -8 -28 -22 -42 -29 -88 -47 -414 -285
-505 -369 -16 -16 -41 -37 -55 -49 -27 -23 -128 -115 -175 -160 -54 -51 -131
-134 -158 -172 -15 -20 -32 -42 -40 -50 -10 -11 -45 -53 -104 -128 -29 -36
-81 -111 -130 -185 -28 -44 -57 -85 -62 -92 -6 -7 -11 -17 -11 -22 0 -5 -6
-16 -13 -23 -19 -20 -140 -261 -181 -361 -51 -125 -104 -285 -131 -402 -20
-88 -28 -129 -50 -260 -14 -85 -20 -189 -20 -365 0 -214 7 -287 41 -470 3 -17
16 -80 19 -95 2 -5 8 -30 16 -55 7 -25 13 -49 15 -55 4 -17 34 -109 43 -130 5
-11 21 -50 36 -87 41 -103 116 -245 171 -326 27 -41 54 -81 59 -90 6 -10 13
-19 16 -22 3 -3 27 -31 53 -63 58 -71 178 -192 231 -231 22 -17 42 -33 45 -38
11 -15 208 -145 225 -148 6 -1 21 -10 35 -20 96 -67 482 -205 632 -225 15 -2
35 -6 45 -9 24 -7 296 -47 353 -52 25 -2 63 -6 85 -8 22 -3 78 -8 125 -11 47
-4 108 -9 135 -11 28 -3 79 -6 115 -9 76 -4 176 -13 240 -19 25 -3 74 -8 110
-11 36 -4 72 -8 80 -10 8 -2 38 -7 65 -10 28 -3 59 -8 70 -10 11 -2 28 -4 39
-4 16 -1 17 -6 11 -33 -3 -18 -9 -46 -11 -63 -12 -72 -46 -156 -125 -310 -98
-190 -104 -200 -116 -208 -19 -12 -34 -30 -88 -106 -34 -48 -62 -76 -87 -87
-48 -22 -61 -38 -60 -74 0 -16 -9 -44 -21 -62 -50 -74 -55 -153 -14 -199 87
-96 245 -144 332 -100 24 12 60 42 81 68 95 113 105 121 157 119 26 -2 56 2
67 8 97 55 146 78 174 80 18 2 44 11 57 19 13 9 101 45 194 82 156 60 221 90
360 167 91 50 122 59 182 59 11 0 70 22 130 50 59 28 137 65 173 82 36 16 88
36 115 43 85 22 189 64 215 88 31 28 158 88 173 83 12 -4 75 17 147 50 19 8
79 43 133 76 54 34 105 62 112 63 8 1 66 28 130 59 63 31 124 58 135 60 26 5
238 112 250 126 3 3 20 12 38 20 17 8 32 17 32 21 0 5 6 8 13 8 24 0 436 264
467 299 18 21 80 60 80 51 0 -20 58 22 101 72 28 33 45 46 53 40 18 -15 39 -2
118 73 41 39 96 88 124 110 56 45 238 226 272 270 12 16 22 36 22 45 0 8 40
56 87 105 103 107 133 148 126 174 -4 15 2 21 24 25 29 7 37 21 113 189 18 40
46 81 69 102 21 20 47 52 56 73 10 20 33 69 52 107 19 39 36 77 38 85 2 8 16
44 30 79 15 35 29 80 31 100 11 111 42 189 75 191 19 1 44 112 53 230 3 36 7
74 9 85 2 11 -1 31 -8 45 -7 14 -11 34 -9 45 12 67 12 80 -10 183 -3 13 2 31
11 42 9 11 18 40 19 65 2 26 7 52 13 58 13 17 5 132 -19 257 -7 36 -14 74 -15
85 -2 11 -8 40 -15 65 -7 25 -13 50 -15 55 -9 41 -18 65 -25 65 -7 0 -57 106
-58 124 0 5 -4 12 -9 15 -4 3 -20 31 -36 61 -39 78 -83 130 -107 125 -11 -2
-20 1 -20 6 0 10 -56 97 -69 109 -4 3 -31 39 -62 80 -31 41 -86 106 -123 144
-48 50 -66 76 -66 96 0 16 -11 39 -28 56 -62 63 -141 132 -171 150 -17 10 -31
21 -31 25 0 9 -50 23 -72 20 -10 -1 -64 27 -120 62 -57 36 -132 79 -168 98
-36 18 -72 38 -80 45 -8 6 -58 29 -110 49 -52 21 -99 41 -105 45 -20 15 -183
62 -256 75 -18 3 -35 8 -39 10 -4 3 -39 7 -78 10 -39 2 -75 5 -79 6 -23 4 -42
-4 -71 -27 -43 -36 -43 -73 1 -99 17 -11 35 -20 39 -20 4 0 13 -6 20 -12 6 -7
18 -13 25 -13 12 0 73 -37 161 -100 23 -16 47 -30 52 -30 4 0 10 -4 12 -9 4
-10 239 -158 271 -171 12 -4 38 -22 57 -40 41 -37 178 -135 190 -135 17 0 158
-108 167 -128 12 -25 61 -82 148 -171 33 -33 61 -64 61 -68 1 -5 2 -12 3 -17
0 -4 16 -27 34 -50 18 -23 33 -50 34 -60 2 -20 52 -103 66 -109 4 -2 7 -8 7
-14 0 -5 9 -23 21 -39 11 -16 17 -29 14 -29 -3 0 4 -15 17 -32 13 -18 22 -35
22 -38 -2 -6 5 -28 16 -55 5 -11 14 -38 21 -60 6 -22 18 -53 27 -69 8 -17 16
-59 18 -95 2 -37 6 -77 8 -91 3 -14 7 -36 10 -50 6 -31 17 -127 23 -200 2 -30
7 -77 9 -105 9 -81 6 -146 -7 -161 -6 -8 -9 -14 -5 -14 3 0 -2 -9 -11 -20 -9
-10 -18 -25 -19 -32 -1 -7 -4 -36 -8 -63 -18 -155 -64 -317 -103 -367 -5 -7
-36 -76 -68 -153 -89 -217 -181 -389 -213 -400 -17 -5 -62 -67 -62 -85 0 -5
-4 -10 -9 -10 -5 0 -8 -12 -8 -26 0 -15 -5 -29 -10 -33 -5 -3 -14 -13 -19 -22
-15 -28 -144 -168 -244 -265 -232 -226 -279 -267 -351 -309 -92 -53 -136 -89
-145 -118 -10 -32 -35 -47 -57 -36 -26 15 -51 4 -164 -73 -78 -53 -101 -73
-98 -88 3 -14 -9 -28 -43 -50 -25 -16 -48 -26 -52 -21 -7 12 -44 8 -85 -8 -16
-7 -31 -12 -33 -11 -1 0 -14 -13 -28 -30 -14 -16 -32 -30 -39 -30 -7 0 -15 -4
-17 -8 -5 -12 -68 -47 -278 -155 -247 -126 -280 -145 -306 -168 -11 -11 -23
-16 -27 -13 -11 11 -136 -45 -216 -96 -90 -58 -119 -70 -146 -60 -27 10 -67
-6 -96 -36 -12 -13 -26 -24 -31 -24 -9 0 -47 -16 -201 -89 -48 -23 -96 -43
-105 -44 -9 -2 -33 -10 -52 -19 -19 -8 -89 -36 -155 -62 -66 -26 -127 -51
-135 -56 -8 -6 -35 -20 -60 -33 -25 -12 -47 -25 -50 -28 -3 -4 -30 -9 -60 -13
-64 -8 -121 -26 -190 -61 -54 -27 -57 -25 -36 27 14 33 69 233 81 291 3 15 8
39 11 55 3 15 12 37 20 50 35 53 13 136 -52 198 -33 31 -67 44 -129 49 -16 1
-48 6 -70 10 -22 4 -50 8 -62 10 -12 2 -34 6 -50 9 -15 3 -50 8 -78 11 -106
11 -141 17 -180 27 -22 6 -46 13 -53 14 -8 1 -21 9 -30 17 -11 10 -50 17 -117
21 -118 7 -165 11 -222 20 -24 3 -60 8 -80 11 -21 3 -69 9 -108 15 -38 6 -97
13 -130 15 -139 11 -165 14 -176 21 -6 4 -37 8 -68 10 -60 3 -121 10 -161 19
-14 3 -36 8 -49 11 -14 3 -52 14 -85 26 -34 11 -68 21 -76 22 -8 2 -22 5 -30
8 -8 3 -55 20 -105 38 -122 44 -233 100 -335 171 -87 60 -105 74 -181 145 -83
76 -249 278 -249 303 0 5 -13 23 -30 39 -16 16 -42 56 -57 88 -15 33 -35 67
-44 78 -10 10 -22 30 -28 45 -47 121 -62 166 -82 231 -12 41 -23 84 -25 95 -1
11 -8 49 -14 85 -7 36 -13 121 -14 190 -1 69 -6 132 -11 140 -12 19 -10 122 3
146 5 11 12 42 16 69 3 28 8 73 11 100 3 28 8 61 10 75 2 14 9 54 14 90 6 36
13 76 16 90 4 14 8 36 11 50 2 14 7 32 10 40 3 8 7 30 10 48 9 72 91 283 163
422 24 47 51 100 60 118 8 17 19 32 23 32 4 0 8 5 8 11 0 9 89 154 113 184 4
6 41 55 81 110 41 55 87 114 103 132 15 17 36 43 46 57 10 13 37 44 59 68 22
24 52 59 66 78 42 56 160 167 257 241 50 37 95 72 100 76 6 5 26 20 45 33 19
14 42 30 50 37 8 6 56 41 105 77 50 36 95 69 101 73 50 38 152 85 173 80 9 -2
34 9 56 23 22 15 67 42 100 60 115 64 129 72 160 96 18 13 35 24 39 24 4 0 19
9 33 19 13 11 49 27 78 36 30 8 83 31 118 49 36 19 68 32 71 29 3 -3 11 -1 18
4 7 5 24 7 38 3 15 -3 58 3 103 16 43 12 79 22 80 21 2 0 4 0 217 67 262 82
308 92 439 101 41 2 77 9 81 15 3 5 25 12 49 14 24 2 47 9 50 15 4 7 38 10 89
8 50 -2 96 2 119 10 51 18 112 23 119 11 12 -19 15 -71 19 -283 3 -249 16
-310 75 -373 12 -12 23 -35 24 -50 4 -33 25 -32 106 6 57 27 59 28 113 77 48
43 86 75 92 75 6 0 96 61 112 77 7 6 22 15 33 18 11 3 20 11 20 16 0 5 6 9 14
9 8 0 16 3 18 8 2 4 21 19 44 35 54 36 102 87 83 87 -21 0 -107 -42 -181 -89
-36 -22 -70 -41 -77 -41 -6 0 -11 -4 -11 -8 0 -4 -15 -13 -32 -19 -32 -12 -32
-11 12 27 25 21 88 69 140 107 97 70 115 96 70 101 -31 3 -53 36 -45 63 6 17
65 58 65 44 0 -13 59 30 63 45 8 32 -10 49 -43 40 -28 -8 -105 -57 -132 -83
-15 -16 -88 -65 -126 -86 -13 -7 -41 -15 -61 -18 -43 -6 -62 11 -81 72 -7 22
-23 56 -36 75 -20 31 -22 40 -13 75 19 75 68 109 204 143 48 12 70 22 70 32 0
12 -17 15 -97 15 -54 0 -98 2 -98 5 0 3 28 14 63 23 135 39 254 97 241 118 -3
6 -12 8 -18 6 -7 -3 -19 -2 -26 3 -14 9 39 40 111 65 49 18 54 10 18 -29 -61
-65 -10 -83 116 -41 50 17 106 28 154 30 42 1 78 3 80 4 2 0 -3 11 -11 24 -24
37 -28 55 -14 66 10 9 23 2 55 -29 45 -42 46 -52 3 -74 -25 -12 -164 -50 -229
-62 -22 -4 -76 -17 -163 -39 -8 -2 -15 -4 -15 -5 0 -1 -11 -3 -24 -6 -14 -2
-30 -9 -38 -15 -7 -6 -13 -8 -13 -5 0 4 -9 2 -20 -4 -11 -6 -18 -15 -15 -20 6
-10 125 -3 180 11 22 6 47 12 55 14 8 2 47 11 85 20 39 9 99 16 133 16 65 0
172 -26 172 -42 0 -5 5 -9 10 -9 11 0 24 -9 60 -41 39 -36 111 -71 133 -65 29
7 77 52 77 72 0 12 -8 14 -33 10 -54 -9 -61 5 -29 50 46 63 57 69 142 70 114
2 165 12 194 39 30 28 32 38 11 55 -10 8 -15 30 -15 61 0 44 -4 53 -48 99 -26
27 -53 50 -60 50 -7 0 -12 4 -12 8 0 13 -86 51 -152 66 -136 31 -329 42 -372
20 -31 -15 -32 -15 -57 29 -5 9 -16 17 -24 17 -7 0 -15 4 -17 8 -3 10 -182
100 -288 146 -36 15 -74 32 -85 37 -76 34 -269 99 -295 99 -20 0 -166 44 -279
84 -41 15 -92 29 -115 32 -64 8 -159 12 -181 6z m472 -319 c70 -32 91 -37 109
-22 11 9 23 3 55 -26 33 -30 112 -75 139 -80 3 -1 23 -5 45 -9 57 -13 106 -14
138 -5 31 9 34 4 12 -17 -26 -26 -17 -40 45 -73 33 -18 60 -36 60 -40 0 -14
-44 -49 -82 -64 -31 -13 -39 -13 -55 -2 -16 12 -21 10 -45 -12 -25 -23 -36
-26 -110 -28 -138 -4 -288 -46 -288 -82 0 -62 -107 141 -126 240 -7 33 -7 52
0 127 2 28 -1 52 -10 64 -12 17 -11 22 3 38 22 24 42 23 110 -9z m1156 -525
c11 -30 -93 -92 -115 -70 -15 15 1 70 20 75 36 10 91 7 95 -5z"/>
<path d="M3686 7073 c-10 -25 7 -34 42 -22 20 7 29 15 25 25 -7 20 -59 18 -67
-3z"/>
<path d="M5678 6982 c-21 -4 -23 -25 -5 -40 26 -22 75 3 64 32 -6 14 -20 16
-59 8z"/>
<path d="M5190 6917 c-88 -33 -100 -41 -115 -74 -12 -26 -31 -41 -81 -64 -72
-34 -103 -74 -84 -109 6 -11 15 -20 20 -20 19 0 4 -26 -37 -64 -62 -56 -53
-86 19 -65 33 9 101 49 84 49 -22 0 23 32 92 66 42 20 93 54 112 75 19 20 67
53 105 72 39 20 78 42 89 50 18 13 17 15 -15 37 -19 13 -39 30 -46 38 -15 18
-106 24 -143 9z m29 -118 c-35 -30 -54 -36 -63 -20 -11 18 67 66 88 54 4 -3
-7 -18 -25 -34z"/>
<path d="M5295 6714 c-117 -67 -244 -153 -287 -195 -38 -37 -48 -59 -25 -55
22 4 91 39 123 63 17 13 35 23 41 23 5 0 18 9 28 20 10 11 22 20 26 20 5 0 17
6 26 14 10 8 45 35 78 60 33 24 71 56 84 70 23 24 23 26 5 26 -10 0 -55 -21
-99 -46z"/>
<path d="M3547 6574 c-1 -1 -20 -4 -42 -7 -22 -3 -52 -10 -65 -15 -14 -5 -28
-10 -33 -10 -39 -2 -88 -18 -155 -50 -57 -27 -11 -36 73 -14 22 6 51 13 65 16
14 2 52 14 85 25 33 11 67 21 76 21 9 0 24 9 34 20 18 20 18 20 -9 18 -15 -1
-28 -3 -29 -4z"/>
<path d="M2904 1068 c-29 -33 -74 -94 -74 -101 0 -3 -25 -47 -56 -98 -52 -87
-89 -167 -81 -176 4 -4 77 73 77 82 0 3 22 40 48 83 26 42 51 84 55 92 4 8 16
29 26 47 17 26 44 103 37 103 -1 0 -15 -15 -32 -32z"/>
</g>
</svg>
